M48
; DRILL file {KiCad (5.1.5)-3} date 19.07.2020 12:14:27
; FORMAT={2:4/ absolute / inch / suppress leading zeros}
; #@! TF.CreationDate,2020-07-19T12:14:27+02:00
; #@! TF.GenerationSoftware,Kicad,Pcbnew,(5.1.5)-3
; #@! TF.FileFunction,Plated,1,2,PTH
FMAT,2
INCH,TZ
T1C0.0157
T2C0.0394
%
G90
G05
T1
X26622Y-24961
X26622Y-43858
X27122Y-36461
X27122Y-55358
X27622Y-34961
X27622Y-53858
X27622Y-29711
X27622Y-48608
X28622Y-29711
X28622Y-48608
X29122Y-33461
X29122Y-52358
X29622Y-32961
X29622Y-51858
X30122Y-27961
X30122Y-46858
X30622Y-26461
X30622Y-45358
X31122Y-26961
X31122Y-45858
X31122Y-34961
X31122Y-53858
X31622Y-27461
X31622Y-34461
X31622Y-46358
X31622Y-53358
X32022Y-34961
X32022Y-53858
X32122Y-29711
X32122Y-31961
X32122Y-32461
X32122Y-32961
X32122Y-33461
X32122Y-48608
X32122Y-50858
X32122Y-51358
X32122Y-51858
X32122Y-52358
X32872Y-29711
X32872Y-48608
X33122Y-36211
X33122Y-55108
X33703Y-34661
X33703Y-53558
X33722Y-35061
X33722Y-53958
X34122Y-24961
X34122Y-43858
X34322Y-32561
X34322Y-51458
X34422Y-34461
X34422Y-35061
X34422Y-53358
X34422Y-53958
X34822Y-35761
X34822Y-54658
X34850Y-34149
X34850Y-53046
X34922Y-36861
X34922Y-55758
X35947Y-35044
X35947Y-53941
X36022Y-34161
X36022Y-53058
X36085Y-36139
X36085Y-55037
X36322Y-35361
X36322Y-54258
X40402Y-24961
X40402Y-43858
X40902Y-36461
X40902Y-55358
X41402Y-34961
X41402Y-53858
X41402Y-29711
X41402Y-48608
X42402Y-29711
X42402Y-48608
X42902Y-33461
X42902Y-52358
X43402Y-32961
X43402Y-51858
X43902Y-27961
X43902Y-46858
X44402Y-26461
X44402Y-45358
X44902Y-26961
X44902Y-45858
X44902Y-34961
X44902Y-53858
X45402Y-27461
X45402Y-34461
X45402Y-46358
X45402Y-53358
X45802Y-34961
X45802Y-53858
X45902Y-29711
X45902Y-31961
X45902Y-32461
X45902Y-32961
X45902Y-33461
X45902Y-48608
X45902Y-50858
X45902Y-51358
X45902Y-51858
X45902Y-52358
X46652Y-29711
X46652Y-48608
X46902Y-36211
X46902Y-55108
X47482Y-34661
X47482Y-53558
X47502Y-35061
X47502Y-53958
X47902Y-24961
X47902Y-43858
X48102Y-32561
X48102Y-51458
X48202Y-34461
X48202Y-35061
X48202Y-53358
X48202Y-53958
X48602Y-35761
X48602Y-54658
X48630Y-34149
X48630Y-53046
X48702Y-36861
X48702Y-55758
X49726Y-35044
X49726Y-53941
X49802Y-34161
X49802Y-53058
X49864Y-36139
X49864Y-55037
X50102Y-35361
X50102Y-54258
T2
X34122Y-45358
X34122Y-46358
X34122Y-47358
X34122Y-48358
X34122Y-49358
X35122Y-45358
X35122Y-46358
X35122Y-47358
X35122Y-48358
X35122Y-49358
X25122Y-45358
X25122Y-46358
X25122Y-47358
X25122Y-48358
X25122Y-49358
X26122Y-45358
X26122Y-46358
X26122Y-47358
X26122Y-48358
X26122Y-49358
X47902Y-26461
X47902Y-27461
X47902Y-28461
X47902Y-29461
X47902Y-30461
X48902Y-26461
X48902Y-27461
X48902Y-28461
X48902Y-29461
X48902Y-30461
X38902Y-45358
X38902Y-46358
X38902Y-47358
X38902Y-48358
X38902Y-49358
X39902Y-45358
X39902Y-46358
X39902Y-47358
X39902Y-48358
X39902Y-49358
X38902Y-26461
X38902Y-27461
X38902Y-28461
X38902Y-29461
X38902Y-30461
X39902Y-26461
X39902Y-27461
X39902Y-28461
X39902Y-29461
X39902Y-30461
X27122Y-41358
X27122Y-42358
X28122Y-41358
X28122Y-42358
X29122Y-41358
X29122Y-42358
X30122Y-41358
X30122Y-42358
X31122Y-41358
X31122Y-42358
X25122Y-50858
X25122Y-51858
X25122Y-52858
X26122Y-50858
X26122Y-51858
X26122Y-52858
X27122Y-22461
X27122Y-23461
X28122Y-22461
X28122Y-23461
X29122Y-22461
X29122Y-23461
X30122Y-22461
X30122Y-23461
X31122Y-22461
X31122Y-23461
X42902Y-36961
X42902Y-37961
X43902Y-36961
X43902Y-37961
X44902Y-36961
X44902Y-37961
X45902Y-36961
X45902Y-37961
X46902Y-36961
X46902Y-37961
X38902Y-50858
X38902Y-51858
X38902Y-52858
X39902Y-50858
X39902Y-51858
X39902Y-52858
X29122Y-36961
X29122Y-37961
X30122Y-36961
X30122Y-37961
X31122Y-36961
X31122Y-37961
X32122Y-36961
X32122Y-37961
X33122Y-36961
X33122Y-37961
X25122Y-26461
X25122Y-27461
X25122Y-28461
X25122Y-29461
X25122Y-30461
X26122Y-26461
X26122Y-27461
X26122Y-28461
X26122Y-29461
X26122Y-30461
X38902Y-31961
X38902Y-32961
X38902Y-33961
X39902Y-31961
X39902Y-32961
X39902Y-33961
X40902Y-41358
X40902Y-42358
X41902Y-41358
X41902Y-42358
X42902Y-41358
X42902Y-42358
X43902Y-41358
X43902Y-42358
X44902Y-41358
X44902Y-42358
X47902Y-45358
X47902Y-46358
X47902Y-47358
X47902Y-48358
X47902Y-49358
X48902Y-45358
X48902Y-46358
X48902Y-47358
X48902Y-48358
X48902Y-49358
X42902Y-55858
X42902Y-56858
X43902Y-55858
X43902Y-56858
X44902Y-55858
X44902Y-56858
X45902Y-55858
X45902Y-56858
X46902Y-55858
X46902Y-56858
X29122Y-55858
X29122Y-56858
X30122Y-55858
X30122Y-56858
X31122Y-55858
X31122Y-56858
X32122Y-55858
X32122Y-56858
X33122Y-55858
X33122Y-56858
X34122Y-26461
X34122Y-27461
X34122Y-28461
X34122Y-29461
X34122Y-30461
X35122Y-26461
X35122Y-27461
X35122Y-28461
X35122Y-29461
X35122Y-30461
X25122Y-31961
X25122Y-32961
X25122Y-33961
X26122Y-31961
X26122Y-32961
X26122Y-33961
X40902Y-22461
X40902Y-23461
X41902Y-22461
X41902Y-23461
X42902Y-22461
X42902Y-23461
X43902Y-22461
X43902Y-23461
X44902Y-22461
X44902Y-23461
T0
M30
