%TF.GenerationSoftware,KiCad,Pcbnew,(5.1.5)-3*%
%TF.CreationDate,2020-07-19T12:12:02+02:00*%
%TF.ProjectId,REM-MH_4,52454d2d-4d48-45f3-942e-6b696361645f,V1.0*%
%TF.SameCoordinates,Original*%
%TF.FileFunction,Legend,Bot*%
%TF.FilePolarity,Positive*%
%FSLAX46Y46*%
G04 Gerber Fmt 4.6, Leading zero omitted, Abs format (unit mm)*
G04 Created by KiCad (PCBNEW (5.1.5)-3) date 2020-07-19 12:12:02*
%MOMM*%
%LPD*%
G04 APERTURE LIST*
%ADD10C,0.070000*%
%ADD11C,0.120000*%
%ADD12C,0.500000*%
%ADD13C,0.150000*%
G04 APERTURE END LIST*
D10*
X80977833Y-111231666D02*
X81211166Y-110898333D01*
X81377833Y-111231666D02*
X81377833Y-110531666D01*
X81111166Y-110531666D01*
X81044500Y-110565000D01*
X81011166Y-110598333D01*
X80977833Y-110665000D01*
X80977833Y-110765000D01*
X81011166Y-110831666D01*
X81044500Y-110865000D01*
X81111166Y-110898333D01*
X81377833Y-110898333D01*
X80677833Y-110865000D02*
X80444500Y-110865000D01*
X80344500Y-111231666D02*
X80677833Y-111231666D01*
X80677833Y-110531666D01*
X80344500Y-110531666D01*
X80044500Y-111231666D02*
X80044500Y-110531666D01*
X79811166Y-111031666D01*
X79577833Y-110531666D01*
X79577833Y-111231666D01*
X79244500Y-110965000D02*
X78711166Y-110965000D01*
X78377833Y-111231666D02*
X78377833Y-110531666D01*
X78144500Y-111031666D01*
X77911166Y-110531666D01*
X77911166Y-111231666D01*
X77577833Y-111231666D02*
X77577833Y-110531666D01*
X77577833Y-110865000D02*
X77177833Y-110865000D01*
X77177833Y-111231666D02*
X77177833Y-110531666D01*
X76411166Y-110531666D02*
X76177833Y-111231666D01*
X75944500Y-110531666D01*
X75344500Y-111231666D02*
X75744500Y-111231666D01*
X75544500Y-111231666D02*
X75544500Y-110531666D01*
X75611166Y-110631666D01*
X75677833Y-110698333D01*
X75744500Y-110731666D01*
X75044500Y-111165000D02*
X75011166Y-111198333D01*
X75044500Y-111231666D01*
X75077833Y-111198333D01*
X75044500Y-111165000D01*
X75044500Y-111231666D01*
X74577833Y-110531666D02*
X74511166Y-110531666D01*
X74444500Y-110565000D01*
X74411166Y-110598333D01*
X74377833Y-110665000D01*
X74344500Y-110798333D01*
X74344500Y-110965000D01*
X74377833Y-111098333D01*
X74411166Y-111165000D01*
X74444500Y-111198333D01*
X74511166Y-111231666D01*
X74577833Y-111231666D01*
X74644500Y-111198333D01*
X74677833Y-111165000D01*
X74711166Y-111098333D01*
X74744500Y-110965000D01*
X74744500Y-110798333D01*
X74711166Y-110665000D01*
X74677833Y-110598333D01*
X74644500Y-110565000D01*
X74577833Y-110531666D01*
X81011166Y-112351666D02*
X81411166Y-112351666D01*
X81211166Y-112351666D02*
X81211166Y-111651666D01*
X81277833Y-111751666D01*
X81344500Y-111818333D01*
X81411166Y-111851666D01*
X80677833Y-112351666D02*
X80544500Y-112351666D01*
X80477833Y-112318333D01*
X80444500Y-112285000D01*
X80377833Y-112185000D01*
X80344500Y-112051666D01*
X80344500Y-111785000D01*
X80377833Y-111718333D01*
X80411166Y-111685000D01*
X80477833Y-111651666D01*
X80611166Y-111651666D01*
X80677833Y-111685000D01*
X80711166Y-111718333D01*
X80744500Y-111785000D01*
X80744500Y-111951666D01*
X80711166Y-112018333D01*
X80677833Y-112051666D01*
X80611166Y-112085000D01*
X80477833Y-112085000D01*
X80411166Y-112051666D01*
X80377833Y-112018333D01*
X80344500Y-111951666D01*
X80044500Y-112285000D02*
X80011166Y-112318333D01*
X80044500Y-112351666D01*
X80077833Y-112318333D01*
X80044500Y-112285000D01*
X80044500Y-112351666D01*
X79777833Y-111651666D02*
X79311166Y-111651666D01*
X79611166Y-112351666D01*
X79044500Y-112285000D02*
X79011166Y-112318333D01*
X79044500Y-112351666D01*
X79077833Y-112318333D01*
X79044500Y-112285000D01*
X79044500Y-112351666D01*
X78744500Y-111718333D02*
X78711166Y-111685000D01*
X78644500Y-111651666D01*
X78477833Y-111651666D01*
X78411166Y-111685000D01*
X78377833Y-111718333D01*
X78344500Y-111785000D01*
X78344500Y-111851666D01*
X78377833Y-111951666D01*
X78777833Y-112351666D01*
X78344500Y-112351666D01*
X77911166Y-111651666D02*
X77844500Y-111651666D01*
X77777833Y-111685000D01*
X77744500Y-111718333D01*
X77711166Y-111785000D01*
X77677833Y-111918333D01*
X77677833Y-112085000D01*
X77711166Y-112218333D01*
X77744500Y-112285000D01*
X77777833Y-112318333D01*
X77844500Y-112351666D01*
X77911166Y-112351666D01*
X77977833Y-112318333D01*
X78011166Y-112285000D01*
X78044500Y-112218333D01*
X78077833Y-112085000D01*
X78077833Y-111918333D01*
X78044500Y-111785000D01*
X78011166Y-111718333D01*
X77977833Y-111685000D01*
X77911166Y-111651666D01*
X77411166Y-111718333D02*
X77377833Y-111685000D01*
X77311166Y-111651666D01*
X77144500Y-111651666D01*
X77077833Y-111685000D01*
X77044500Y-111718333D01*
X77011166Y-111785000D01*
X77011166Y-111851666D01*
X77044500Y-111951666D01*
X77444500Y-112351666D01*
X77011166Y-112351666D01*
X76577833Y-111651666D02*
X76511166Y-111651666D01*
X76444500Y-111685000D01*
X76411166Y-111718333D01*
X76377833Y-111785000D01*
X76344500Y-111918333D01*
X76344500Y-112085000D01*
X76377833Y-112218333D01*
X76411166Y-112285000D01*
X76444500Y-112318333D01*
X76511166Y-112351666D01*
X76577833Y-112351666D01*
X76644500Y-112318333D01*
X76677833Y-112285000D01*
X76711166Y-112218333D01*
X76744500Y-112085000D01*
X76744500Y-111918333D01*
X76711166Y-111785000D01*
X76677833Y-111718333D01*
X76644500Y-111685000D01*
X76577833Y-111651666D01*
X81177833Y-113738333D02*
X81211166Y-113705000D01*
X81277833Y-113605000D01*
X81311166Y-113538333D01*
X81344500Y-113438333D01*
X81377833Y-113271666D01*
X81377833Y-113138333D01*
X81344500Y-112971666D01*
X81311166Y-112871666D01*
X81277833Y-112805000D01*
X81211166Y-112705000D01*
X81177833Y-112671666D01*
X80611166Y-113438333D02*
X80677833Y-113471666D01*
X80811166Y-113471666D01*
X80877833Y-113438333D01*
X80911166Y-113405000D01*
X80944500Y-113338333D01*
X80944500Y-113138333D01*
X80911166Y-113071666D01*
X80877833Y-113038333D01*
X80811166Y-113005000D01*
X80677833Y-113005000D01*
X80611166Y-113038333D01*
X80377833Y-113738333D02*
X80344500Y-113705000D01*
X80277833Y-113605000D01*
X80244500Y-113538333D01*
X80211166Y-113438333D01*
X80177833Y-113271666D01*
X80177833Y-113138333D01*
X80211166Y-112971666D01*
X80244500Y-112871666D01*
X80277833Y-112805000D01*
X80344500Y-112705000D01*
X80377833Y-112671666D01*
X78911166Y-113471666D02*
X79144500Y-113138333D01*
X79311166Y-113471666D02*
X79311166Y-112771666D01*
X79044500Y-112771666D01*
X78977833Y-112805000D01*
X78944500Y-112838333D01*
X78911166Y-112905000D01*
X78911166Y-113005000D01*
X78944500Y-113071666D01*
X78977833Y-113105000D01*
X79044500Y-113138333D01*
X79311166Y-113138333D01*
X78311166Y-113471666D02*
X78311166Y-113105000D01*
X78344500Y-113038333D01*
X78411166Y-113005000D01*
X78544500Y-113005000D01*
X78611166Y-113038333D01*
X78311166Y-113438333D02*
X78377833Y-113471666D01*
X78544500Y-113471666D01*
X78611166Y-113438333D01*
X78644500Y-113371666D01*
X78644500Y-113305000D01*
X78611166Y-113238333D01*
X78544500Y-113205000D01*
X78377833Y-113205000D01*
X78311166Y-113171666D01*
X77977833Y-113471666D02*
X77977833Y-113005000D01*
X77977833Y-112771666D02*
X78011166Y-112805000D01*
X77977833Y-112838333D01*
X77944500Y-112805000D01*
X77977833Y-112771666D01*
X77977833Y-112838333D01*
X77644500Y-113005000D02*
X77644500Y-113471666D01*
X77644500Y-113071666D02*
X77611166Y-113038333D01*
X77544500Y-113005000D01*
X77444500Y-113005000D01*
X77377833Y-113038333D01*
X77344500Y-113105000D01*
X77344500Y-113471666D01*
X76744500Y-113438333D02*
X76811166Y-113471666D01*
X76944500Y-113471666D01*
X77011166Y-113438333D01*
X77044500Y-113371666D01*
X77044500Y-113105000D01*
X77011166Y-113038333D01*
X76944500Y-113005000D01*
X76811166Y-113005000D01*
X76744500Y-113038333D01*
X76711166Y-113105000D01*
X76711166Y-113171666D01*
X77044500Y-113238333D01*
X76411166Y-113471666D02*
X76411166Y-113005000D01*
X76411166Y-113138333D02*
X76377833Y-113071666D01*
X76344500Y-113038333D01*
X76277833Y-113005000D01*
X76211166Y-113005000D01*
X75444500Y-113471666D02*
X75444500Y-112771666D01*
X75177833Y-112771666D01*
X75111166Y-112805000D01*
X75077833Y-112838333D01*
X75044500Y-112905000D01*
X75044500Y-113005000D01*
X75077833Y-113071666D01*
X75111166Y-113105000D01*
X75177833Y-113138333D01*
X75444500Y-113138333D01*
X74477833Y-113438333D02*
X74544500Y-113471666D01*
X74677833Y-113471666D01*
X74744500Y-113438333D01*
X74777833Y-113371666D01*
X74777833Y-113105000D01*
X74744500Y-113038333D01*
X74677833Y-113005000D01*
X74544500Y-113005000D01*
X74477833Y-113038333D01*
X74444500Y-113105000D01*
X74444500Y-113171666D01*
X74777833Y-113238333D01*
X74244500Y-113005000D02*
X73977833Y-113005000D01*
X74144500Y-112771666D02*
X74144500Y-113371666D01*
X74111166Y-113438333D01*
X74044500Y-113471666D01*
X73977833Y-113471666D01*
X73811166Y-113005000D02*
X73444500Y-113005000D01*
X73811166Y-113471666D01*
X73444500Y-113471666D01*
X73077833Y-113471666D02*
X73144500Y-113438333D01*
X73177833Y-113405000D01*
X73211166Y-113338333D01*
X73211166Y-113138333D01*
X73177833Y-113071666D01*
X73144500Y-113038333D01*
X73077833Y-113005000D01*
X72977833Y-113005000D01*
X72911166Y-113038333D01*
X72877833Y-113071666D01*
X72844500Y-113138333D01*
X72844500Y-113338333D01*
X72877833Y-113405000D01*
X72911166Y-113438333D01*
X72977833Y-113471666D01*
X73077833Y-113471666D01*
X72444500Y-113471666D02*
X72511166Y-113438333D01*
X72544500Y-113371666D01*
X72544500Y-112771666D01*
X71877833Y-113471666D02*
X71877833Y-112771666D01*
X71877833Y-113438333D02*
X71944500Y-113471666D01*
X72077833Y-113471666D01*
X72144500Y-113438333D01*
X72177833Y-113405000D01*
X72211166Y-113338333D01*
X72211166Y-113138333D01*
X72177833Y-113071666D01*
X72144500Y-113038333D01*
X72077833Y-113005000D01*
X71944500Y-113005000D01*
X71877833Y-113038333D01*
X71644500Y-113005000D02*
X71377833Y-113005000D01*
X71544500Y-112771666D02*
X71544500Y-113371666D01*
X71511166Y-113438333D01*
X71444500Y-113471666D01*
X71377833Y-113471666D01*
X115977833Y-111231666D02*
X116211166Y-110898333D01*
X116377833Y-111231666D02*
X116377833Y-110531666D01*
X116111166Y-110531666D01*
X116044500Y-110565000D01*
X116011166Y-110598333D01*
X115977833Y-110665000D01*
X115977833Y-110765000D01*
X116011166Y-110831666D01*
X116044500Y-110865000D01*
X116111166Y-110898333D01*
X116377833Y-110898333D01*
X115677833Y-110865000D02*
X115444500Y-110865000D01*
X115344500Y-111231666D02*
X115677833Y-111231666D01*
X115677833Y-110531666D01*
X115344500Y-110531666D01*
X115044500Y-111231666D02*
X115044500Y-110531666D01*
X114811166Y-111031666D01*
X114577833Y-110531666D01*
X114577833Y-111231666D01*
X114244500Y-110965000D02*
X113711166Y-110965000D01*
X113377833Y-111231666D02*
X113377833Y-110531666D01*
X113144500Y-111031666D01*
X112911166Y-110531666D01*
X112911166Y-111231666D01*
X112577833Y-111231666D02*
X112577833Y-110531666D01*
X112577833Y-110865000D02*
X112177833Y-110865000D01*
X112177833Y-111231666D02*
X112177833Y-110531666D01*
X111411166Y-110531666D02*
X111177833Y-111231666D01*
X110944500Y-110531666D01*
X110344500Y-111231666D02*
X110744500Y-111231666D01*
X110544500Y-111231666D02*
X110544500Y-110531666D01*
X110611166Y-110631666D01*
X110677833Y-110698333D01*
X110744500Y-110731666D01*
X110044500Y-111165000D02*
X110011166Y-111198333D01*
X110044500Y-111231666D01*
X110077833Y-111198333D01*
X110044500Y-111165000D01*
X110044500Y-111231666D01*
X109577833Y-110531666D02*
X109511166Y-110531666D01*
X109444500Y-110565000D01*
X109411166Y-110598333D01*
X109377833Y-110665000D01*
X109344500Y-110798333D01*
X109344500Y-110965000D01*
X109377833Y-111098333D01*
X109411166Y-111165000D01*
X109444500Y-111198333D01*
X109511166Y-111231666D01*
X109577833Y-111231666D01*
X109644500Y-111198333D01*
X109677833Y-111165000D01*
X109711166Y-111098333D01*
X109744500Y-110965000D01*
X109744500Y-110798333D01*
X109711166Y-110665000D01*
X109677833Y-110598333D01*
X109644500Y-110565000D01*
X109577833Y-110531666D01*
X116011166Y-112351666D02*
X116411166Y-112351666D01*
X116211166Y-112351666D02*
X116211166Y-111651666D01*
X116277833Y-111751666D01*
X116344500Y-111818333D01*
X116411166Y-111851666D01*
X115677833Y-112351666D02*
X115544500Y-112351666D01*
X115477833Y-112318333D01*
X115444500Y-112285000D01*
X115377833Y-112185000D01*
X115344500Y-112051666D01*
X115344500Y-111785000D01*
X115377833Y-111718333D01*
X115411166Y-111685000D01*
X115477833Y-111651666D01*
X115611166Y-111651666D01*
X115677833Y-111685000D01*
X115711166Y-111718333D01*
X115744500Y-111785000D01*
X115744500Y-111951666D01*
X115711166Y-112018333D01*
X115677833Y-112051666D01*
X115611166Y-112085000D01*
X115477833Y-112085000D01*
X115411166Y-112051666D01*
X115377833Y-112018333D01*
X115344500Y-111951666D01*
X115044500Y-112285000D02*
X115011166Y-112318333D01*
X115044500Y-112351666D01*
X115077833Y-112318333D01*
X115044500Y-112285000D01*
X115044500Y-112351666D01*
X114777833Y-111651666D02*
X114311166Y-111651666D01*
X114611166Y-112351666D01*
X114044500Y-112285000D02*
X114011166Y-112318333D01*
X114044500Y-112351666D01*
X114077833Y-112318333D01*
X114044500Y-112285000D01*
X114044500Y-112351666D01*
X113744500Y-111718333D02*
X113711166Y-111685000D01*
X113644500Y-111651666D01*
X113477833Y-111651666D01*
X113411166Y-111685000D01*
X113377833Y-111718333D01*
X113344500Y-111785000D01*
X113344500Y-111851666D01*
X113377833Y-111951666D01*
X113777833Y-112351666D01*
X113344500Y-112351666D01*
X112911166Y-111651666D02*
X112844500Y-111651666D01*
X112777833Y-111685000D01*
X112744500Y-111718333D01*
X112711166Y-111785000D01*
X112677833Y-111918333D01*
X112677833Y-112085000D01*
X112711166Y-112218333D01*
X112744500Y-112285000D01*
X112777833Y-112318333D01*
X112844500Y-112351666D01*
X112911166Y-112351666D01*
X112977833Y-112318333D01*
X113011166Y-112285000D01*
X113044500Y-112218333D01*
X113077833Y-112085000D01*
X113077833Y-111918333D01*
X113044500Y-111785000D01*
X113011166Y-111718333D01*
X112977833Y-111685000D01*
X112911166Y-111651666D01*
X112411166Y-111718333D02*
X112377833Y-111685000D01*
X112311166Y-111651666D01*
X112144500Y-111651666D01*
X112077833Y-111685000D01*
X112044500Y-111718333D01*
X112011166Y-111785000D01*
X112011166Y-111851666D01*
X112044500Y-111951666D01*
X112444500Y-112351666D01*
X112011166Y-112351666D01*
X111577833Y-111651666D02*
X111511166Y-111651666D01*
X111444500Y-111685000D01*
X111411166Y-111718333D01*
X111377833Y-111785000D01*
X111344500Y-111918333D01*
X111344500Y-112085000D01*
X111377833Y-112218333D01*
X111411166Y-112285000D01*
X111444500Y-112318333D01*
X111511166Y-112351666D01*
X111577833Y-112351666D01*
X111644500Y-112318333D01*
X111677833Y-112285000D01*
X111711166Y-112218333D01*
X111744500Y-112085000D01*
X111744500Y-111918333D01*
X111711166Y-111785000D01*
X111677833Y-111718333D01*
X111644500Y-111685000D01*
X111577833Y-111651666D01*
X116177833Y-113738333D02*
X116211166Y-113705000D01*
X116277833Y-113605000D01*
X116311166Y-113538333D01*
X116344500Y-113438333D01*
X116377833Y-113271666D01*
X116377833Y-113138333D01*
X116344500Y-112971666D01*
X116311166Y-112871666D01*
X116277833Y-112805000D01*
X116211166Y-112705000D01*
X116177833Y-112671666D01*
X115611166Y-113438333D02*
X115677833Y-113471666D01*
X115811166Y-113471666D01*
X115877833Y-113438333D01*
X115911166Y-113405000D01*
X115944500Y-113338333D01*
X115944500Y-113138333D01*
X115911166Y-113071666D01*
X115877833Y-113038333D01*
X115811166Y-113005000D01*
X115677833Y-113005000D01*
X115611166Y-113038333D01*
X115377833Y-113738333D02*
X115344500Y-113705000D01*
X115277833Y-113605000D01*
X115244500Y-113538333D01*
X115211166Y-113438333D01*
X115177833Y-113271666D01*
X115177833Y-113138333D01*
X115211166Y-112971666D01*
X115244500Y-112871666D01*
X115277833Y-112805000D01*
X115344500Y-112705000D01*
X115377833Y-112671666D01*
X113911166Y-113471666D02*
X114144500Y-113138333D01*
X114311166Y-113471666D02*
X114311166Y-112771666D01*
X114044500Y-112771666D01*
X113977833Y-112805000D01*
X113944500Y-112838333D01*
X113911166Y-112905000D01*
X113911166Y-113005000D01*
X113944500Y-113071666D01*
X113977833Y-113105000D01*
X114044500Y-113138333D01*
X114311166Y-113138333D01*
X113311166Y-113471666D02*
X113311166Y-113105000D01*
X113344500Y-113038333D01*
X113411166Y-113005000D01*
X113544500Y-113005000D01*
X113611166Y-113038333D01*
X113311166Y-113438333D02*
X113377833Y-113471666D01*
X113544500Y-113471666D01*
X113611166Y-113438333D01*
X113644500Y-113371666D01*
X113644500Y-113305000D01*
X113611166Y-113238333D01*
X113544500Y-113205000D01*
X113377833Y-113205000D01*
X113311166Y-113171666D01*
X112977833Y-113471666D02*
X112977833Y-113005000D01*
X112977833Y-112771666D02*
X113011166Y-112805000D01*
X112977833Y-112838333D01*
X112944500Y-112805000D01*
X112977833Y-112771666D01*
X112977833Y-112838333D01*
X112644500Y-113005000D02*
X112644500Y-113471666D01*
X112644500Y-113071666D02*
X112611166Y-113038333D01*
X112544500Y-113005000D01*
X112444500Y-113005000D01*
X112377833Y-113038333D01*
X112344500Y-113105000D01*
X112344500Y-113471666D01*
X111744500Y-113438333D02*
X111811166Y-113471666D01*
X111944500Y-113471666D01*
X112011166Y-113438333D01*
X112044500Y-113371666D01*
X112044500Y-113105000D01*
X112011166Y-113038333D01*
X111944500Y-113005000D01*
X111811166Y-113005000D01*
X111744500Y-113038333D01*
X111711166Y-113105000D01*
X111711166Y-113171666D01*
X112044500Y-113238333D01*
X111411166Y-113471666D02*
X111411166Y-113005000D01*
X111411166Y-113138333D02*
X111377833Y-113071666D01*
X111344500Y-113038333D01*
X111277833Y-113005000D01*
X111211166Y-113005000D01*
X110444500Y-113471666D02*
X110444500Y-112771666D01*
X110177833Y-112771666D01*
X110111166Y-112805000D01*
X110077833Y-112838333D01*
X110044500Y-112905000D01*
X110044500Y-113005000D01*
X110077833Y-113071666D01*
X110111166Y-113105000D01*
X110177833Y-113138333D01*
X110444500Y-113138333D01*
X109477833Y-113438333D02*
X109544500Y-113471666D01*
X109677833Y-113471666D01*
X109744500Y-113438333D01*
X109777833Y-113371666D01*
X109777833Y-113105000D01*
X109744500Y-113038333D01*
X109677833Y-113005000D01*
X109544500Y-113005000D01*
X109477833Y-113038333D01*
X109444500Y-113105000D01*
X109444500Y-113171666D01*
X109777833Y-113238333D01*
X109244500Y-113005000D02*
X108977833Y-113005000D01*
X109144500Y-112771666D02*
X109144500Y-113371666D01*
X109111166Y-113438333D01*
X109044500Y-113471666D01*
X108977833Y-113471666D01*
X108811166Y-113005000D02*
X108444500Y-113005000D01*
X108811166Y-113471666D01*
X108444500Y-113471666D01*
X108077833Y-113471666D02*
X108144500Y-113438333D01*
X108177833Y-113405000D01*
X108211166Y-113338333D01*
X108211166Y-113138333D01*
X108177833Y-113071666D01*
X108144500Y-113038333D01*
X108077833Y-113005000D01*
X107977833Y-113005000D01*
X107911166Y-113038333D01*
X107877833Y-113071666D01*
X107844500Y-113138333D01*
X107844500Y-113338333D01*
X107877833Y-113405000D01*
X107911166Y-113438333D01*
X107977833Y-113471666D01*
X108077833Y-113471666D01*
X107444500Y-113471666D02*
X107511166Y-113438333D01*
X107544500Y-113371666D01*
X107544500Y-112771666D01*
X106877833Y-113471666D02*
X106877833Y-112771666D01*
X106877833Y-113438333D02*
X106944500Y-113471666D01*
X107077833Y-113471666D01*
X107144500Y-113438333D01*
X107177833Y-113405000D01*
X107211166Y-113338333D01*
X107211166Y-113138333D01*
X107177833Y-113071666D01*
X107144500Y-113038333D01*
X107077833Y-113005000D01*
X106944500Y-113005000D01*
X106877833Y-113038333D01*
X106644500Y-113005000D02*
X106377833Y-113005000D01*
X106544500Y-112771666D02*
X106544500Y-113371666D01*
X106511166Y-113438333D01*
X106444500Y-113471666D01*
X106377833Y-113471666D01*
X115977833Y-63231666D02*
X116211166Y-62898333D01*
X116377833Y-63231666D02*
X116377833Y-62531666D01*
X116111166Y-62531666D01*
X116044500Y-62565000D01*
X116011166Y-62598333D01*
X115977833Y-62665000D01*
X115977833Y-62765000D01*
X116011166Y-62831666D01*
X116044500Y-62865000D01*
X116111166Y-62898333D01*
X116377833Y-62898333D01*
X115677833Y-62865000D02*
X115444500Y-62865000D01*
X115344500Y-63231666D02*
X115677833Y-63231666D01*
X115677833Y-62531666D01*
X115344500Y-62531666D01*
X115044500Y-63231666D02*
X115044500Y-62531666D01*
X114811166Y-63031666D01*
X114577833Y-62531666D01*
X114577833Y-63231666D01*
X114244500Y-62965000D02*
X113711166Y-62965000D01*
X113377833Y-63231666D02*
X113377833Y-62531666D01*
X113144500Y-63031666D01*
X112911166Y-62531666D01*
X112911166Y-63231666D01*
X112577833Y-63231666D02*
X112577833Y-62531666D01*
X112577833Y-62865000D02*
X112177833Y-62865000D01*
X112177833Y-63231666D02*
X112177833Y-62531666D01*
X111411166Y-62531666D02*
X111177833Y-63231666D01*
X110944500Y-62531666D01*
X110344500Y-63231666D02*
X110744500Y-63231666D01*
X110544500Y-63231666D02*
X110544500Y-62531666D01*
X110611166Y-62631666D01*
X110677833Y-62698333D01*
X110744500Y-62731666D01*
X110044500Y-63165000D02*
X110011166Y-63198333D01*
X110044500Y-63231666D01*
X110077833Y-63198333D01*
X110044500Y-63165000D01*
X110044500Y-63231666D01*
X109577833Y-62531666D02*
X109511166Y-62531666D01*
X109444500Y-62565000D01*
X109411166Y-62598333D01*
X109377833Y-62665000D01*
X109344500Y-62798333D01*
X109344500Y-62965000D01*
X109377833Y-63098333D01*
X109411166Y-63165000D01*
X109444500Y-63198333D01*
X109511166Y-63231666D01*
X109577833Y-63231666D01*
X109644500Y-63198333D01*
X109677833Y-63165000D01*
X109711166Y-63098333D01*
X109744500Y-62965000D01*
X109744500Y-62798333D01*
X109711166Y-62665000D01*
X109677833Y-62598333D01*
X109644500Y-62565000D01*
X109577833Y-62531666D01*
X116011166Y-64351666D02*
X116411166Y-64351666D01*
X116211166Y-64351666D02*
X116211166Y-63651666D01*
X116277833Y-63751666D01*
X116344500Y-63818333D01*
X116411166Y-63851666D01*
X115677833Y-64351666D02*
X115544500Y-64351666D01*
X115477833Y-64318333D01*
X115444500Y-64285000D01*
X115377833Y-64185000D01*
X115344500Y-64051666D01*
X115344500Y-63785000D01*
X115377833Y-63718333D01*
X115411166Y-63685000D01*
X115477833Y-63651666D01*
X115611166Y-63651666D01*
X115677833Y-63685000D01*
X115711166Y-63718333D01*
X115744500Y-63785000D01*
X115744500Y-63951666D01*
X115711166Y-64018333D01*
X115677833Y-64051666D01*
X115611166Y-64085000D01*
X115477833Y-64085000D01*
X115411166Y-64051666D01*
X115377833Y-64018333D01*
X115344500Y-63951666D01*
X115044500Y-64285000D02*
X115011166Y-64318333D01*
X115044500Y-64351666D01*
X115077833Y-64318333D01*
X115044500Y-64285000D01*
X115044500Y-64351666D01*
X114777833Y-63651666D02*
X114311166Y-63651666D01*
X114611166Y-64351666D01*
X114044500Y-64285000D02*
X114011166Y-64318333D01*
X114044500Y-64351666D01*
X114077833Y-64318333D01*
X114044500Y-64285000D01*
X114044500Y-64351666D01*
X113744500Y-63718333D02*
X113711166Y-63685000D01*
X113644500Y-63651666D01*
X113477833Y-63651666D01*
X113411166Y-63685000D01*
X113377833Y-63718333D01*
X113344500Y-63785000D01*
X113344500Y-63851666D01*
X113377833Y-63951666D01*
X113777833Y-64351666D01*
X113344500Y-64351666D01*
X112911166Y-63651666D02*
X112844500Y-63651666D01*
X112777833Y-63685000D01*
X112744500Y-63718333D01*
X112711166Y-63785000D01*
X112677833Y-63918333D01*
X112677833Y-64085000D01*
X112711166Y-64218333D01*
X112744500Y-64285000D01*
X112777833Y-64318333D01*
X112844500Y-64351666D01*
X112911166Y-64351666D01*
X112977833Y-64318333D01*
X113011166Y-64285000D01*
X113044500Y-64218333D01*
X113077833Y-64085000D01*
X113077833Y-63918333D01*
X113044500Y-63785000D01*
X113011166Y-63718333D01*
X112977833Y-63685000D01*
X112911166Y-63651666D01*
X112411166Y-63718333D02*
X112377833Y-63685000D01*
X112311166Y-63651666D01*
X112144500Y-63651666D01*
X112077833Y-63685000D01*
X112044500Y-63718333D01*
X112011166Y-63785000D01*
X112011166Y-63851666D01*
X112044500Y-63951666D01*
X112444500Y-64351666D01*
X112011166Y-64351666D01*
X111577833Y-63651666D02*
X111511166Y-63651666D01*
X111444500Y-63685000D01*
X111411166Y-63718333D01*
X111377833Y-63785000D01*
X111344500Y-63918333D01*
X111344500Y-64085000D01*
X111377833Y-64218333D01*
X111411166Y-64285000D01*
X111444500Y-64318333D01*
X111511166Y-64351666D01*
X111577833Y-64351666D01*
X111644500Y-64318333D01*
X111677833Y-64285000D01*
X111711166Y-64218333D01*
X111744500Y-64085000D01*
X111744500Y-63918333D01*
X111711166Y-63785000D01*
X111677833Y-63718333D01*
X111644500Y-63685000D01*
X111577833Y-63651666D01*
X116177833Y-65738333D02*
X116211166Y-65705000D01*
X116277833Y-65605000D01*
X116311166Y-65538333D01*
X116344500Y-65438333D01*
X116377833Y-65271666D01*
X116377833Y-65138333D01*
X116344500Y-64971666D01*
X116311166Y-64871666D01*
X116277833Y-64805000D01*
X116211166Y-64705000D01*
X116177833Y-64671666D01*
X115611166Y-65438333D02*
X115677833Y-65471666D01*
X115811166Y-65471666D01*
X115877833Y-65438333D01*
X115911166Y-65405000D01*
X115944500Y-65338333D01*
X115944500Y-65138333D01*
X115911166Y-65071666D01*
X115877833Y-65038333D01*
X115811166Y-65005000D01*
X115677833Y-65005000D01*
X115611166Y-65038333D01*
X115377833Y-65738333D02*
X115344500Y-65705000D01*
X115277833Y-65605000D01*
X115244500Y-65538333D01*
X115211166Y-65438333D01*
X115177833Y-65271666D01*
X115177833Y-65138333D01*
X115211166Y-64971666D01*
X115244500Y-64871666D01*
X115277833Y-64805000D01*
X115344500Y-64705000D01*
X115377833Y-64671666D01*
X113911166Y-65471666D02*
X114144500Y-65138333D01*
X114311166Y-65471666D02*
X114311166Y-64771666D01*
X114044500Y-64771666D01*
X113977833Y-64805000D01*
X113944500Y-64838333D01*
X113911166Y-64905000D01*
X113911166Y-65005000D01*
X113944500Y-65071666D01*
X113977833Y-65105000D01*
X114044500Y-65138333D01*
X114311166Y-65138333D01*
X113311166Y-65471666D02*
X113311166Y-65105000D01*
X113344500Y-65038333D01*
X113411166Y-65005000D01*
X113544500Y-65005000D01*
X113611166Y-65038333D01*
X113311166Y-65438333D02*
X113377833Y-65471666D01*
X113544500Y-65471666D01*
X113611166Y-65438333D01*
X113644500Y-65371666D01*
X113644500Y-65305000D01*
X113611166Y-65238333D01*
X113544500Y-65205000D01*
X113377833Y-65205000D01*
X113311166Y-65171666D01*
X112977833Y-65471666D02*
X112977833Y-65005000D01*
X112977833Y-64771666D02*
X113011166Y-64805000D01*
X112977833Y-64838333D01*
X112944500Y-64805000D01*
X112977833Y-64771666D01*
X112977833Y-64838333D01*
X112644500Y-65005000D02*
X112644500Y-65471666D01*
X112644500Y-65071666D02*
X112611166Y-65038333D01*
X112544500Y-65005000D01*
X112444500Y-65005000D01*
X112377833Y-65038333D01*
X112344500Y-65105000D01*
X112344500Y-65471666D01*
X111744500Y-65438333D02*
X111811166Y-65471666D01*
X111944500Y-65471666D01*
X112011166Y-65438333D01*
X112044500Y-65371666D01*
X112044500Y-65105000D01*
X112011166Y-65038333D01*
X111944500Y-65005000D01*
X111811166Y-65005000D01*
X111744500Y-65038333D01*
X111711166Y-65105000D01*
X111711166Y-65171666D01*
X112044500Y-65238333D01*
X111411166Y-65471666D02*
X111411166Y-65005000D01*
X111411166Y-65138333D02*
X111377833Y-65071666D01*
X111344500Y-65038333D01*
X111277833Y-65005000D01*
X111211166Y-65005000D01*
X110444500Y-65471666D02*
X110444500Y-64771666D01*
X110177833Y-64771666D01*
X110111166Y-64805000D01*
X110077833Y-64838333D01*
X110044500Y-64905000D01*
X110044500Y-65005000D01*
X110077833Y-65071666D01*
X110111166Y-65105000D01*
X110177833Y-65138333D01*
X110444500Y-65138333D01*
X109477833Y-65438333D02*
X109544500Y-65471666D01*
X109677833Y-65471666D01*
X109744500Y-65438333D01*
X109777833Y-65371666D01*
X109777833Y-65105000D01*
X109744500Y-65038333D01*
X109677833Y-65005000D01*
X109544500Y-65005000D01*
X109477833Y-65038333D01*
X109444500Y-65105000D01*
X109444500Y-65171666D01*
X109777833Y-65238333D01*
X109244500Y-65005000D02*
X108977833Y-65005000D01*
X109144500Y-64771666D02*
X109144500Y-65371666D01*
X109111166Y-65438333D01*
X109044500Y-65471666D01*
X108977833Y-65471666D01*
X108811166Y-65005000D02*
X108444500Y-65005000D01*
X108811166Y-65471666D01*
X108444500Y-65471666D01*
X108077833Y-65471666D02*
X108144500Y-65438333D01*
X108177833Y-65405000D01*
X108211166Y-65338333D01*
X108211166Y-65138333D01*
X108177833Y-65071666D01*
X108144500Y-65038333D01*
X108077833Y-65005000D01*
X107977833Y-65005000D01*
X107911166Y-65038333D01*
X107877833Y-65071666D01*
X107844500Y-65138333D01*
X107844500Y-65338333D01*
X107877833Y-65405000D01*
X107911166Y-65438333D01*
X107977833Y-65471666D01*
X108077833Y-65471666D01*
X107444500Y-65471666D02*
X107511166Y-65438333D01*
X107544500Y-65371666D01*
X107544500Y-64771666D01*
X106877833Y-65471666D02*
X106877833Y-64771666D01*
X106877833Y-65438333D02*
X106944500Y-65471666D01*
X107077833Y-65471666D01*
X107144500Y-65438333D01*
X107177833Y-65405000D01*
X107211166Y-65338333D01*
X107211166Y-65138333D01*
X107177833Y-65071666D01*
X107144500Y-65038333D01*
X107077833Y-65005000D01*
X106944500Y-65005000D01*
X106877833Y-65038333D01*
X106644500Y-65005000D02*
X106377833Y-65005000D01*
X106544500Y-64771666D02*
X106544500Y-65371666D01*
X106511166Y-65438333D01*
X106444500Y-65471666D01*
X106377833Y-65471666D01*
X80977833Y-63231666D02*
X81211166Y-62898333D01*
X81377833Y-63231666D02*
X81377833Y-62531666D01*
X81111166Y-62531666D01*
X81044500Y-62565000D01*
X81011166Y-62598333D01*
X80977833Y-62665000D01*
X80977833Y-62765000D01*
X81011166Y-62831666D01*
X81044500Y-62865000D01*
X81111166Y-62898333D01*
X81377833Y-62898333D01*
X80677833Y-62865000D02*
X80444500Y-62865000D01*
X80344500Y-63231666D02*
X80677833Y-63231666D01*
X80677833Y-62531666D01*
X80344500Y-62531666D01*
X80044500Y-63231666D02*
X80044500Y-62531666D01*
X79811166Y-63031666D01*
X79577833Y-62531666D01*
X79577833Y-63231666D01*
X79244500Y-62965000D02*
X78711166Y-62965000D01*
X78377833Y-63231666D02*
X78377833Y-62531666D01*
X78144500Y-63031666D01*
X77911166Y-62531666D01*
X77911166Y-63231666D01*
X77577833Y-63231666D02*
X77577833Y-62531666D01*
X77577833Y-62865000D02*
X77177833Y-62865000D01*
X77177833Y-63231666D02*
X77177833Y-62531666D01*
X76411166Y-62531666D02*
X76177833Y-63231666D01*
X75944500Y-62531666D01*
X75344500Y-63231666D02*
X75744500Y-63231666D01*
X75544500Y-63231666D02*
X75544500Y-62531666D01*
X75611166Y-62631666D01*
X75677833Y-62698333D01*
X75744500Y-62731666D01*
X75044500Y-63165000D02*
X75011166Y-63198333D01*
X75044500Y-63231666D01*
X75077833Y-63198333D01*
X75044500Y-63165000D01*
X75044500Y-63231666D01*
X74577833Y-62531666D02*
X74511166Y-62531666D01*
X74444500Y-62565000D01*
X74411166Y-62598333D01*
X74377833Y-62665000D01*
X74344500Y-62798333D01*
X74344500Y-62965000D01*
X74377833Y-63098333D01*
X74411166Y-63165000D01*
X74444500Y-63198333D01*
X74511166Y-63231666D01*
X74577833Y-63231666D01*
X74644500Y-63198333D01*
X74677833Y-63165000D01*
X74711166Y-63098333D01*
X74744500Y-62965000D01*
X74744500Y-62798333D01*
X74711166Y-62665000D01*
X74677833Y-62598333D01*
X74644500Y-62565000D01*
X74577833Y-62531666D01*
X81011166Y-64351666D02*
X81411166Y-64351666D01*
X81211166Y-64351666D02*
X81211166Y-63651666D01*
X81277833Y-63751666D01*
X81344500Y-63818333D01*
X81411166Y-63851666D01*
X80677833Y-64351666D02*
X80544500Y-64351666D01*
X80477833Y-64318333D01*
X80444500Y-64285000D01*
X80377833Y-64185000D01*
X80344500Y-64051666D01*
X80344500Y-63785000D01*
X80377833Y-63718333D01*
X80411166Y-63685000D01*
X80477833Y-63651666D01*
X80611166Y-63651666D01*
X80677833Y-63685000D01*
X80711166Y-63718333D01*
X80744500Y-63785000D01*
X80744500Y-63951666D01*
X80711166Y-64018333D01*
X80677833Y-64051666D01*
X80611166Y-64085000D01*
X80477833Y-64085000D01*
X80411166Y-64051666D01*
X80377833Y-64018333D01*
X80344500Y-63951666D01*
X80044500Y-64285000D02*
X80011166Y-64318333D01*
X80044500Y-64351666D01*
X80077833Y-64318333D01*
X80044500Y-64285000D01*
X80044500Y-64351666D01*
X79777833Y-63651666D02*
X79311166Y-63651666D01*
X79611166Y-64351666D01*
X79044500Y-64285000D02*
X79011166Y-64318333D01*
X79044500Y-64351666D01*
X79077833Y-64318333D01*
X79044500Y-64285000D01*
X79044500Y-64351666D01*
X78744500Y-63718333D02*
X78711166Y-63685000D01*
X78644500Y-63651666D01*
X78477833Y-63651666D01*
X78411166Y-63685000D01*
X78377833Y-63718333D01*
X78344500Y-63785000D01*
X78344500Y-63851666D01*
X78377833Y-63951666D01*
X78777833Y-64351666D01*
X78344500Y-64351666D01*
X77911166Y-63651666D02*
X77844500Y-63651666D01*
X77777833Y-63685000D01*
X77744500Y-63718333D01*
X77711166Y-63785000D01*
X77677833Y-63918333D01*
X77677833Y-64085000D01*
X77711166Y-64218333D01*
X77744500Y-64285000D01*
X77777833Y-64318333D01*
X77844500Y-64351666D01*
X77911166Y-64351666D01*
X77977833Y-64318333D01*
X78011166Y-64285000D01*
X78044500Y-64218333D01*
X78077833Y-64085000D01*
X78077833Y-63918333D01*
X78044500Y-63785000D01*
X78011166Y-63718333D01*
X77977833Y-63685000D01*
X77911166Y-63651666D01*
X77411166Y-63718333D02*
X77377833Y-63685000D01*
X77311166Y-63651666D01*
X77144500Y-63651666D01*
X77077833Y-63685000D01*
X77044500Y-63718333D01*
X77011166Y-63785000D01*
X77011166Y-63851666D01*
X77044500Y-63951666D01*
X77444500Y-64351666D01*
X77011166Y-64351666D01*
X76577833Y-63651666D02*
X76511166Y-63651666D01*
X76444500Y-63685000D01*
X76411166Y-63718333D01*
X76377833Y-63785000D01*
X76344500Y-63918333D01*
X76344500Y-64085000D01*
X76377833Y-64218333D01*
X76411166Y-64285000D01*
X76444500Y-64318333D01*
X76511166Y-64351666D01*
X76577833Y-64351666D01*
X76644500Y-64318333D01*
X76677833Y-64285000D01*
X76711166Y-64218333D01*
X76744500Y-64085000D01*
X76744500Y-63918333D01*
X76711166Y-63785000D01*
X76677833Y-63718333D01*
X76644500Y-63685000D01*
X76577833Y-63651666D01*
X81177833Y-65738333D02*
X81211166Y-65705000D01*
X81277833Y-65605000D01*
X81311166Y-65538333D01*
X81344500Y-65438333D01*
X81377833Y-65271666D01*
X81377833Y-65138333D01*
X81344500Y-64971666D01*
X81311166Y-64871666D01*
X81277833Y-64805000D01*
X81211166Y-64705000D01*
X81177833Y-64671666D01*
X80611166Y-65438333D02*
X80677833Y-65471666D01*
X80811166Y-65471666D01*
X80877833Y-65438333D01*
X80911166Y-65405000D01*
X80944500Y-65338333D01*
X80944500Y-65138333D01*
X80911166Y-65071666D01*
X80877833Y-65038333D01*
X80811166Y-65005000D01*
X80677833Y-65005000D01*
X80611166Y-65038333D01*
X80377833Y-65738333D02*
X80344500Y-65705000D01*
X80277833Y-65605000D01*
X80244500Y-65538333D01*
X80211166Y-65438333D01*
X80177833Y-65271666D01*
X80177833Y-65138333D01*
X80211166Y-64971666D01*
X80244500Y-64871666D01*
X80277833Y-64805000D01*
X80344500Y-64705000D01*
X80377833Y-64671666D01*
X78911166Y-65471666D02*
X79144500Y-65138333D01*
X79311166Y-65471666D02*
X79311166Y-64771666D01*
X79044500Y-64771666D01*
X78977833Y-64805000D01*
X78944500Y-64838333D01*
X78911166Y-64905000D01*
X78911166Y-65005000D01*
X78944500Y-65071666D01*
X78977833Y-65105000D01*
X79044500Y-65138333D01*
X79311166Y-65138333D01*
X78311166Y-65471666D02*
X78311166Y-65105000D01*
X78344500Y-65038333D01*
X78411166Y-65005000D01*
X78544500Y-65005000D01*
X78611166Y-65038333D01*
X78311166Y-65438333D02*
X78377833Y-65471666D01*
X78544500Y-65471666D01*
X78611166Y-65438333D01*
X78644500Y-65371666D01*
X78644500Y-65305000D01*
X78611166Y-65238333D01*
X78544500Y-65205000D01*
X78377833Y-65205000D01*
X78311166Y-65171666D01*
X77977833Y-65471666D02*
X77977833Y-65005000D01*
X77977833Y-64771666D02*
X78011166Y-64805000D01*
X77977833Y-64838333D01*
X77944500Y-64805000D01*
X77977833Y-64771666D01*
X77977833Y-64838333D01*
X77644500Y-65005000D02*
X77644500Y-65471666D01*
X77644500Y-65071666D02*
X77611166Y-65038333D01*
X77544500Y-65005000D01*
X77444500Y-65005000D01*
X77377833Y-65038333D01*
X77344500Y-65105000D01*
X77344500Y-65471666D01*
X76744500Y-65438333D02*
X76811166Y-65471666D01*
X76944500Y-65471666D01*
X77011166Y-65438333D01*
X77044500Y-65371666D01*
X77044500Y-65105000D01*
X77011166Y-65038333D01*
X76944500Y-65005000D01*
X76811166Y-65005000D01*
X76744500Y-65038333D01*
X76711166Y-65105000D01*
X76711166Y-65171666D01*
X77044500Y-65238333D01*
X76411166Y-65471666D02*
X76411166Y-65005000D01*
X76411166Y-65138333D02*
X76377833Y-65071666D01*
X76344500Y-65038333D01*
X76277833Y-65005000D01*
X76211166Y-65005000D01*
X75444500Y-65471666D02*
X75444500Y-64771666D01*
X75177833Y-64771666D01*
X75111166Y-64805000D01*
X75077833Y-64838333D01*
X75044500Y-64905000D01*
X75044500Y-65005000D01*
X75077833Y-65071666D01*
X75111166Y-65105000D01*
X75177833Y-65138333D01*
X75444500Y-65138333D01*
X74477833Y-65438333D02*
X74544500Y-65471666D01*
X74677833Y-65471666D01*
X74744500Y-65438333D01*
X74777833Y-65371666D01*
X74777833Y-65105000D01*
X74744500Y-65038333D01*
X74677833Y-65005000D01*
X74544500Y-65005000D01*
X74477833Y-65038333D01*
X74444500Y-65105000D01*
X74444500Y-65171666D01*
X74777833Y-65238333D01*
X74244500Y-65005000D02*
X73977833Y-65005000D01*
X74144500Y-64771666D02*
X74144500Y-65371666D01*
X74111166Y-65438333D01*
X74044500Y-65471666D01*
X73977833Y-65471666D01*
X73811166Y-65005000D02*
X73444500Y-65005000D01*
X73811166Y-65471666D01*
X73444500Y-65471666D01*
X73077833Y-65471666D02*
X73144500Y-65438333D01*
X73177833Y-65405000D01*
X73211166Y-65338333D01*
X73211166Y-65138333D01*
X73177833Y-65071666D01*
X73144500Y-65038333D01*
X73077833Y-65005000D01*
X72977833Y-65005000D01*
X72911166Y-65038333D01*
X72877833Y-65071666D01*
X72844500Y-65138333D01*
X72844500Y-65338333D01*
X72877833Y-65405000D01*
X72911166Y-65438333D01*
X72977833Y-65471666D01*
X73077833Y-65471666D01*
X72444500Y-65471666D02*
X72511166Y-65438333D01*
X72544500Y-65371666D01*
X72544500Y-64771666D01*
X71877833Y-65471666D02*
X71877833Y-64771666D01*
X71877833Y-65438333D02*
X71944500Y-65471666D01*
X72077833Y-65471666D01*
X72144500Y-65438333D01*
X72177833Y-65405000D01*
X72211166Y-65338333D01*
X72211166Y-65138333D01*
X72177833Y-65071666D01*
X72144500Y-65038333D01*
X72077833Y-65005000D01*
X71944500Y-65005000D01*
X71877833Y-65038333D01*
X71644500Y-65005000D02*
X71377833Y-65005000D01*
X71544500Y-64771666D02*
X71544500Y-65371666D01*
X71511166Y-65438333D01*
X71444500Y-65471666D01*
X71377833Y-65471666D01*
D11*
X121253221Y-134004000D02*
X121578779Y-134004000D01*
X121253221Y-135024000D02*
X121578779Y-135024000D01*
X117951221Y-135020000D02*
X118276779Y-135020000D01*
X117951221Y-136040000D02*
X118276779Y-136040000D01*
D12*
X112145000Y-121035000D02*
X114645000Y-124035000D01*
X113145000Y-121035000D02*
X111145000Y-121035000D01*
X113145000Y-118035000D02*
X111145000Y-118035000D01*
X113145000Y-121035000D02*
G75*
G03X113145000Y-118035000I0J1500000D01*
G01*
X112145000Y-118035000D02*
X112145000Y-124035000D01*
X111145000Y-118035000D02*
G75*
G03X111145000Y-121035000I0J-1500000D01*
G01*
D11*
X125571221Y-133115000D02*
X125896779Y-133115000D01*
X125571221Y-134135000D02*
X125896779Y-134135000D01*
X125571221Y-138195000D02*
X125896779Y-138195000D01*
X125571221Y-139215000D02*
X125896779Y-139215000D01*
X125571221Y-135655000D02*
X125896779Y-135655000D01*
X125571221Y-136675000D02*
X125896779Y-136675000D01*
X121253221Y-132226000D02*
X121578779Y-132226000D01*
X121253221Y-133246000D02*
X121578779Y-133246000D01*
X121253221Y-138068000D02*
X121578779Y-138068000D01*
X121253221Y-139088000D02*
X121578779Y-139088000D01*
X117951221Y-136544000D02*
X118276779Y-136544000D01*
X117951221Y-137564000D02*
X118276779Y-137564000D01*
X125571221Y-140735000D02*
X125896779Y-140735000D01*
X125571221Y-141755000D02*
X125896779Y-141755000D01*
X121253221Y-139846000D02*
X121578779Y-139846000D01*
X121253221Y-140866000D02*
X121578779Y-140866000D01*
X120340000Y-126700000D02*
X121670000Y-126700000D01*
X120340000Y-125370000D02*
X120340000Y-126700000D01*
X122940000Y-126700000D02*
X125540000Y-126700000D01*
X122940000Y-124100000D02*
X122940000Y-126700000D01*
X120340000Y-124100000D02*
X122940000Y-124100000D01*
X125540000Y-126700000D02*
X125540000Y-113880000D01*
X120340000Y-124100000D02*
X120340000Y-113880000D01*
X120340000Y-113880000D02*
X125540000Y-113880000D01*
X97480000Y-126700000D02*
X98810000Y-126700000D01*
X97480000Y-125370000D02*
X97480000Y-126700000D01*
X100080000Y-126700000D02*
X102680000Y-126700000D01*
X100080000Y-124100000D02*
X100080000Y-126700000D01*
X97480000Y-124100000D02*
X100080000Y-124100000D01*
X102680000Y-126700000D02*
X102680000Y-113880000D01*
X97480000Y-124100000D02*
X97480000Y-113880000D01*
X97480000Y-113880000D02*
X102680000Y-113880000D01*
X82951221Y-136040000D02*
X83276779Y-136040000D01*
X82951221Y-135020000D02*
X83276779Y-135020000D01*
X86253221Y-135024000D02*
X86578779Y-135024000D01*
X86253221Y-134004000D02*
X86578779Y-134004000D01*
X90571221Y-139215000D02*
X90896779Y-139215000D01*
X90571221Y-138195000D02*
X90896779Y-138195000D01*
X90571221Y-134135000D02*
X90896779Y-134135000D01*
X90571221Y-133115000D02*
X90896779Y-133115000D01*
X86253221Y-133246000D02*
X86578779Y-133246000D01*
X86253221Y-132226000D02*
X86578779Y-132226000D01*
X86253221Y-139088000D02*
X86578779Y-139088000D01*
X86253221Y-138068000D02*
X86578779Y-138068000D01*
X82951221Y-137564000D02*
X83276779Y-137564000D01*
X82951221Y-136544000D02*
X83276779Y-136544000D01*
X86253221Y-140866000D02*
X86578779Y-140866000D01*
X86253221Y-139846000D02*
X86578779Y-139846000D01*
X90571221Y-141755000D02*
X90896779Y-141755000D01*
X90571221Y-140735000D02*
X90896779Y-140735000D01*
X90571221Y-136675000D02*
X90896779Y-136675000D01*
X90571221Y-135655000D02*
X90896779Y-135655000D01*
D12*
X76145000Y-118035000D02*
G75*
G03X76145000Y-121035000I0J-1500000D01*
G01*
X77145000Y-118035000D02*
X77145000Y-124035000D01*
X78145000Y-121035000D02*
G75*
G03X78145000Y-118035000I0J1500000D01*
G01*
X78145000Y-118035000D02*
X76145000Y-118035000D01*
X78145000Y-121035000D02*
X76145000Y-121035000D01*
X77145000Y-121035000D02*
X79645000Y-124035000D01*
D11*
X62480000Y-113880000D02*
X67680000Y-113880000D01*
X62480000Y-124100000D02*
X62480000Y-113880000D01*
X67680000Y-126700000D02*
X67680000Y-113880000D01*
X62480000Y-124100000D02*
X65080000Y-124100000D01*
X65080000Y-124100000D02*
X65080000Y-126700000D01*
X65080000Y-126700000D02*
X67680000Y-126700000D01*
X62480000Y-125370000D02*
X62480000Y-126700000D01*
X62480000Y-126700000D02*
X63810000Y-126700000D01*
X85340000Y-113880000D02*
X90540000Y-113880000D01*
X85340000Y-124100000D02*
X85340000Y-113880000D01*
X90540000Y-126700000D02*
X90540000Y-113880000D01*
X85340000Y-124100000D02*
X87940000Y-124100000D01*
X87940000Y-124100000D02*
X87940000Y-126700000D01*
X87940000Y-126700000D02*
X90540000Y-126700000D01*
X85340000Y-125370000D02*
X85340000Y-126700000D01*
X85340000Y-126700000D02*
X86670000Y-126700000D01*
X117951221Y-88040000D02*
X118276779Y-88040000D01*
X117951221Y-87020000D02*
X118276779Y-87020000D01*
X121253221Y-87024000D02*
X121578779Y-87024000D01*
X121253221Y-86004000D02*
X121578779Y-86004000D01*
X125571221Y-91215000D02*
X125896779Y-91215000D01*
X125571221Y-90195000D02*
X125896779Y-90195000D01*
X125571221Y-86135000D02*
X125896779Y-86135000D01*
X125571221Y-85115000D02*
X125896779Y-85115000D01*
X121253221Y-85246000D02*
X121578779Y-85246000D01*
X121253221Y-84226000D02*
X121578779Y-84226000D01*
X121253221Y-91088000D02*
X121578779Y-91088000D01*
X121253221Y-90068000D02*
X121578779Y-90068000D01*
X117951221Y-89564000D02*
X118276779Y-89564000D01*
X117951221Y-88544000D02*
X118276779Y-88544000D01*
X121253221Y-92866000D02*
X121578779Y-92866000D01*
X121253221Y-91846000D02*
X121578779Y-91846000D01*
X125571221Y-93755000D02*
X125896779Y-93755000D01*
X125571221Y-92735000D02*
X125896779Y-92735000D01*
X125571221Y-88675000D02*
X125896779Y-88675000D01*
X125571221Y-87655000D02*
X125896779Y-87655000D01*
D12*
X111145000Y-70035000D02*
G75*
G03X111145000Y-73035000I0J-1500000D01*
G01*
X112145000Y-70035000D02*
X112145000Y-76035000D01*
X113145000Y-73035000D02*
G75*
G03X113145000Y-70035000I0J1500000D01*
G01*
X113145000Y-70035000D02*
X111145000Y-70035000D01*
X113145000Y-73035000D02*
X111145000Y-73035000D01*
X112145000Y-73035000D02*
X114645000Y-76035000D01*
D11*
X97480000Y-65880000D02*
X102680000Y-65880000D01*
X97480000Y-76100000D02*
X97480000Y-65880000D01*
X102680000Y-78700000D02*
X102680000Y-65880000D01*
X97480000Y-76100000D02*
X100080000Y-76100000D01*
X100080000Y-76100000D02*
X100080000Y-78700000D01*
X100080000Y-78700000D02*
X102680000Y-78700000D01*
X97480000Y-77370000D02*
X97480000Y-78700000D01*
X97480000Y-78700000D02*
X98810000Y-78700000D01*
X120340000Y-65880000D02*
X125540000Y-65880000D01*
X120340000Y-76100000D02*
X120340000Y-65880000D01*
X125540000Y-78700000D02*
X125540000Y-65880000D01*
X120340000Y-76100000D02*
X122940000Y-76100000D01*
X122940000Y-76100000D02*
X122940000Y-78700000D01*
X122940000Y-78700000D02*
X125540000Y-78700000D01*
X120340000Y-77370000D02*
X120340000Y-78700000D01*
X120340000Y-78700000D02*
X121670000Y-78700000D01*
X90571221Y-85115000D02*
X90896779Y-85115000D01*
X90571221Y-86135000D02*
X90896779Y-86135000D01*
X86253221Y-84226000D02*
X86578779Y-84226000D01*
X86253221Y-85246000D02*
X86578779Y-85246000D01*
X90571221Y-87655000D02*
X90896779Y-87655000D01*
X90571221Y-88675000D02*
X90896779Y-88675000D01*
X86253221Y-86004000D02*
X86578779Y-86004000D01*
X86253221Y-87024000D02*
X86578779Y-87024000D01*
X90571221Y-90195000D02*
X90896779Y-90195000D01*
X90571221Y-91215000D02*
X90896779Y-91215000D01*
X86253221Y-90068000D02*
X86578779Y-90068000D01*
X86253221Y-91088000D02*
X86578779Y-91088000D01*
X90571221Y-92735000D02*
X90896779Y-92735000D01*
X90571221Y-93755000D02*
X90896779Y-93755000D01*
X86253221Y-91846000D02*
X86578779Y-91846000D01*
X86253221Y-92866000D02*
X86578779Y-92866000D01*
X82951221Y-87020000D02*
X83276779Y-87020000D01*
X82951221Y-88040000D02*
X83276779Y-88040000D01*
X82951221Y-88544000D02*
X83276779Y-88544000D01*
X82951221Y-89564000D02*
X83276779Y-89564000D01*
X62480000Y-78700000D02*
X63810000Y-78700000D01*
X62480000Y-77370000D02*
X62480000Y-78700000D01*
X65080000Y-78700000D02*
X67680000Y-78700000D01*
X65080000Y-76100000D02*
X65080000Y-78700000D01*
X62480000Y-76100000D02*
X65080000Y-76100000D01*
X67680000Y-78700000D02*
X67680000Y-65880000D01*
X62480000Y-76100000D02*
X62480000Y-65880000D01*
X62480000Y-65880000D02*
X67680000Y-65880000D01*
X85340000Y-78700000D02*
X86670000Y-78700000D01*
X85340000Y-77370000D02*
X85340000Y-78700000D01*
X87940000Y-78700000D02*
X90540000Y-78700000D01*
X87940000Y-76100000D02*
X87940000Y-78700000D01*
X85340000Y-76100000D02*
X87940000Y-76100000D01*
X90540000Y-78700000D02*
X90540000Y-65880000D01*
X85340000Y-76100000D02*
X85340000Y-65880000D01*
X85340000Y-65880000D02*
X90540000Y-65880000D01*
D12*
X77145000Y-73035000D02*
X79645000Y-76035000D01*
X78145000Y-73035000D02*
X76145000Y-73035000D01*
X78145000Y-70035000D02*
X76145000Y-70035000D01*
X78145000Y-73035000D02*
G75*
G03X78145000Y-70035000I0J1500000D01*
G01*
X77145000Y-70035000D02*
X77145000Y-76035000D01*
X76145000Y-70035000D02*
G75*
G03X76145000Y-73035000I0J-1500000D01*
G01*
D13*
X121866000Y-136100666D02*
X122099333Y-135767333D01*
X122266000Y-136100666D02*
X122266000Y-135400666D01*
X121999333Y-135400666D01*
X121932666Y-135434000D01*
X121899333Y-135467333D01*
X121866000Y-135534000D01*
X121866000Y-135634000D01*
X121899333Y-135700666D01*
X121932666Y-135734000D01*
X121999333Y-135767333D01*
X122266000Y-135767333D01*
X121199333Y-136100666D02*
X121599333Y-136100666D01*
X121399333Y-136100666D02*
X121399333Y-135400666D01*
X121466000Y-135500666D01*
X121532666Y-135567333D01*
X121599333Y-135600666D01*
X120966000Y-135400666D02*
X120499333Y-135400666D01*
X120799333Y-136100666D01*
X118564000Y-134576666D02*
X118797333Y-134243333D01*
X118964000Y-134576666D02*
X118964000Y-133876666D01*
X118697333Y-133876666D01*
X118630666Y-133910000D01*
X118597333Y-133943333D01*
X118564000Y-134010000D01*
X118564000Y-134110000D01*
X118597333Y-134176666D01*
X118630666Y-134210000D01*
X118697333Y-134243333D01*
X118964000Y-134243333D01*
X117897333Y-134576666D02*
X118297333Y-134576666D01*
X118097333Y-134576666D02*
X118097333Y-133876666D01*
X118164000Y-133976666D01*
X118230666Y-134043333D01*
X118297333Y-134076666D01*
X117464000Y-133876666D02*
X117397333Y-133876666D01*
X117330666Y-133910000D01*
X117297333Y-133943333D01*
X117264000Y-134010000D01*
X117230666Y-134143333D01*
X117230666Y-134310000D01*
X117264000Y-134443333D01*
X117297333Y-134510000D01*
X117330666Y-134543333D01*
X117397333Y-134576666D01*
X117464000Y-134576666D01*
X117530666Y-134543333D01*
X117564000Y-134510000D01*
X117597333Y-134443333D01*
X117630666Y-134310000D01*
X117630666Y-134143333D01*
X117597333Y-134010000D01*
X117564000Y-133943333D01*
X117530666Y-133910000D01*
X117464000Y-133876666D01*
X126184000Y-132798666D02*
X126417333Y-132465333D01*
X126584000Y-132798666D02*
X126584000Y-132098666D01*
X126317333Y-132098666D01*
X126250666Y-132132000D01*
X126217333Y-132165333D01*
X126184000Y-132232000D01*
X126184000Y-132332000D01*
X126217333Y-132398666D01*
X126250666Y-132432000D01*
X126317333Y-132465333D01*
X126584000Y-132465333D01*
X125917333Y-132165333D02*
X125884000Y-132132000D01*
X125817333Y-132098666D01*
X125650666Y-132098666D01*
X125584000Y-132132000D01*
X125550666Y-132165333D01*
X125517333Y-132232000D01*
X125517333Y-132298666D01*
X125550666Y-132398666D01*
X125950666Y-132798666D01*
X125517333Y-132798666D01*
X125084000Y-132098666D02*
X125017333Y-132098666D01*
X124950666Y-132132000D01*
X124917333Y-132165333D01*
X124884000Y-132232000D01*
X124850666Y-132365333D01*
X124850666Y-132532000D01*
X124884000Y-132665333D01*
X124917333Y-132732000D01*
X124950666Y-132765333D01*
X125017333Y-132798666D01*
X125084000Y-132798666D01*
X125150666Y-132765333D01*
X125184000Y-132732000D01*
X125217333Y-132665333D01*
X125250666Y-132532000D01*
X125250666Y-132365333D01*
X125217333Y-132232000D01*
X125184000Y-132165333D01*
X125150666Y-132132000D01*
X125084000Y-132098666D01*
X126184000Y-137878666D02*
X126417333Y-137545333D01*
X126584000Y-137878666D02*
X126584000Y-137178666D01*
X126317333Y-137178666D01*
X126250666Y-137212000D01*
X126217333Y-137245333D01*
X126184000Y-137312000D01*
X126184000Y-137412000D01*
X126217333Y-137478666D01*
X126250666Y-137512000D01*
X126317333Y-137545333D01*
X126584000Y-137545333D01*
X125517333Y-137878666D02*
X125917333Y-137878666D01*
X125717333Y-137878666D02*
X125717333Y-137178666D01*
X125784000Y-137278666D01*
X125850666Y-137345333D01*
X125917333Y-137378666D01*
X124917333Y-137178666D02*
X125050666Y-137178666D01*
X125117333Y-137212000D01*
X125150666Y-137245333D01*
X125217333Y-137345333D01*
X125250666Y-137478666D01*
X125250666Y-137745333D01*
X125217333Y-137812000D01*
X125184000Y-137845333D01*
X125117333Y-137878666D01*
X124984000Y-137878666D01*
X124917333Y-137845333D01*
X124884000Y-137812000D01*
X124850666Y-137745333D01*
X124850666Y-137578666D01*
X124884000Y-137512000D01*
X124917333Y-137478666D01*
X124984000Y-137445333D01*
X125117333Y-137445333D01*
X125184000Y-137478666D01*
X125217333Y-137512000D01*
X125250666Y-137578666D01*
X126184000Y-135338666D02*
X126417333Y-135005333D01*
X126584000Y-135338666D02*
X126584000Y-134638666D01*
X126317333Y-134638666D01*
X126250666Y-134672000D01*
X126217333Y-134705333D01*
X126184000Y-134772000D01*
X126184000Y-134872000D01*
X126217333Y-134938666D01*
X126250666Y-134972000D01*
X126317333Y-135005333D01*
X126584000Y-135005333D01*
X125517333Y-135338666D02*
X125917333Y-135338666D01*
X125717333Y-135338666D02*
X125717333Y-134638666D01*
X125784000Y-134738666D01*
X125850666Y-134805333D01*
X125917333Y-134838666D01*
X125117333Y-134938666D02*
X125184000Y-134905333D01*
X125217333Y-134872000D01*
X125250666Y-134805333D01*
X125250666Y-134772000D01*
X125217333Y-134705333D01*
X125184000Y-134672000D01*
X125117333Y-134638666D01*
X124984000Y-134638666D01*
X124917333Y-134672000D01*
X124884000Y-134705333D01*
X124850666Y-134772000D01*
X124850666Y-134805333D01*
X124884000Y-134872000D01*
X124917333Y-134905333D01*
X124984000Y-134938666D01*
X125117333Y-134938666D01*
X125184000Y-134972000D01*
X125217333Y-135005333D01*
X125250666Y-135072000D01*
X125250666Y-135205333D01*
X125217333Y-135272000D01*
X125184000Y-135305333D01*
X125117333Y-135338666D01*
X124984000Y-135338666D01*
X124917333Y-135305333D01*
X124884000Y-135272000D01*
X124850666Y-135205333D01*
X124850666Y-135072000D01*
X124884000Y-135005333D01*
X124917333Y-134972000D01*
X124984000Y-134938666D01*
X121866000Y-131782666D02*
X122099333Y-131449333D01*
X122266000Y-131782666D02*
X122266000Y-131082666D01*
X121999333Y-131082666D01*
X121932666Y-131116000D01*
X121899333Y-131149333D01*
X121866000Y-131216000D01*
X121866000Y-131316000D01*
X121899333Y-131382666D01*
X121932666Y-131416000D01*
X121999333Y-131449333D01*
X122266000Y-131449333D01*
X121199333Y-131782666D02*
X121599333Y-131782666D01*
X121399333Y-131782666D02*
X121399333Y-131082666D01*
X121466000Y-131182666D01*
X121532666Y-131249333D01*
X121599333Y-131282666D01*
X120866000Y-131782666D02*
X120732666Y-131782666D01*
X120666000Y-131749333D01*
X120632666Y-131716000D01*
X120566000Y-131616000D01*
X120532666Y-131482666D01*
X120532666Y-131216000D01*
X120566000Y-131149333D01*
X120599333Y-131116000D01*
X120666000Y-131082666D01*
X120799333Y-131082666D01*
X120866000Y-131116000D01*
X120899333Y-131149333D01*
X120932666Y-131216000D01*
X120932666Y-131382666D01*
X120899333Y-131449333D01*
X120866000Y-131482666D01*
X120799333Y-131516000D01*
X120666000Y-131516000D01*
X120599333Y-131482666D01*
X120566000Y-131449333D01*
X120532666Y-131382666D01*
X121866000Y-137624666D02*
X122099333Y-137291333D01*
X122266000Y-137624666D02*
X122266000Y-136924666D01*
X121999333Y-136924666D01*
X121932666Y-136958000D01*
X121899333Y-136991333D01*
X121866000Y-137058000D01*
X121866000Y-137158000D01*
X121899333Y-137224666D01*
X121932666Y-137258000D01*
X121999333Y-137291333D01*
X122266000Y-137291333D01*
X121199333Y-137624666D02*
X121599333Y-137624666D01*
X121399333Y-137624666D02*
X121399333Y-136924666D01*
X121466000Y-137024666D01*
X121532666Y-137091333D01*
X121599333Y-137124666D01*
X120566000Y-136924666D02*
X120899333Y-136924666D01*
X120932666Y-137258000D01*
X120899333Y-137224666D01*
X120832666Y-137191333D01*
X120666000Y-137191333D01*
X120599333Y-137224666D01*
X120566000Y-137258000D01*
X120532666Y-137324666D01*
X120532666Y-137491333D01*
X120566000Y-137558000D01*
X120599333Y-137591333D01*
X120666000Y-137624666D01*
X120832666Y-137624666D01*
X120899333Y-137591333D01*
X120932666Y-137558000D01*
X118484666Y-138640666D02*
X118718000Y-138307333D01*
X118884666Y-138640666D02*
X118884666Y-137940666D01*
X118618000Y-137940666D01*
X118551333Y-137974000D01*
X118518000Y-138007333D01*
X118484666Y-138074000D01*
X118484666Y-138174000D01*
X118518000Y-138240666D01*
X118551333Y-138274000D01*
X118618000Y-138307333D01*
X118884666Y-138307333D01*
X118151333Y-138640666D02*
X118018000Y-138640666D01*
X117951333Y-138607333D01*
X117918000Y-138574000D01*
X117851333Y-138474000D01*
X117818000Y-138340666D01*
X117818000Y-138074000D01*
X117851333Y-138007333D01*
X117884666Y-137974000D01*
X117951333Y-137940666D01*
X118084666Y-137940666D01*
X118151333Y-137974000D01*
X118184666Y-138007333D01*
X118218000Y-138074000D01*
X118218000Y-138240666D01*
X118184666Y-138307333D01*
X118151333Y-138340666D01*
X118084666Y-138374000D01*
X117951333Y-138374000D01*
X117884666Y-138340666D01*
X117851333Y-138307333D01*
X117818000Y-138240666D01*
X126184000Y-140418666D02*
X126417333Y-140085333D01*
X126584000Y-140418666D02*
X126584000Y-139718666D01*
X126317333Y-139718666D01*
X126250666Y-139752000D01*
X126217333Y-139785333D01*
X126184000Y-139852000D01*
X126184000Y-139952000D01*
X126217333Y-140018666D01*
X126250666Y-140052000D01*
X126317333Y-140085333D01*
X126584000Y-140085333D01*
X125517333Y-140418666D02*
X125917333Y-140418666D01*
X125717333Y-140418666D02*
X125717333Y-139718666D01*
X125784000Y-139818666D01*
X125850666Y-139885333D01*
X125917333Y-139918666D01*
X124917333Y-139952000D02*
X124917333Y-140418666D01*
X125084000Y-139685333D02*
X125250666Y-140185333D01*
X124817333Y-140185333D01*
X121866000Y-141942666D02*
X122099333Y-141609333D01*
X122266000Y-141942666D02*
X122266000Y-141242666D01*
X121999333Y-141242666D01*
X121932666Y-141276000D01*
X121899333Y-141309333D01*
X121866000Y-141376000D01*
X121866000Y-141476000D01*
X121899333Y-141542666D01*
X121932666Y-141576000D01*
X121999333Y-141609333D01*
X122266000Y-141609333D01*
X121199333Y-141942666D02*
X121599333Y-141942666D01*
X121399333Y-141942666D02*
X121399333Y-141242666D01*
X121466000Y-141342666D01*
X121532666Y-141409333D01*
X121599333Y-141442666D01*
X120966000Y-141242666D02*
X120532666Y-141242666D01*
X120766000Y-141509333D01*
X120666000Y-141509333D01*
X120599333Y-141542666D01*
X120566000Y-141576000D01*
X120532666Y-141642666D01*
X120532666Y-141809333D01*
X120566000Y-141876000D01*
X120599333Y-141909333D01*
X120666000Y-141942666D01*
X120866000Y-141942666D01*
X120932666Y-141909333D01*
X120966000Y-141876000D01*
X119333333Y-124952380D02*
X119333333Y-125666666D01*
X119380952Y-125809523D01*
X119476190Y-125904761D01*
X119619047Y-125952380D01*
X119714285Y-125952380D01*
X118333333Y-125952380D02*
X118904761Y-125952380D01*
X118619047Y-125952380D02*
X118619047Y-124952380D01*
X118714285Y-125095238D01*
X118809523Y-125190476D01*
X118904761Y-125238095D01*
X104333333Y-124952380D02*
X104333333Y-125666666D01*
X104380952Y-125809523D01*
X104476190Y-125904761D01*
X104619047Y-125952380D01*
X104714285Y-125952380D01*
X103904761Y-125047619D02*
X103857142Y-125000000D01*
X103761904Y-124952380D01*
X103523809Y-124952380D01*
X103428571Y-125000000D01*
X103380952Y-125047619D01*
X103333333Y-125142857D01*
X103333333Y-125238095D01*
X103380952Y-125380952D01*
X103952380Y-125952380D01*
X103333333Y-125952380D01*
X83564000Y-134576666D02*
X83797333Y-134243333D01*
X83964000Y-134576666D02*
X83964000Y-133876666D01*
X83697333Y-133876666D01*
X83630666Y-133910000D01*
X83597333Y-133943333D01*
X83564000Y-134010000D01*
X83564000Y-134110000D01*
X83597333Y-134176666D01*
X83630666Y-134210000D01*
X83697333Y-134243333D01*
X83964000Y-134243333D01*
X82897333Y-134576666D02*
X83297333Y-134576666D01*
X83097333Y-134576666D02*
X83097333Y-133876666D01*
X83164000Y-133976666D01*
X83230666Y-134043333D01*
X83297333Y-134076666D01*
X82464000Y-133876666D02*
X82397333Y-133876666D01*
X82330666Y-133910000D01*
X82297333Y-133943333D01*
X82264000Y-134010000D01*
X82230666Y-134143333D01*
X82230666Y-134310000D01*
X82264000Y-134443333D01*
X82297333Y-134510000D01*
X82330666Y-134543333D01*
X82397333Y-134576666D01*
X82464000Y-134576666D01*
X82530666Y-134543333D01*
X82564000Y-134510000D01*
X82597333Y-134443333D01*
X82630666Y-134310000D01*
X82630666Y-134143333D01*
X82597333Y-134010000D01*
X82564000Y-133943333D01*
X82530666Y-133910000D01*
X82464000Y-133876666D01*
X86866000Y-136100666D02*
X87099333Y-135767333D01*
X87266000Y-136100666D02*
X87266000Y-135400666D01*
X86999333Y-135400666D01*
X86932666Y-135434000D01*
X86899333Y-135467333D01*
X86866000Y-135534000D01*
X86866000Y-135634000D01*
X86899333Y-135700666D01*
X86932666Y-135734000D01*
X86999333Y-135767333D01*
X87266000Y-135767333D01*
X86199333Y-136100666D02*
X86599333Y-136100666D01*
X86399333Y-136100666D02*
X86399333Y-135400666D01*
X86466000Y-135500666D01*
X86532666Y-135567333D01*
X86599333Y-135600666D01*
X85966000Y-135400666D02*
X85499333Y-135400666D01*
X85799333Y-136100666D01*
X91184000Y-137878666D02*
X91417333Y-137545333D01*
X91584000Y-137878666D02*
X91584000Y-137178666D01*
X91317333Y-137178666D01*
X91250666Y-137212000D01*
X91217333Y-137245333D01*
X91184000Y-137312000D01*
X91184000Y-137412000D01*
X91217333Y-137478666D01*
X91250666Y-137512000D01*
X91317333Y-137545333D01*
X91584000Y-137545333D01*
X90517333Y-137878666D02*
X90917333Y-137878666D01*
X90717333Y-137878666D02*
X90717333Y-137178666D01*
X90784000Y-137278666D01*
X90850666Y-137345333D01*
X90917333Y-137378666D01*
X89917333Y-137178666D02*
X90050666Y-137178666D01*
X90117333Y-137212000D01*
X90150666Y-137245333D01*
X90217333Y-137345333D01*
X90250666Y-137478666D01*
X90250666Y-137745333D01*
X90217333Y-137812000D01*
X90184000Y-137845333D01*
X90117333Y-137878666D01*
X89984000Y-137878666D01*
X89917333Y-137845333D01*
X89884000Y-137812000D01*
X89850666Y-137745333D01*
X89850666Y-137578666D01*
X89884000Y-137512000D01*
X89917333Y-137478666D01*
X89984000Y-137445333D01*
X90117333Y-137445333D01*
X90184000Y-137478666D01*
X90217333Y-137512000D01*
X90250666Y-137578666D01*
X91184000Y-132798666D02*
X91417333Y-132465333D01*
X91584000Y-132798666D02*
X91584000Y-132098666D01*
X91317333Y-132098666D01*
X91250666Y-132132000D01*
X91217333Y-132165333D01*
X91184000Y-132232000D01*
X91184000Y-132332000D01*
X91217333Y-132398666D01*
X91250666Y-132432000D01*
X91317333Y-132465333D01*
X91584000Y-132465333D01*
X90917333Y-132165333D02*
X90884000Y-132132000D01*
X90817333Y-132098666D01*
X90650666Y-132098666D01*
X90584000Y-132132000D01*
X90550666Y-132165333D01*
X90517333Y-132232000D01*
X90517333Y-132298666D01*
X90550666Y-132398666D01*
X90950666Y-132798666D01*
X90517333Y-132798666D01*
X90084000Y-132098666D02*
X90017333Y-132098666D01*
X89950666Y-132132000D01*
X89917333Y-132165333D01*
X89884000Y-132232000D01*
X89850666Y-132365333D01*
X89850666Y-132532000D01*
X89884000Y-132665333D01*
X89917333Y-132732000D01*
X89950666Y-132765333D01*
X90017333Y-132798666D01*
X90084000Y-132798666D01*
X90150666Y-132765333D01*
X90184000Y-132732000D01*
X90217333Y-132665333D01*
X90250666Y-132532000D01*
X90250666Y-132365333D01*
X90217333Y-132232000D01*
X90184000Y-132165333D01*
X90150666Y-132132000D01*
X90084000Y-132098666D01*
X86866000Y-131782666D02*
X87099333Y-131449333D01*
X87266000Y-131782666D02*
X87266000Y-131082666D01*
X86999333Y-131082666D01*
X86932666Y-131116000D01*
X86899333Y-131149333D01*
X86866000Y-131216000D01*
X86866000Y-131316000D01*
X86899333Y-131382666D01*
X86932666Y-131416000D01*
X86999333Y-131449333D01*
X87266000Y-131449333D01*
X86199333Y-131782666D02*
X86599333Y-131782666D01*
X86399333Y-131782666D02*
X86399333Y-131082666D01*
X86466000Y-131182666D01*
X86532666Y-131249333D01*
X86599333Y-131282666D01*
X85866000Y-131782666D02*
X85732666Y-131782666D01*
X85666000Y-131749333D01*
X85632666Y-131716000D01*
X85566000Y-131616000D01*
X85532666Y-131482666D01*
X85532666Y-131216000D01*
X85566000Y-131149333D01*
X85599333Y-131116000D01*
X85666000Y-131082666D01*
X85799333Y-131082666D01*
X85866000Y-131116000D01*
X85899333Y-131149333D01*
X85932666Y-131216000D01*
X85932666Y-131382666D01*
X85899333Y-131449333D01*
X85866000Y-131482666D01*
X85799333Y-131516000D01*
X85666000Y-131516000D01*
X85599333Y-131482666D01*
X85566000Y-131449333D01*
X85532666Y-131382666D01*
X86866000Y-137624666D02*
X87099333Y-137291333D01*
X87266000Y-137624666D02*
X87266000Y-136924666D01*
X86999333Y-136924666D01*
X86932666Y-136958000D01*
X86899333Y-136991333D01*
X86866000Y-137058000D01*
X86866000Y-137158000D01*
X86899333Y-137224666D01*
X86932666Y-137258000D01*
X86999333Y-137291333D01*
X87266000Y-137291333D01*
X86199333Y-137624666D02*
X86599333Y-137624666D01*
X86399333Y-137624666D02*
X86399333Y-136924666D01*
X86466000Y-137024666D01*
X86532666Y-137091333D01*
X86599333Y-137124666D01*
X85566000Y-136924666D02*
X85899333Y-136924666D01*
X85932666Y-137258000D01*
X85899333Y-137224666D01*
X85832666Y-137191333D01*
X85666000Y-137191333D01*
X85599333Y-137224666D01*
X85566000Y-137258000D01*
X85532666Y-137324666D01*
X85532666Y-137491333D01*
X85566000Y-137558000D01*
X85599333Y-137591333D01*
X85666000Y-137624666D01*
X85832666Y-137624666D01*
X85899333Y-137591333D01*
X85932666Y-137558000D01*
X83484666Y-138640666D02*
X83718000Y-138307333D01*
X83884666Y-138640666D02*
X83884666Y-137940666D01*
X83618000Y-137940666D01*
X83551333Y-137974000D01*
X83518000Y-138007333D01*
X83484666Y-138074000D01*
X83484666Y-138174000D01*
X83518000Y-138240666D01*
X83551333Y-138274000D01*
X83618000Y-138307333D01*
X83884666Y-138307333D01*
X83151333Y-138640666D02*
X83018000Y-138640666D01*
X82951333Y-138607333D01*
X82918000Y-138574000D01*
X82851333Y-138474000D01*
X82818000Y-138340666D01*
X82818000Y-138074000D01*
X82851333Y-138007333D01*
X82884666Y-137974000D01*
X82951333Y-137940666D01*
X83084666Y-137940666D01*
X83151333Y-137974000D01*
X83184666Y-138007333D01*
X83218000Y-138074000D01*
X83218000Y-138240666D01*
X83184666Y-138307333D01*
X83151333Y-138340666D01*
X83084666Y-138374000D01*
X82951333Y-138374000D01*
X82884666Y-138340666D01*
X82851333Y-138307333D01*
X82818000Y-138240666D01*
X86866000Y-141942666D02*
X87099333Y-141609333D01*
X87266000Y-141942666D02*
X87266000Y-141242666D01*
X86999333Y-141242666D01*
X86932666Y-141276000D01*
X86899333Y-141309333D01*
X86866000Y-141376000D01*
X86866000Y-141476000D01*
X86899333Y-141542666D01*
X86932666Y-141576000D01*
X86999333Y-141609333D01*
X87266000Y-141609333D01*
X86199333Y-141942666D02*
X86599333Y-141942666D01*
X86399333Y-141942666D02*
X86399333Y-141242666D01*
X86466000Y-141342666D01*
X86532666Y-141409333D01*
X86599333Y-141442666D01*
X85966000Y-141242666D02*
X85532666Y-141242666D01*
X85766000Y-141509333D01*
X85666000Y-141509333D01*
X85599333Y-141542666D01*
X85566000Y-141576000D01*
X85532666Y-141642666D01*
X85532666Y-141809333D01*
X85566000Y-141876000D01*
X85599333Y-141909333D01*
X85666000Y-141942666D01*
X85866000Y-141942666D01*
X85932666Y-141909333D01*
X85966000Y-141876000D01*
X91184000Y-140418666D02*
X91417333Y-140085333D01*
X91584000Y-140418666D02*
X91584000Y-139718666D01*
X91317333Y-139718666D01*
X91250666Y-139752000D01*
X91217333Y-139785333D01*
X91184000Y-139852000D01*
X91184000Y-139952000D01*
X91217333Y-140018666D01*
X91250666Y-140052000D01*
X91317333Y-140085333D01*
X91584000Y-140085333D01*
X90517333Y-140418666D02*
X90917333Y-140418666D01*
X90717333Y-140418666D02*
X90717333Y-139718666D01*
X90784000Y-139818666D01*
X90850666Y-139885333D01*
X90917333Y-139918666D01*
X89917333Y-139952000D02*
X89917333Y-140418666D01*
X90084000Y-139685333D02*
X90250666Y-140185333D01*
X89817333Y-140185333D01*
X91184000Y-135338666D02*
X91417333Y-135005333D01*
X91584000Y-135338666D02*
X91584000Y-134638666D01*
X91317333Y-134638666D01*
X91250666Y-134672000D01*
X91217333Y-134705333D01*
X91184000Y-134772000D01*
X91184000Y-134872000D01*
X91217333Y-134938666D01*
X91250666Y-134972000D01*
X91317333Y-135005333D01*
X91584000Y-135005333D01*
X90517333Y-135338666D02*
X90917333Y-135338666D01*
X90717333Y-135338666D02*
X90717333Y-134638666D01*
X90784000Y-134738666D01*
X90850666Y-134805333D01*
X90917333Y-134838666D01*
X90117333Y-134938666D02*
X90184000Y-134905333D01*
X90217333Y-134872000D01*
X90250666Y-134805333D01*
X90250666Y-134772000D01*
X90217333Y-134705333D01*
X90184000Y-134672000D01*
X90117333Y-134638666D01*
X89984000Y-134638666D01*
X89917333Y-134672000D01*
X89884000Y-134705333D01*
X89850666Y-134772000D01*
X89850666Y-134805333D01*
X89884000Y-134872000D01*
X89917333Y-134905333D01*
X89984000Y-134938666D01*
X90117333Y-134938666D01*
X90184000Y-134972000D01*
X90217333Y-135005333D01*
X90250666Y-135072000D01*
X90250666Y-135205333D01*
X90217333Y-135272000D01*
X90184000Y-135305333D01*
X90117333Y-135338666D01*
X89984000Y-135338666D01*
X89917333Y-135305333D01*
X89884000Y-135272000D01*
X89850666Y-135205333D01*
X89850666Y-135072000D01*
X89884000Y-135005333D01*
X89917333Y-134972000D01*
X89984000Y-134938666D01*
X69333333Y-124952380D02*
X69333333Y-125666666D01*
X69380952Y-125809523D01*
X69476190Y-125904761D01*
X69619047Y-125952380D01*
X69714285Y-125952380D01*
X68904761Y-125047619D02*
X68857142Y-125000000D01*
X68761904Y-124952380D01*
X68523809Y-124952380D01*
X68428571Y-125000000D01*
X68380952Y-125047619D01*
X68333333Y-125142857D01*
X68333333Y-125238095D01*
X68380952Y-125380952D01*
X68952380Y-125952380D01*
X68333333Y-125952380D01*
X84333333Y-124952380D02*
X84333333Y-125666666D01*
X84380952Y-125809523D01*
X84476190Y-125904761D01*
X84619047Y-125952380D01*
X84714285Y-125952380D01*
X83333333Y-125952380D02*
X83904761Y-125952380D01*
X83619047Y-125952380D02*
X83619047Y-124952380D01*
X83714285Y-125095238D01*
X83809523Y-125190476D01*
X83904761Y-125238095D01*
X118564000Y-86576666D02*
X118797333Y-86243333D01*
X118964000Y-86576666D02*
X118964000Y-85876666D01*
X118697333Y-85876666D01*
X118630666Y-85910000D01*
X118597333Y-85943333D01*
X118564000Y-86010000D01*
X118564000Y-86110000D01*
X118597333Y-86176666D01*
X118630666Y-86210000D01*
X118697333Y-86243333D01*
X118964000Y-86243333D01*
X117897333Y-86576666D02*
X118297333Y-86576666D01*
X118097333Y-86576666D02*
X118097333Y-85876666D01*
X118164000Y-85976666D01*
X118230666Y-86043333D01*
X118297333Y-86076666D01*
X117464000Y-85876666D02*
X117397333Y-85876666D01*
X117330666Y-85910000D01*
X117297333Y-85943333D01*
X117264000Y-86010000D01*
X117230666Y-86143333D01*
X117230666Y-86310000D01*
X117264000Y-86443333D01*
X117297333Y-86510000D01*
X117330666Y-86543333D01*
X117397333Y-86576666D01*
X117464000Y-86576666D01*
X117530666Y-86543333D01*
X117564000Y-86510000D01*
X117597333Y-86443333D01*
X117630666Y-86310000D01*
X117630666Y-86143333D01*
X117597333Y-86010000D01*
X117564000Y-85943333D01*
X117530666Y-85910000D01*
X117464000Y-85876666D01*
X121866000Y-88100666D02*
X122099333Y-87767333D01*
X122266000Y-88100666D02*
X122266000Y-87400666D01*
X121999333Y-87400666D01*
X121932666Y-87434000D01*
X121899333Y-87467333D01*
X121866000Y-87534000D01*
X121866000Y-87634000D01*
X121899333Y-87700666D01*
X121932666Y-87734000D01*
X121999333Y-87767333D01*
X122266000Y-87767333D01*
X121199333Y-88100666D02*
X121599333Y-88100666D01*
X121399333Y-88100666D02*
X121399333Y-87400666D01*
X121466000Y-87500666D01*
X121532666Y-87567333D01*
X121599333Y-87600666D01*
X120966000Y-87400666D02*
X120499333Y-87400666D01*
X120799333Y-88100666D01*
X126184000Y-89878666D02*
X126417333Y-89545333D01*
X126584000Y-89878666D02*
X126584000Y-89178666D01*
X126317333Y-89178666D01*
X126250666Y-89212000D01*
X126217333Y-89245333D01*
X126184000Y-89312000D01*
X126184000Y-89412000D01*
X126217333Y-89478666D01*
X126250666Y-89512000D01*
X126317333Y-89545333D01*
X126584000Y-89545333D01*
X125517333Y-89878666D02*
X125917333Y-89878666D01*
X125717333Y-89878666D02*
X125717333Y-89178666D01*
X125784000Y-89278666D01*
X125850666Y-89345333D01*
X125917333Y-89378666D01*
X124917333Y-89178666D02*
X125050666Y-89178666D01*
X125117333Y-89212000D01*
X125150666Y-89245333D01*
X125217333Y-89345333D01*
X125250666Y-89478666D01*
X125250666Y-89745333D01*
X125217333Y-89812000D01*
X125184000Y-89845333D01*
X125117333Y-89878666D01*
X124984000Y-89878666D01*
X124917333Y-89845333D01*
X124884000Y-89812000D01*
X124850666Y-89745333D01*
X124850666Y-89578666D01*
X124884000Y-89512000D01*
X124917333Y-89478666D01*
X124984000Y-89445333D01*
X125117333Y-89445333D01*
X125184000Y-89478666D01*
X125217333Y-89512000D01*
X125250666Y-89578666D01*
X126184000Y-84798666D02*
X126417333Y-84465333D01*
X126584000Y-84798666D02*
X126584000Y-84098666D01*
X126317333Y-84098666D01*
X126250666Y-84132000D01*
X126217333Y-84165333D01*
X126184000Y-84232000D01*
X126184000Y-84332000D01*
X126217333Y-84398666D01*
X126250666Y-84432000D01*
X126317333Y-84465333D01*
X126584000Y-84465333D01*
X125917333Y-84165333D02*
X125884000Y-84132000D01*
X125817333Y-84098666D01*
X125650666Y-84098666D01*
X125584000Y-84132000D01*
X125550666Y-84165333D01*
X125517333Y-84232000D01*
X125517333Y-84298666D01*
X125550666Y-84398666D01*
X125950666Y-84798666D01*
X125517333Y-84798666D01*
X125084000Y-84098666D02*
X125017333Y-84098666D01*
X124950666Y-84132000D01*
X124917333Y-84165333D01*
X124884000Y-84232000D01*
X124850666Y-84365333D01*
X124850666Y-84532000D01*
X124884000Y-84665333D01*
X124917333Y-84732000D01*
X124950666Y-84765333D01*
X125017333Y-84798666D01*
X125084000Y-84798666D01*
X125150666Y-84765333D01*
X125184000Y-84732000D01*
X125217333Y-84665333D01*
X125250666Y-84532000D01*
X125250666Y-84365333D01*
X125217333Y-84232000D01*
X125184000Y-84165333D01*
X125150666Y-84132000D01*
X125084000Y-84098666D01*
X121866000Y-83782666D02*
X122099333Y-83449333D01*
X122266000Y-83782666D02*
X122266000Y-83082666D01*
X121999333Y-83082666D01*
X121932666Y-83116000D01*
X121899333Y-83149333D01*
X121866000Y-83216000D01*
X121866000Y-83316000D01*
X121899333Y-83382666D01*
X121932666Y-83416000D01*
X121999333Y-83449333D01*
X122266000Y-83449333D01*
X121199333Y-83782666D02*
X121599333Y-83782666D01*
X121399333Y-83782666D02*
X121399333Y-83082666D01*
X121466000Y-83182666D01*
X121532666Y-83249333D01*
X121599333Y-83282666D01*
X120866000Y-83782666D02*
X120732666Y-83782666D01*
X120666000Y-83749333D01*
X120632666Y-83716000D01*
X120566000Y-83616000D01*
X120532666Y-83482666D01*
X120532666Y-83216000D01*
X120566000Y-83149333D01*
X120599333Y-83116000D01*
X120666000Y-83082666D01*
X120799333Y-83082666D01*
X120866000Y-83116000D01*
X120899333Y-83149333D01*
X120932666Y-83216000D01*
X120932666Y-83382666D01*
X120899333Y-83449333D01*
X120866000Y-83482666D01*
X120799333Y-83516000D01*
X120666000Y-83516000D01*
X120599333Y-83482666D01*
X120566000Y-83449333D01*
X120532666Y-83382666D01*
X121866000Y-89624666D02*
X122099333Y-89291333D01*
X122266000Y-89624666D02*
X122266000Y-88924666D01*
X121999333Y-88924666D01*
X121932666Y-88958000D01*
X121899333Y-88991333D01*
X121866000Y-89058000D01*
X121866000Y-89158000D01*
X121899333Y-89224666D01*
X121932666Y-89258000D01*
X121999333Y-89291333D01*
X122266000Y-89291333D01*
X121199333Y-89624666D02*
X121599333Y-89624666D01*
X121399333Y-89624666D02*
X121399333Y-88924666D01*
X121466000Y-89024666D01*
X121532666Y-89091333D01*
X121599333Y-89124666D01*
X120566000Y-88924666D02*
X120899333Y-88924666D01*
X120932666Y-89258000D01*
X120899333Y-89224666D01*
X120832666Y-89191333D01*
X120666000Y-89191333D01*
X120599333Y-89224666D01*
X120566000Y-89258000D01*
X120532666Y-89324666D01*
X120532666Y-89491333D01*
X120566000Y-89558000D01*
X120599333Y-89591333D01*
X120666000Y-89624666D01*
X120832666Y-89624666D01*
X120899333Y-89591333D01*
X120932666Y-89558000D01*
X118484666Y-90640666D02*
X118718000Y-90307333D01*
X118884666Y-90640666D02*
X118884666Y-89940666D01*
X118618000Y-89940666D01*
X118551333Y-89974000D01*
X118518000Y-90007333D01*
X118484666Y-90074000D01*
X118484666Y-90174000D01*
X118518000Y-90240666D01*
X118551333Y-90274000D01*
X118618000Y-90307333D01*
X118884666Y-90307333D01*
X118151333Y-90640666D02*
X118018000Y-90640666D01*
X117951333Y-90607333D01*
X117918000Y-90574000D01*
X117851333Y-90474000D01*
X117818000Y-90340666D01*
X117818000Y-90074000D01*
X117851333Y-90007333D01*
X117884666Y-89974000D01*
X117951333Y-89940666D01*
X118084666Y-89940666D01*
X118151333Y-89974000D01*
X118184666Y-90007333D01*
X118218000Y-90074000D01*
X118218000Y-90240666D01*
X118184666Y-90307333D01*
X118151333Y-90340666D01*
X118084666Y-90374000D01*
X117951333Y-90374000D01*
X117884666Y-90340666D01*
X117851333Y-90307333D01*
X117818000Y-90240666D01*
X121866000Y-93942666D02*
X122099333Y-93609333D01*
X122266000Y-93942666D02*
X122266000Y-93242666D01*
X121999333Y-93242666D01*
X121932666Y-93276000D01*
X121899333Y-93309333D01*
X121866000Y-93376000D01*
X121866000Y-93476000D01*
X121899333Y-93542666D01*
X121932666Y-93576000D01*
X121999333Y-93609333D01*
X122266000Y-93609333D01*
X121199333Y-93942666D02*
X121599333Y-93942666D01*
X121399333Y-93942666D02*
X121399333Y-93242666D01*
X121466000Y-93342666D01*
X121532666Y-93409333D01*
X121599333Y-93442666D01*
X120966000Y-93242666D02*
X120532666Y-93242666D01*
X120766000Y-93509333D01*
X120666000Y-93509333D01*
X120599333Y-93542666D01*
X120566000Y-93576000D01*
X120532666Y-93642666D01*
X120532666Y-93809333D01*
X120566000Y-93876000D01*
X120599333Y-93909333D01*
X120666000Y-93942666D01*
X120866000Y-93942666D01*
X120932666Y-93909333D01*
X120966000Y-93876000D01*
X126184000Y-92418666D02*
X126417333Y-92085333D01*
X126584000Y-92418666D02*
X126584000Y-91718666D01*
X126317333Y-91718666D01*
X126250666Y-91752000D01*
X126217333Y-91785333D01*
X126184000Y-91852000D01*
X126184000Y-91952000D01*
X126217333Y-92018666D01*
X126250666Y-92052000D01*
X126317333Y-92085333D01*
X126584000Y-92085333D01*
X125517333Y-92418666D02*
X125917333Y-92418666D01*
X125717333Y-92418666D02*
X125717333Y-91718666D01*
X125784000Y-91818666D01*
X125850666Y-91885333D01*
X125917333Y-91918666D01*
X124917333Y-91952000D02*
X124917333Y-92418666D01*
X125084000Y-91685333D02*
X125250666Y-92185333D01*
X124817333Y-92185333D01*
X126184000Y-87338666D02*
X126417333Y-87005333D01*
X126584000Y-87338666D02*
X126584000Y-86638666D01*
X126317333Y-86638666D01*
X126250666Y-86672000D01*
X126217333Y-86705333D01*
X126184000Y-86772000D01*
X126184000Y-86872000D01*
X126217333Y-86938666D01*
X126250666Y-86972000D01*
X126317333Y-87005333D01*
X126584000Y-87005333D01*
X125517333Y-87338666D02*
X125917333Y-87338666D01*
X125717333Y-87338666D02*
X125717333Y-86638666D01*
X125784000Y-86738666D01*
X125850666Y-86805333D01*
X125917333Y-86838666D01*
X125117333Y-86938666D02*
X125184000Y-86905333D01*
X125217333Y-86872000D01*
X125250666Y-86805333D01*
X125250666Y-86772000D01*
X125217333Y-86705333D01*
X125184000Y-86672000D01*
X125117333Y-86638666D01*
X124984000Y-86638666D01*
X124917333Y-86672000D01*
X124884000Y-86705333D01*
X124850666Y-86772000D01*
X124850666Y-86805333D01*
X124884000Y-86872000D01*
X124917333Y-86905333D01*
X124984000Y-86938666D01*
X125117333Y-86938666D01*
X125184000Y-86972000D01*
X125217333Y-87005333D01*
X125250666Y-87072000D01*
X125250666Y-87205333D01*
X125217333Y-87272000D01*
X125184000Y-87305333D01*
X125117333Y-87338666D01*
X124984000Y-87338666D01*
X124917333Y-87305333D01*
X124884000Y-87272000D01*
X124850666Y-87205333D01*
X124850666Y-87072000D01*
X124884000Y-87005333D01*
X124917333Y-86972000D01*
X124984000Y-86938666D01*
X104333333Y-76952380D02*
X104333333Y-77666666D01*
X104380952Y-77809523D01*
X104476190Y-77904761D01*
X104619047Y-77952380D01*
X104714285Y-77952380D01*
X103904761Y-77047619D02*
X103857142Y-77000000D01*
X103761904Y-76952380D01*
X103523809Y-76952380D01*
X103428571Y-77000000D01*
X103380952Y-77047619D01*
X103333333Y-77142857D01*
X103333333Y-77238095D01*
X103380952Y-77380952D01*
X103952380Y-77952380D01*
X103333333Y-77952380D01*
X119333333Y-76952380D02*
X119333333Y-77666666D01*
X119380952Y-77809523D01*
X119476190Y-77904761D01*
X119619047Y-77952380D01*
X119714285Y-77952380D01*
X118333333Y-77952380D02*
X118904761Y-77952380D01*
X118619047Y-77952380D02*
X118619047Y-76952380D01*
X118714285Y-77095238D01*
X118809523Y-77190476D01*
X118904761Y-77238095D01*
X91184000Y-84798666D02*
X91417333Y-84465333D01*
X91584000Y-84798666D02*
X91584000Y-84098666D01*
X91317333Y-84098666D01*
X91250666Y-84132000D01*
X91217333Y-84165333D01*
X91184000Y-84232000D01*
X91184000Y-84332000D01*
X91217333Y-84398666D01*
X91250666Y-84432000D01*
X91317333Y-84465333D01*
X91584000Y-84465333D01*
X90917333Y-84165333D02*
X90884000Y-84132000D01*
X90817333Y-84098666D01*
X90650666Y-84098666D01*
X90584000Y-84132000D01*
X90550666Y-84165333D01*
X90517333Y-84232000D01*
X90517333Y-84298666D01*
X90550666Y-84398666D01*
X90950666Y-84798666D01*
X90517333Y-84798666D01*
X90084000Y-84098666D02*
X90017333Y-84098666D01*
X89950666Y-84132000D01*
X89917333Y-84165333D01*
X89884000Y-84232000D01*
X89850666Y-84365333D01*
X89850666Y-84532000D01*
X89884000Y-84665333D01*
X89917333Y-84732000D01*
X89950666Y-84765333D01*
X90017333Y-84798666D01*
X90084000Y-84798666D01*
X90150666Y-84765333D01*
X90184000Y-84732000D01*
X90217333Y-84665333D01*
X90250666Y-84532000D01*
X90250666Y-84365333D01*
X90217333Y-84232000D01*
X90184000Y-84165333D01*
X90150666Y-84132000D01*
X90084000Y-84098666D01*
X86866000Y-83782666D02*
X87099333Y-83449333D01*
X87266000Y-83782666D02*
X87266000Y-83082666D01*
X86999333Y-83082666D01*
X86932666Y-83116000D01*
X86899333Y-83149333D01*
X86866000Y-83216000D01*
X86866000Y-83316000D01*
X86899333Y-83382666D01*
X86932666Y-83416000D01*
X86999333Y-83449333D01*
X87266000Y-83449333D01*
X86199333Y-83782666D02*
X86599333Y-83782666D01*
X86399333Y-83782666D02*
X86399333Y-83082666D01*
X86466000Y-83182666D01*
X86532666Y-83249333D01*
X86599333Y-83282666D01*
X85866000Y-83782666D02*
X85732666Y-83782666D01*
X85666000Y-83749333D01*
X85632666Y-83716000D01*
X85566000Y-83616000D01*
X85532666Y-83482666D01*
X85532666Y-83216000D01*
X85566000Y-83149333D01*
X85599333Y-83116000D01*
X85666000Y-83082666D01*
X85799333Y-83082666D01*
X85866000Y-83116000D01*
X85899333Y-83149333D01*
X85932666Y-83216000D01*
X85932666Y-83382666D01*
X85899333Y-83449333D01*
X85866000Y-83482666D01*
X85799333Y-83516000D01*
X85666000Y-83516000D01*
X85599333Y-83482666D01*
X85566000Y-83449333D01*
X85532666Y-83382666D01*
X91184000Y-87338666D02*
X91417333Y-87005333D01*
X91584000Y-87338666D02*
X91584000Y-86638666D01*
X91317333Y-86638666D01*
X91250666Y-86672000D01*
X91217333Y-86705333D01*
X91184000Y-86772000D01*
X91184000Y-86872000D01*
X91217333Y-86938666D01*
X91250666Y-86972000D01*
X91317333Y-87005333D01*
X91584000Y-87005333D01*
X90517333Y-87338666D02*
X90917333Y-87338666D01*
X90717333Y-87338666D02*
X90717333Y-86638666D01*
X90784000Y-86738666D01*
X90850666Y-86805333D01*
X90917333Y-86838666D01*
X90117333Y-86938666D02*
X90184000Y-86905333D01*
X90217333Y-86872000D01*
X90250666Y-86805333D01*
X90250666Y-86772000D01*
X90217333Y-86705333D01*
X90184000Y-86672000D01*
X90117333Y-86638666D01*
X89984000Y-86638666D01*
X89917333Y-86672000D01*
X89884000Y-86705333D01*
X89850666Y-86772000D01*
X89850666Y-86805333D01*
X89884000Y-86872000D01*
X89917333Y-86905333D01*
X89984000Y-86938666D01*
X90117333Y-86938666D01*
X90184000Y-86972000D01*
X90217333Y-87005333D01*
X90250666Y-87072000D01*
X90250666Y-87205333D01*
X90217333Y-87272000D01*
X90184000Y-87305333D01*
X90117333Y-87338666D01*
X89984000Y-87338666D01*
X89917333Y-87305333D01*
X89884000Y-87272000D01*
X89850666Y-87205333D01*
X89850666Y-87072000D01*
X89884000Y-87005333D01*
X89917333Y-86972000D01*
X89984000Y-86938666D01*
X86866000Y-88100666D02*
X87099333Y-87767333D01*
X87266000Y-88100666D02*
X87266000Y-87400666D01*
X86999333Y-87400666D01*
X86932666Y-87434000D01*
X86899333Y-87467333D01*
X86866000Y-87534000D01*
X86866000Y-87634000D01*
X86899333Y-87700666D01*
X86932666Y-87734000D01*
X86999333Y-87767333D01*
X87266000Y-87767333D01*
X86199333Y-88100666D02*
X86599333Y-88100666D01*
X86399333Y-88100666D02*
X86399333Y-87400666D01*
X86466000Y-87500666D01*
X86532666Y-87567333D01*
X86599333Y-87600666D01*
X85966000Y-87400666D02*
X85499333Y-87400666D01*
X85799333Y-88100666D01*
X91184000Y-89878666D02*
X91417333Y-89545333D01*
X91584000Y-89878666D02*
X91584000Y-89178666D01*
X91317333Y-89178666D01*
X91250666Y-89212000D01*
X91217333Y-89245333D01*
X91184000Y-89312000D01*
X91184000Y-89412000D01*
X91217333Y-89478666D01*
X91250666Y-89512000D01*
X91317333Y-89545333D01*
X91584000Y-89545333D01*
X90517333Y-89878666D02*
X90917333Y-89878666D01*
X90717333Y-89878666D02*
X90717333Y-89178666D01*
X90784000Y-89278666D01*
X90850666Y-89345333D01*
X90917333Y-89378666D01*
X89917333Y-89178666D02*
X90050666Y-89178666D01*
X90117333Y-89212000D01*
X90150666Y-89245333D01*
X90217333Y-89345333D01*
X90250666Y-89478666D01*
X90250666Y-89745333D01*
X90217333Y-89812000D01*
X90184000Y-89845333D01*
X90117333Y-89878666D01*
X89984000Y-89878666D01*
X89917333Y-89845333D01*
X89884000Y-89812000D01*
X89850666Y-89745333D01*
X89850666Y-89578666D01*
X89884000Y-89512000D01*
X89917333Y-89478666D01*
X89984000Y-89445333D01*
X90117333Y-89445333D01*
X90184000Y-89478666D01*
X90217333Y-89512000D01*
X90250666Y-89578666D01*
X86866000Y-89624666D02*
X87099333Y-89291333D01*
X87266000Y-89624666D02*
X87266000Y-88924666D01*
X86999333Y-88924666D01*
X86932666Y-88958000D01*
X86899333Y-88991333D01*
X86866000Y-89058000D01*
X86866000Y-89158000D01*
X86899333Y-89224666D01*
X86932666Y-89258000D01*
X86999333Y-89291333D01*
X87266000Y-89291333D01*
X86199333Y-89624666D02*
X86599333Y-89624666D01*
X86399333Y-89624666D02*
X86399333Y-88924666D01*
X86466000Y-89024666D01*
X86532666Y-89091333D01*
X86599333Y-89124666D01*
X85566000Y-88924666D02*
X85899333Y-88924666D01*
X85932666Y-89258000D01*
X85899333Y-89224666D01*
X85832666Y-89191333D01*
X85666000Y-89191333D01*
X85599333Y-89224666D01*
X85566000Y-89258000D01*
X85532666Y-89324666D01*
X85532666Y-89491333D01*
X85566000Y-89558000D01*
X85599333Y-89591333D01*
X85666000Y-89624666D01*
X85832666Y-89624666D01*
X85899333Y-89591333D01*
X85932666Y-89558000D01*
X91184000Y-92418666D02*
X91417333Y-92085333D01*
X91584000Y-92418666D02*
X91584000Y-91718666D01*
X91317333Y-91718666D01*
X91250666Y-91752000D01*
X91217333Y-91785333D01*
X91184000Y-91852000D01*
X91184000Y-91952000D01*
X91217333Y-92018666D01*
X91250666Y-92052000D01*
X91317333Y-92085333D01*
X91584000Y-92085333D01*
X90517333Y-92418666D02*
X90917333Y-92418666D01*
X90717333Y-92418666D02*
X90717333Y-91718666D01*
X90784000Y-91818666D01*
X90850666Y-91885333D01*
X90917333Y-91918666D01*
X89917333Y-91952000D02*
X89917333Y-92418666D01*
X90084000Y-91685333D02*
X90250666Y-92185333D01*
X89817333Y-92185333D01*
X86866000Y-93942666D02*
X87099333Y-93609333D01*
X87266000Y-93942666D02*
X87266000Y-93242666D01*
X86999333Y-93242666D01*
X86932666Y-93276000D01*
X86899333Y-93309333D01*
X86866000Y-93376000D01*
X86866000Y-93476000D01*
X86899333Y-93542666D01*
X86932666Y-93576000D01*
X86999333Y-93609333D01*
X87266000Y-93609333D01*
X86199333Y-93942666D02*
X86599333Y-93942666D01*
X86399333Y-93942666D02*
X86399333Y-93242666D01*
X86466000Y-93342666D01*
X86532666Y-93409333D01*
X86599333Y-93442666D01*
X85966000Y-93242666D02*
X85532666Y-93242666D01*
X85766000Y-93509333D01*
X85666000Y-93509333D01*
X85599333Y-93542666D01*
X85566000Y-93576000D01*
X85532666Y-93642666D01*
X85532666Y-93809333D01*
X85566000Y-93876000D01*
X85599333Y-93909333D01*
X85666000Y-93942666D01*
X85866000Y-93942666D01*
X85932666Y-93909333D01*
X85966000Y-93876000D01*
X83564000Y-86576666D02*
X83797333Y-86243333D01*
X83964000Y-86576666D02*
X83964000Y-85876666D01*
X83697333Y-85876666D01*
X83630666Y-85910000D01*
X83597333Y-85943333D01*
X83564000Y-86010000D01*
X83564000Y-86110000D01*
X83597333Y-86176666D01*
X83630666Y-86210000D01*
X83697333Y-86243333D01*
X83964000Y-86243333D01*
X82897333Y-86576666D02*
X83297333Y-86576666D01*
X83097333Y-86576666D02*
X83097333Y-85876666D01*
X83164000Y-85976666D01*
X83230666Y-86043333D01*
X83297333Y-86076666D01*
X82464000Y-85876666D02*
X82397333Y-85876666D01*
X82330666Y-85910000D01*
X82297333Y-85943333D01*
X82264000Y-86010000D01*
X82230666Y-86143333D01*
X82230666Y-86310000D01*
X82264000Y-86443333D01*
X82297333Y-86510000D01*
X82330666Y-86543333D01*
X82397333Y-86576666D01*
X82464000Y-86576666D01*
X82530666Y-86543333D01*
X82564000Y-86510000D01*
X82597333Y-86443333D01*
X82630666Y-86310000D01*
X82630666Y-86143333D01*
X82597333Y-86010000D01*
X82564000Y-85943333D01*
X82530666Y-85910000D01*
X82464000Y-85876666D01*
X83484666Y-90640666D02*
X83718000Y-90307333D01*
X83884666Y-90640666D02*
X83884666Y-89940666D01*
X83618000Y-89940666D01*
X83551333Y-89974000D01*
X83518000Y-90007333D01*
X83484666Y-90074000D01*
X83484666Y-90174000D01*
X83518000Y-90240666D01*
X83551333Y-90274000D01*
X83618000Y-90307333D01*
X83884666Y-90307333D01*
X83151333Y-90640666D02*
X83018000Y-90640666D01*
X82951333Y-90607333D01*
X82918000Y-90574000D01*
X82851333Y-90474000D01*
X82818000Y-90340666D01*
X82818000Y-90074000D01*
X82851333Y-90007333D01*
X82884666Y-89974000D01*
X82951333Y-89940666D01*
X83084666Y-89940666D01*
X83151333Y-89974000D01*
X83184666Y-90007333D01*
X83218000Y-90074000D01*
X83218000Y-90240666D01*
X83184666Y-90307333D01*
X83151333Y-90340666D01*
X83084666Y-90374000D01*
X82951333Y-90374000D01*
X82884666Y-90340666D01*
X82851333Y-90307333D01*
X82818000Y-90240666D01*
X69333333Y-76952380D02*
X69333333Y-77666666D01*
X69380952Y-77809523D01*
X69476190Y-77904761D01*
X69619047Y-77952380D01*
X69714285Y-77952380D01*
X68904761Y-77047619D02*
X68857142Y-77000000D01*
X68761904Y-76952380D01*
X68523809Y-76952380D01*
X68428571Y-77000000D01*
X68380952Y-77047619D01*
X68333333Y-77142857D01*
X68333333Y-77238095D01*
X68380952Y-77380952D01*
X68952380Y-77952380D01*
X68333333Y-77952380D01*
X84333333Y-76952380D02*
X84333333Y-77666666D01*
X84380952Y-77809523D01*
X84476190Y-77904761D01*
X84619047Y-77952380D01*
X84714285Y-77952380D01*
X83333333Y-77952380D02*
X83904761Y-77952380D01*
X83619047Y-77952380D02*
X83619047Y-76952380D01*
X83714285Y-77095238D01*
X83809523Y-77190476D01*
X83904761Y-77238095D01*
M02*
