M48
; DRILL file {KiCad (5.1.5)-3} date 27.06.2020 14:30:10
; FORMAT={2:4/ absolute / inch / suppress leading zeros}
; #@! TF.CreationDate,2020-06-27T14:30:10+02:00
; #@! TF.GenerationSoftware,Kicad,Pcbnew,(5.1.5)-3
; #@! TF.FileFunction,Plated,1,2,PTH
FMAT,2
INCH,TZ
T1C0.0118
T2C0.0157
T3C0.0300
T4C0.0354
T5C0.0394
T6C0.0550
T7C0.0591
%
G90
G05
T1
X51000Y-42750
X51278Y-42505
X51500Y-42250
X53000Y-41000
X53045Y-36776
X53242Y-23142
X53492Y-25392
X53492Y-25892
X53524Y-37004
X53742Y-23392
X54000Y-37250
X54492Y-22892
X54992Y-25642
X58000Y-40500
X58500Y-43250
X58992Y-28892
X59250Y-42750
X59468Y-29138
X59500Y-40250
X59500Y-40750
X59750Y-43000
X59947Y-29366
X59992Y-25142
X61492Y-23892
X61714Y-23637
X61992Y-23392
X64780Y-42750
X65058Y-42505
X65280Y-42250
X66780Y-41000
X66824Y-36776
X67022Y-23142
X67272Y-25392
X67272Y-25892
X67304Y-37004
X67522Y-23392
X67780Y-37250
X68272Y-22892
X68772Y-25642
X71780Y-40500
X72280Y-43250
X72772Y-28892
X73030Y-42750
X73248Y-29138
X73280Y-40250
X73280Y-40750
X73530Y-43000
X73727Y-29366
X73772Y-25142
X75272Y-23892
X75493Y-23637
X75772Y-23392
T2
X50500Y-42000
X51000Y-36750
X51378Y-24213
X51442Y-25842
X51442Y-28392
X51785Y-38750
X51842Y-27292
X51848Y-38066
X51875Y-39379
X51957Y-25892
X52362Y-40354
X52742Y-21642
X52992Y-25892
X53029Y-26829
X53592Y-26442
X53592Y-27239
X54000Y-41000
X54950Y-40350
X54992Y-24842
X55250Y-41500
X55457Y-27342
X55492Y-28892
X55569Y-38018
X55800Y-38656
X55800Y-40750
X55873Y-38269
X55992Y-25392
X56127Y-42215
X56242Y-24142
X56250Y-37500
X56392Y-25942
X56600Y-40200
X56742Y-28642
X56750Y-42000
X56865Y-23927
X57000Y-40750
X57119Y-27873
X57192Y-25392
X57192Y-27486
X57423Y-28123
X57500Y-37250
X57535Y-38800
X57742Y-24642
X58000Y-41300
X58042Y-25792
X58992Y-25142
X59400Y-38902
X59400Y-39700
X59963Y-39313
X60000Y-40250
X60250Y-44500
X60630Y-25787
X61035Y-40250
X61117Y-26763
X61144Y-28076
X61150Y-38850
X61207Y-27392
X61550Y-37750
X61550Y-40300
X61614Y-41929
X61992Y-29392
X62492Y-24142
X64280Y-42000
X64780Y-36750
X65157Y-24213
X65222Y-25842
X65222Y-28392
X65565Y-38750
X65622Y-27292
X65627Y-38066
X65655Y-39379
X65736Y-25892
X66142Y-40354
X66522Y-21642
X66772Y-25892
X66809Y-26829
X67372Y-26442
X67372Y-27239
X67780Y-41000
X68730Y-40350
X68772Y-24842
X69030Y-41500
X69236Y-27342
X69272Y-28892
X69349Y-38018
X69580Y-38656
X69580Y-40750
X69653Y-38269
X69772Y-25392
X69906Y-42215
X70022Y-24142
X70030Y-37500
X70172Y-25942
X70380Y-40200
X70522Y-28642
X70530Y-42000
X70645Y-23927
X70780Y-40750
X70898Y-27873
X70972Y-25392
X70972Y-27486
X71202Y-28123
X71280Y-37250
X71315Y-38800
X71522Y-24642
X71780Y-41300
X71822Y-25792
X72772Y-25142
X73180Y-38902
X73180Y-39700
X73743Y-39313
X73780Y-40250
X74030Y-44500
X74409Y-25787
X74815Y-40250
X74896Y-26763
X74924Y-28076
X74930Y-38850
X74986Y-27392
X75330Y-37750
X75330Y-40300
X75394Y-41929
X75772Y-29392
X76272Y-24142
T3
X61855Y-35921
X61855Y-36921
X75634Y-35921
X75634Y-36921
X64917Y-29221
X64917Y-30221
X51137Y-29221
X51137Y-30221
T4
X76181Y-43504
X76181Y-44504
X50591Y-21638
X50591Y-22638
X64370Y-21638
X64370Y-22638
X62402Y-43504
X62402Y-44504
T5
X55992Y-30392
X55992Y-31392
X56992Y-30392
X56992Y-31392
X57992Y-30392
X57992Y-31392
X58992Y-30392
X58992Y-31392
X59992Y-30392
X59992Y-31392
X53000Y-34750
X53000Y-35750
X54000Y-34750
X54000Y-35750
X55000Y-34750
X55000Y-35750
X56000Y-34750
X56000Y-35750
X57000Y-34750
X57000Y-35750
X66780Y-34750
X66780Y-35750
X67780Y-34750
X67780Y-35750
X68780Y-34750
X68780Y-35750
X69780Y-34750
X69780Y-35750
X70780Y-34750
X70780Y-35750
X66522Y-29542
X66522Y-30542
X66522Y-31542
X67522Y-29542
X67522Y-30542
X67522Y-31542
X59250Y-34600
X59250Y-35600
X59250Y-36600
X60250Y-34600
X60250Y-35600
X60250Y-36600
X73030Y-34600
X73030Y-35600
X73030Y-36600
X74030Y-34600
X74030Y-35600
X74030Y-36600
X52742Y-29542
X52742Y-30542
X52742Y-31542
X53742Y-29542
X53742Y-30542
X53742Y-31542
X69772Y-30392
X69772Y-31392
X70772Y-30392
X70772Y-31392
X71772Y-30392
X71772Y-31392
X72772Y-30392
X72772Y-31392
X73772Y-30392
X73772Y-31392
T6
X64772Y-18142
X65772Y-22142
X66772Y-18142
X67772Y-22142
X68772Y-18142
X69772Y-22142
X70772Y-18142
X71772Y-22142
X72772Y-18142
X73772Y-22142
X74772Y-18142
X75772Y-22142
X50992Y-18142
X51992Y-22142
X52992Y-18142
X53992Y-22142
X54992Y-18142
X55992Y-22142
X56992Y-18142
X57992Y-22142
X58992Y-18142
X59992Y-22142
X60992Y-18142
X61992Y-22142
X64780Y-44000
X65780Y-48000
X66780Y-44000
X67780Y-48000
X68780Y-44000
X69780Y-48000
X70780Y-44000
X71780Y-48000
X72780Y-44000
X73780Y-48000
X74780Y-44000
X75780Y-48000
X51000Y-44000
X52000Y-48000
X53000Y-44000
X54000Y-48000
X55000Y-44000
X56000Y-48000
X57000Y-44000
X58000Y-48000
X59000Y-44000
X60000Y-48000
X61000Y-44000
X62000Y-48000
T7
X53652Y-39069
X59341Y-27073
X67431Y-39069
X73120Y-27073
T0
M30
