G04 #@! TF.GenerationSoftware,KiCad,Pcbnew,(5.1.5)-3*
G04 #@! TF.CreationDate,2020-06-27T14:29:51+02:00*
G04 #@! TF.ProjectId,REM-MM_4,52454d2d-4d4d-45f3-942e-6b696361645f,V1.0*
G04 #@! TF.SameCoordinates,Original*
G04 #@! TF.FileFunction,Legend,Bot*
G04 #@! TF.FilePolarity,Positive*
%FSLAX46Y46*%
G04 Gerber Fmt 4.6, Leading zero omitted, Abs format (unit mm)*
G04 Created by KiCad (PCBNEW (5.1.5)-3) date 2020-06-27 14:29:51*
%MOMM*%
%LPD*%
G04 APERTURE LIST*
%ADD10C,0.070000*%
%ADD11C,0.100000*%
%ADD12C,0.150000*%
%ADD13C,0.500000*%
%ADD14C,0.120000*%
G04 APERTURE END LIST*
D10*
X169112166Y-62303333D02*
X168878833Y-62636666D01*
X168712166Y-62303333D02*
X168712166Y-63003333D01*
X168978833Y-63003333D01*
X169045500Y-62970000D01*
X169078833Y-62936666D01*
X169112166Y-62870000D01*
X169112166Y-62770000D01*
X169078833Y-62703333D01*
X169045500Y-62670000D01*
X168978833Y-62636666D01*
X168712166Y-62636666D01*
X169412166Y-62670000D02*
X169645500Y-62670000D01*
X169745500Y-62303333D02*
X169412166Y-62303333D01*
X169412166Y-63003333D01*
X169745500Y-63003333D01*
X170045500Y-62303333D02*
X170045500Y-63003333D01*
X170278833Y-62503333D01*
X170512166Y-63003333D01*
X170512166Y-62303333D01*
X170845500Y-62570000D02*
X171378833Y-62570000D01*
X171712166Y-62303333D02*
X171712166Y-63003333D01*
X171945500Y-62503333D01*
X172178833Y-63003333D01*
X172178833Y-62303333D01*
X172512166Y-62303333D02*
X172512166Y-63003333D01*
X172745500Y-62503333D01*
X172978833Y-63003333D01*
X172978833Y-62303333D01*
X173745500Y-63003333D02*
X173978833Y-62303333D01*
X174212166Y-63003333D01*
X174812166Y-62303333D02*
X174412166Y-62303333D01*
X174612166Y-62303333D02*
X174612166Y-63003333D01*
X174545500Y-62903333D01*
X174478833Y-62836666D01*
X174412166Y-62803333D01*
X175112166Y-62370000D02*
X175145500Y-62336666D01*
X175112166Y-62303333D01*
X175078833Y-62336666D01*
X175112166Y-62370000D01*
X175112166Y-62303333D01*
X175578833Y-63003333D02*
X175645500Y-63003333D01*
X175712166Y-62970000D01*
X175745500Y-62936666D01*
X175778833Y-62870000D01*
X175812166Y-62736666D01*
X175812166Y-62570000D01*
X175778833Y-62436666D01*
X175745500Y-62370000D01*
X175712166Y-62336666D01*
X175645500Y-62303333D01*
X175578833Y-62303333D01*
X175512166Y-62336666D01*
X175478833Y-62370000D01*
X175445500Y-62436666D01*
X175412166Y-62570000D01*
X175412166Y-62736666D01*
X175445500Y-62870000D01*
X175478833Y-62936666D01*
X175512166Y-62970000D01*
X175578833Y-63003333D01*
X168678833Y-61816666D02*
X168712166Y-61850000D01*
X168778833Y-61883333D01*
X168945500Y-61883333D01*
X169012166Y-61850000D01*
X169045500Y-61816666D01*
X169078833Y-61750000D01*
X169078833Y-61683333D01*
X169045500Y-61583333D01*
X168645500Y-61183333D01*
X169078833Y-61183333D01*
X169312166Y-61883333D02*
X169778833Y-61883333D01*
X169478833Y-61183333D01*
X170045500Y-61250000D02*
X170078833Y-61216666D01*
X170045500Y-61183333D01*
X170012166Y-61216666D01*
X170045500Y-61250000D01*
X170045500Y-61183333D01*
X170678833Y-61883333D02*
X170545500Y-61883333D01*
X170478833Y-61850000D01*
X170445500Y-61816666D01*
X170378833Y-61716666D01*
X170345500Y-61583333D01*
X170345500Y-61316666D01*
X170378833Y-61250000D01*
X170412166Y-61216666D01*
X170478833Y-61183333D01*
X170612166Y-61183333D01*
X170678833Y-61216666D01*
X170712166Y-61250000D01*
X170745500Y-61316666D01*
X170745500Y-61483333D01*
X170712166Y-61550000D01*
X170678833Y-61583333D01*
X170612166Y-61616666D01*
X170478833Y-61616666D01*
X170412166Y-61583333D01*
X170378833Y-61550000D01*
X170345500Y-61483333D01*
X171045500Y-61250000D02*
X171078833Y-61216666D01*
X171045500Y-61183333D01*
X171012166Y-61216666D01*
X171045500Y-61250000D01*
X171045500Y-61183333D01*
X171345500Y-61816666D02*
X171378833Y-61850000D01*
X171445500Y-61883333D01*
X171612166Y-61883333D01*
X171678833Y-61850000D01*
X171712166Y-61816666D01*
X171745500Y-61750000D01*
X171745500Y-61683333D01*
X171712166Y-61583333D01*
X171312166Y-61183333D01*
X171745500Y-61183333D01*
X172178833Y-61883333D02*
X172245500Y-61883333D01*
X172312166Y-61850000D01*
X172345500Y-61816666D01*
X172378833Y-61750000D01*
X172412166Y-61616666D01*
X172412166Y-61450000D01*
X172378833Y-61316666D01*
X172345500Y-61250000D01*
X172312166Y-61216666D01*
X172245500Y-61183333D01*
X172178833Y-61183333D01*
X172112166Y-61216666D01*
X172078833Y-61250000D01*
X172045500Y-61316666D01*
X172012166Y-61450000D01*
X172012166Y-61616666D01*
X172045500Y-61750000D01*
X172078833Y-61816666D01*
X172112166Y-61850000D01*
X172178833Y-61883333D01*
X172678833Y-61816666D02*
X172712166Y-61850000D01*
X172778833Y-61883333D01*
X172945500Y-61883333D01*
X173012166Y-61850000D01*
X173045500Y-61816666D01*
X173078833Y-61750000D01*
X173078833Y-61683333D01*
X173045500Y-61583333D01*
X172645500Y-61183333D01*
X173078833Y-61183333D01*
X173512166Y-61883333D02*
X173578833Y-61883333D01*
X173645500Y-61850000D01*
X173678833Y-61816666D01*
X173712166Y-61750000D01*
X173745500Y-61616666D01*
X173745500Y-61450000D01*
X173712166Y-61316666D01*
X173678833Y-61250000D01*
X173645500Y-61216666D01*
X173578833Y-61183333D01*
X173512166Y-61183333D01*
X173445500Y-61216666D01*
X173412166Y-61250000D01*
X173378833Y-61316666D01*
X173345500Y-61450000D01*
X173345500Y-61616666D01*
X173378833Y-61750000D01*
X173412166Y-61816666D01*
X173445500Y-61850000D01*
X173512166Y-61883333D01*
X168912166Y-59796666D02*
X168878833Y-59830000D01*
X168812166Y-59930000D01*
X168778833Y-59996666D01*
X168745500Y-60096666D01*
X168712166Y-60263333D01*
X168712166Y-60396666D01*
X168745500Y-60563333D01*
X168778833Y-60663333D01*
X168812166Y-60730000D01*
X168878833Y-60830000D01*
X168912166Y-60863333D01*
X169478833Y-60096666D02*
X169412166Y-60063333D01*
X169278833Y-60063333D01*
X169212166Y-60096666D01*
X169178833Y-60130000D01*
X169145500Y-60196666D01*
X169145500Y-60396666D01*
X169178833Y-60463333D01*
X169212166Y-60496666D01*
X169278833Y-60530000D01*
X169412166Y-60530000D01*
X169478833Y-60496666D01*
X169712166Y-59796666D02*
X169745500Y-59830000D01*
X169812166Y-59930000D01*
X169845500Y-59996666D01*
X169878833Y-60096666D01*
X169912166Y-60263333D01*
X169912166Y-60396666D01*
X169878833Y-60563333D01*
X169845500Y-60663333D01*
X169812166Y-60730000D01*
X169745500Y-60830000D01*
X169712166Y-60863333D01*
X171178833Y-60063333D02*
X170945500Y-60396666D01*
X170778833Y-60063333D02*
X170778833Y-60763333D01*
X171045500Y-60763333D01*
X171112166Y-60730000D01*
X171145500Y-60696666D01*
X171178833Y-60630000D01*
X171178833Y-60530000D01*
X171145500Y-60463333D01*
X171112166Y-60430000D01*
X171045500Y-60396666D01*
X170778833Y-60396666D01*
X171778833Y-60063333D02*
X171778833Y-60430000D01*
X171745500Y-60496666D01*
X171678833Y-60530000D01*
X171545500Y-60530000D01*
X171478833Y-60496666D01*
X171778833Y-60096666D02*
X171712166Y-60063333D01*
X171545500Y-60063333D01*
X171478833Y-60096666D01*
X171445500Y-60163333D01*
X171445500Y-60230000D01*
X171478833Y-60296666D01*
X171545500Y-60330000D01*
X171712166Y-60330000D01*
X171778833Y-60363333D01*
X172112166Y-60063333D02*
X172112166Y-60530000D01*
X172112166Y-60763333D02*
X172078833Y-60730000D01*
X172112166Y-60696666D01*
X172145500Y-60730000D01*
X172112166Y-60763333D01*
X172112166Y-60696666D01*
X172445500Y-60530000D02*
X172445500Y-60063333D01*
X172445500Y-60463333D02*
X172478833Y-60496666D01*
X172545500Y-60530000D01*
X172645500Y-60530000D01*
X172712166Y-60496666D01*
X172745500Y-60430000D01*
X172745500Y-60063333D01*
X173345500Y-60096666D02*
X173278833Y-60063333D01*
X173145500Y-60063333D01*
X173078833Y-60096666D01*
X173045500Y-60163333D01*
X173045500Y-60430000D01*
X173078833Y-60496666D01*
X173145500Y-60530000D01*
X173278833Y-60530000D01*
X173345500Y-60496666D01*
X173378833Y-60430000D01*
X173378833Y-60363333D01*
X173045500Y-60296666D01*
X173678833Y-60063333D02*
X173678833Y-60530000D01*
X173678833Y-60396666D02*
X173712166Y-60463333D01*
X173745500Y-60496666D01*
X173812166Y-60530000D01*
X173878833Y-60530000D01*
X174645500Y-60063333D02*
X174645500Y-60763333D01*
X174912166Y-60763333D01*
X174978833Y-60730000D01*
X175012166Y-60696666D01*
X175045500Y-60630000D01*
X175045500Y-60530000D01*
X175012166Y-60463333D01*
X174978833Y-60430000D01*
X174912166Y-60396666D01*
X174645500Y-60396666D01*
X175612166Y-60096666D02*
X175545500Y-60063333D01*
X175412166Y-60063333D01*
X175345500Y-60096666D01*
X175312166Y-60163333D01*
X175312166Y-60430000D01*
X175345500Y-60496666D01*
X175412166Y-60530000D01*
X175545500Y-60530000D01*
X175612166Y-60496666D01*
X175645500Y-60430000D01*
X175645500Y-60363333D01*
X175312166Y-60296666D01*
X175845500Y-60530000D02*
X176112166Y-60530000D01*
X175945500Y-60763333D02*
X175945500Y-60163333D01*
X175978833Y-60096666D01*
X176045500Y-60063333D01*
X176112166Y-60063333D01*
X176278833Y-60530000D02*
X176645500Y-60530000D01*
X176278833Y-60063333D01*
X176645500Y-60063333D01*
X177012166Y-60063333D02*
X176945500Y-60096666D01*
X176912166Y-60130000D01*
X176878833Y-60196666D01*
X176878833Y-60396666D01*
X176912166Y-60463333D01*
X176945500Y-60496666D01*
X177012166Y-60530000D01*
X177112166Y-60530000D01*
X177178833Y-60496666D01*
X177212166Y-60463333D01*
X177245500Y-60396666D01*
X177245500Y-60196666D01*
X177212166Y-60130000D01*
X177178833Y-60096666D01*
X177112166Y-60063333D01*
X177012166Y-60063333D01*
X177645500Y-60063333D02*
X177578833Y-60096666D01*
X177545500Y-60163333D01*
X177545500Y-60763333D01*
X178212166Y-60063333D02*
X178212166Y-60763333D01*
X178212166Y-60096666D02*
X178145500Y-60063333D01*
X178012166Y-60063333D01*
X177945500Y-60096666D01*
X177912166Y-60130000D01*
X177878833Y-60196666D01*
X177878833Y-60396666D01*
X177912166Y-60463333D01*
X177945500Y-60496666D01*
X178012166Y-60530000D01*
X178145500Y-60530000D01*
X178212166Y-60496666D01*
X178445500Y-60530000D02*
X178712166Y-60530000D01*
X178545500Y-60763333D02*
X178545500Y-60163333D01*
X178578833Y-60096666D01*
X178645500Y-60063333D01*
X178712166Y-60063333D01*
D11*
X162828571Y-67828571D02*
X163361904Y-67828571D01*
X162523809Y-67638095D02*
X163095238Y-67447619D01*
X163095238Y-67942857D01*
X162638095Y-68209523D02*
X162600000Y-68247619D01*
X162561904Y-68323809D01*
X162561904Y-68514285D01*
X162600000Y-68590476D01*
X162638095Y-68628571D01*
X162714285Y-68666666D01*
X162790476Y-68666666D01*
X162904761Y-68628571D01*
X163361904Y-68171428D01*
X163361904Y-68666666D01*
X163323809Y-69047619D02*
X163361904Y-69047619D01*
X163438095Y-69009523D01*
X163476190Y-68971428D01*
X162561904Y-69542857D02*
X162561904Y-69619047D01*
X162600000Y-69695238D01*
X162638095Y-69733333D01*
X162714285Y-69771428D01*
X162866666Y-69809523D01*
X163057142Y-69809523D01*
X163209523Y-69771428D01*
X163285714Y-69733333D01*
X163323809Y-69695238D01*
X163361904Y-69619047D01*
X163361904Y-69542857D01*
X163323809Y-69466666D01*
X163285714Y-69428571D01*
X163209523Y-69390476D01*
X163057142Y-69352380D01*
X162866666Y-69352380D01*
X162714285Y-69390476D01*
X162638095Y-69428571D01*
X162600000Y-69466666D01*
X162561904Y-69542857D01*
X163361904Y-70761904D02*
X162828571Y-70761904D01*
X162904761Y-70761904D02*
X162866666Y-70800000D01*
X162828571Y-70876190D01*
X162828571Y-70990476D01*
X162866666Y-71066666D01*
X162942857Y-71104761D01*
X163361904Y-71104761D01*
X162942857Y-71104761D02*
X162866666Y-71142857D01*
X162828571Y-71219047D01*
X162828571Y-71333333D01*
X162866666Y-71409523D01*
X162942857Y-71447619D01*
X163361904Y-71447619D01*
X163361904Y-71828571D02*
X162828571Y-71828571D01*
X162904761Y-71828571D02*
X162866666Y-71866666D01*
X162828571Y-71942857D01*
X162828571Y-72057142D01*
X162866666Y-72133333D01*
X162942857Y-72171428D01*
X163361904Y-72171428D01*
X162942857Y-72171428D02*
X162866666Y-72209523D01*
X162828571Y-72285714D01*
X162828571Y-72400000D01*
X162866666Y-72476190D01*
X162942857Y-72514285D01*
X163361904Y-72514285D01*
X164020000Y-40999724D02*
X164000000Y-82999724D01*
X162000000Y-40998762D02*
X164606420Y-41000003D01*
X161980000Y-82998762D02*
X164586420Y-83000003D01*
X164000000Y-82999724D02*
X163414116Y-81872941D01*
X164000000Y-82999724D02*
X164586957Y-81873500D01*
X164020000Y-40999724D02*
X163433043Y-42125948D01*
X164020000Y-40999724D02*
X164605884Y-42126507D01*
X194085714Y-77338095D02*
X194047619Y-77300000D01*
X193971428Y-77261904D01*
X193780952Y-77261904D01*
X193704761Y-77300000D01*
X193666666Y-77338095D01*
X193628571Y-77414285D01*
X193628571Y-77490476D01*
X193666666Y-77604761D01*
X194123809Y-78061904D01*
X193628571Y-78061904D01*
X193247619Y-78023809D02*
X193247619Y-78061904D01*
X193285714Y-78138095D01*
X193323809Y-78176190D01*
X192523809Y-77261904D02*
X192904761Y-77261904D01*
X192942857Y-77642857D01*
X192904761Y-77604761D01*
X192828571Y-77566666D01*
X192638095Y-77566666D01*
X192561904Y-77604761D01*
X192523809Y-77642857D01*
X192485714Y-77719047D01*
X192485714Y-77909523D01*
X192523809Y-77985714D01*
X192561904Y-78023809D01*
X192638095Y-78061904D01*
X192828571Y-78061904D01*
X192904761Y-78023809D01*
X192942857Y-77985714D01*
X191533333Y-78061904D02*
X191533333Y-77528571D01*
X191533333Y-77604761D02*
X191495238Y-77566666D01*
X191419047Y-77528571D01*
X191304761Y-77528571D01*
X191228571Y-77566666D01*
X191190476Y-77642857D01*
X191190476Y-78061904D01*
X191190476Y-77642857D02*
X191152380Y-77566666D01*
X191076190Y-77528571D01*
X190961904Y-77528571D01*
X190885714Y-77566666D01*
X190847619Y-77642857D01*
X190847619Y-78061904D01*
X190466666Y-78061904D02*
X190466666Y-77528571D01*
X190466666Y-77604761D02*
X190428571Y-77566666D01*
X190352380Y-77528571D01*
X190238095Y-77528571D01*
X190161904Y-77566666D01*
X190123809Y-77642857D01*
X190123809Y-78061904D01*
X190123809Y-77642857D02*
X190085714Y-77566666D01*
X190009523Y-77528571D01*
X189895238Y-77528571D01*
X189819047Y-77566666D01*
X189780952Y-77642857D01*
X189780952Y-78061904D01*
D12*
X192500000Y-79000000D02*
X195000000Y-79000000D01*
X192500000Y-80500000D02*
X192500000Y-78413579D01*
X195000000Y-80500000D02*
X195000000Y-78413579D01*
X195000000Y-79000000D02*
X193873496Y-79586421D01*
X195000000Y-79000000D02*
X193873496Y-78413579D01*
X192500000Y-79000000D02*
X193626504Y-79586421D01*
X192500000Y-79000000D02*
X193626504Y-78413579D01*
D11*
X166335714Y-89938095D02*
X166297619Y-89900000D01*
X166221428Y-89861904D01*
X166030952Y-89861904D01*
X165954761Y-89900000D01*
X165916666Y-89938095D01*
X165878571Y-90014285D01*
X165878571Y-90090476D01*
X165916666Y-90204761D01*
X166373809Y-90661904D01*
X165878571Y-90661904D01*
X165497619Y-90623809D02*
X165497619Y-90661904D01*
X165535714Y-90738095D01*
X165573809Y-90776190D01*
X164773809Y-89861904D02*
X165154761Y-89861904D01*
X165192857Y-90242857D01*
X165154761Y-90204761D01*
X165078571Y-90166666D01*
X164888095Y-90166666D01*
X164811904Y-90204761D01*
X164773809Y-90242857D01*
X164735714Y-90319047D01*
X164735714Y-90509523D01*
X164773809Y-90585714D01*
X164811904Y-90623809D01*
X164888095Y-90661904D01*
X165078571Y-90661904D01*
X165154761Y-90623809D01*
X165192857Y-90585714D01*
X163783333Y-90661904D02*
X163783333Y-90128571D01*
X163783333Y-90204761D02*
X163745238Y-90166666D01*
X163669047Y-90128571D01*
X163554761Y-90128571D01*
X163478571Y-90166666D01*
X163440476Y-90242857D01*
X163440476Y-90661904D01*
X163440476Y-90242857D02*
X163402380Y-90166666D01*
X163326190Y-90128571D01*
X163211904Y-90128571D01*
X163135714Y-90166666D01*
X163097619Y-90242857D01*
X163097619Y-90661904D01*
X162716666Y-90661904D02*
X162716666Y-90128571D01*
X162716666Y-90204761D02*
X162678571Y-90166666D01*
X162602380Y-90128571D01*
X162488095Y-90128571D01*
X162411904Y-90166666D01*
X162373809Y-90242857D01*
X162373809Y-90661904D01*
X162373809Y-90242857D02*
X162335714Y-90166666D01*
X162259523Y-90128571D01*
X162145238Y-90128571D01*
X162069047Y-90166666D01*
X162030952Y-90242857D01*
X162030952Y-90661904D01*
D12*
X164500000Y-89000000D02*
X162000000Y-89000000D01*
X164500000Y-87500000D02*
X164500000Y-89586421D01*
X162000000Y-87500000D02*
X162000000Y-89586421D01*
X162000000Y-89000000D02*
X163126504Y-88413579D01*
X162000000Y-89000000D02*
X163126504Y-89586421D01*
X164500000Y-89000000D02*
X163373496Y-88413579D01*
X164500000Y-89000000D02*
X163373496Y-89586421D01*
D11*
X195000000Y-83000000D02*
X162000000Y-83000000D01*
X181090476Y-81511904D02*
X180595238Y-81511904D01*
X180861904Y-81816666D01*
X180747619Y-81816666D01*
X180671428Y-81854761D01*
X180633333Y-81892857D01*
X180595238Y-81969047D01*
X180595238Y-82159523D01*
X180633333Y-82235714D01*
X180671428Y-82273809D01*
X180747619Y-82311904D01*
X180976190Y-82311904D01*
X181052380Y-82273809D01*
X181090476Y-82235714D01*
X180328571Y-81511904D02*
X179833333Y-81511904D01*
X180100000Y-81816666D01*
X179985714Y-81816666D01*
X179909523Y-81854761D01*
X179871428Y-81892857D01*
X179833333Y-81969047D01*
X179833333Y-82159523D01*
X179871428Y-82235714D01*
X179909523Y-82273809D01*
X179985714Y-82311904D01*
X180214285Y-82311904D01*
X180290476Y-82273809D01*
X180328571Y-82235714D01*
X179452380Y-82273809D02*
X179452380Y-82311904D01*
X179490476Y-82388095D01*
X179528571Y-82426190D01*
X178957142Y-81511904D02*
X178880952Y-81511904D01*
X178804761Y-81550000D01*
X178766666Y-81588095D01*
X178728571Y-81664285D01*
X178690476Y-81816666D01*
X178690476Y-82007142D01*
X178728571Y-82159523D01*
X178766666Y-82235714D01*
X178804761Y-82273809D01*
X178880952Y-82311904D01*
X178957142Y-82311904D01*
X179033333Y-82273809D01*
X179071428Y-82235714D01*
X179109523Y-82159523D01*
X179147619Y-82007142D01*
X179147619Y-81816666D01*
X179109523Y-81664285D01*
X179071428Y-81588095D01*
X179033333Y-81550000D01*
X178957142Y-81511904D01*
X177738095Y-82311904D02*
X177738095Y-81778571D01*
X177738095Y-81854761D02*
X177700000Y-81816666D01*
X177623809Y-81778571D01*
X177509523Y-81778571D01*
X177433333Y-81816666D01*
X177395238Y-81892857D01*
X177395238Y-82311904D01*
X177395238Y-81892857D02*
X177357142Y-81816666D01*
X177280952Y-81778571D01*
X177166666Y-81778571D01*
X177090476Y-81816666D01*
X177052380Y-81892857D01*
X177052380Y-82311904D01*
X176671428Y-82311904D02*
X176671428Y-81778571D01*
X176671428Y-81854761D02*
X176633333Y-81816666D01*
X176557142Y-81778571D01*
X176442857Y-81778571D01*
X176366666Y-81816666D01*
X176328571Y-81892857D01*
X176328571Y-82311904D01*
X176328571Y-81892857D02*
X176290476Y-81816666D01*
X176214285Y-81778571D01*
X176100000Y-81778571D01*
X176023809Y-81816666D01*
X175985714Y-81892857D01*
X175985714Y-82311904D01*
D12*
X195000000Y-83000000D02*
X162000000Y-83000000D01*
X195000000Y-83000000D02*
X195000000Y-82413579D01*
X162000000Y-83000000D02*
X162000000Y-82413579D01*
X162000000Y-83000000D02*
X163126504Y-82413579D01*
X162000000Y-83000000D02*
X163126504Y-83586421D01*
X195000000Y-83000000D02*
X193873496Y-82413579D01*
X195000000Y-83000000D02*
X193873496Y-83586421D01*
D11*
X193828571Y-95828571D02*
X194361904Y-95828571D01*
X193523809Y-95638095D02*
X194095238Y-95447619D01*
X194095238Y-95942857D01*
X193638095Y-96209523D02*
X193600000Y-96247619D01*
X193561904Y-96323809D01*
X193561904Y-96514285D01*
X193600000Y-96590476D01*
X193638095Y-96628571D01*
X193714285Y-96666666D01*
X193790476Y-96666666D01*
X193904761Y-96628571D01*
X194361904Y-96171428D01*
X194361904Y-96666666D01*
X194323809Y-97047619D02*
X194361904Y-97047619D01*
X194438095Y-97009523D01*
X194476190Y-96971428D01*
X193561904Y-97542857D02*
X193561904Y-97619047D01*
X193600000Y-97695238D01*
X193638095Y-97733333D01*
X193714285Y-97771428D01*
X193866666Y-97809523D01*
X194057142Y-97809523D01*
X194209523Y-97771428D01*
X194285714Y-97733333D01*
X194323809Y-97695238D01*
X194361904Y-97619047D01*
X194361904Y-97542857D01*
X194323809Y-97466666D01*
X194285714Y-97428571D01*
X194209523Y-97390476D01*
X194057142Y-97352380D01*
X193866666Y-97352380D01*
X193714285Y-97390476D01*
X193638095Y-97428571D01*
X193600000Y-97466666D01*
X193561904Y-97542857D01*
X194361904Y-98761904D02*
X193828571Y-98761904D01*
X193904761Y-98761904D02*
X193866666Y-98800000D01*
X193828571Y-98876190D01*
X193828571Y-98990476D01*
X193866666Y-99066666D01*
X193942857Y-99104761D01*
X194361904Y-99104761D01*
X193942857Y-99104761D02*
X193866666Y-99142857D01*
X193828571Y-99219047D01*
X193828571Y-99333333D01*
X193866666Y-99409523D01*
X193942857Y-99447619D01*
X194361904Y-99447619D01*
X194361904Y-99828571D02*
X193828571Y-99828571D01*
X193904761Y-99828571D02*
X193866666Y-99866666D01*
X193828571Y-99942857D01*
X193828571Y-100057142D01*
X193866666Y-100133333D01*
X193942857Y-100171428D01*
X194361904Y-100171428D01*
X193942857Y-100171428D02*
X193866666Y-100209523D01*
X193828571Y-100285714D01*
X193828571Y-100400000D01*
X193866666Y-100476190D01*
X193942857Y-100514285D01*
X194361904Y-100514285D01*
X192980000Y-127000276D02*
X193000000Y-85000276D01*
X195000000Y-127001238D02*
X192393580Y-126999997D01*
X195020000Y-85001238D02*
X192413580Y-84999997D01*
X193000000Y-85000276D02*
X193585884Y-86127059D01*
X193000000Y-85000276D02*
X192413043Y-86126500D01*
X192980000Y-127000276D02*
X193566957Y-125874052D01*
X192980000Y-127000276D02*
X192394116Y-125873493D01*
X162000000Y-41000000D02*
X162000000Y-83000000D01*
X188838095Y-78352380D02*
X188800000Y-78390476D01*
X188761904Y-78466666D01*
X188761904Y-78657142D01*
X188800000Y-78733333D01*
X188838095Y-78771428D01*
X188914285Y-78809523D01*
X188990476Y-78809523D01*
X189104761Y-78771428D01*
X189561904Y-78314285D01*
X189561904Y-78809523D01*
X189523809Y-79190476D02*
X189561904Y-79190476D01*
X189638095Y-79152380D01*
X189676190Y-79114285D01*
X188761904Y-79914285D02*
X188761904Y-79533333D01*
X189142857Y-79495238D01*
X189104761Y-79533333D01*
X189066666Y-79609523D01*
X189066666Y-79800000D01*
X189104761Y-79876190D01*
X189142857Y-79914285D01*
X189219047Y-79952380D01*
X189409523Y-79952380D01*
X189485714Y-79914285D01*
X189523809Y-79876190D01*
X189561904Y-79800000D01*
X189561904Y-79609523D01*
X189523809Y-79533333D01*
X189485714Y-79495238D01*
X189561904Y-80904761D02*
X189028571Y-80904761D01*
X189104761Y-80904761D02*
X189066666Y-80942857D01*
X189028571Y-81019047D01*
X189028571Y-81133333D01*
X189066666Y-81209523D01*
X189142857Y-81247619D01*
X189561904Y-81247619D01*
X189142857Y-81247619D02*
X189066666Y-81285714D01*
X189028571Y-81361904D01*
X189028571Y-81476190D01*
X189066666Y-81552380D01*
X189142857Y-81590476D01*
X189561904Y-81590476D01*
X189561904Y-81971428D02*
X189028571Y-81971428D01*
X189104761Y-81971428D02*
X189066666Y-82009523D01*
X189028571Y-82085714D01*
X189028571Y-82200000D01*
X189066666Y-82276190D01*
X189142857Y-82314285D01*
X189561904Y-82314285D01*
X189142857Y-82314285D02*
X189066666Y-82352380D01*
X189028571Y-82428571D01*
X189028571Y-82542857D01*
X189066666Y-82619047D01*
X189142857Y-82657142D01*
X189561904Y-82657142D01*
D12*
X190500000Y-80500000D02*
X190500000Y-83000000D01*
X192500000Y-80500000D02*
X189913579Y-80500000D01*
X192500000Y-83000000D02*
X189913579Y-83000000D01*
X190500000Y-83000000D02*
X189913579Y-81873496D01*
X190500000Y-83000000D02*
X191086421Y-81873496D01*
X190500000Y-80500000D02*
X189913579Y-81626504D01*
X190500000Y-80500000D02*
X191086421Y-81626504D01*
D11*
X167438095Y-85602380D02*
X167400000Y-85640476D01*
X167361904Y-85716666D01*
X167361904Y-85907142D01*
X167400000Y-85983333D01*
X167438095Y-86021428D01*
X167514285Y-86059523D01*
X167590476Y-86059523D01*
X167704761Y-86021428D01*
X168161904Y-85564285D01*
X168161904Y-86059523D01*
X168123809Y-86440476D02*
X168161904Y-86440476D01*
X168238095Y-86402380D01*
X168276190Y-86364285D01*
X167361904Y-87164285D02*
X167361904Y-86783333D01*
X167742857Y-86745238D01*
X167704761Y-86783333D01*
X167666666Y-86859523D01*
X167666666Y-87050000D01*
X167704761Y-87126190D01*
X167742857Y-87164285D01*
X167819047Y-87202380D01*
X168009523Y-87202380D01*
X168085714Y-87164285D01*
X168123809Y-87126190D01*
X168161904Y-87050000D01*
X168161904Y-86859523D01*
X168123809Y-86783333D01*
X168085714Y-86745238D01*
X168161904Y-88154761D02*
X167628571Y-88154761D01*
X167704761Y-88154761D02*
X167666666Y-88192857D01*
X167628571Y-88269047D01*
X167628571Y-88383333D01*
X167666666Y-88459523D01*
X167742857Y-88497619D01*
X168161904Y-88497619D01*
X167742857Y-88497619D02*
X167666666Y-88535714D01*
X167628571Y-88611904D01*
X167628571Y-88726190D01*
X167666666Y-88802380D01*
X167742857Y-88840476D01*
X168161904Y-88840476D01*
X168161904Y-89221428D02*
X167628571Y-89221428D01*
X167704761Y-89221428D02*
X167666666Y-89259523D01*
X167628571Y-89335714D01*
X167628571Y-89450000D01*
X167666666Y-89526190D01*
X167742857Y-89564285D01*
X168161904Y-89564285D01*
X167742857Y-89564285D02*
X167666666Y-89602380D01*
X167628571Y-89678571D01*
X167628571Y-89792857D01*
X167666666Y-89869047D01*
X167742857Y-89907142D01*
X168161904Y-89907142D01*
D12*
X166500000Y-87500000D02*
X166500000Y-85000000D01*
X164500000Y-87500000D02*
X167086421Y-87500000D01*
X164500000Y-85000000D02*
X167086421Y-85000000D01*
X166500000Y-85000000D02*
X167086421Y-86126504D01*
X166500000Y-85000000D02*
X165913579Y-86126504D01*
X166500000Y-87500000D02*
X167086421Y-86373496D01*
X166500000Y-87500000D02*
X165913579Y-86373496D01*
D11*
X162000000Y-85000000D02*
X195000000Y-85000000D01*
X195000000Y-41000000D02*
X162000000Y-41000000D01*
X195000000Y-41000000D02*
X195000000Y-83000000D01*
X181090476Y-85611904D02*
X180595238Y-85611904D01*
X180861904Y-85916666D01*
X180747619Y-85916666D01*
X180671428Y-85954761D01*
X180633333Y-85992857D01*
X180595238Y-86069047D01*
X180595238Y-86259523D01*
X180633333Y-86335714D01*
X180671428Y-86373809D01*
X180747619Y-86411904D01*
X180976190Y-86411904D01*
X181052380Y-86373809D01*
X181090476Y-86335714D01*
X180328571Y-85611904D02*
X179833333Y-85611904D01*
X180100000Y-85916666D01*
X179985714Y-85916666D01*
X179909523Y-85954761D01*
X179871428Y-85992857D01*
X179833333Y-86069047D01*
X179833333Y-86259523D01*
X179871428Y-86335714D01*
X179909523Y-86373809D01*
X179985714Y-86411904D01*
X180214285Y-86411904D01*
X180290476Y-86373809D01*
X180328571Y-86335714D01*
X179452380Y-86373809D02*
X179452380Y-86411904D01*
X179490476Y-86488095D01*
X179528571Y-86526190D01*
X178957142Y-85611904D02*
X178880952Y-85611904D01*
X178804761Y-85650000D01*
X178766666Y-85688095D01*
X178728571Y-85764285D01*
X178690476Y-85916666D01*
X178690476Y-86107142D01*
X178728571Y-86259523D01*
X178766666Y-86335714D01*
X178804761Y-86373809D01*
X178880952Y-86411904D01*
X178957142Y-86411904D01*
X179033333Y-86373809D01*
X179071428Y-86335714D01*
X179109523Y-86259523D01*
X179147619Y-86107142D01*
X179147619Y-85916666D01*
X179109523Y-85764285D01*
X179071428Y-85688095D01*
X179033333Y-85650000D01*
X178957142Y-85611904D01*
X177738095Y-86411904D02*
X177738095Y-85878571D01*
X177738095Y-85954761D02*
X177700000Y-85916666D01*
X177623809Y-85878571D01*
X177509523Y-85878571D01*
X177433333Y-85916666D01*
X177395238Y-85992857D01*
X177395238Y-86411904D01*
X177395238Y-85992857D02*
X177357142Y-85916666D01*
X177280952Y-85878571D01*
X177166666Y-85878571D01*
X177090476Y-85916666D01*
X177052380Y-85992857D01*
X177052380Y-86411904D01*
X176671428Y-86411904D02*
X176671428Y-85878571D01*
X176671428Y-85954761D02*
X176633333Y-85916666D01*
X176557142Y-85878571D01*
X176442857Y-85878571D01*
X176366666Y-85916666D01*
X176328571Y-85992857D01*
X176328571Y-86411904D01*
X176328571Y-85992857D02*
X176290476Y-85916666D01*
X176214285Y-85878571D01*
X176100000Y-85878571D01*
X176023809Y-85916666D01*
X175985714Y-85992857D01*
X175985714Y-86411904D01*
D12*
X162000000Y-85000000D02*
X195000000Y-85000000D01*
X162000000Y-85000000D02*
X162000000Y-85586421D01*
X195000000Y-85000000D02*
X195000000Y-85586421D01*
X195000000Y-85000000D02*
X193873496Y-85586421D01*
X195000000Y-85000000D02*
X193873496Y-84413579D01*
X162000000Y-85000000D02*
X163126504Y-85586421D01*
X162000000Y-85000000D02*
X163126504Y-84413579D01*
D10*
X187887833Y-105696666D02*
X188121166Y-105363333D01*
X188287833Y-105696666D02*
X188287833Y-104996666D01*
X188021166Y-104996666D01*
X187954500Y-105030000D01*
X187921166Y-105063333D01*
X187887833Y-105130000D01*
X187887833Y-105230000D01*
X187921166Y-105296666D01*
X187954500Y-105330000D01*
X188021166Y-105363333D01*
X188287833Y-105363333D01*
X187587833Y-105330000D02*
X187354500Y-105330000D01*
X187254500Y-105696666D02*
X187587833Y-105696666D01*
X187587833Y-104996666D01*
X187254500Y-104996666D01*
X186954500Y-105696666D02*
X186954500Y-104996666D01*
X186721166Y-105496666D01*
X186487833Y-104996666D01*
X186487833Y-105696666D01*
X186154500Y-105430000D02*
X185621166Y-105430000D01*
X185287833Y-105696666D02*
X185287833Y-104996666D01*
X185054500Y-105496666D01*
X184821166Y-104996666D01*
X184821166Y-105696666D01*
X184487833Y-105696666D02*
X184487833Y-104996666D01*
X184254500Y-105496666D01*
X184021166Y-104996666D01*
X184021166Y-105696666D01*
X183254500Y-104996666D02*
X183021166Y-105696666D01*
X182787833Y-104996666D01*
X182187833Y-105696666D02*
X182587833Y-105696666D01*
X182387833Y-105696666D02*
X182387833Y-104996666D01*
X182454500Y-105096666D01*
X182521166Y-105163333D01*
X182587833Y-105196666D01*
X181887833Y-105630000D02*
X181854500Y-105663333D01*
X181887833Y-105696666D01*
X181921166Y-105663333D01*
X181887833Y-105630000D01*
X181887833Y-105696666D01*
X181421166Y-104996666D02*
X181354500Y-104996666D01*
X181287833Y-105030000D01*
X181254500Y-105063333D01*
X181221166Y-105130000D01*
X181187833Y-105263333D01*
X181187833Y-105430000D01*
X181221166Y-105563333D01*
X181254500Y-105630000D01*
X181287833Y-105663333D01*
X181354500Y-105696666D01*
X181421166Y-105696666D01*
X181487833Y-105663333D01*
X181521166Y-105630000D01*
X181554500Y-105563333D01*
X181587833Y-105430000D01*
X181587833Y-105263333D01*
X181554500Y-105130000D01*
X181521166Y-105063333D01*
X181487833Y-105030000D01*
X181421166Y-104996666D01*
X188321166Y-106183333D02*
X188287833Y-106150000D01*
X188221166Y-106116666D01*
X188054500Y-106116666D01*
X187987833Y-106150000D01*
X187954500Y-106183333D01*
X187921166Y-106250000D01*
X187921166Y-106316666D01*
X187954500Y-106416666D01*
X188354500Y-106816666D01*
X187921166Y-106816666D01*
X187687833Y-106116666D02*
X187221166Y-106116666D01*
X187521166Y-106816666D01*
X186954500Y-106750000D02*
X186921166Y-106783333D01*
X186954500Y-106816666D01*
X186987833Y-106783333D01*
X186954500Y-106750000D01*
X186954500Y-106816666D01*
X186321166Y-106116666D02*
X186454500Y-106116666D01*
X186521166Y-106150000D01*
X186554500Y-106183333D01*
X186621166Y-106283333D01*
X186654500Y-106416666D01*
X186654500Y-106683333D01*
X186621166Y-106750000D01*
X186587833Y-106783333D01*
X186521166Y-106816666D01*
X186387833Y-106816666D01*
X186321166Y-106783333D01*
X186287833Y-106750000D01*
X186254500Y-106683333D01*
X186254500Y-106516666D01*
X186287833Y-106450000D01*
X186321166Y-106416666D01*
X186387833Y-106383333D01*
X186521166Y-106383333D01*
X186587833Y-106416666D01*
X186621166Y-106450000D01*
X186654500Y-106516666D01*
X185954500Y-106750000D02*
X185921166Y-106783333D01*
X185954500Y-106816666D01*
X185987833Y-106783333D01*
X185954500Y-106750000D01*
X185954500Y-106816666D01*
X185654500Y-106183333D02*
X185621166Y-106150000D01*
X185554500Y-106116666D01*
X185387833Y-106116666D01*
X185321166Y-106150000D01*
X185287833Y-106183333D01*
X185254500Y-106250000D01*
X185254500Y-106316666D01*
X185287833Y-106416666D01*
X185687833Y-106816666D01*
X185254500Y-106816666D01*
X184821166Y-106116666D02*
X184754500Y-106116666D01*
X184687833Y-106150000D01*
X184654500Y-106183333D01*
X184621166Y-106250000D01*
X184587833Y-106383333D01*
X184587833Y-106550000D01*
X184621166Y-106683333D01*
X184654500Y-106750000D01*
X184687833Y-106783333D01*
X184754500Y-106816666D01*
X184821166Y-106816666D01*
X184887833Y-106783333D01*
X184921166Y-106750000D01*
X184954500Y-106683333D01*
X184987833Y-106550000D01*
X184987833Y-106383333D01*
X184954500Y-106250000D01*
X184921166Y-106183333D01*
X184887833Y-106150000D01*
X184821166Y-106116666D01*
X184321166Y-106183333D02*
X184287833Y-106150000D01*
X184221166Y-106116666D01*
X184054500Y-106116666D01*
X183987833Y-106150000D01*
X183954500Y-106183333D01*
X183921166Y-106250000D01*
X183921166Y-106316666D01*
X183954500Y-106416666D01*
X184354500Y-106816666D01*
X183921166Y-106816666D01*
X183487833Y-106116666D02*
X183421166Y-106116666D01*
X183354500Y-106150000D01*
X183321166Y-106183333D01*
X183287833Y-106250000D01*
X183254500Y-106383333D01*
X183254500Y-106550000D01*
X183287833Y-106683333D01*
X183321166Y-106750000D01*
X183354500Y-106783333D01*
X183421166Y-106816666D01*
X183487833Y-106816666D01*
X183554500Y-106783333D01*
X183587833Y-106750000D01*
X183621166Y-106683333D01*
X183654500Y-106550000D01*
X183654500Y-106383333D01*
X183621166Y-106250000D01*
X183587833Y-106183333D01*
X183554500Y-106150000D01*
X183487833Y-106116666D01*
X188087833Y-108203333D02*
X188121166Y-108170000D01*
X188187833Y-108070000D01*
X188221166Y-108003333D01*
X188254500Y-107903333D01*
X188287833Y-107736666D01*
X188287833Y-107603333D01*
X188254500Y-107436666D01*
X188221166Y-107336666D01*
X188187833Y-107270000D01*
X188121166Y-107170000D01*
X188087833Y-107136666D01*
X187521166Y-107903333D02*
X187587833Y-107936666D01*
X187721166Y-107936666D01*
X187787833Y-107903333D01*
X187821166Y-107870000D01*
X187854500Y-107803333D01*
X187854500Y-107603333D01*
X187821166Y-107536666D01*
X187787833Y-107503333D01*
X187721166Y-107470000D01*
X187587833Y-107470000D01*
X187521166Y-107503333D01*
X187287833Y-108203333D02*
X187254500Y-108170000D01*
X187187833Y-108070000D01*
X187154500Y-108003333D01*
X187121166Y-107903333D01*
X187087833Y-107736666D01*
X187087833Y-107603333D01*
X187121166Y-107436666D01*
X187154500Y-107336666D01*
X187187833Y-107270000D01*
X187254500Y-107170000D01*
X187287833Y-107136666D01*
X185821166Y-107936666D02*
X186054500Y-107603333D01*
X186221166Y-107936666D02*
X186221166Y-107236666D01*
X185954500Y-107236666D01*
X185887833Y-107270000D01*
X185854500Y-107303333D01*
X185821166Y-107370000D01*
X185821166Y-107470000D01*
X185854500Y-107536666D01*
X185887833Y-107570000D01*
X185954500Y-107603333D01*
X186221166Y-107603333D01*
X185221166Y-107936666D02*
X185221166Y-107570000D01*
X185254500Y-107503333D01*
X185321166Y-107470000D01*
X185454500Y-107470000D01*
X185521166Y-107503333D01*
X185221166Y-107903333D02*
X185287833Y-107936666D01*
X185454500Y-107936666D01*
X185521166Y-107903333D01*
X185554500Y-107836666D01*
X185554500Y-107770000D01*
X185521166Y-107703333D01*
X185454500Y-107670000D01*
X185287833Y-107670000D01*
X185221166Y-107636666D01*
X184887833Y-107936666D02*
X184887833Y-107470000D01*
X184887833Y-107236666D02*
X184921166Y-107270000D01*
X184887833Y-107303333D01*
X184854500Y-107270000D01*
X184887833Y-107236666D01*
X184887833Y-107303333D01*
X184554500Y-107470000D02*
X184554500Y-107936666D01*
X184554500Y-107536666D02*
X184521166Y-107503333D01*
X184454500Y-107470000D01*
X184354500Y-107470000D01*
X184287833Y-107503333D01*
X184254500Y-107570000D01*
X184254500Y-107936666D01*
X183654500Y-107903333D02*
X183721166Y-107936666D01*
X183854500Y-107936666D01*
X183921166Y-107903333D01*
X183954500Y-107836666D01*
X183954500Y-107570000D01*
X183921166Y-107503333D01*
X183854500Y-107470000D01*
X183721166Y-107470000D01*
X183654500Y-107503333D01*
X183621166Y-107570000D01*
X183621166Y-107636666D01*
X183954500Y-107703333D01*
X183321166Y-107936666D02*
X183321166Y-107470000D01*
X183321166Y-107603333D02*
X183287833Y-107536666D01*
X183254500Y-107503333D01*
X183187833Y-107470000D01*
X183121166Y-107470000D01*
X182354500Y-107936666D02*
X182354500Y-107236666D01*
X182087833Y-107236666D01*
X182021166Y-107270000D01*
X181987833Y-107303333D01*
X181954500Y-107370000D01*
X181954500Y-107470000D01*
X181987833Y-107536666D01*
X182021166Y-107570000D01*
X182087833Y-107603333D01*
X182354500Y-107603333D01*
X181387833Y-107903333D02*
X181454500Y-107936666D01*
X181587833Y-107936666D01*
X181654500Y-107903333D01*
X181687833Y-107836666D01*
X181687833Y-107570000D01*
X181654500Y-107503333D01*
X181587833Y-107470000D01*
X181454500Y-107470000D01*
X181387833Y-107503333D01*
X181354500Y-107570000D01*
X181354500Y-107636666D01*
X181687833Y-107703333D01*
X181154500Y-107470000D02*
X180887833Y-107470000D01*
X181054500Y-107236666D02*
X181054500Y-107836666D01*
X181021166Y-107903333D01*
X180954500Y-107936666D01*
X180887833Y-107936666D01*
X180721166Y-107470000D02*
X180354500Y-107470000D01*
X180721166Y-107936666D01*
X180354500Y-107936666D01*
X179987833Y-107936666D02*
X180054500Y-107903333D01*
X180087833Y-107870000D01*
X180121166Y-107803333D01*
X180121166Y-107603333D01*
X180087833Y-107536666D01*
X180054500Y-107503333D01*
X179987833Y-107470000D01*
X179887833Y-107470000D01*
X179821166Y-107503333D01*
X179787833Y-107536666D01*
X179754500Y-107603333D01*
X179754500Y-107803333D01*
X179787833Y-107870000D01*
X179821166Y-107903333D01*
X179887833Y-107936666D01*
X179987833Y-107936666D01*
X179354500Y-107936666D02*
X179421166Y-107903333D01*
X179454500Y-107836666D01*
X179454500Y-107236666D01*
X178787833Y-107936666D02*
X178787833Y-107236666D01*
X178787833Y-107903333D02*
X178854500Y-107936666D01*
X178987833Y-107936666D01*
X179054500Y-107903333D01*
X179087833Y-107870000D01*
X179121166Y-107803333D01*
X179121166Y-107603333D01*
X179087833Y-107536666D01*
X179054500Y-107503333D01*
X178987833Y-107470000D01*
X178854500Y-107470000D01*
X178787833Y-107503333D01*
X178554500Y-107470000D02*
X178287833Y-107470000D01*
X178454500Y-107236666D02*
X178454500Y-107836666D01*
X178421166Y-107903333D01*
X178354500Y-107936666D01*
X178287833Y-107936666D01*
D11*
X162000000Y-127000000D02*
X195000000Y-127000000D01*
X162000000Y-127000000D02*
X162000000Y-85000000D01*
X195000000Y-127000000D02*
X195000000Y-85000000D01*
X159171428Y-76852028D02*
X159133333Y-76813933D01*
X159057142Y-76775837D01*
X158866666Y-76775837D01*
X158790476Y-76813933D01*
X158752380Y-76852028D01*
X158714285Y-76928218D01*
X158714285Y-77004409D01*
X158752380Y-77118694D01*
X159209523Y-77575837D01*
X158714285Y-77575837D01*
X158333333Y-77537742D02*
X158333333Y-77575837D01*
X158371428Y-77652028D01*
X158409523Y-77690123D01*
X157609523Y-76775837D02*
X157990476Y-76775837D01*
X158028571Y-77156790D01*
X157990476Y-77118694D01*
X157914285Y-77080599D01*
X157723809Y-77080599D01*
X157647619Y-77118694D01*
X157609523Y-77156790D01*
X157571428Y-77232980D01*
X157571428Y-77423456D01*
X157609523Y-77499647D01*
X157647619Y-77537742D01*
X157723809Y-77575837D01*
X157914285Y-77575837D01*
X157990476Y-77537742D01*
X158028571Y-77499647D01*
X156619047Y-77575837D02*
X156619047Y-77042504D01*
X156619047Y-77118694D02*
X156580952Y-77080599D01*
X156504761Y-77042504D01*
X156390476Y-77042504D01*
X156314285Y-77080599D01*
X156276190Y-77156790D01*
X156276190Y-77575837D01*
X156276190Y-77156790D02*
X156238095Y-77080599D01*
X156161904Y-77042504D01*
X156047619Y-77042504D01*
X155971428Y-77080599D01*
X155933333Y-77156790D01*
X155933333Y-77575837D01*
X155552380Y-77575837D02*
X155552380Y-77042504D01*
X155552380Y-77118694D02*
X155514285Y-77080599D01*
X155438095Y-77042504D01*
X155323809Y-77042504D01*
X155247619Y-77080599D01*
X155209523Y-77156790D01*
X155209523Y-77575837D01*
X155209523Y-77156790D02*
X155171428Y-77080599D01*
X155095238Y-77042504D01*
X154980952Y-77042504D01*
X154904761Y-77080599D01*
X154866666Y-77156790D01*
X154866666Y-77575837D01*
D12*
X160000000Y-78263933D02*
X157500000Y-78263933D01*
X160000000Y-80500000D02*
X160000000Y-77677512D01*
X157500000Y-80500000D02*
X157500000Y-77677512D01*
X157500000Y-78263933D02*
X158626504Y-77677512D01*
X157500000Y-78263933D02*
X158626504Y-78850354D01*
X160000000Y-78263933D02*
X158873496Y-77677512D01*
X160000000Y-78263933D02*
X158873496Y-78850354D01*
D11*
X127828571Y-67828571D02*
X128361904Y-67828571D01*
X127523809Y-67638095D02*
X128095238Y-67447619D01*
X128095238Y-67942857D01*
X127638095Y-68209523D02*
X127600000Y-68247619D01*
X127561904Y-68323809D01*
X127561904Y-68514285D01*
X127600000Y-68590476D01*
X127638095Y-68628571D01*
X127714285Y-68666666D01*
X127790476Y-68666666D01*
X127904761Y-68628571D01*
X128361904Y-68171428D01*
X128361904Y-68666666D01*
X128323809Y-69047619D02*
X128361904Y-69047619D01*
X128438095Y-69009523D01*
X128476190Y-68971428D01*
X127561904Y-69542857D02*
X127561904Y-69619047D01*
X127600000Y-69695238D01*
X127638095Y-69733333D01*
X127714285Y-69771428D01*
X127866666Y-69809523D01*
X128057142Y-69809523D01*
X128209523Y-69771428D01*
X128285714Y-69733333D01*
X128323809Y-69695238D01*
X128361904Y-69619047D01*
X128361904Y-69542857D01*
X128323809Y-69466666D01*
X128285714Y-69428571D01*
X128209523Y-69390476D01*
X128057142Y-69352380D01*
X127866666Y-69352380D01*
X127714285Y-69390476D01*
X127638095Y-69428571D01*
X127600000Y-69466666D01*
X127561904Y-69542857D01*
X128361904Y-70761904D02*
X127828571Y-70761904D01*
X127904761Y-70761904D02*
X127866666Y-70800000D01*
X127828571Y-70876190D01*
X127828571Y-70990476D01*
X127866666Y-71066666D01*
X127942857Y-71104761D01*
X128361904Y-71104761D01*
X127942857Y-71104761D02*
X127866666Y-71142857D01*
X127828571Y-71219047D01*
X127828571Y-71333333D01*
X127866666Y-71409523D01*
X127942857Y-71447619D01*
X128361904Y-71447619D01*
X128361904Y-71828571D02*
X127828571Y-71828571D01*
X127904761Y-71828571D02*
X127866666Y-71866666D01*
X127828571Y-71942857D01*
X127828571Y-72057142D01*
X127866666Y-72133333D01*
X127942857Y-72171428D01*
X128361904Y-72171428D01*
X127942857Y-72171428D02*
X127866666Y-72209523D01*
X127828571Y-72285714D01*
X127828571Y-72400000D01*
X127866666Y-72476190D01*
X127942857Y-72514285D01*
X128361904Y-72514285D01*
X129020000Y-40999724D02*
X129000000Y-82999724D01*
X127000000Y-40998762D02*
X129606420Y-41000003D01*
X126980000Y-82998762D02*
X129586420Y-83000003D01*
X129000000Y-82999724D02*
X128414116Y-81872941D01*
X129000000Y-82999724D02*
X129586957Y-81873500D01*
X129020000Y-40999724D02*
X128433043Y-42125948D01*
X129020000Y-40999724D02*
X129605884Y-42126507D01*
X153838095Y-78352380D02*
X153800000Y-78390476D01*
X153761904Y-78466666D01*
X153761904Y-78657142D01*
X153800000Y-78733333D01*
X153838095Y-78771428D01*
X153914285Y-78809523D01*
X153990476Y-78809523D01*
X154104761Y-78771428D01*
X154561904Y-78314285D01*
X154561904Y-78809523D01*
X154523809Y-79190476D02*
X154561904Y-79190476D01*
X154638095Y-79152380D01*
X154676190Y-79114285D01*
X153761904Y-79914285D02*
X153761904Y-79533333D01*
X154142857Y-79495238D01*
X154104761Y-79533333D01*
X154066666Y-79609523D01*
X154066666Y-79800000D01*
X154104761Y-79876190D01*
X154142857Y-79914285D01*
X154219047Y-79952380D01*
X154409523Y-79952380D01*
X154485714Y-79914285D01*
X154523809Y-79876190D01*
X154561904Y-79800000D01*
X154561904Y-79609523D01*
X154523809Y-79533333D01*
X154485714Y-79495238D01*
X154561904Y-80904761D02*
X154028571Y-80904761D01*
X154104761Y-80904761D02*
X154066666Y-80942857D01*
X154028571Y-81019047D01*
X154028571Y-81133333D01*
X154066666Y-81209523D01*
X154142857Y-81247619D01*
X154561904Y-81247619D01*
X154142857Y-81247619D02*
X154066666Y-81285714D01*
X154028571Y-81361904D01*
X154028571Y-81476190D01*
X154066666Y-81552380D01*
X154142857Y-81590476D01*
X154561904Y-81590476D01*
X154561904Y-81971428D02*
X154028571Y-81971428D01*
X154104761Y-81971428D02*
X154066666Y-82009523D01*
X154028571Y-82085714D01*
X154028571Y-82200000D01*
X154066666Y-82276190D01*
X154142857Y-82314285D01*
X154561904Y-82314285D01*
X154142857Y-82314285D02*
X154066666Y-82352380D01*
X154028571Y-82428571D01*
X154028571Y-82542857D01*
X154066666Y-82619047D01*
X154142857Y-82657142D01*
X154561904Y-82657142D01*
D12*
X155500000Y-80500000D02*
X155500000Y-83000000D01*
X157500000Y-80500000D02*
X154913579Y-80500000D01*
X157500000Y-83000000D02*
X154913579Y-83000000D01*
X155500000Y-83000000D02*
X154913579Y-81873496D01*
X155500000Y-83000000D02*
X156086421Y-81873496D01*
X155500000Y-80500000D02*
X154913579Y-81626504D01*
X155500000Y-80500000D02*
X156086421Y-81626504D01*
D11*
X160000000Y-83000000D02*
X127000000Y-83000000D01*
X146090476Y-81511904D02*
X145595238Y-81511904D01*
X145861904Y-81816666D01*
X145747619Y-81816666D01*
X145671428Y-81854761D01*
X145633333Y-81892857D01*
X145595238Y-81969047D01*
X145595238Y-82159523D01*
X145633333Y-82235714D01*
X145671428Y-82273809D01*
X145747619Y-82311904D01*
X145976190Y-82311904D01*
X146052380Y-82273809D01*
X146090476Y-82235714D01*
X145328571Y-81511904D02*
X144833333Y-81511904D01*
X145100000Y-81816666D01*
X144985714Y-81816666D01*
X144909523Y-81854761D01*
X144871428Y-81892857D01*
X144833333Y-81969047D01*
X144833333Y-82159523D01*
X144871428Y-82235714D01*
X144909523Y-82273809D01*
X144985714Y-82311904D01*
X145214285Y-82311904D01*
X145290476Y-82273809D01*
X145328571Y-82235714D01*
X144452380Y-82273809D02*
X144452380Y-82311904D01*
X144490476Y-82388095D01*
X144528571Y-82426190D01*
X143957142Y-81511904D02*
X143880952Y-81511904D01*
X143804761Y-81550000D01*
X143766666Y-81588095D01*
X143728571Y-81664285D01*
X143690476Y-81816666D01*
X143690476Y-82007142D01*
X143728571Y-82159523D01*
X143766666Y-82235714D01*
X143804761Y-82273809D01*
X143880952Y-82311904D01*
X143957142Y-82311904D01*
X144033333Y-82273809D01*
X144071428Y-82235714D01*
X144109523Y-82159523D01*
X144147619Y-82007142D01*
X144147619Y-81816666D01*
X144109523Y-81664285D01*
X144071428Y-81588095D01*
X144033333Y-81550000D01*
X143957142Y-81511904D01*
X142738095Y-82311904D02*
X142738095Y-81778571D01*
X142738095Y-81854761D02*
X142700000Y-81816666D01*
X142623809Y-81778571D01*
X142509523Y-81778571D01*
X142433333Y-81816666D01*
X142395238Y-81892857D01*
X142395238Y-82311904D01*
X142395238Y-81892857D02*
X142357142Y-81816666D01*
X142280952Y-81778571D01*
X142166666Y-81778571D01*
X142090476Y-81816666D01*
X142052380Y-81892857D01*
X142052380Y-82311904D01*
X141671428Y-82311904D02*
X141671428Y-81778571D01*
X141671428Y-81854761D02*
X141633333Y-81816666D01*
X141557142Y-81778571D01*
X141442857Y-81778571D01*
X141366666Y-81816666D01*
X141328571Y-81892857D01*
X141328571Y-82311904D01*
X141328571Y-81892857D02*
X141290476Y-81816666D01*
X141214285Y-81778571D01*
X141100000Y-81778571D01*
X141023809Y-81816666D01*
X140985714Y-81892857D01*
X140985714Y-82311904D01*
D12*
X160000000Y-83000000D02*
X127000000Y-83000000D01*
X160000000Y-83000000D02*
X160000000Y-82413579D01*
X127000000Y-83000000D02*
X127000000Y-82413579D01*
X127000000Y-83000000D02*
X128126504Y-82413579D01*
X127000000Y-83000000D02*
X128126504Y-83586421D01*
X160000000Y-83000000D02*
X158873496Y-82413579D01*
X160000000Y-83000000D02*
X158873496Y-83586421D01*
D10*
X134112166Y-62303333D02*
X133878833Y-62636666D01*
X133712166Y-62303333D02*
X133712166Y-63003333D01*
X133978833Y-63003333D01*
X134045500Y-62970000D01*
X134078833Y-62936666D01*
X134112166Y-62870000D01*
X134112166Y-62770000D01*
X134078833Y-62703333D01*
X134045500Y-62670000D01*
X133978833Y-62636666D01*
X133712166Y-62636666D01*
X134412166Y-62670000D02*
X134645500Y-62670000D01*
X134745500Y-62303333D02*
X134412166Y-62303333D01*
X134412166Y-63003333D01*
X134745500Y-63003333D01*
X135045500Y-62303333D02*
X135045500Y-63003333D01*
X135278833Y-62503333D01*
X135512166Y-63003333D01*
X135512166Y-62303333D01*
X135845500Y-62570000D02*
X136378833Y-62570000D01*
X136712166Y-62303333D02*
X136712166Y-63003333D01*
X136945500Y-62503333D01*
X137178833Y-63003333D01*
X137178833Y-62303333D01*
X137512166Y-62303333D02*
X137512166Y-63003333D01*
X137745500Y-62503333D01*
X137978833Y-63003333D01*
X137978833Y-62303333D01*
X138745500Y-63003333D02*
X138978833Y-62303333D01*
X139212166Y-63003333D01*
X139812166Y-62303333D02*
X139412166Y-62303333D01*
X139612166Y-62303333D02*
X139612166Y-63003333D01*
X139545500Y-62903333D01*
X139478833Y-62836666D01*
X139412166Y-62803333D01*
X140112166Y-62370000D02*
X140145500Y-62336666D01*
X140112166Y-62303333D01*
X140078833Y-62336666D01*
X140112166Y-62370000D01*
X140112166Y-62303333D01*
X140578833Y-63003333D02*
X140645500Y-63003333D01*
X140712166Y-62970000D01*
X140745500Y-62936666D01*
X140778833Y-62870000D01*
X140812166Y-62736666D01*
X140812166Y-62570000D01*
X140778833Y-62436666D01*
X140745500Y-62370000D01*
X140712166Y-62336666D01*
X140645500Y-62303333D01*
X140578833Y-62303333D01*
X140512166Y-62336666D01*
X140478833Y-62370000D01*
X140445500Y-62436666D01*
X140412166Y-62570000D01*
X140412166Y-62736666D01*
X140445500Y-62870000D01*
X140478833Y-62936666D01*
X140512166Y-62970000D01*
X140578833Y-63003333D01*
X133678833Y-61816666D02*
X133712166Y-61850000D01*
X133778833Y-61883333D01*
X133945500Y-61883333D01*
X134012166Y-61850000D01*
X134045500Y-61816666D01*
X134078833Y-61750000D01*
X134078833Y-61683333D01*
X134045500Y-61583333D01*
X133645500Y-61183333D01*
X134078833Y-61183333D01*
X134312166Y-61883333D02*
X134778833Y-61883333D01*
X134478833Y-61183333D01*
X135045500Y-61250000D02*
X135078833Y-61216666D01*
X135045500Y-61183333D01*
X135012166Y-61216666D01*
X135045500Y-61250000D01*
X135045500Y-61183333D01*
X135678833Y-61883333D02*
X135545500Y-61883333D01*
X135478833Y-61850000D01*
X135445500Y-61816666D01*
X135378833Y-61716666D01*
X135345500Y-61583333D01*
X135345500Y-61316666D01*
X135378833Y-61250000D01*
X135412166Y-61216666D01*
X135478833Y-61183333D01*
X135612166Y-61183333D01*
X135678833Y-61216666D01*
X135712166Y-61250000D01*
X135745500Y-61316666D01*
X135745500Y-61483333D01*
X135712166Y-61550000D01*
X135678833Y-61583333D01*
X135612166Y-61616666D01*
X135478833Y-61616666D01*
X135412166Y-61583333D01*
X135378833Y-61550000D01*
X135345500Y-61483333D01*
X136045500Y-61250000D02*
X136078833Y-61216666D01*
X136045500Y-61183333D01*
X136012166Y-61216666D01*
X136045500Y-61250000D01*
X136045500Y-61183333D01*
X136345500Y-61816666D02*
X136378833Y-61850000D01*
X136445500Y-61883333D01*
X136612166Y-61883333D01*
X136678833Y-61850000D01*
X136712166Y-61816666D01*
X136745500Y-61750000D01*
X136745500Y-61683333D01*
X136712166Y-61583333D01*
X136312166Y-61183333D01*
X136745500Y-61183333D01*
X137178833Y-61883333D02*
X137245500Y-61883333D01*
X137312166Y-61850000D01*
X137345500Y-61816666D01*
X137378833Y-61750000D01*
X137412166Y-61616666D01*
X137412166Y-61450000D01*
X137378833Y-61316666D01*
X137345500Y-61250000D01*
X137312166Y-61216666D01*
X137245500Y-61183333D01*
X137178833Y-61183333D01*
X137112166Y-61216666D01*
X137078833Y-61250000D01*
X137045500Y-61316666D01*
X137012166Y-61450000D01*
X137012166Y-61616666D01*
X137045500Y-61750000D01*
X137078833Y-61816666D01*
X137112166Y-61850000D01*
X137178833Y-61883333D01*
X137678833Y-61816666D02*
X137712166Y-61850000D01*
X137778833Y-61883333D01*
X137945500Y-61883333D01*
X138012166Y-61850000D01*
X138045500Y-61816666D01*
X138078833Y-61750000D01*
X138078833Y-61683333D01*
X138045500Y-61583333D01*
X137645500Y-61183333D01*
X138078833Y-61183333D01*
X138512166Y-61883333D02*
X138578833Y-61883333D01*
X138645500Y-61850000D01*
X138678833Y-61816666D01*
X138712166Y-61750000D01*
X138745500Y-61616666D01*
X138745500Y-61450000D01*
X138712166Y-61316666D01*
X138678833Y-61250000D01*
X138645500Y-61216666D01*
X138578833Y-61183333D01*
X138512166Y-61183333D01*
X138445500Y-61216666D01*
X138412166Y-61250000D01*
X138378833Y-61316666D01*
X138345500Y-61450000D01*
X138345500Y-61616666D01*
X138378833Y-61750000D01*
X138412166Y-61816666D01*
X138445500Y-61850000D01*
X138512166Y-61883333D01*
X133912166Y-59796666D02*
X133878833Y-59830000D01*
X133812166Y-59930000D01*
X133778833Y-59996666D01*
X133745500Y-60096666D01*
X133712166Y-60263333D01*
X133712166Y-60396666D01*
X133745500Y-60563333D01*
X133778833Y-60663333D01*
X133812166Y-60730000D01*
X133878833Y-60830000D01*
X133912166Y-60863333D01*
X134478833Y-60096666D02*
X134412166Y-60063333D01*
X134278833Y-60063333D01*
X134212166Y-60096666D01*
X134178833Y-60130000D01*
X134145500Y-60196666D01*
X134145500Y-60396666D01*
X134178833Y-60463333D01*
X134212166Y-60496666D01*
X134278833Y-60530000D01*
X134412166Y-60530000D01*
X134478833Y-60496666D01*
X134712166Y-59796666D02*
X134745500Y-59830000D01*
X134812166Y-59930000D01*
X134845500Y-59996666D01*
X134878833Y-60096666D01*
X134912166Y-60263333D01*
X134912166Y-60396666D01*
X134878833Y-60563333D01*
X134845500Y-60663333D01*
X134812166Y-60730000D01*
X134745500Y-60830000D01*
X134712166Y-60863333D01*
X136178833Y-60063333D02*
X135945500Y-60396666D01*
X135778833Y-60063333D02*
X135778833Y-60763333D01*
X136045500Y-60763333D01*
X136112166Y-60730000D01*
X136145500Y-60696666D01*
X136178833Y-60630000D01*
X136178833Y-60530000D01*
X136145500Y-60463333D01*
X136112166Y-60430000D01*
X136045500Y-60396666D01*
X135778833Y-60396666D01*
X136778833Y-60063333D02*
X136778833Y-60430000D01*
X136745500Y-60496666D01*
X136678833Y-60530000D01*
X136545500Y-60530000D01*
X136478833Y-60496666D01*
X136778833Y-60096666D02*
X136712166Y-60063333D01*
X136545500Y-60063333D01*
X136478833Y-60096666D01*
X136445500Y-60163333D01*
X136445500Y-60230000D01*
X136478833Y-60296666D01*
X136545500Y-60330000D01*
X136712166Y-60330000D01*
X136778833Y-60363333D01*
X137112166Y-60063333D02*
X137112166Y-60530000D01*
X137112166Y-60763333D02*
X137078833Y-60730000D01*
X137112166Y-60696666D01*
X137145500Y-60730000D01*
X137112166Y-60763333D01*
X137112166Y-60696666D01*
X137445500Y-60530000D02*
X137445500Y-60063333D01*
X137445500Y-60463333D02*
X137478833Y-60496666D01*
X137545500Y-60530000D01*
X137645500Y-60530000D01*
X137712166Y-60496666D01*
X137745500Y-60430000D01*
X137745500Y-60063333D01*
X138345500Y-60096666D02*
X138278833Y-60063333D01*
X138145500Y-60063333D01*
X138078833Y-60096666D01*
X138045500Y-60163333D01*
X138045500Y-60430000D01*
X138078833Y-60496666D01*
X138145500Y-60530000D01*
X138278833Y-60530000D01*
X138345500Y-60496666D01*
X138378833Y-60430000D01*
X138378833Y-60363333D01*
X138045500Y-60296666D01*
X138678833Y-60063333D02*
X138678833Y-60530000D01*
X138678833Y-60396666D02*
X138712166Y-60463333D01*
X138745500Y-60496666D01*
X138812166Y-60530000D01*
X138878833Y-60530000D01*
X139645500Y-60063333D02*
X139645500Y-60763333D01*
X139912166Y-60763333D01*
X139978833Y-60730000D01*
X140012166Y-60696666D01*
X140045500Y-60630000D01*
X140045500Y-60530000D01*
X140012166Y-60463333D01*
X139978833Y-60430000D01*
X139912166Y-60396666D01*
X139645500Y-60396666D01*
X140612166Y-60096666D02*
X140545500Y-60063333D01*
X140412166Y-60063333D01*
X140345500Y-60096666D01*
X140312166Y-60163333D01*
X140312166Y-60430000D01*
X140345500Y-60496666D01*
X140412166Y-60530000D01*
X140545500Y-60530000D01*
X140612166Y-60496666D01*
X140645500Y-60430000D01*
X140645500Y-60363333D01*
X140312166Y-60296666D01*
X140845500Y-60530000D02*
X141112166Y-60530000D01*
X140945500Y-60763333D02*
X140945500Y-60163333D01*
X140978833Y-60096666D01*
X141045500Y-60063333D01*
X141112166Y-60063333D01*
X141278833Y-60530000D02*
X141645500Y-60530000D01*
X141278833Y-60063333D01*
X141645500Y-60063333D01*
X142012166Y-60063333D02*
X141945500Y-60096666D01*
X141912166Y-60130000D01*
X141878833Y-60196666D01*
X141878833Y-60396666D01*
X141912166Y-60463333D01*
X141945500Y-60496666D01*
X142012166Y-60530000D01*
X142112166Y-60530000D01*
X142178833Y-60496666D01*
X142212166Y-60463333D01*
X142245500Y-60396666D01*
X142245500Y-60196666D01*
X142212166Y-60130000D01*
X142178833Y-60096666D01*
X142112166Y-60063333D01*
X142012166Y-60063333D01*
X142645500Y-60063333D02*
X142578833Y-60096666D01*
X142545500Y-60163333D01*
X142545500Y-60763333D01*
X143212166Y-60063333D02*
X143212166Y-60763333D01*
X143212166Y-60096666D02*
X143145500Y-60063333D01*
X143012166Y-60063333D01*
X142945500Y-60096666D01*
X142912166Y-60130000D01*
X142878833Y-60196666D01*
X142878833Y-60396666D01*
X142912166Y-60463333D01*
X142945500Y-60496666D01*
X143012166Y-60530000D01*
X143145500Y-60530000D01*
X143212166Y-60496666D01*
X143445500Y-60530000D02*
X143712166Y-60530000D01*
X143545500Y-60763333D02*
X143545500Y-60163333D01*
X143578833Y-60096666D01*
X143645500Y-60063333D01*
X143712166Y-60063333D01*
D11*
X160000000Y-41000000D02*
X127000000Y-41000000D01*
X160000000Y-41000000D02*
X160000000Y-83000000D01*
X127000000Y-41000000D02*
X127000000Y-83000000D01*
X127000000Y-127000000D02*
X160000000Y-127000000D01*
X160000000Y-127000000D02*
X160000000Y-85000000D01*
X127000000Y-127000000D02*
X127000000Y-85000000D01*
X127000000Y-85000000D02*
X160000000Y-85000000D01*
X132438095Y-85602380D02*
X132400000Y-85640476D01*
X132361904Y-85716666D01*
X132361904Y-85907142D01*
X132400000Y-85983333D01*
X132438095Y-86021428D01*
X132514285Y-86059523D01*
X132590476Y-86059523D01*
X132704761Y-86021428D01*
X133161904Y-85564285D01*
X133161904Y-86059523D01*
X133123809Y-86440476D02*
X133161904Y-86440476D01*
X133238095Y-86402380D01*
X133276190Y-86364285D01*
X132361904Y-87164285D02*
X132361904Y-86783333D01*
X132742857Y-86745238D01*
X132704761Y-86783333D01*
X132666666Y-86859523D01*
X132666666Y-87050000D01*
X132704761Y-87126190D01*
X132742857Y-87164285D01*
X132819047Y-87202380D01*
X133009523Y-87202380D01*
X133085714Y-87164285D01*
X133123809Y-87126190D01*
X133161904Y-87050000D01*
X133161904Y-86859523D01*
X133123809Y-86783333D01*
X133085714Y-86745238D01*
X133161904Y-88154761D02*
X132628571Y-88154761D01*
X132704761Y-88154761D02*
X132666666Y-88192857D01*
X132628571Y-88269047D01*
X132628571Y-88383333D01*
X132666666Y-88459523D01*
X132742857Y-88497619D01*
X133161904Y-88497619D01*
X132742857Y-88497619D02*
X132666666Y-88535714D01*
X132628571Y-88611904D01*
X132628571Y-88726190D01*
X132666666Y-88802380D01*
X132742857Y-88840476D01*
X133161904Y-88840476D01*
X133161904Y-89221428D02*
X132628571Y-89221428D01*
X132704761Y-89221428D02*
X132666666Y-89259523D01*
X132628571Y-89335714D01*
X132628571Y-89450000D01*
X132666666Y-89526190D01*
X132742857Y-89564285D01*
X133161904Y-89564285D01*
X132742857Y-89564285D02*
X132666666Y-89602380D01*
X132628571Y-89678571D01*
X132628571Y-89792857D01*
X132666666Y-89869047D01*
X132742857Y-89907142D01*
X133161904Y-89907142D01*
D12*
X131500000Y-87500000D02*
X131500000Y-85000000D01*
X129500000Y-87500000D02*
X132086421Y-87500000D01*
X129500000Y-85000000D02*
X132086421Y-85000000D01*
X131500000Y-85000000D02*
X132086421Y-86126504D01*
X131500000Y-85000000D02*
X130913579Y-86126504D01*
X131500000Y-87500000D02*
X132086421Y-86373496D01*
X131500000Y-87500000D02*
X130913579Y-86373496D01*
D11*
X131335714Y-89938095D02*
X131297619Y-89900000D01*
X131221428Y-89861904D01*
X131030952Y-89861904D01*
X130954761Y-89900000D01*
X130916666Y-89938095D01*
X130878571Y-90014285D01*
X130878571Y-90090476D01*
X130916666Y-90204761D01*
X131373809Y-90661904D01*
X130878571Y-90661904D01*
X130497619Y-90623809D02*
X130497619Y-90661904D01*
X130535714Y-90738095D01*
X130573809Y-90776190D01*
X129773809Y-89861904D02*
X130154761Y-89861904D01*
X130192857Y-90242857D01*
X130154761Y-90204761D01*
X130078571Y-90166666D01*
X129888095Y-90166666D01*
X129811904Y-90204761D01*
X129773809Y-90242857D01*
X129735714Y-90319047D01*
X129735714Y-90509523D01*
X129773809Y-90585714D01*
X129811904Y-90623809D01*
X129888095Y-90661904D01*
X130078571Y-90661904D01*
X130154761Y-90623809D01*
X130192857Y-90585714D01*
X128783333Y-90661904D02*
X128783333Y-90128571D01*
X128783333Y-90204761D02*
X128745238Y-90166666D01*
X128669047Y-90128571D01*
X128554761Y-90128571D01*
X128478571Y-90166666D01*
X128440476Y-90242857D01*
X128440476Y-90661904D01*
X128440476Y-90242857D02*
X128402380Y-90166666D01*
X128326190Y-90128571D01*
X128211904Y-90128571D01*
X128135714Y-90166666D01*
X128097619Y-90242857D01*
X128097619Y-90661904D01*
X127716666Y-90661904D02*
X127716666Y-90128571D01*
X127716666Y-90204761D02*
X127678571Y-90166666D01*
X127602380Y-90128571D01*
X127488095Y-90128571D01*
X127411904Y-90166666D01*
X127373809Y-90242857D01*
X127373809Y-90661904D01*
X127373809Y-90242857D02*
X127335714Y-90166666D01*
X127259523Y-90128571D01*
X127145238Y-90128571D01*
X127069047Y-90166666D01*
X127030952Y-90242857D01*
X127030952Y-90661904D01*
D12*
X129500000Y-89000000D02*
X127000000Y-89000000D01*
X129500000Y-87500000D02*
X129500000Y-89586421D01*
X127000000Y-87500000D02*
X127000000Y-89586421D01*
X127000000Y-89000000D02*
X128126504Y-88413579D01*
X127000000Y-89000000D02*
X128126504Y-89586421D01*
X129500000Y-89000000D02*
X128373496Y-88413579D01*
X129500000Y-89000000D02*
X128373496Y-89586421D01*
D11*
X158828571Y-95828571D02*
X159361904Y-95828571D01*
X158523809Y-95638095D02*
X159095238Y-95447619D01*
X159095238Y-95942857D01*
X158638095Y-96209523D02*
X158600000Y-96247619D01*
X158561904Y-96323809D01*
X158561904Y-96514285D01*
X158600000Y-96590476D01*
X158638095Y-96628571D01*
X158714285Y-96666666D01*
X158790476Y-96666666D01*
X158904761Y-96628571D01*
X159361904Y-96171428D01*
X159361904Y-96666666D01*
X159323809Y-97047619D02*
X159361904Y-97047619D01*
X159438095Y-97009523D01*
X159476190Y-96971428D01*
X158561904Y-97542857D02*
X158561904Y-97619047D01*
X158600000Y-97695238D01*
X158638095Y-97733333D01*
X158714285Y-97771428D01*
X158866666Y-97809523D01*
X159057142Y-97809523D01*
X159209523Y-97771428D01*
X159285714Y-97733333D01*
X159323809Y-97695238D01*
X159361904Y-97619047D01*
X159361904Y-97542857D01*
X159323809Y-97466666D01*
X159285714Y-97428571D01*
X159209523Y-97390476D01*
X159057142Y-97352380D01*
X158866666Y-97352380D01*
X158714285Y-97390476D01*
X158638095Y-97428571D01*
X158600000Y-97466666D01*
X158561904Y-97542857D01*
X159361904Y-98761904D02*
X158828571Y-98761904D01*
X158904761Y-98761904D02*
X158866666Y-98800000D01*
X158828571Y-98876190D01*
X158828571Y-98990476D01*
X158866666Y-99066666D01*
X158942857Y-99104761D01*
X159361904Y-99104761D01*
X158942857Y-99104761D02*
X158866666Y-99142857D01*
X158828571Y-99219047D01*
X158828571Y-99333333D01*
X158866666Y-99409523D01*
X158942857Y-99447619D01*
X159361904Y-99447619D01*
X159361904Y-99828571D02*
X158828571Y-99828571D01*
X158904761Y-99828571D02*
X158866666Y-99866666D01*
X158828571Y-99942857D01*
X158828571Y-100057142D01*
X158866666Y-100133333D01*
X158942857Y-100171428D01*
X159361904Y-100171428D01*
X158942857Y-100171428D02*
X158866666Y-100209523D01*
X158828571Y-100285714D01*
X158828571Y-100400000D01*
X158866666Y-100476190D01*
X158942857Y-100514285D01*
X159361904Y-100514285D01*
X157980000Y-127000276D02*
X158000000Y-85000276D01*
X160000000Y-127001238D02*
X157393580Y-126999997D01*
X160020000Y-85001238D02*
X157413580Y-84999997D01*
X158000000Y-85000276D02*
X158585884Y-86127059D01*
X158000000Y-85000276D02*
X157413043Y-86126500D01*
X157980000Y-127000276D02*
X158566957Y-125874052D01*
X157980000Y-127000276D02*
X157394116Y-125873493D01*
X146090476Y-85611904D02*
X145595238Y-85611904D01*
X145861904Y-85916666D01*
X145747619Y-85916666D01*
X145671428Y-85954761D01*
X145633333Y-85992857D01*
X145595238Y-86069047D01*
X145595238Y-86259523D01*
X145633333Y-86335714D01*
X145671428Y-86373809D01*
X145747619Y-86411904D01*
X145976190Y-86411904D01*
X146052380Y-86373809D01*
X146090476Y-86335714D01*
X145328571Y-85611904D02*
X144833333Y-85611904D01*
X145100000Y-85916666D01*
X144985714Y-85916666D01*
X144909523Y-85954761D01*
X144871428Y-85992857D01*
X144833333Y-86069047D01*
X144833333Y-86259523D01*
X144871428Y-86335714D01*
X144909523Y-86373809D01*
X144985714Y-86411904D01*
X145214285Y-86411904D01*
X145290476Y-86373809D01*
X145328571Y-86335714D01*
X144452380Y-86373809D02*
X144452380Y-86411904D01*
X144490476Y-86488095D01*
X144528571Y-86526190D01*
X143957142Y-85611904D02*
X143880952Y-85611904D01*
X143804761Y-85650000D01*
X143766666Y-85688095D01*
X143728571Y-85764285D01*
X143690476Y-85916666D01*
X143690476Y-86107142D01*
X143728571Y-86259523D01*
X143766666Y-86335714D01*
X143804761Y-86373809D01*
X143880952Y-86411904D01*
X143957142Y-86411904D01*
X144033333Y-86373809D01*
X144071428Y-86335714D01*
X144109523Y-86259523D01*
X144147619Y-86107142D01*
X144147619Y-85916666D01*
X144109523Y-85764285D01*
X144071428Y-85688095D01*
X144033333Y-85650000D01*
X143957142Y-85611904D01*
X142738095Y-86411904D02*
X142738095Y-85878571D01*
X142738095Y-85954761D02*
X142700000Y-85916666D01*
X142623809Y-85878571D01*
X142509523Y-85878571D01*
X142433333Y-85916666D01*
X142395238Y-85992857D01*
X142395238Y-86411904D01*
X142395238Y-85992857D02*
X142357142Y-85916666D01*
X142280952Y-85878571D01*
X142166666Y-85878571D01*
X142090476Y-85916666D01*
X142052380Y-85992857D01*
X142052380Y-86411904D01*
X141671428Y-86411904D02*
X141671428Y-85878571D01*
X141671428Y-85954761D02*
X141633333Y-85916666D01*
X141557142Y-85878571D01*
X141442857Y-85878571D01*
X141366666Y-85916666D01*
X141328571Y-85992857D01*
X141328571Y-86411904D01*
X141328571Y-85992857D02*
X141290476Y-85916666D01*
X141214285Y-85878571D01*
X141100000Y-85878571D01*
X141023809Y-85916666D01*
X140985714Y-85992857D01*
X140985714Y-86411904D01*
D12*
X127000000Y-85000000D02*
X160000000Y-85000000D01*
X127000000Y-85000000D02*
X127000000Y-85586421D01*
X160000000Y-85000000D02*
X160000000Y-85586421D01*
X160000000Y-85000000D02*
X158873496Y-85586421D01*
X160000000Y-85000000D02*
X158873496Y-84413579D01*
X127000000Y-85000000D02*
X128126504Y-85586421D01*
X127000000Y-85000000D02*
X128126504Y-84413579D01*
D10*
X152887833Y-105696666D02*
X153121166Y-105363333D01*
X153287833Y-105696666D02*
X153287833Y-104996666D01*
X153021166Y-104996666D01*
X152954500Y-105030000D01*
X152921166Y-105063333D01*
X152887833Y-105130000D01*
X152887833Y-105230000D01*
X152921166Y-105296666D01*
X152954500Y-105330000D01*
X153021166Y-105363333D01*
X153287833Y-105363333D01*
X152587833Y-105330000D02*
X152354500Y-105330000D01*
X152254500Y-105696666D02*
X152587833Y-105696666D01*
X152587833Y-104996666D01*
X152254500Y-104996666D01*
X151954500Y-105696666D02*
X151954500Y-104996666D01*
X151721166Y-105496666D01*
X151487833Y-104996666D01*
X151487833Y-105696666D01*
X151154500Y-105430000D02*
X150621166Y-105430000D01*
X150287833Y-105696666D02*
X150287833Y-104996666D01*
X150054500Y-105496666D01*
X149821166Y-104996666D01*
X149821166Y-105696666D01*
X149487833Y-105696666D02*
X149487833Y-104996666D01*
X149254500Y-105496666D01*
X149021166Y-104996666D01*
X149021166Y-105696666D01*
X148254500Y-104996666D02*
X148021166Y-105696666D01*
X147787833Y-104996666D01*
X147187833Y-105696666D02*
X147587833Y-105696666D01*
X147387833Y-105696666D02*
X147387833Y-104996666D01*
X147454500Y-105096666D01*
X147521166Y-105163333D01*
X147587833Y-105196666D01*
X146887833Y-105630000D02*
X146854500Y-105663333D01*
X146887833Y-105696666D01*
X146921166Y-105663333D01*
X146887833Y-105630000D01*
X146887833Y-105696666D01*
X146421166Y-104996666D02*
X146354500Y-104996666D01*
X146287833Y-105030000D01*
X146254500Y-105063333D01*
X146221166Y-105130000D01*
X146187833Y-105263333D01*
X146187833Y-105430000D01*
X146221166Y-105563333D01*
X146254500Y-105630000D01*
X146287833Y-105663333D01*
X146354500Y-105696666D01*
X146421166Y-105696666D01*
X146487833Y-105663333D01*
X146521166Y-105630000D01*
X146554500Y-105563333D01*
X146587833Y-105430000D01*
X146587833Y-105263333D01*
X146554500Y-105130000D01*
X146521166Y-105063333D01*
X146487833Y-105030000D01*
X146421166Y-104996666D01*
X153321166Y-106183333D02*
X153287833Y-106150000D01*
X153221166Y-106116666D01*
X153054500Y-106116666D01*
X152987833Y-106150000D01*
X152954500Y-106183333D01*
X152921166Y-106250000D01*
X152921166Y-106316666D01*
X152954500Y-106416666D01*
X153354500Y-106816666D01*
X152921166Y-106816666D01*
X152687833Y-106116666D02*
X152221166Y-106116666D01*
X152521166Y-106816666D01*
X151954500Y-106750000D02*
X151921166Y-106783333D01*
X151954500Y-106816666D01*
X151987833Y-106783333D01*
X151954500Y-106750000D01*
X151954500Y-106816666D01*
X151321166Y-106116666D02*
X151454500Y-106116666D01*
X151521166Y-106150000D01*
X151554500Y-106183333D01*
X151621166Y-106283333D01*
X151654500Y-106416666D01*
X151654500Y-106683333D01*
X151621166Y-106750000D01*
X151587833Y-106783333D01*
X151521166Y-106816666D01*
X151387833Y-106816666D01*
X151321166Y-106783333D01*
X151287833Y-106750000D01*
X151254500Y-106683333D01*
X151254500Y-106516666D01*
X151287833Y-106450000D01*
X151321166Y-106416666D01*
X151387833Y-106383333D01*
X151521166Y-106383333D01*
X151587833Y-106416666D01*
X151621166Y-106450000D01*
X151654500Y-106516666D01*
X150954500Y-106750000D02*
X150921166Y-106783333D01*
X150954500Y-106816666D01*
X150987833Y-106783333D01*
X150954500Y-106750000D01*
X150954500Y-106816666D01*
X150654500Y-106183333D02*
X150621166Y-106150000D01*
X150554500Y-106116666D01*
X150387833Y-106116666D01*
X150321166Y-106150000D01*
X150287833Y-106183333D01*
X150254500Y-106250000D01*
X150254500Y-106316666D01*
X150287833Y-106416666D01*
X150687833Y-106816666D01*
X150254500Y-106816666D01*
X149821166Y-106116666D02*
X149754500Y-106116666D01*
X149687833Y-106150000D01*
X149654500Y-106183333D01*
X149621166Y-106250000D01*
X149587833Y-106383333D01*
X149587833Y-106550000D01*
X149621166Y-106683333D01*
X149654500Y-106750000D01*
X149687833Y-106783333D01*
X149754500Y-106816666D01*
X149821166Y-106816666D01*
X149887833Y-106783333D01*
X149921166Y-106750000D01*
X149954500Y-106683333D01*
X149987833Y-106550000D01*
X149987833Y-106383333D01*
X149954500Y-106250000D01*
X149921166Y-106183333D01*
X149887833Y-106150000D01*
X149821166Y-106116666D01*
X149321166Y-106183333D02*
X149287833Y-106150000D01*
X149221166Y-106116666D01*
X149054500Y-106116666D01*
X148987833Y-106150000D01*
X148954500Y-106183333D01*
X148921166Y-106250000D01*
X148921166Y-106316666D01*
X148954500Y-106416666D01*
X149354500Y-106816666D01*
X148921166Y-106816666D01*
X148487833Y-106116666D02*
X148421166Y-106116666D01*
X148354500Y-106150000D01*
X148321166Y-106183333D01*
X148287833Y-106250000D01*
X148254500Y-106383333D01*
X148254500Y-106550000D01*
X148287833Y-106683333D01*
X148321166Y-106750000D01*
X148354500Y-106783333D01*
X148421166Y-106816666D01*
X148487833Y-106816666D01*
X148554500Y-106783333D01*
X148587833Y-106750000D01*
X148621166Y-106683333D01*
X148654500Y-106550000D01*
X148654500Y-106383333D01*
X148621166Y-106250000D01*
X148587833Y-106183333D01*
X148554500Y-106150000D01*
X148487833Y-106116666D01*
X153087833Y-108203333D02*
X153121166Y-108170000D01*
X153187833Y-108070000D01*
X153221166Y-108003333D01*
X153254500Y-107903333D01*
X153287833Y-107736666D01*
X153287833Y-107603333D01*
X153254500Y-107436666D01*
X153221166Y-107336666D01*
X153187833Y-107270000D01*
X153121166Y-107170000D01*
X153087833Y-107136666D01*
X152521166Y-107903333D02*
X152587833Y-107936666D01*
X152721166Y-107936666D01*
X152787833Y-107903333D01*
X152821166Y-107870000D01*
X152854500Y-107803333D01*
X152854500Y-107603333D01*
X152821166Y-107536666D01*
X152787833Y-107503333D01*
X152721166Y-107470000D01*
X152587833Y-107470000D01*
X152521166Y-107503333D01*
X152287833Y-108203333D02*
X152254500Y-108170000D01*
X152187833Y-108070000D01*
X152154500Y-108003333D01*
X152121166Y-107903333D01*
X152087833Y-107736666D01*
X152087833Y-107603333D01*
X152121166Y-107436666D01*
X152154500Y-107336666D01*
X152187833Y-107270000D01*
X152254500Y-107170000D01*
X152287833Y-107136666D01*
X150821166Y-107936666D02*
X151054500Y-107603333D01*
X151221166Y-107936666D02*
X151221166Y-107236666D01*
X150954500Y-107236666D01*
X150887833Y-107270000D01*
X150854500Y-107303333D01*
X150821166Y-107370000D01*
X150821166Y-107470000D01*
X150854500Y-107536666D01*
X150887833Y-107570000D01*
X150954500Y-107603333D01*
X151221166Y-107603333D01*
X150221166Y-107936666D02*
X150221166Y-107570000D01*
X150254500Y-107503333D01*
X150321166Y-107470000D01*
X150454500Y-107470000D01*
X150521166Y-107503333D01*
X150221166Y-107903333D02*
X150287833Y-107936666D01*
X150454500Y-107936666D01*
X150521166Y-107903333D01*
X150554500Y-107836666D01*
X150554500Y-107770000D01*
X150521166Y-107703333D01*
X150454500Y-107670000D01*
X150287833Y-107670000D01*
X150221166Y-107636666D01*
X149887833Y-107936666D02*
X149887833Y-107470000D01*
X149887833Y-107236666D02*
X149921166Y-107270000D01*
X149887833Y-107303333D01*
X149854500Y-107270000D01*
X149887833Y-107236666D01*
X149887833Y-107303333D01*
X149554500Y-107470000D02*
X149554500Y-107936666D01*
X149554500Y-107536666D02*
X149521166Y-107503333D01*
X149454500Y-107470000D01*
X149354500Y-107470000D01*
X149287833Y-107503333D01*
X149254500Y-107570000D01*
X149254500Y-107936666D01*
X148654500Y-107903333D02*
X148721166Y-107936666D01*
X148854500Y-107936666D01*
X148921166Y-107903333D01*
X148954500Y-107836666D01*
X148954500Y-107570000D01*
X148921166Y-107503333D01*
X148854500Y-107470000D01*
X148721166Y-107470000D01*
X148654500Y-107503333D01*
X148621166Y-107570000D01*
X148621166Y-107636666D01*
X148954500Y-107703333D01*
X148321166Y-107936666D02*
X148321166Y-107470000D01*
X148321166Y-107603333D02*
X148287833Y-107536666D01*
X148254500Y-107503333D01*
X148187833Y-107470000D01*
X148121166Y-107470000D01*
X147354500Y-107936666D02*
X147354500Y-107236666D01*
X147087833Y-107236666D01*
X147021166Y-107270000D01*
X146987833Y-107303333D01*
X146954500Y-107370000D01*
X146954500Y-107470000D01*
X146987833Y-107536666D01*
X147021166Y-107570000D01*
X147087833Y-107603333D01*
X147354500Y-107603333D01*
X146387833Y-107903333D02*
X146454500Y-107936666D01*
X146587833Y-107936666D01*
X146654500Y-107903333D01*
X146687833Y-107836666D01*
X146687833Y-107570000D01*
X146654500Y-107503333D01*
X146587833Y-107470000D01*
X146454500Y-107470000D01*
X146387833Y-107503333D01*
X146354500Y-107570000D01*
X146354500Y-107636666D01*
X146687833Y-107703333D01*
X146154500Y-107470000D02*
X145887833Y-107470000D01*
X146054500Y-107236666D02*
X146054500Y-107836666D01*
X146021166Y-107903333D01*
X145954500Y-107936666D01*
X145887833Y-107936666D01*
X145721166Y-107470000D02*
X145354500Y-107470000D01*
X145721166Y-107936666D01*
X145354500Y-107936666D01*
X144987833Y-107936666D02*
X145054500Y-107903333D01*
X145087833Y-107870000D01*
X145121166Y-107803333D01*
X145121166Y-107603333D01*
X145087833Y-107536666D01*
X145054500Y-107503333D01*
X144987833Y-107470000D01*
X144887833Y-107470000D01*
X144821166Y-107503333D01*
X144787833Y-107536666D01*
X144754500Y-107603333D01*
X144754500Y-107803333D01*
X144787833Y-107870000D01*
X144821166Y-107903333D01*
X144887833Y-107936666D01*
X144987833Y-107936666D01*
X144354500Y-107936666D02*
X144421166Y-107903333D01*
X144454500Y-107836666D01*
X144454500Y-107236666D01*
X143787833Y-107936666D02*
X143787833Y-107236666D01*
X143787833Y-107903333D02*
X143854500Y-107936666D01*
X143987833Y-107936666D01*
X144054500Y-107903333D01*
X144087833Y-107870000D01*
X144121166Y-107803333D01*
X144121166Y-107603333D01*
X144087833Y-107536666D01*
X144054500Y-107503333D01*
X143987833Y-107470000D01*
X143854500Y-107470000D01*
X143787833Y-107503333D01*
X143554500Y-107470000D02*
X143287833Y-107470000D01*
X143454500Y-107236666D02*
X143454500Y-107836666D01*
X143421166Y-107903333D01*
X143354500Y-107936666D01*
X143287833Y-107936666D01*
D13*
X186872000Y-67179000D02*
X184372000Y-64179000D01*
X185872000Y-67179000D02*
X187872000Y-67179000D01*
X185872000Y-70179000D02*
X187872000Y-70179000D01*
X185872000Y-67179000D02*
G75*
G03X185872000Y-70179000I0J-1500000D01*
G01*
X186872000Y-70179000D02*
X186872000Y-64179000D01*
X187872000Y-70179000D02*
G75*
G03X187872000Y-67179000I0J1500000D01*
G01*
D14*
X165665000Y-48939721D02*
X165665000Y-49265279D01*
X164645000Y-48939721D02*
X164645000Y-49265279D01*
X162990000Y-61662779D02*
X162990000Y-61337221D01*
X164010000Y-61662779D02*
X164010000Y-61337221D01*
X170745000Y-48939721D02*
X170745000Y-49265279D01*
X169725000Y-48939721D02*
X169725000Y-49265279D01*
X177730000Y-52775221D02*
X177730000Y-53100779D01*
X176710000Y-52775221D02*
X176710000Y-53100779D01*
X180905000Y-48939721D02*
X180905000Y-49265279D01*
X179885000Y-48939721D02*
X179885000Y-49265279D01*
X192970000Y-52749721D02*
X192970000Y-53075279D01*
X191950000Y-52749721D02*
X191950000Y-53075279D01*
X185985000Y-48939721D02*
X185985000Y-49265279D01*
X184965000Y-48939721D02*
X184965000Y-49265279D01*
X172407000Y-72564000D02*
X169107000Y-72564000D01*
X172407000Y-69764000D02*
X172407000Y-72564000D01*
X187890000Y-52749721D02*
X187890000Y-53075279D01*
X186870000Y-52749721D02*
X186870000Y-53075279D01*
X183534064Y-61722000D02*
X182329936Y-61722000D01*
X183534064Y-59902000D02*
X182329936Y-59902000D01*
X194240000Y-63214721D02*
X194240000Y-63540279D01*
X193220000Y-63214721D02*
X193220000Y-63540279D01*
X191065000Y-48939721D02*
X191065000Y-49265279D01*
X190045000Y-48939721D02*
X190045000Y-49265279D01*
X175825000Y-48939721D02*
X175825000Y-49265279D01*
X174805000Y-48939721D02*
X174805000Y-49265279D01*
X186870000Y-49265279D02*
X186870000Y-48939721D01*
X187890000Y-49265279D02*
X187890000Y-48939721D01*
X177726000Y-71134779D02*
X177726000Y-70809221D01*
X178746000Y-71134779D02*
X178746000Y-70809221D01*
X178965064Y-68326000D02*
X177760936Y-68326000D01*
X178965064Y-66506000D02*
X177760936Y-66506000D01*
X182810000Y-52749721D02*
X182810000Y-53075279D01*
X181790000Y-52749721D02*
X181790000Y-53075279D01*
X176710000Y-49265279D02*
X176710000Y-48939721D01*
X177730000Y-49265279D02*
X177730000Y-48939721D01*
X181790000Y-49265279D02*
X181790000Y-48939721D01*
X182810000Y-49265279D02*
X182810000Y-48939721D01*
X174170000Y-69382279D02*
X174170000Y-69056721D01*
X175190000Y-69382279D02*
X175190000Y-69056721D01*
X191950000Y-49265279D02*
X191950000Y-48939721D01*
X192970000Y-49265279D02*
X192970000Y-48939721D01*
X171630000Y-49265279D02*
X171630000Y-48939721D01*
X172650000Y-49265279D02*
X172650000Y-48939721D01*
X166550000Y-49265279D02*
X166550000Y-48939721D01*
X167570000Y-49265279D02*
X167570000Y-48939721D01*
X175190000Y-72561721D02*
X175190000Y-72887279D01*
X174170000Y-72561721D02*
X174170000Y-72887279D01*
D13*
X169128000Y-97821000D02*
G75*
G03X169128000Y-100821000I0J-1500000D01*
G01*
X170128000Y-97821000D02*
X170128000Y-103821000D01*
X171128000Y-100821000D02*
G75*
G03X171128000Y-97821000I0J1500000D01*
G01*
X171128000Y-97821000D02*
X169128000Y-97821000D01*
X171128000Y-100821000D02*
X169128000Y-100821000D01*
X170128000Y-100821000D02*
X172628000Y-103821000D01*
D14*
X192990000Y-106337221D02*
X192990000Y-106662779D01*
X194010000Y-106337221D02*
X194010000Y-106662779D01*
X187275000Y-119060279D02*
X187275000Y-118734721D01*
X186255000Y-119060279D02*
X186255000Y-118734721D01*
X192355000Y-119060279D02*
X192355000Y-118734721D01*
X191335000Y-119060279D02*
X191335000Y-118734721D01*
X168205000Y-52749721D02*
X168205000Y-53075279D01*
X167185000Y-52749721D02*
X167185000Y-53075279D01*
X174190000Y-118734721D02*
X174190000Y-119060279D01*
X175210000Y-118734721D02*
X175210000Y-119060279D01*
X181810000Y-98617721D02*
X181810000Y-98943279D01*
X182830000Y-98617721D02*
X182830000Y-98943279D01*
X164030000Y-118734721D02*
X164030000Y-119060279D01*
X165050000Y-118734721D02*
X165050000Y-119060279D01*
X184350000Y-118734721D02*
X184350000Y-119060279D01*
X185370000Y-118734721D02*
X185370000Y-119060279D01*
X182830000Y-95438279D02*
X182830000Y-95112721D01*
X181810000Y-95438279D02*
X181810000Y-95112721D01*
X169110000Y-118734721D02*
X169110000Y-119060279D01*
X170130000Y-118734721D02*
X170130000Y-119060279D01*
X179270000Y-118734721D02*
X179270000Y-119060279D01*
X180290000Y-118734721D02*
X180290000Y-119060279D01*
X172650000Y-52749721D02*
X172650000Y-53075279D01*
X171630000Y-52749721D02*
X171630000Y-53075279D01*
X178034936Y-101494000D02*
X179239064Y-101494000D01*
X178034936Y-99674000D02*
X179239064Y-99674000D01*
X189430000Y-118734721D02*
X189430000Y-119060279D01*
X190450000Y-118734721D02*
X190450000Y-119060279D01*
X178254000Y-96865221D02*
X178254000Y-97190779D01*
X179274000Y-96865221D02*
X179274000Y-97190779D01*
X175210000Y-115250279D02*
X175210000Y-114924721D01*
X174190000Y-115250279D02*
X174190000Y-114924721D01*
X185370000Y-115250279D02*
X185370000Y-114924721D01*
X184350000Y-115250279D02*
X184350000Y-114924721D01*
X189815000Y-115250279D02*
X189815000Y-114924721D01*
X188795000Y-115250279D02*
X188795000Y-114924721D01*
X184593000Y-98236000D02*
X184593000Y-95436000D01*
X184593000Y-95436000D02*
X187893000Y-95436000D01*
X172035000Y-119060279D02*
X172035000Y-118734721D01*
X171015000Y-119060279D02*
X171015000Y-118734721D01*
X182195000Y-119060279D02*
X182195000Y-118734721D01*
X181175000Y-119060279D02*
X181175000Y-118734721D01*
X170130000Y-115250279D02*
X170130000Y-114924721D01*
X169110000Y-115250279D02*
X169110000Y-114924721D01*
X166955000Y-119060279D02*
X166955000Y-118734721D01*
X165935000Y-119060279D02*
X165935000Y-118734721D01*
X180290000Y-115224779D02*
X180290000Y-114899221D01*
X179270000Y-115224779D02*
X179270000Y-114899221D01*
X177115000Y-119060279D02*
X177115000Y-118734721D01*
X176095000Y-119060279D02*
X176095000Y-118734721D01*
X173465936Y-108098000D02*
X174670064Y-108098000D01*
X173465936Y-106278000D02*
X174670064Y-106278000D01*
X165050000Y-115250279D02*
X165050000Y-114924721D01*
X164030000Y-115250279D02*
X164030000Y-114924721D01*
X163780000Y-104785279D02*
X163780000Y-104459721D01*
X162760000Y-104785279D02*
X162760000Y-104459721D01*
D13*
X152872000Y-70179000D02*
G75*
G03X152872000Y-67179000I0J1500000D01*
G01*
X151872000Y-70179000D02*
X151872000Y-64179000D01*
X150872000Y-67179000D02*
G75*
G03X150872000Y-70179000I0J-1500000D01*
G01*
X150872000Y-70179000D02*
X152872000Y-70179000D01*
X150872000Y-67179000D02*
X152872000Y-67179000D01*
X151872000Y-67179000D02*
X149372000Y-64179000D01*
D14*
X129010000Y-61662779D02*
X129010000Y-61337221D01*
X127990000Y-61662779D02*
X127990000Y-61337221D01*
X134725000Y-48939721D02*
X134725000Y-49265279D01*
X135745000Y-48939721D02*
X135745000Y-49265279D01*
X129645000Y-48939721D02*
X129645000Y-49265279D01*
X130665000Y-48939721D02*
X130665000Y-49265279D01*
X147810000Y-49265279D02*
X147810000Y-48939721D01*
X146790000Y-49265279D02*
X146790000Y-48939721D01*
X140190000Y-69382279D02*
X140190000Y-69056721D01*
X139170000Y-69382279D02*
X139170000Y-69056721D01*
X157970000Y-49265279D02*
X157970000Y-48939721D01*
X156950000Y-49265279D02*
X156950000Y-48939721D01*
X137650000Y-49265279D02*
X137650000Y-48939721D01*
X136630000Y-49265279D02*
X136630000Y-48939721D01*
X139170000Y-72561721D02*
X139170000Y-72887279D01*
X140190000Y-72561721D02*
X140190000Y-72887279D01*
X152890000Y-49265279D02*
X152890000Y-48939721D01*
X151870000Y-49265279D02*
X151870000Y-48939721D01*
X142730000Y-49265279D02*
X142730000Y-48939721D01*
X141710000Y-49265279D02*
X141710000Y-48939721D01*
X143965064Y-66506000D02*
X142760936Y-66506000D01*
X143965064Y-68326000D02*
X142760936Y-68326000D01*
X132570000Y-49265279D02*
X132570000Y-48939721D01*
X131550000Y-49265279D02*
X131550000Y-48939721D01*
X143746000Y-71134779D02*
X143746000Y-70809221D01*
X142726000Y-71134779D02*
X142726000Y-70809221D01*
X146790000Y-52749721D02*
X146790000Y-53075279D01*
X147810000Y-52749721D02*
X147810000Y-53075279D01*
X136630000Y-52749721D02*
X136630000Y-53075279D01*
X137650000Y-52749721D02*
X137650000Y-53075279D01*
X132185000Y-52749721D02*
X132185000Y-53075279D01*
X133205000Y-52749721D02*
X133205000Y-53075279D01*
X137407000Y-69764000D02*
X137407000Y-72564000D01*
X137407000Y-72564000D02*
X134107000Y-72564000D01*
X149965000Y-48939721D02*
X149965000Y-49265279D01*
X150985000Y-48939721D02*
X150985000Y-49265279D01*
X139805000Y-48939721D02*
X139805000Y-49265279D01*
X140825000Y-48939721D02*
X140825000Y-49265279D01*
X151870000Y-52749721D02*
X151870000Y-53075279D01*
X152890000Y-52749721D02*
X152890000Y-53075279D01*
X155045000Y-48939721D02*
X155045000Y-49265279D01*
X156065000Y-48939721D02*
X156065000Y-49265279D01*
X141710000Y-52775221D02*
X141710000Y-53100779D01*
X142730000Y-52775221D02*
X142730000Y-53100779D01*
X144885000Y-48939721D02*
X144885000Y-49265279D01*
X145905000Y-48939721D02*
X145905000Y-49265279D01*
X148534064Y-59902000D02*
X147329936Y-59902000D01*
X148534064Y-61722000D02*
X147329936Y-61722000D01*
X156950000Y-52749721D02*
X156950000Y-53075279D01*
X157970000Y-52749721D02*
X157970000Y-53075279D01*
X158220000Y-63214721D02*
X158220000Y-63540279D01*
X159240000Y-63214721D02*
X159240000Y-63540279D01*
X159010000Y-106337221D02*
X159010000Y-106662779D01*
X157990000Y-106337221D02*
X157990000Y-106662779D01*
D13*
X135128000Y-100821000D02*
X137628000Y-103821000D01*
X136128000Y-100821000D02*
X134128000Y-100821000D01*
X136128000Y-97821000D02*
X134128000Y-97821000D01*
X136128000Y-100821000D02*
G75*
G03X136128000Y-97821000I0J1500000D01*
G01*
X135128000Y-97821000D02*
X135128000Y-103821000D01*
X134128000Y-97821000D02*
G75*
G03X134128000Y-100821000I0J-1500000D01*
G01*
D14*
X156335000Y-119060279D02*
X156335000Y-118734721D01*
X157355000Y-119060279D02*
X157355000Y-118734721D01*
X151255000Y-119060279D02*
X151255000Y-118734721D01*
X152275000Y-119060279D02*
X152275000Y-118734721D01*
X146175000Y-119060279D02*
X146175000Y-118734721D01*
X147195000Y-119060279D02*
X147195000Y-118734721D01*
X141095000Y-119060279D02*
X141095000Y-118734721D01*
X142115000Y-119060279D02*
X142115000Y-118734721D01*
X136015000Y-119060279D02*
X136015000Y-118734721D01*
X137035000Y-119060279D02*
X137035000Y-118734721D01*
X153795000Y-115250279D02*
X153795000Y-114924721D01*
X154815000Y-115250279D02*
X154815000Y-114924721D01*
X144270000Y-115224779D02*
X144270000Y-114899221D01*
X145290000Y-115224779D02*
X145290000Y-114899221D01*
X130935000Y-119060279D02*
X130935000Y-118734721D01*
X131955000Y-119060279D02*
X131955000Y-118734721D01*
X149593000Y-95436000D02*
X152893000Y-95436000D01*
X149593000Y-98236000D02*
X149593000Y-95436000D01*
X149350000Y-115250279D02*
X149350000Y-114924721D01*
X150370000Y-115250279D02*
X150370000Y-114924721D01*
X139190000Y-115250279D02*
X139190000Y-114924721D01*
X140210000Y-115250279D02*
X140210000Y-114924721D01*
X134110000Y-115250279D02*
X134110000Y-114924721D01*
X135130000Y-115250279D02*
X135130000Y-114924721D01*
X129030000Y-115250279D02*
X129030000Y-114924721D01*
X130050000Y-115250279D02*
X130050000Y-114924721D01*
X144274000Y-96865221D02*
X144274000Y-97190779D01*
X143254000Y-96865221D02*
X143254000Y-97190779D01*
X127760000Y-104785279D02*
X127760000Y-104459721D01*
X128780000Y-104785279D02*
X128780000Y-104459721D01*
X138465936Y-106278000D02*
X139670064Y-106278000D01*
X138465936Y-108098000D02*
X139670064Y-108098000D01*
X146810000Y-95438279D02*
X146810000Y-95112721D01*
X147830000Y-95438279D02*
X147830000Y-95112721D01*
X147830000Y-98617721D02*
X147830000Y-98943279D01*
X146810000Y-98617721D02*
X146810000Y-98943279D01*
X155450000Y-118734721D02*
X155450000Y-119060279D01*
X154430000Y-118734721D02*
X154430000Y-119060279D01*
X150370000Y-118734721D02*
X150370000Y-119060279D01*
X149350000Y-118734721D02*
X149350000Y-119060279D01*
X145290000Y-118734721D02*
X145290000Y-119060279D01*
X144270000Y-118734721D02*
X144270000Y-119060279D01*
X140210000Y-118734721D02*
X140210000Y-119060279D01*
X139190000Y-118734721D02*
X139190000Y-119060279D01*
X135130000Y-118734721D02*
X135130000Y-119060279D01*
X134110000Y-118734721D02*
X134110000Y-119060279D01*
X130050000Y-118734721D02*
X130050000Y-119060279D01*
X129030000Y-118734721D02*
X129030000Y-119060279D01*
X143034936Y-99674000D02*
X144239064Y-99674000D01*
X143034936Y-101494000D02*
X144239064Y-101494000D01*
D12*
X164083380Y-48485142D02*
X163607190Y-48151809D01*
X164083380Y-47913714D02*
X163083380Y-47913714D01*
X163083380Y-48294666D01*
X163131000Y-48389904D01*
X163178619Y-48437523D01*
X163273857Y-48485142D01*
X163416714Y-48485142D01*
X163511952Y-48437523D01*
X163559571Y-48389904D01*
X163607190Y-48294666D01*
X163607190Y-47913714D01*
X164083380Y-49437523D02*
X164083380Y-48866095D01*
X164083380Y-49151809D02*
X163083380Y-49151809D01*
X163226238Y-49056571D01*
X163321476Y-48961333D01*
X163369095Y-48866095D01*
X163083380Y-50294666D02*
X163083380Y-50104190D01*
X163131000Y-50008952D01*
X163178619Y-49961333D01*
X163321476Y-49866095D01*
X163511952Y-49818476D01*
X163892904Y-49818476D01*
X163988142Y-49866095D01*
X164035761Y-49913714D01*
X164083380Y-50008952D01*
X164083380Y-50199428D01*
X164035761Y-50294666D01*
X163988142Y-50342285D01*
X163892904Y-50389904D01*
X163654809Y-50389904D01*
X163559571Y-50342285D01*
X163511952Y-50294666D01*
X163464333Y-50199428D01*
X163464333Y-50008952D01*
X163511952Y-49913714D01*
X163559571Y-49866095D01*
X163654809Y-49818476D01*
X165452380Y-60857142D02*
X164976190Y-60523809D01*
X165452380Y-60285714D02*
X164452380Y-60285714D01*
X164452380Y-60666666D01*
X164500000Y-60761904D01*
X164547619Y-60809523D01*
X164642857Y-60857142D01*
X164785714Y-60857142D01*
X164880952Y-60809523D01*
X164928571Y-60761904D01*
X164976190Y-60666666D01*
X164976190Y-60285714D01*
X165452380Y-61809523D02*
X165452380Y-61238095D01*
X165452380Y-61523809D02*
X164452380Y-61523809D01*
X164595238Y-61428571D01*
X164690476Y-61333333D01*
X164738095Y-61238095D01*
X164452380Y-62428571D02*
X164452380Y-62523809D01*
X164500000Y-62619047D01*
X164547619Y-62666666D01*
X164642857Y-62714285D01*
X164833333Y-62761904D01*
X165071428Y-62761904D01*
X165261904Y-62714285D01*
X165357142Y-62666666D01*
X165404761Y-62619047D01*
X165452380Y-62523809D01*
X165452380Y-62428571D01*
X165404761Y-62333333D01*
X165357142Y-62285714D01*
X165261904Y-62238095D01*
X165071428Y-62190476D01*
X164833333Y-62190476D01*
X164642857Y-62238095D01*
X164547619Y-62285714D01*
X164500000Y-62333333D01*
X164452380Y-62428571D01*
X169257380Y-48459642D02*
X168781190Y-48126309D01*
X169257380Y-47888214D02*
X168257380Y-47888214D01*
X168257380Y-48269166D01*
X168305000Y-48364404D01*
X168352619Y-48412023D01*
X168447857Y-48459642D01*
X168590714Y-48459642D01*
X168685952Y-48412023D01*
X168733571Y-48364404D01*
X168781190Y-48269166D01*
X168781190Y-47888214D01*
X169257380Y-49412023D02*
X169257380Y-48840595D01*
X169257380Y-49126309D02*
X168257380Y-49126309D01*
X168400238Y-49031071D01*
X168495476Y-48935833D01*
X168543095Y-48840595D01*
X168257380Y-50316785D02*
X168257380Y-49840595D01*
X168733571Y-49792976D01*
X168685952Y-49840595D01*
X168638333Y-49935833D01*
X168638333Y-50173928D01*
X168685952Y-50269166D01*
X168733571Y-50316785D01*
X168828809Y-50364404D01*
X169066904Y-50364404D01*
X169162142Y-50316785D01*
X169209761Y-50269166D01*
X169257380Y-50173928D01*
X169257380Y-49935833D01*
X169209761Y-49840595D01*
X169162142Y-49792976D01*
X176242380Y-52771333D02*
X175766190Y-52438000D01*
X176242380Y-52199904D02*
X175242380Y-52199904D01*
X175242380Y-52580857D01*
X175290000Y-52676095D01*
X175337619Y-52723714D01*
X175432857Y-52771333D01*
X175575714Y-52771333D01*
X175670952Y-52723714D01*
X175718571Y-52676095D01*
X175766190Y-52580857D01*
X175766190Y-52199904D01*
X175575714Y-53628476D02*
X176242380Y-53628476D01*
X175194761Y-53390380D02*
X175909047Y-53152285D01*
X175909047Y-53771333D01*
X179417380Y-48459642D02*
X178941190Y-48126309D01*
X179417380Y-47888214D02*
X178417380Y-47888214D01*
X178417380Y-48269166D01*
X178465000Y-48364404D01*
X178512619Y-48412023D01*
X178607857Y-48459642D01*
X178750714Y-48459642D01*
X178845952Y-48412023D01*
X178893571Y-48364404D01*
X178941190Y-48269166D01*
X178941190Y-47888214D01*
X179417380Y-49412023D02*
X179417380Y-48840595D01*
X179417380Y-49126309D02*
X178417380Y-49126309D01*
X178560238Y-49031071D01*
X178655476Y-48935833D01*
X178703095Y-48840595D01*
X178417380Y-49745357D02*
X178417380Y-50364404D01*
X178798333Y-50031071D01*
X178798333Y-50173928D01*
X178845952Y-50269166D01*
X178893571Y-50316785D01*
X178988809Y-50364404D01*
X179226904Y-50364404D01*
X179322142Y-50316785D01*
X179369761Y-50269166D01*
X179417380Y-50173928D01*
X179417380Y-49888214D01*
X179369761Y-49792976D01*
X179322142Y-49745357D01*
X191482380Y-52745833D02*
X191006190Y-52412500D01*
X191482380Y-52174404D02*
X190482380Y-52174404D01*
X190482380Y-52555357D01*
X190530000Y-52650595D01*
X190577619Y-52698214D01*
X190672857Y-52745833D01*
X190815714Y-52745833D01*
X190910952Y-52698214D01*
X190958571Y-52650595D01*
X191006190Y-52555357D01*
X191006190Y-52174404D01*
X191482380Y-53698214D02*
X191482380Y-53126785D01*
X191482380Y-53412500D02*
X190482380Y-53412500D01*
X190625238Y-53317261D01*
X190720476Y-53222023D01*
X190768095Y-53126785D01*
X184497380Y-48459642D02*
X184021190Y-48126309D01*
X184497380Y-47888214D02*
X183497380Y-47888214D01*
X183497380Y-48269166D01*
X183545000Y-48364404D01*
X183592619Y-48412023D01*
X183687857Y-48459642D01*
X183830714Y-48459642D01*
X183925952Y-48412023D01*
X183973571Y-48364404D01*
X184021190Y-48269166D01*
X184021190Y-47888214D01*
X184497380Y-49412023D02*
X184497380Y-48840595D01*
X184497380Y-49126309D02*
X183497380Y-49126309D01*
X183640238Y-49031071D01*
X183735476Y-48935833D01*
X183783095Y-48840595D01*
X183592619Y-49792976D02*
X183545000Y-49840595D01*
X183497380Y-49935833D01*
X183497380Y-50173928D01*
X183545000Y-50269166D01*
X183592619Y-50316785D01*
X183687857Y-50364404D01*
X183783095Y-50364404D01*
X183925952Y-50316785D01*
X184497380Y-49745357D01*
X184497380Y-50364404D01*
X168052190Y-70495809D02*
X168528380Y-70495809D01*
X167528380Y-70162476D02*
X168052190Y-70495809D01*
X167528380Y-70829142D01*
X168528380Y-71686285D02*
X168528380Y-71114857D01*
X168528380Y-71400571D02*
X167528380Y-71400571D01*
X167671238Y-71305333D01*
X167766476Y-71210095D01*
X167814095Y-71114857D01*
X186402380Y-52745833D02*
X185926190Y-52412500D01*
X186402380Y-52174404D02*
X185402380Y-52174404D01*
X185402380Y-52555357D01*
X185450000Y-52650595D01*
X185497619Y-52698214D01*
X185592857Y-52745833D01*
X185735714Y-52745833D01*
X185830952Y-52698214D01*
X185878571Y-52650595D01*
X185926190Y-52555357D01*
X185926190Y-52174404D01*
X185497619Y-53126785D02*
X185450000Y-53174404D01*
X185402380Y-53269642D01*
X185402380Y-53507738D01*
X185450000Y-53602976D01*
X185497619Y-53650595D01*
X185592857Y-53698214D01*
X185688095Y-53698214D01*
X185830952Y-53650595D01*
X186402380Y-53079166D01*
X186402380Y-53698214D01*
X186594142Y-60296142D02*
X186641761Y-60248523D01*
X186689380Y-60105666D01*
X186689380Y-60010428D01*
X186641761Y-59867571D01*
X186546523Y-59772333D01*
X186451285Y-59724714D01*
X186260809Y-59677095D01*
X186117952Y-59677095D01*
X185927476Y-59724714D01*
X185832238Y-59772333D01*
X185737000Y-59867571D01*
X185689380Y-60010428D01*
X185689380Y-60105666D01*
X185737000Y-60248523D01*
X185784619Y-60296142D01*
X186689380Y-61248523D02*
X186689380Y-60677095D01*
X186689380Y-60962809D02*
X185689380Y-60962809D01*
X185832238Y-60867571D01*
X185927476Y-60772333D01*
X185975095Y-60677095D01*
X186117952Y-61819952D02*
X186070333Y-61724714D01*
X186022714Y-61677095D01*
X185927476Y-61629476D01*
X185879857Y-61629476D01*
X185784619Y-61677095D01*
X185737000Y-61724714D01*
X185689380Y-61819952D01*
X185689380Y-62010428D01*
X185737000Y-62105666D01*
X185784619Y-62153285D01*
X185879857Y-62200904D01*
X185927476Y-62200904D01*
X186022714Y-62153285D01*
X186070333Y-62105666D01*
X186117952Y-62010428D01*
X186117952Y-61819952D01*
X186165571Y-61724714D01*
X186213190Y-61677095D01*
X186308428Y-61629476D01*
X186498904Y-61629476D01*
X186594142Y-61677095D01*
X186641761Y-61724714D01*
X186689380Y-61819952D01*
X186689380Y-62010428D01*
X186641761Y-62105666D01*
X186594142Y-62153285D01*
X186498904Y-62200904D01*
X186308428Y-62200904D01*
X186213190Y-62153285D01*
X186165571Y-62105666D01*
X186117952Y-62010428D01*
X192785380Y-62982333D02*
X192309190Y-62649000D01*
X192785380Y-62410904D02*
X191785380Y-62410904D01*
X191785380Y-62791857D01*
X191833000Y-62887095D01*
X191880619Y-62934714D01*
X191975857Y-62982333D01*
X192118714Y-62982333D01*
X192213952Y-62934714D01*
X192261571Y-62887095D01*
X192309190Y-62791857D01*
X192309190Y-62410904D01*
X191785380Y-63315666D02*
X191785380Y-63982333D01*
X192785380Y-63553761D01*
X189577380Y-48459642D02*
X189101190Y-48126309D01*
X189577380Y-47888214D02*
X188577380Y-47888214D01*
X188577380Y-48269166D01*
X188625000Y-48364404D01*
X188672619Y-48412023D01*
X188767857Y-48459642D01*
X188910714Y-48459642D01*
X189005952Y-48412023D01*
X189053571Y-48364404D01*
X189101190Y-48269166D01*
X189101190Y-47888214D01*
X189577380Y-49412023D02*
X189577380Y-48840595D01*
X189577380Y-49126309D02*
X188577380Y-49126309D01*
X188720238Y-49031071D01*
X188815476Y-48935833D01*
X188863095Y-48840595D01*
X189577380Y-50364404D02*
X189577380Y-49792976D01*
X189577380Y-50078690D02*
X188577380Y-50078690D01*
X188720238Y-49983452D01*
X188815476Y-49888214D01*
X188863095Y-49792976D01*
X174337380Y-48459642D02*
X173861190Y-48126309D01*
X174337380Y-47888214D02*
X173337380Y-47888214D01*
X173337380Y-48269166D01*
X173385000Y-48364404D01*
X173432619Y-48412023D01*
X173527857Y-48459642D01*
X173670714Y-48459642D01*
X173765952Y-48412023D01*
X173813571Y-48364404D01*
X173861190Y-48269166D01*
X173861190Y-47888214D01*
X174337380Y-49412023D02*
X174337380Y-48840595D01*
X174337380Y-49126309D02*
X173337380Y-49126309D01*
X173480238Y-49031071D01*
X173575476Y-48935833D01*
X173623095Y-48840595D01*
X173670714Y-50269166D02*
X174337380Y-50269166D01*
X173289761Y-50031071D02*
X174004047Y-49792976D01*
X174004047Y-50412023D01*
X187737142Y-46167333D02*
X187784761Y-46119714D01*
X187832380Y-45976857D01*
X187832380Y-45881619D01*
X187784761Y-45738761D01*
X187689523Y-45643523D01*
X187594285Y-45595904D01*
X187403809Y-45548285D01*
X187260952Y-45548285D01*
X187070476Y-45595904D01*
X186975238Y-45643523D01*
X186880000Y-45738761D01*
X186832380Y-45881619D01*
X186832380Y-45976857D01*
X186880000Y-46119714D01*
X186927619Y-46167333D01*
X186927619Y-46548285D02*
X186880000Y-46595904D01*
X186832380Y-46691142D01*
X186832380Y-46929238D01*
X186880000Y-47024476D01*
X186927619Y-47072095D01*
X187022857Y-47119714D01*
X187118095Y-47119714D01*
X187260952Y-47072095D01*
X187832380Y-46500666D01*
X187832380Y-47119714D01*
X180118380Y-70805333D02*
X179642190Y-70472000D01*
X180118380Y-70233904D02*
X179118380Y-70233904D01*
X179118380Y-70614857D01*
X179166000Y-70710095D01*
X179213619Y-70757714D01*
X179308857Y-70805333D01*
X179451714Y-70805333D01*
X179546952Y-70757714D01*
X179594571Y-70710095D01*
X179642190Y-70614857D01*
X179642190Y-70233904D01*
X179546952Y-71376761D02*
X179499333Y-71281523D01*
X179451714Y-71233904D01*
X179356476Y-71186285D01*
X179308857Y-71186285D01*
X179213619Y-71233904D01*
X179166000Y-71281523D01*
X179118380Y-71376761D01*
X179118380Y-71567238D01*
X179166000Y-71662476D01*
X179213619Y-71710095D01*
X179308857Y-71757714D01*
X179356476Y-71757714D01*
X179451714Y-71710095D01*
X179499333Y-71662476D01*
X179546952Y-71567238D01*
X179546952Y-71376761D01*
X179594571Y-71281523D01*
X179642190Y-71233904D01*
X179737428Y-71186285D01*
X179927904Y-71186285D01*
X180023142Y-71233904D01*
X180070761Y-71281523D01*
X180118380Y-71376761D01*
X180118380Y-71567238D01*
X180070761Y-71662476D01*
X180023142Y-71710095D01*
X179927904Y-71757714D01*
X179737428Y-71757714D01*
X179642190Y-71710095D01*
X179594571Y-71662476D01*
X179546952Y-71567238D01*
X182022142Y-66900142D02*
X182069761Y-66852523D01*
X182117380Y-66709666D01*
X182117380Y-66614428D01*
X182069761Y-66471571D01*
X181974523Y-66376333D01*
X181879285Y-66328714D01*
X181688809Y-66281095D01*
X181545952Y-66281095D01*
X181355476Y-66328714D01*
X181260238Y-66376333D01*
X181165000Y-66471571D01*
X181117380Y-66614428D01*
X181117380Y-66709666D01*
X181165000Y-66852523D01*
X181212619Y-66900142D01*
X182117380Y-67852523D02*
X182117380Y-67281095D01*
X182117380Y-67566809D02*
X181117380Y-67566809D01*
X181260238Y-67471571D01*
X181355476Y-67376333D01*
X181403095Y-67281095D01*
X181117380Y-68471571D02*
X181117380Y-68566809D01*
X181165000Y-68662047D01*
X181212619Y-68709666D01*
X181307857Y-68757285D01*
X181498333Y-68804904D01*
X181736428Y-68804904D01*
X181926904Y-68757285D01*
X182022142Y-68709666D01*
X182069761Y-68662047D01*
X182117380Y-68566809D01*
X182117380Y-68471571D01*
X182069761Y-68376333D01*
X182022142Y-68328714D01*
X181926904Y-68281095D01*
X181736428Y-68233476D01*
X181498333Y-68233476D01*
X181307857Y-68281095D01*
X181212619Y-68328714D01*
X181165000Y-68376333D01*
X181117380Y-68471571D01*
X181322380Y-52745833D02*
X180846190Y-52412500D01*
X181322380Y-52174404D02*
X180322380Y-52174404D01*
X180322380Y-52555357D01*
X180370000Y-52650595D01*
X180417619Y-52698214D01*
X180512857Y-52745833D01*
X180655714Y-52745833D01*
X180750952Y-52698214D01*
X180798571Y-52650595D01*
X180846190Y-52555357D01*
X180846190Y-52174404D01*
X180322380Y-53079166D02*
X180322380Y-53698214D01*
X180703333Y-53364880D01*
X180703333Y-53507738D01*
X180750952Y-53602976D01*
X180798571Y-53650595D01*
X180893809Y-53698214D01*
X181131904Y-53698214D01*
X181227142Y-53650595D01*
X181274761Y-53602976D01*
X181322380Y-53507738D01*
X181322380Y-53222023D01*
X181274761Y-53126785D01*
X181227142Y-53079166D01*
X177450142Y-46294333D02*
X177497761Y-46246714D01*
X177545380Y-46103857D01*
X177545380Y-46008619D01*
X177497761Y-45865761D01*
X177402523Y-45770523D01*
X177307285Y-45722904D01*
X177116809Y-45675285D01*
X176973952Y-45675285D01*
X176783476Y-45722904D01*
X176688238Y-45770523D01*
X176593000Y-45865761D01*
X176545380Y-46008619D01*
X176545380Y-46103857D01*
X176593000Y-46246714D01*
X176640619Y-46294333D01*
X176878714Y-47151476D02*
X177545380Y-47151476D01*
X176497761Y-46913380D02*
X177212047Y-46675285D01*
X177212047Y-47294333D01*
X182530142Y-46294333D02*
X182577761Y-46246714D01*
X182625380Y-46103857D01*
X182625380Y-46008619D01*
X182577761Y-45865761D01*
X182482523Y-45770523D01*
X182387285Y-45722904D01*
X182196809Y-45675285D01*
X182053952Y-45675285D01*
X181863476Y-45722904D01*
X181768238Y-45770523D01*
X181673000Y-45865761D01*
X181625380Y-46008619D01*
X181625380Y-46103857D01*
X181673000Y-46246714D01*
X181720619Y-46294333D01*
X181625380Y-46627666D02*
X181625380Y-47246714D01*
X182006333Y-46913380D01*
X182006333Y-47056238D01*
X182053952Y-47151476D01*
X182101571Y-47199095D01*
X182196809Y-47246714D01*
X182434904Y-47246714D01*
X182530142Y-47199095D01*
X182577761Y-47151476D01*
X182625380Y-47056238D01*
X182625380Y-46770523D01*
X182577761Y-46675285D01*
X182530142Y-46627666D01*
X173513142Y-68551142D02*
X173560761Y-68503523D01*
X173608380Y-68360666D01*
X173608380Y-68265428D01*
X173560761Y-68122571D01*
X173465523Y-68027333D01*
X173370285Y-67979714D01*
X173179809Y-67932095D01*
X173036952Y-67932095D01*
X172846476Y-67979714D01*
X172751238Y-68027333D01*
X172656000Y-68122571D01*
X172608380Y-68265428D01*
X172608380Y-68360666D01*
X172656000Y-68503523D01*
X172703619Y-68551142D01*
X173608380Y-69503523D02*
X173608380Y-68932095D01*
X173608380Y-69217809D02*
X172608380Y-69217809D01*
X172751238Y-69122571D01*
X172846476Y-69027333D01*
X172894095Y-68932095D01*
X172608380Y-70408285D02*
X172608380Y-69932095D01*
X173084571Y-69884476D01*
X173036952Y-69932095D01*
X172989333Y-70027333D01*
X172989333Y-70265428D01*
X173036952Y-70360666D01*
X173084571Y-70408285D01*
X173179809Y-70455904D01*
X173417904Y-70455904D01*
X173513142Y-70408285D01*
X173560761Y-70360666D01*
X173608380Y-70265428D01*
X173608380Y-70027333D01*
X173560761Y-69932095D01*
X173513142Y-69884476D01*
X192690142Y-46167333D02*
X192737761Y-46119714D01*
X192785380Y-45976857D01*
X192785380Y-45881619D01*
X192737761Y-45738761D01*
X192642523Y-45643523D01*
X192547285Y-45595904D01*
X192356809Y-45548285D01*
X192213952Y-45548285D01*
X192023476Y-45595904D01*
X191928238Y-45643523D01*
X191833000Y-45738761D01*
X191785380Y-45881619D01*
X191785380Y-45976857D01*
X191833000Y-46119714D01*
X191880619Y-46167333D01*
X192785380Y-47119714D02*
X192785380Y-46548285D01*
X192785380Y-46834000D02*
X191785380Y-46834000D01*
X191928238Y-46738761D01*
X192023476Y-46643523D01*
X192071095Y-46548285D01*
X172370142Y-46294333D02*
X172417761Y-46246714D01*
X172465380Y-46103857D01*
X172465380Y-46008619D01*
X172417761Y-45865761D01*
X172322523Y-45770523D01*
X172227285Y-45722904D01*
X172036809Y-45675285D01*
X171893952Y-45675285D01*
X171703476Y-45722904D01*
X171608238Y-45770523D01*
X171513000Y-45865761D01*
X171465380Y-46008619D01*
X171465380Y-46103857D01*
X171513000Y-46246714D01*
X171560619Y-46294333D01*
X171465380Y-47199095D02*
X171465380Y-46722904D01*
X171941571Y-46675285D01*
X171893952Y-46722904D01*
X171846333Y-46818142D01*
X171846333Y-47056238D01*
X171893952Y-47151476D01*
X171941571Y-47199095D01*
X172036809Y-47246714D01*
X172274904Y-47246714D01*
X172370142Y-47199095D01*
X172417761Y-47151476D01*
X172465380Y-47056238D01*
X172465380Y-46818142D01*
X172417761Y-46722904D01*
X172370142Y-46675285D01*
X167290142Y-45913333D02*
X167337761Y-45865714D01*
X167385380Y-45722857D01*
X167385380Y-45627619D01*
X167337761Y-45484761D01*
X167242523Y-45389523D01*
X167147285Y-45341904D01*
X166956809Y-45294285D01*
X166813952Y-45294285D01*
X166623476Y-45341904D01*
X166528238Y-45389523D01*
X166433000Y-45484761D01*
X166385380Y-45627619D01*
X166385380Y-45722857D01*
X166433000Y-45865714D01*
X166480619Y-45913333D01*
X166385380Y-46770476D02*
X166385380Y-46580000D01*
X166433000Y-46484761D01*
X166480619Y-46437142D01*
X166623476Y-46341904D01*
X166813952Y-46294285D01*
X167194904Y-46294285D01*
X167290142Y-46341904D01*
X167337761Y-46389523D01*
X167385380Y-46484761D01*
X167385380Y-46675238D01*
X167337761Y-46770476D01*
X167290142Y-46818095D01*
X167194904Y-46865714D01*
X166956809Y-46865714D01*
X166861571Y-46818095D01*
X166813952Y-46770476D01*
X166766333Y-46675238D01*
X166766333Y-46484761D01*
X166813952Y-46389523D01*
X166861571Y-46341904D01*
X166956809Y-46294285D01*
X173607142Y-72081642D02*
X173654761Y-72034023D01*
X173702380Y-71891166D01*
X173702380Y-71795928D01*
X173654761Y-71653071D01*
X173559523Y-71557833D01*
X173464285Y-71510214D01*
X173273809Y-71462595D01*
X173130952Y-71462595D01*
X172940476Y-71510214D01*
X172845238Y-71557833D01*
X172750000Y-71653071D01*
X172702380Y-71795928D01*
X172702380Y-71891166D01*
X172750000Y-72034023D01*
X172797619Y-72081642D01*
X173702380Y-73034023D02*
X173702380Y-72462595D01*
X173702380Y-72748309D02*
X172702380Y-72748309D01*
X172845238Y-72653071D01*
X172940476Y-72557833D01*
X172988095Y-72462595D01*
X172702380Y-73891166D02*
X172702380Y-73700690D01*
X172750000Y-73605452D01*
X172797619Y-73557833D01*
X172940476Y-73462595D01*
X173130952Y-73414976D01*
X173511904Y-73414976D01*
X173607142Y-73462595D01*
X173654761Y-73510214D01*
X173702380Y-73605452D01*
X173702380Y-73795928D01*
X173654761Y-73891166D01*
X173607142Y-73938785D01*
X173511904Y-73986404D01*
X173273809Y-73986404D01*
X173178571Y-73938785D01*
X173130952Y-73891166D01*
X173083333Y-73795928D01*
X173083333Y-73605452D01*
X173130952Y-73510214D01*
X173178571Y-73462595D01*
X173273809Y-73414976D01*
X192452380Y-105857142D02*
X191976190Y-105523809D01*
X192452380Y-105285714D02*
X191452380Y-105285714D01*
X191452380Y-105666666D01*
X191500000Y-105761904D01*
X191547619Y-105809523D01*
X191642857Y-105857142D01*
X191785714Y-105857142D01*
X191880952Y-105809523D01*
X191928571Y-105761904D01*
X191976190Y-105666666D01*
X191976190Y-105285714D01*
X192452380Y-106809523D02*
X192452380Y-106238095D01*
X192452380Y-106523809D02*
X191452380Y-106523809D01*
X191595238Y-106428571D01*
X191690476Y-106333333D01*
X191738095Y-106238095D01*
X191452380Y-107428571D02*
X191452380Y-107523809D01*
X191500000Y-107619047D01*
X191547619Y-107666666D01*
X191642857Y-107714285D01*
X191833333Y-107761904D01*
X192071428Y-107761904D01*
X192261904Y-107714285D01*
X192357142Y-107666666D01*
X192404761Y-107619047D01*
X192452380Y-107523809D01*
X192452380Y-107428571D01*
X192404761Y-107333333D01*
X192357142Y-107285714D01*
X192261904Y-107238095D01*
X192071428Y-107190476D01*
X191833333Y-107190476D01*
X191642857Y-107238095D01*
X191547619Y-107285714D01*
X191500000Y-107333333D01*
X191452380Y-107428571D01*
X188647380Y-118254642D02*
X188171190Y-117921309D01*
X188647380Y-117683214D02*
X187647380Y-117683214D01*
X187647380Y-118064166D01*
X187695000Y-118159404D01*
X187742619Y-118207023D01*
X187837857Y-118254642D01*
X187980714Y-118254642D01*
X188075952Y-118207023D01*
X188123571Y-118159404D01*
X188171190Y-118064166D01*
X188171190Y-117683214D01*
X188647380Y-119207023D02*
X188647380Y-118635595D01*
X188647380Y-118921309D02*
X187647380Y-118921309D01*
X187790238Y-118826071D01*
X187885476Y-118730833D01*
X187933095Y-118635595D01*
X187647380Y-120111785D02*
X187647380Y-119635595D01*
X188123571Y-119587976D01*
X188075952Y-119635595D01*
X188028333Y-119730833D01*
X188028333Y-119968928D01*
X188075952Y-120064166D01*
X188123571Y-120111785D01*
X188218809Y-120159404D01*
X188456904Y-120159404D01*
X188552142Y-120111785D01*
X188599761Y-120064166D01*
X188647380Y-119968928D01*
X188647380Y-119730833D01*
X188599761Y-119635595D01*
X188552142Y-119587976D01*
X193821380Y-118229142D02*
X193345190Y-117895809D01*
X193821380Y-117657714D02*
X192821380Y-117657714D01*
X192821380Y-118038666D01*
X192869000Y-118133904D01*
X192916619Y-118181523D01*
X193011857Y-118229142D01*
X193154714Y-118229142D01*
X193249952Y-118181523D01*
X193297571Y-118133904D01*
X193345190Y-118038666D01*
X193345190Y-117657714D01*
X193821380Y-119181523D02*
X193821380Y-118610095D01*
X193821380Y-118895809D02*
X192821380Y-118895809D01*
X192964238Y-118800571D01*
X193059476Y-118705333D01*
X193107095Y-118610095D01*
X192821380Y-120038666D02*
X192821380Y-119848190D01*
X192869000Y-119752952D01*
X192916619Y-119705333D01*
X193059476Y-119610095D01*
X193249952Y-119562476D01*
X193630904Y-119562476D01*
X193726142Y-119610095D01*
X193773761Y-119657714D01*
X193821380Y-119752952D01*
X193821380Y-119943428D01*
X193773761Y-120038666D01*
X193726142Y-120086285D01*
X193630904Y-120133904D01*
X193392809Y-120133904D01*
X193297571Y-120086285D01*
X193249952Y-120038666D01*
X193202333Y-119943428D01*
X193202333Y-119752952D01*
X193249952Y-119657714D01*
X193297571Y-119610095D01*
X193392809Y-119562476D01*
X166496380Y-52771333D02*
X166020190Y-52438000D01*
X166496380Y-52199904D02*
X165496380Y-52199904D01*
X165496380Y-52580857D01*
X165544000Y-52676095D01*
X165591619Y-52723714D01*
X165686857Y-52771333D01*
X165829714Y-52771333D01*
X165924952Y-52723714D01*
X165972571Y-52676095D01*
X166020190Y-52580857D01*
X166020190Y-52199904D01*
X165496380Y-53628476D02*
X165496380Y-53438000D01*
X165544000Y-53342761D01*
X165591619Y-53295142D01*
X165734476Y-53199904D01*
X165924952Y-53152285D01*
X166305904Y-53152285D01*
X166401142Y-53199904D01*
X166448761Y-53247523D01*
X166496380Y-53342761D01*
X166496380Y-53533238D01*
X166448761Y-53628476D01*
X166401142Y-53676095D01*
X166305904Y-53723714D01*
X166067809Y-53723714D01*
X165972571Y-53676095D01*
X165924952Y-53628476D01*
X165877333Y-53533238D01*
X165877333Y-53342761D01*
X165924952Y-53247523D01*
X165972571Y-53199904D01*
X166067809Y-53152285D01*
X175184142Y-121372333D02*
X175231761Y-121324714D01*
X175279380Y-121181857D01*
X175279380Y-121086619D01*
X175231761Y-120943761D01*
X175136523Y-120848523D01*
X175041285Y-120800904D01*
X174850809Y-120753285D01*
X174707952Y-120753285D01*
X174517476Y-120800904D01*
X174422238Y-120848523D01*
X174327000Y-120943761D01*
X174279380Y-121086619D01*
X174279380Y-121181857D01*
X174327000Y-121324714D01*
X174374619Y-121372333D01*
X174279380Y-121705666D02*
X174279380Y-122324714D01*
X174660333Y-121991380D01*
X174660333Y-122134238D01*
X174707952Y-122229476D01*
X174755571Y-122277095D01*
X174850809Y-122324714D01*
X175088904Y-122324714D01*
X175184142Y-122277095D01*
X175231761Y-122229476D01*
X175279380Y-122134238D01*
X175279380Y-121848523D01*
X175231761Y-121753285D01*
X175184142Y-121705666D01*
X184201142Y-98163142D02*
X184248761Y-98115523D01*
X184296380Y-97972666D01*
X184296380Y-97877428D01*
X184248761Y-97734571D01*
X184153523Y-97639333D01*
X184058285Y-97591714D01*
X183867809Y-97544095D01*
X183724952Y-97544095D01*
X183534476Y-97591714D01*
X183439238Y-97639333D01*
X183344000Y-97734571D01*
X183296380Y-97877428D01*
X183296380Y-97972666D01*
X183344000Y-98115523D01*
X183391619Y-98163142D01*
X184296380Y-99115523D02*
X184296380Y-98544095D01*
X184296380Y-98829809D02*
X183296380Y-98829809D01*
X183439238Y-98734571D01*
X183534476Y-98639333D01*
X183582095Y-98544095D01*
X183296380Y-100020285D02*
X183296380Y-99544095D01*
X183772571Y-99496476D01*
X183724952Y-99544095D01*
X183677333Y-99639333D01*
X183677333Y-99877428D01*
X183724952Y-99972666D01*
X183772571Y-100020285D01*
X183867809Y-100067904D01*
X184105904Y-100067904D01*
X184201142Y-100020285D01*
X184248761Y-99972666D01*
X184296380Y-99877428D01*
X184296380Y-99639333D01*
X184248761Y-99544095D01*
X184201142Y-99496476D01*
X165024142Y-121499333D02*
X165071761Y-121451714D01*
X165119380Y-121308857D01*
X165119380Y-121213619D01*
X165071761Y-121070761D01*
X164976523Y-120975523D01*
X164881285Y-120927904D01*
X164690809Y-120880285D01*
X164547952Y-120880285D01*
X164357476Y-120927904D01*
X164262238Y-120975523D01*
X164167000Y-121070761D01*
X164119380Y-121213619D01*
X164119380Y-121308857D01*
X164167000Y-121451714D01*
X164214619Y-121499333D01*
X165119380Y-122451714D02*
X165119380Y-121880285D01*
X165119380Y-122166000D02*
X164119380Y-122166000D01*
X164262238Y-122070761D01*
X164357476Y-121975523D01*
X164405095Y-121880285D01*
X185344142Y-121372333D02*
X185391761Y-121324714D01*
X185439380Y-121181857D01*
X185439380Y-121086619D01*
X185391761Y-120943761D01*
X185296523Y-120848523D01*
X185201285Y-120800904D01*
X185010809Y-120753285D01*
X184867952Y-120753285D01*
X184677476Y-120800904D01*
X184582238Y-120848523D01*
X184487000Y-120943761D01*
X184439380Y-121086619D01*
X184439380Y-121181857D01*
X184487000Y-121324714D01*
X184534619Y-121372333D01*
X184439380Y-122277095D02*
X184439380Y-121800904D01*
X184915571Y-121753285D01*
X184867952Y-121800904D01*
X184820333Y-121896142D01*
X184820333Y-122134238D01*
X184867952Y-122229476D01*
X184915571Y-122277095D01*
X185010809Y-122324714D01*
X185248904Y-122324714D01*
X185344142Y-122277095D01*
X185391761Y-122229476D01*
X185439380Y-122134238D01*
X185439380Y-121896142D01*
X185391761Y-121800904D01*
X185344142Y-121753285D01*
X184107142Y-94632642D02*
X184154761Y-94585023D01*
X184202380Y-94442166D01*
X184202380Y-94346928D01*
X184154761Y-94204071D01*
X184059523Y-94108833D01*
X183964285Y-94061214D01*
X183773809Y-94013595D01*
X183630952Y-94013595D01*
X183440476Y-94061214D01*
X183345238Y-94108833D01*
X183250000Y-94204071D01*
X183202380Y-94346928D01*
X183202380Y-94442166D01*
X183250000Y-94585023D01*
X183297619Y-94632642D01*
X184202380Y-95585023D02*
X184202380Y-95013595D01*
X184202380Y-95299309D02*
X183202380Y-95299309D01*
X183345238Y-95204071D01*
X183440476Y-95108833D01*
X183488095Y-95013595D01*
X183202380Y-96442166D02*
X183202380Y-96251690D01*
X183250000Y-96156452D01*
X183297619Y-96108833D01*
X183440476Y-96013595D01*
X183630952Y-95965976D01*
X184011904Y-95965976D01*
X184107142Y-96013595D01*
X184154761Y-96061214D01*
X184202380Y-96156452D01*
X184202380Y-96346928D01*
X184154761Y-96442166D01*
X184107142Y-96489785D01*
X184011904Y-96537404D01*
X183773809Y-96537404D01*
X183678571Y-96489785D01*
X183630952Y-96442166D01*
X183583333Y-96346928D01*
X183583333Y-96156452D01*
X183630952Y-96061214D01*
X183678571Y-96013595D01*
X183773809Y-95965976D01*
X169977142Y-121499333D02*
X170024761Y-121451714D01*
X170072380Y-121308857D01*
X170072380Y-121213619D01*
X170024761Y-121070761D01*
X169929523Y-120975523D01*
X169834285Y-120927904D01*
X169643809Y-120880285D01*
X169500952Y-120880285D01*
X169310476Y-120927904D01*
X169215238Y-120975523D01*
X169120000Y-121070761D01*
X169072380Y-121213619D01*
X169072380Y-121308857D01*
X169120000Y-121451714D01*
X169167619Y-121499333D01*
X169167619Y-121880285D02*
X169120000Y-121927904D01*
X169072380Y-122023142D01*
X169072380Y-122261238D01*
X169120000Y-122356476D01*
X169167619Y-122404095D01*
X169262857Y-122451714D01*
X169358095Y-122451714D01*
X169500952Y-122404095D01*
X170072380Y-121832666D01*
X170072380Y-122451714D01*
X180264142Y-121372333D02*
X180311761Y-121324714D01*
X180359380Y-121181857D01*
X180359380Y-121086619D01*
X180311761Y-120943761D01*
X180216523Y-120848523D01*
X180121285Y-120800904D01*
X179930809Y-120753285D01*
X179787952Y-120753285D01*
X179597476Y-120800904D01*
X179502238Y-120848523D01*
X179407000Y-120943761D01*
X179359380Y-121086619D01*
X179359380Y-121181857D01*
X179407000Y-121324714D01*
X179454619Y-121372333D01*
X179692714Y-122229476D02*
X180359380Y-122229476D01*
X179311761Y-121991380D02*
X180026047Y-121753285D01*
X180026047Y-122372333D01*
X171162380Y-52745833D02*
X170686190Y-52412500D01*
X171162380Y-52174404D02*
X170162380Y-52174404D01*
X170162380Y-52555357D01*
X170210000Y-52650595D01*
X170257619Y-52698214D01*
X170352857Y-52745833D01*
X170495714Y-52745833D01*
X170590952Y-52698214D01*
X170638571Y-52650595D01*
X170686190Y-52555357D01*
X170686190Y-52174404D01*
X170162380Y-53650595D02*
X170162380Y-53174404D01*
X170638571Y-53126785D01*
X170590952Y-53174404D01*
X170543333Y-53269642D01*
X170543333Y-53507738D01*
X170590952Y-53602976D01*
X170638571Y-53650595D01*
X170733809Y-53698214D01*
X170971904Y-53698214D01*
X171067142Y-53650595D01*
X171114761Y-53602976D01*
X171162380Y-53507738D01*
X171162380Y-53269642D01*
X171114761Y-53174404D01*
X171067142Y-53126785D01*
X175692142Y-99814142D02*
X175739761Y-99766523D01*
X175787380Y-99623666D01*
X175787380Y-99528428D01*
X175739761Y-99385571D01*
X175644523Y-99290333D01*
X175549285Y-99242714D01*
X175358809Y-99195095D01*
X175215952Y-99195095D01*
X175025476Y-99242714D01*
X174930238Y-99290333D01*
X174835000Y-99385571D01*
X174787380Y-99528428D01*
X174787380Y-99623666D01*
X174835000Y-99766523D01*
X174882619Y-99814142D01*
X175787380Y-100766523D02*
X175787380Y-100195095D01*
X175787380Y-100480809D02*
X174787380Y-100480809D01*
X174930238Y-100385571D01*
X175025476Y-100290333D01*
X175073095Y-100195095D01*
X174787380Y-101385571D02*
X174787380Y-101480809D01*
X174835000Y-101576047D01*
X174882619Y-101623666D01*
X174977857Y-101671285D01*
X175168333Y-101718904D01*
X175406428Y-101718904D01*
X175596904Y-101671285D01*
X175692142Y-101623666D01*
X175739761Y-101576047D01*
X175787380Y-101480809D01*
X175787380Y-101385571D01*
X175739761Y-101290333D01*
X175692142Y-101242714D01*
X175596904Y-101195095D01*
X175406428Y-101147476D01*
X175168333Y-101147476D01*
X174977857Y-101195095D01*
X174882619Y-101242714D01*
X174835000Y-101290333D01*
X174787380Y-101385571D01*
X190424142Y-121753333D02*
X190471761Y-121705714D01*
X190519380Y-121562857D01*
X190519380Y-121467619D01*
X190471761Y-121324761D01*
X190376523Y-121229523D01*
X190281285Y-121181904D01*
X190090809Y-121134285D01*
X189947952Y-121134285D01*
X189757476Y-121181904D01*
X189662238Y-121229523D01*
X189567000Y-121324761D01*
X189519380Y-121467619D01*
X189519380Y-121562857D01*
X189567000Y-121705714D01*
X189614619Y-121753333D01*
X189519380Y-122610476D02*
X189519380Y-122420000D01*
X189567000Y-122324761D01*
X189614619Y-122277142D01*
X189757476Y-122181904D01*
X189947952Y-122134285D01*
X190328904Y-122134285D01*
X190424142Y-122181904D01*
X190471761Y-122229523D01*
X190519380Y-122324761D01*
X190519380Y-122515238D01*
X190471761Y-122610476D01*
X190424142Y-122658095D01*
X190328904Y-122705714D01*
X190090809Y-122705714D01*
X189995571Y-122658095D01*
X189947952Y-122610476D01*
X189900333Y-122515238D01*
X189900333Y-122324761D01*
X189947952Y-122229523D01*
X189995571Y-122181904D01*
X190090809Y-122134285D01*
X177786380Y-96861333D02*
X177310190Y-96528000D01*
X177786380Y-96289904D02*
X176786380Y-96289904D01*
X176786380Y-96670857D01*
X176834000Y-96766095D01*
X176881619Y-96813714D01*
X176976857Y-96861333D01*
X177119714Y-96861333D01*
X177214952Y-96813714D01*
X177262571Y-96766095D01*
X177310190Y-96670857D01*
X177310190Y-96289904D01*
X177214952Y-97432761D02*
X177167333Y-97337523D01*
X177119714Y-97289904D01*
X177024476Y-97242285D01*
X176976857Y-97242285D01*
X176881619Y-97289904D01*
X176834000Y-97337523D01*
X176786380Y-97432761D01*
X176786380Y-97623238D01*
X176834000Y-97718476D01*
X176881619Y-97766095D01*
X176976857Y-97813714D01*
X177024476Y-97813714D01*
X177119714Y-97766095D01*
X177167333Y-97718476D01*
X177214952Y-97623238D01*
X177214952Y-97432761D01*
X177262571Y-97337523D01*
X177310190Y-97289904D01*
X177405428Y-97242285D01*
X177595904Y-97242285D01*
X177691142Y-97289904D01*
X177738761Y-97337523D01*
X177786380Y-97432761D01*
X177786380Y-97623238D01*
X177738761Y-97718476D01*
X177691142Y-97766095D01*
X177595904Y-97813714D01*
X177405428Y-97813714D01*
X177310190Y-97766095D01*
X177262571Y-97718476D01*
X177214952Y-97623238D01*
X176582380Y-114920833D02*
X176106190Y-114587500D01*
X176582380Y-114349404D02*
X175582380Y-114349404D01*
X175582380Y-114730357D01*
X175630000Y-114825595D01*
X175677619Y-114873214D01*
X175772857Y-114920833D01*
X175915714Y-114920833D01*
X176010952Y-114873214D01*
X176058571Y-114825595D01*
X176106190Y-114730357D01*
X176106190Y-114349404D01*
X175582380Y-115254166D02*
X175582380Y-115873214D01*
X175963333Y-115539880D01*
X175963333Y-115682738D01*
X176010952Y-115777976D01*
X176058571Y-115825595D01*
X176153809Y-115873214D01*
X176391904Y-115873214D01*
X176487142Y-115825595D01*
X176534761Y-115777976D01*
X176582380Y-115682738D01*
X176582380Y-115397023D01*
X176534761Y-115301785D01*
X176487142Y-115254166D01*
X186742380Y-114920833D02*
X186266190Y-114587500D01*
X186742380Y-114349404D02*
X185742380Y-114349404D01*
X185742380Y-114730357D01*
X185790000Y-114825595D01*
X185837619Y-114873214D01*
X185932857Y-114920833D01*
X186075714Y-114920833D01*
X186170952Y-114873214D01*
X186218571Y-114825595D01*
X186266190Y-114730357D01*
X186266190Y-114349404D01*
X185742380Y-115825595D02*
X185742380Y-115349404D01*
X186218571Y-115301785D01*
X186170952Y-115349404D01*
X186123333Y-115444642D01*
X186123333Y-115682738D01*
X186170952Y-115777976D01*
X186218571Y-115825595D01*
X186313809Y-115873214D01*
X186551904Y-115873214D01*
X186647142Y-115825595D01*
X186694761Y-115777976D01*
X186742380Y-115682738D01*
X186742380Y-115444642D01*
X186694761Y-115349404D01*
X186647142Y-115301785D01*
X191408380Y-114895333D02*
X190932190Y-114562000D01*
X191408380Y-114323904D02*
X190408380Y-114323904D01*
X190408380Y-114704857D01*
X190456000Y-114800095D01*
X190503619Y-114847714D01*
X190598857Y-114895333D01*
X190741714Y-114895333D01*
X190836952Y-114847714D01*
X190884571Y-114800095D01*
X190932190Y-114704857D01*
X190932190Y-114323904D01*
X190408380Y-115752476D02*
X190408380Y-115562000D01*
X190456000Y-115466761D01*
X190503619Y-115419142D01*
X190646476Y-115323904D01*
X190836952Y-115276285D01*
X191217904Y-115276285D01*
X191313142Y-115323904D01*
X191360761Y-115371523D01*
X191408380Y-115466761D01*
X191408380Y-115657238D01*
X191360761Y-115752476D01*
X191313142Y-115800095D01*
X191217904Y-115847714D01*
X190979809Y-115847714D01*
X190884571Y-115800095D01*
X190836952Y-115752476D01*
X190789333Y-115657238D01*
X190789333Y-115466761D01*
X190836952Y-115371523D01*
X190884571Y-115323904D01*
X190979809Y-115276285D01*
X188900190Y-96551809D02*
X189376380Y-96551809D01*
X188376380Y-96218476D02*
X188900190Y-96551809D01*
X188376380Y-96885142D01*
X189376380Y-97742285D02*
X189376380Y-97170857D01*
X189376380Y-97456571D02*
X188376380Y-97456571D01*
X188519238Y-97361333D01*
X188614476Y-97266095D01*
X188662095Y-97170857D01*
X173407380Y-118254642D02*
X172931190Y-117921309D01*
X173407380Y-117683214D02*
X172407380Y-117683214D01*
X172407380Y-118064166D01*
X172455000Y-118159404D01*
X172502619Y-118207023D01*
X172597857Y-118254642D01*
X172740714Y-118254642D01*
X172835952Y-118207023D01*
X172883571Y-118159404D01*
X172931190Y-118064166D01*
X172931190Y-117683214D01*
X173407380Y-119207023D02*
X173407380Y-118635595D01*
X173407380Y-118921309D02*
X172407380Y-118921309D01*
X172550238Y-118826071D01*
X172645476Y-118730833D01*
X172693095Y-118635595D01*
X172502619Y-119587976D02*
X172455000Y-119635595D01*
X172407380Y-119730833D01*
X172407380Y-119968928D01*
X172455000Y-120064166D01*
X172502619Y-120111785D01*
X172597857Y-120159404D01*
X172693095Y-120159404D01*
X172835952Y-120111785D01*
X173407380Y-119540357D01*
X173407380Y-120159404D01*
X183567380Y-118254642D02*
X183091190Y-117921309D01*
X183567380Y-117683214D02*
X182567380Y-117683214D01*
X182567380Y-118064166D01*
X182615000Y-118159404D01*
X182662619Y-118207023D01*
X182757857Y-118254642D01*
X182900714Y-118254642D01*
X182995952Y-118207023D01*
X183043571Y-118159404D01*
X183091190Y-118064166D01*
X183091190Y-117683214D01*
X183567380Y-119207023D02*
X183567380Y-118635595D01*
X183567380Y-118921309D02*
X182567380Y-118921309D01*
X182710238Y-118826071D01*
X182805476Y-118730833D01*
X182853095Y-118635595D01*
X182900714Y-120064166D02*
X183567380Y-120064166D01*
X182519761Y-119826071D02*
X183234047Y-119587976D01*
X183234047Y-120207023D01*
X171502380Y-114920833D02*
X171026190Y-114587500D01*
X171502380Y-114349404D02*
X170502380Y-114349404D01*
X170502380Y-114730357D01*
X170550000Y-114825595D01*
X170597619Y-114873214D01*
X170692857Y-114920833D01*
X170835714Y-114920833D01*
X170930952Y-114873214D01*
X170978571Y-114825595D01*
X171026190Y-114730357D01*
X171026190Y-114349404D01*
X170597619Y-115301785D02*
X170550000Y-115349404D01*
X170502380Y-115444642D01*
X170502380Y-115682738D01*
X170550000Y-115777976D01*
X170597619Y-115825595D01*
X170692857Y-115873214D01*
X170788095Y-115873214D01*
X170930952Y-115825595D01*
X171502380Y-115254166D01*
X171502380Y-115873214D01*
X168327380Y-118254642D02*
X167851190Y-117921309D01*
X168327380Y-117683214D02*
X167327380Y-117683214D01*
X167327380Y-118064166D01*
X167375000Y-118159404D01*
X167422619Y-118207023D01*
X167517857Y-118254642D01*
X167660714Y-118254642D01*
X167755952Y-118207023D01*
X167803571Y-118159404D01*
X167851190Y-118064166D01*
X167851190Y-117683214D01*
X168327380Y-119207023D02*
X168327380Y-118635595D01*
X168327380Y-118921309D02*
X167327380Y-118921309D01*
X167470238Y-118826071D01*
X167565476Y-118730833D01*
X167613095Y-118635595D01*
X168327380Y-120159404D02*
X168327380Y-119587976D01*
X168327380Y-119873690D02*
X167327380Y-119873690D01*
X167470238Y-119778452D01*
X167565476Y-119683214D01*
X167613095Y-119587976D01*
X181662380Y-114895333D02*
X181186190Y-114562000D01*
X181662380Y-114323904D02*
X180662380Y-114323904D01*
X180662380Y-114704857D01*
X180710000Y-114800095D01*
X180757619Y-114847714D01*
X180852857Y-114895333D01*
X180995714Y-114895333D01*
X181090952Y-114847714D01*
X181138571Y-114800095D01*
X181186190Y-114704857D01*
X181186190Y-114323904D01*
X180995714Y-115752476D02*
X181662380Y-115752476D01*
X180614761Y-115514380D02*
X181329047Y-115276285D01*
X181329047Y-115895333D01*
X178487380Y-118254642D02*
X178011190Y-117921309D01*
X178487380Y-117683214D02*
X177487380Y-117683214D01*
X177487380Y-118064166D01*
X177535000Y-118159404D01*
X177582619Y-118207023D01*
X177677857Y-118254642D01*
X177820714Y-118254642D01*
X177915952Y-118207023D01*
X177963571Y-118159404D01*
X178011190Y-118064166D01*
X178011190Y-117683214D01*
X178487380Y-119207023D02*
X178487380Y-118635595D01*
X178487380Y-118921309D02*
X177487380Y-118921309D01*
X177630238Y-118826071D01*
X177725476Y-118730833D01*
X177773095Y-118635595D01*
X177487380Y-119540357D02*
X177487380Y-120159404D01*
X177868333Y-119826071D01*
X177868333Y-119968928D01*
X177915952Y-120064166D01*
X177963571Y-120111785D01*
X178058809Y-120159404D01*
X178296904Y-120159404D01*
X178392142Y-120111785D01*
X178439761Y-120064166D01*
X178487380Y-119968928D01*
X178487380Y-119683214D01*
X178439761Y-119587976D01*
X178392142Y-119540357D01*
X171120142Y-106418142D02*
X171167761Y-106370523D01*
X171215380Y-106227666D01*
X171215380Y-106132428D01*
X171167761Y-105989571D01*
X171072523Y-105894333D01*
X170977285Y-105846714D01*
X170786809Y-105799095D01*
X170643952Y-105799095D01*
X170453476Y-105846714D01*
X170358238Y-105894333D01*
X170263000Y-105989571D01*
X170215380Y-106132428D01*
X170215380Y-106227666D01*
X170263000Y-106370523D01*
X170310619Y-106418142D01*
X171215380Y-107370523D02*
X171215380Y-106799095D01*
X171215380Y-107084809D02*
X170215380Y-107084809D01*
X170358238Y-106989571D01*
X170453476Y-106894333D01*
X170501095Y-106799095D01*
X170643952Y-107941952D02*
X170596333Y-107846714D01*
X170548714Y-107799095D01*
X170453476Y-107751476D01*
X170405857Y-107751476D01*
X170310619Y-107799095D01*
X170263000Y-107846714D01*
X170215380Y-107941952D01*
X170215380Y-108132428D01*
X170263000Y-108227666D01*
X170310619Y-108275285D01*
X170405857Y-108322904D01*
X170453476Y-108322904D01*
X170548714Y-108275285D01*
X170596333Y-108227666D01*
X170643952Y-108132428D01*
X170643952Y-107941952D01*
X170691571Y-107846714D01*
X170739190Y-107799095D01*
X170834428Y-107751476D01*
X171024904Y-107751476D01*
X171120142Y-107799095D01*
X171167761Y-107846714D01*
X171215380Y-107941952D01*
X171215380Y-108132428D01*
X171167761Y-108227666D01*
X171120142Y-108275285D01*
X171024904Y-108322904D01*
X170834428Y-108322904D01*
X170739190Y-108275285D01*
X170691571Y-108227666D01*
X170643952Y-108132428D01*
X166422380Y-114920833D02*
X165946190Y-114587500D01*
X166422380Y-114349404D02*
X165422380Y-114349404D01*
X165422380Y-114730357D01*
X165470000Y-114825595D01*
X165517619Y-114873214D01*
X165612857Y-114920833D01*
X165755714Y-114920833D01*
X165850952Y-114873214D01*
X165898571Y-114825595D01*
X165946190Y-114730357D01*
X165946190Y-114349404D01*
X166422380Y-115873214D02*
X166422380Y-115301785D01*
X166422380Y-115587500D02*
X165422380Y-115587500D01*
X165565238Y-115492261D01*
X165660476Y-115397023D01*
X165708095Y-115301785D01*
X165119380Y-104684333D02*
X164643190Y-104351000D01*
X165119380Y-104112904D02*
X164119380Y-104112904D01*
X164119380Y-104493857D01*
X164167000Y-104589095D01*
X164214619Y-104636714D01*
X164309857Y-104684333D01*
X164452714Y-104684333D01*
X164547952Y-104636714D01*
X164595571Y-104589095D01*
X164643190Y-104493857D01*
X164643190Y-104112904D01*
X164119380Y-105017666D02*
X164119380Y-105684333D01*
X165119380Y-105255761D01*
X130452380Y-60857142D02*
X129976190Y-60523809D01*
X130452380Y-60285714D02*
X129452380Y-60285714D01*
X129452380Y-60666666D01*
X129500000Y-60761904D01*
X129547619Y-60809523D01*
X129642857Y-60857142D01*
X129785714Y-60857142D01*
X129880952Y-60809523D01*
X129928571Y-60761904D01*
X129976190Y-60666666D01*
X129976190Y-60285714D01*
X130452380Y-61809523D02*
X130452380Y-61238095D01*
X130452380Y-61523809D02*
X129452380Y-61523809D01*
X129595238Y-61428571D01*
X129690476Y-61333333D01*
X129738095Y-61238095D01*
X129452380Y-62428571D02*
X129452380Y-62523809D01*
X129500000Y-62619047D01*
X129547619Y-62666666D01*
X129642857Y-62714285D01*
X129833333Y-62761904D01*
X130071428Y-62761904D01*
X130261904Y-62714285D01*
X130357142Y-62666666D01*
X130404761Y-62619047D01*
X130452380Y-62523809D01*
X130452380Y-62428571D01*
X130404761Y-62333333D01*
X130357142Y-62285714D01*
X130261904Y-62238095D01*
X130071428Y-62190476D01*
X129833333Y-62190476D01*
X129642857Y-62238095D01*
X129547619Y-62285714D01*
X129500000Y-62333333D01*
X129452380Y-62428571D01*
X134257380Y-48459642D02*
X133781190Y-48126309D01*
X134257380Y-47888214D02*
X133257380Y-47888214D01*
X133257380Y-48269166D01*
X133305000Y-48364404D01*
X133352619Y-48412023D01*
X133447857Y-48459642D01*
X133590714Y-48459642D01*
X133685952Y-48412023D01*
X133733571Y-48364404D01*
X133781190Y-48269166D01*
X133781190Y-47888214D01*
X134257380Y-49412023D02*
X134257380Y-48840595D01*
X134257380Y-49126309D02*
X133257380Y-49126309D01*
X133400238Y-49031071D01*
X133495476Y-48935833D01*
X133543095Y-48840595D01*
X133257380Y-50316785D02*
X133257380Y-49840595D01*
X133733571Y-49792976D01*
X133685952Y-49840595D01*
X133638333Y-49935833D01*
X133638333Y-50173928D01*
X133685952Y-50269166D01*
X133733571Y-50316785D01*
X133828809Y-50364404D01*
X134066904Y-50364404D01*
X134162142Y-50316785D01*
X134209761Y-50269166D01*
X134257380Y-50173928D01*
X134257380Y-49935833D01*
X134209761Y-49840595D01*
X134162142Y-49792976D01*
X129083380Y-48485142D02*
X128607190Y-48151809D01*
X129083380Y-47913714D02*
X128083380Y-47913714D01*
X128083380Y-48294666D01*
X128131000Y-48389904D01*
X128178619Y-48437523D01*
X128273857Y-48485142D01*
X128416714Y-48485142D01*
X128511952Y-48437523D01*
X128559571Y-48389904D01*
X128607190Y-48294666D01*
X128607190Y-47913714D01*
X129083380Y-49437523D02*
X129083380Y-48866095D01*
X129083380Y-49151809D02*
X128083380Y-49151809D01*
X128226238Y-49056571D01*
X128321476Y-48961333D01*
X128369095Y-48866095D01*
X128083380Y-50294666D02*
X128083380Y-50104190D01*
X128131000Y-50008952D01*
X128178619Y-49961333D01*
X128321476Y-49866095D01*
X128511952Y-49818476D01*
X128892904Y-49818476D01*
X128988142Y-49866095D01*
X129035761Y-49913714D01*
X129083380Y-50008952D01*
X129083380Y-50199428D01*
X129035761Y-50294666D01*
X128988142Y-50342285D01*
X128892904Y-50389904D01*
X128654809Y-50389904D01*
X128559571Y-50342285D01*
X128511952Y-50294666D01*
X128464333Y-50199428D01*
X128464333Y-50008952D01*
X128511952Y-49913714D01*
X128559571Y-49866095D01*
X128654809Y-49818476D01*
X147530142Y-46294333D02*
X147577761Y-46246714D01*
X147625380Y-46103857D01*
X147625380Y-46008619D01*
X147577761Y-45865761D01*
X147482523Y-45770523D01*
X147387285Y-45722904D01*
X147196809Y-45675285D01*
X147053952Y-45675285D01*
X146863476Y-45722904D01*
X146768238Y-45770523D01*
X146673000Y-45865761D01*
X146625380Y-46008619D01*
X146625380Y-46103857D01*
X146673000Y-46246714D01*
X146720619Y-46294333D01*
X146625380Y-46627666D02*
X146625380Y-47246714D01*
X147006333Y-46913380D01*
X147006333Y-47056238D01*
X147053952Y-47151476D01*
X147101571Y-47199095D01*
X147196809Y-47246714D01*
X147434904Y-47246714D01*
X147530142Y-47199095D01*
X147577761Y-47151476D01*
X147625380Y-47056238D01*
X147625380Y-46770523D01*
X147577761Y-46675285D01*
X147530142Y-46627666D01*
X138513142Y-68551142D02*
X138560761Y-68503523D01*
X138608380Y-68360666D01*
X138608380Y-68265428D01*
X138560761Y-68122571D01*
X138465523Y-68027333D01*
X138370285Y-67979714D01*
X138179809Y-67932095D01*
X138036952Y-67932095D01*
X137846476Y-67979714D01*
X137751238Y-68027333D01*
X137656000Y-68122571D01*
X137608380Y-68265428D01*
X137608380Y-68360666D01*
X137656000Y-68503523D01*
X137703619Y-68551142D01*
X138608380Y-69503523D02*
X138608380Y-68932095D01*
X138608380Y-69217809D02*
X137608380Y-69217809D01*
X137751238Y-69122571D01*
X137846476Y-69027333D01*
X137894095Y-68932095D01*
X137608380Y-70408285D02*
X137608380Y-69932095D01*
X138084571Y-69884476D01*
X138036952Y-69932095D01*
X137989333Y-70027333D01*
X137989333Y-70265428D01*
X138036952Y-70360666D01*
X138084571Y-70408285D01*
X138179809Y-70455904D01*
X138417904Y-70455904D01*
X138513142Y-70408285D01*
X138560761Y-70360666D01*
X138608380Y-70265428D01*
X138608380Y-70027333D01*
X138560761Y-69932095D01*
X138513142Y-69884476D01*
X157690142Y-46167333D02*
X157737761Y-46119714D01*
X157785380Y-45976857D01*
X157785380Y-45881619D01*
X157737761Y-45738761D01*
X157642523Y-45643523D01*
X157547285Y-45595904D01*
X157356809Y-45548285D01*
X157213952Y-45548285D01*
X157023476Y-45595904D01*
X156928238Y-45643523D01*
X156833000Y-45738761D01*
X156785380Y-45881619D01*
X156785380Y-45976857D01*
X156833000Y-46119714D01*
X156880619Y-46167333D01*
X157785380Y-47119714D02*
X157785380Y-46548285D01*
X157785380Y-46834000D02*
X156785380Y-46834000D01*
X156928238Y-46738761D01*
X157023476Y-46643523D01*
X157071095Y-46548285D01*
X137370142Y-46294333D02*
X137417761Y-46246714D01*
X137465380Y-46103857D01*
X137465380Y-46008619D01*
X137417761Y-45865761D01*
X137322523Y-45770523D01*
X137227285Y-45722904D01*
X137036809Y-45675285D01*
X136893952Y-45675285D01*
X136703476Y-45722904D01*
X136608238Y-45770523D01*
X136513000Y-45865761D01*
X136465380Y-46008619D01*
X136465380Y-46103857D01*
X136513000Y-46246714D01*
X136560619Y-46294333D01*
X136465380Y-47199095D02*
X136465380Y-46722904D01*
X136941571Y-46675285D01*
X136893952Y-46722904D01*
X136846333Y-46818142D01*
X136846333Y-47056238D01*
X136893952Y-47151476D01*
X136941571Y-47199095D01*
X137036809Y-47246714D01*
X137274904Y-47246714D01*
X137370142Y-47199095D01*
X137417761Y-47151476D01*
X137465380Y-47056238D01*
X137465380Y-46818142D01*
X137417761Y-46722904D01*
X137370142Y-46675285D01*
X138607142Y-72081642D02*
X138654761Y-72034023D01*
X138702380Y-71891166D01*
X138702380Y-71795928D01*
X138654761Y-71653071D01*
X138559523Y-71557833D01*
X138464285Y-71510214D01*
X138273809Y-71462595D01*
X138130952Y-71462595D01*
X137940476Y-71510214D01*
X137845238Y-71557833D01*
X137750000Y-71653071D01*
X137702380Y-71795928D01*
X137702380Y-71891166D01*
X137750000Y-72034023D01*
X137797619Y-72081642D01*
X138702380Y-73034023D02*
X138702380Y-72462595D01*
X138702380Y-72748309D02*
X137702380Y-72748309D01*
X137845238Y-72653071D01*
X137940476Y-72557833D01*
X137988095Y-72462595D01*
X137702380Y-73891166D02*
X137702380Y-73700690D01*
X137750000Y-73605452D01*
X137797619Y-73557833D01*
X137940476Y-73462595D01*
X138130952Y-73414976D01*
X138511904Y-73414976D01*
X138607142Y-73462595D01*
X138654761Y-73510214D01*
X138702380Y-73605452D01*
X138702380Y-73795928D01*
X138654761Y-73891166D01*
X138607142Y-73938785D01*
X138511904Y-73986404D01*
X138273809Y-73986404D01*
X138178571Y-73938785D01*
X138130952Y-73891166D01*
X138083333Y-73795928D01*
X138083333Y-73605452D01*
X138130952Y-73510214D01*
X138178571Y-73462595D01*
X138273809Y-73414976D01*
X152737142Y-46167333D02*
X152784761Y-46119714D01*
X152832380Y-45976857D01*
X152832380Y-45881619D01*
X152784761Y-45738761D01*
X152689523Y-45643523D01*
X152594285Y-45595904D01*
X152403809Y-45548285D01*
X152260952Y-45548285D01*
X152070476Y-45595904D01*
X151975238Y-45643523D01*
X151880000Y-45738761D01*
X151832380Y-45881619D01*
X151832380Y-45976857D01*
X151880000Y-46119714D01*
X151927619Y-46167333D01*
X151927619Y-46548285D02*
X151880000Y-46595904D01*
X151832380Y-46691142D01*
X151832380Y-46929238D01*
X151880000Y-47024476D01*
X151927619Y-47072095D01*
X152022857Y-47119714D01*
X152118095Y-47119714D01*
X152260952Y-47072095D01*
X152832380Y-46500666D01*
X152832380Y-47119714D01*
X142450142Y-46294333D02*
X142497761Y-46246714D01*
X142545380Y-46103857D01*
X142545380Y-46008619D01*
X142497761Y-45865761D01*
X142402523Y-45770523D01*
X142307285Y-45722904D01*
X142116809Y-45675285D01*
X141973952Y-45675285D01*
X141783476Y-45722904D01*
X141688238Y-45770523D01*
X141593000Y-45865761D01*
X141545380Y-46008619D01*
X141545380Y-46103857D01*
X141593000Y-46246714D01*
X141640619Y-46294333D01*
X141878714Y-47151476D02*
X142545380Y-47151476D01*
X141497761Y-46913380D02*
X142212047Y-46675285D01*
X142212047Y-47294333D01*
X147022142Y-66900142D02*
X147069761Y-66852523D01*
X147117380Y-66709666D01*
X147117380Y-66614428D01*
X147069761Y-66471571D01*
X146974523Y-66376333D01*
X146879285Y-66328714D01*
X146688809Y-66281095D01*
X146545952Y-66281095D01*
X146355476Y-66328714D01*
X146260238Y-66376333D01*
X146165000Y-66471571D01*
X146117380Y-66614428D01*
X146117380Y-66709666D01*
X146165000Y-66852523D01*
X146212619Y-66900142D01*
X147117380Y-67852523D02*
X147117380Y-67281095D01*
X147117380Y-67566809D02*
X146117380Y-67566809D01*
X146260238Y-67471571D01*
X146355476Y-67376333D01*
X146403095Y-67281095D01*
X146117380Y-68471571D02*
X146117380Y-68566809D01*
X146165000Y-68662047D01*
X146212619Y-68709666D01*
X146307857Y-68757285D01*
X146498333Y-68804904D01*
X146736428Y-68804904D01*
X146926904Y-68757285D01*
X147022142Y-68709666D01*
X147069761Y-68662047D01*
X147117380Y-68566809D01*
X147117380Y-68471571D01*
X147069761Y-68376333D01*
X147022142Y-68328714D01*
X146926904Y-68281095D01*
X146736428Y-68233476D01*
X146498333Y-68233476D01*
X146307857Y-68281095D01*
X146212619Y-68328714D01*
X146165000Y-68376333D01*
X146117380Y-68471571D01*
X132290142Y-45913333D02*
X132337761Y-45865714D01*
X132385380Y-45722857D01*
X132385380Y-45627619D01*
X132337761Y-45484761D01*
X132242523Y-45389523D01*
X132147285Y-45341904D01*
X131956809Y-45294285D01*
X131813952Y-45294285D01*
X131623476Y-45341904D01*
X131528238Y-45389523D01*
X131433000Y-45484761D01*
X131385380Y-45627619D01*
X131385380Y-45722857D01*
X131433000Y-45865714D01*
X131480619Y-45913333D01*
X131385380Y-46770476D02*
X131385380Y-46580000D01*
X131433000Y-46484761D01*
X131480619Y-46437142D01*
X131623476Y-46341904D01*
X131813952Y-46294285D01*
X132194904Y-46294285D01*
X132290142Y-46341904D01*
X132337761Y-46389523D01*
X132385380Y-46484761D01*
X132385380Y-46675238D01*
X132337761Y-46770476D01*
X132290142Y-46818095D01*
X132194904Y-46865714D01*
X131956809Y-46865714D01*
X131861571Y-46818095D01*
X131813952Y-46770476D01*
X131766333Y-46675238D01*
X131766333Y-46484761D01*
X131813952Y-46389523D01*
X131861571Y-46341904D01*
X131956809Y-46294285D01*
X145118380Y-70805333D02*
X144642190Y-70472000D01*
X145118380Y-70233904D02*
X144118380Y-70233904D01*
X144118380Y-70614857D01*
X144166000Y-70710095D01*
X144213619Y-70757714D01*
X144308857Y-70805333D01*
X144451714Y-70805333D01*
X144546952Y-70757714D01*
X144594571Y-70710095D01*
X144642190Y-70614857D01*
X144642190Y-70233904D01*
X144546952Y-71376761D02*
X144499333Y-71281523D01*
X144451714Y-71233904D01*
X144356476Y-71186285D01*
X144308857Y-71186285D01*
X144213619Y-71233904D01*
X144166000Y-71281523D01*
X144118380Y-71376761D01*
X144118380Y-71567238D01*
X144166000Y-71662476D01*
X144213619Y-71710095D01*
X144308857Y-71757714D01*
X144356476Y-71757714D01*
X144451714Y-71710095D01*
X144499333Y-71662476D01*
X144546952Y-71567238D01*
X144546952Y-71376761D01*
X144594571Y-71281523D01*
X144642190Y-71233904D01*
X144737428Y-71186285D01*
X144927904Y-71186285D01*
X145023142Y-71233904D01*
X145070761Y-71281523D01*
X145118380Y-71376761D01*
X145118380Y-71567238D01*
X145070761Y-71662476D01*
X145023142Y-71710095D01*
X144927904Y-71757714D01*
X144737428Y-71757714D01*
X144642190Y-71710095D01*
X144594571Y-71662476D01*
X144546952Y-71567238D01*
X146322380Y-52745833D02*
X145846190Y-52412500D01*
X146322380Y-52174404D02*
X145322380Y-52174404D01*
X145322380Y-52555357D01*
X145370000Y-52650595D01*
X145417619Y-52698214D01*
X145512857Y-52745833D01*
X145655714Y-52745833D01*
X145750952Y-52698214D01*
X145798571Y-52650595D01*
X145846190Y-52555357D01*
X145846190Y-52174404D01*
X145322380Y-53079166D02*
X145322380Y-53698214D01*
X145703333Y-53364880D01*
X145703333Y-53507738D01*
X145750952Y-53602976D01*
X145798571Y-53650595D01*
X145893809Y-53698214D01*
X146131904Y-53698214D01*
X146227142Y-53650595D01*
X146274761Y-53602976D01*
X146322380Y-53507738D01*
X146322380Y-53222023D01*
X146274761Y-53126785D01*
X146227142Y-53079166D01*
X136162380Y-52745833D02*
X135686190Y-52412500D01*
X136162380Y-52174404D02*
X135162380Y-52174404D01*
X135162380Y-52555357D01*
X135210000Y-52650595D01*
X135257619Y-52698214D01*
X135352857Y-52745833D01*
X135495714Y-52745833D01*
X135590952Y-52698214D01*
X135638571Y-52650595D01*
X135686190Y-52555357D01*
X135686190Y-52174404D01*
X135162380Y-53650595D02*
X135162380Y-53174404D01*
X135638571Y-53126785D01*
X135590952Y-53174404D01*
X135543333Y-53269642D01*
X135543333Y-53507738D01*
X135590952Y-53602976D01*
X135638571Y-53650595D01*
X135733809Y-53698214D01*
X135971904Y-53698214D01*
X136067142Y-53650595D01*
X136114761Y-53602976D01*
X136162380Y-53507738D01*
X136162380Y-53269642D01*
X136114761Y-53174404D01*
X136067142Y-53126785D01*
X131496380Y-52771333D02*
X131020190Y-52438000D01*
X131496380Y-52199904D02*
X130496380Y-52199904D01*
X130496380Y-52580857D01*
X130544000Y-52676095D01*
X130591619Y-52723714D01*
X130686857Y-52771333D01*
X130829714Y-52771333D01*
X130924952Y-52723714D01*
X130972571Y-52676095D01*
X131020190Y-52580857D01*
X131020190Y-52199904D01*
X130496380Y-53628476D02*
X130496380Y-53438000D01*
X130544000Y-53342761D01*
X130591619Y-53295142D01*
X130734476Y-53199904D01*
X130924952Y-53152285D01*
X131305904Y-53152285D01*
X131401142Y-53199904D01*
X131448761Y-53247523D01*
X131496380Y-53342761D01*
X131496380Y-53533238D01*
X131448761Y-53628476D01*
X131401142Y-53676095D01*
X131305904Y-53723714D01*
X131067809Y-53723714D01*
X130972571Y-53676095D01*
X130924952Y-53628476D01*
X130877333Y-53533238D01*
X130877333Y-53342761D01*
X130924952Y-53247523D01*
X130972571Y-53199904D01*
X131067809Y-53152285D01*
X133052190Y-70495809D02*
X133528380Y-70495809D01*
X132528380Y-70162476D02*
X133052190Y-70495809D01*
X132528380Y-70829142D01*
X133528380Y-71686285D02*
X133528380Y-71114857D01*
X133528380Y-71400571D02*
X132528380Y-71400571D01*
X132671238Y-71305333D01*
X132766476Y-71210095D01*
X132814095Y-71114857D01*
X149497380Y-48459642D02*
X149021190Y-48126309D01*
X149497380Y-47888214D02*
X148497380Y-47888214D01*
X148497380Y-48269166D01*
X148545000Y-48364404D01*
X148592619Y-48412023D01*
X148687857Y-48459642D01*
X148830714Y-48459642D01*
X148925952Y-48412023D01*
X148973571Y-48364404D01*
X149021190Y-48269166D01*
X149021190Y-47888214D01*
X149497380Y-49412023D02*
X149497380Y-48840595D01*
X149497380Y-49126309D02*
X148497380Y-49126309D01*
X148640238Y-49031071D01*
X148735476Y-48935833D01*
X148783095Y-48840595D01*
X148592619Y-49792976D02*
X148545000Y-49840595D01*
X148497380Y-49935833D01*
X148497380Y-50173928D01*
X148545000Y-50269166D01*
X148592619Y-50316785D01*
X148687857Y-50364404D01*
X148783095Y-50364404D01*
X148925952Y-50316785D01*
X149497380Y-49745357D01*
X149497380Y-50364404D01*
X139337380Y-48459642D02*
X138861190Y-48126309D01*
X139337380Y-47888214D02*
X138337380Y-47888214D01*
X138337380Y-48269166D01*
X138385000Y-48364404D01*
X138432619Y-48412023D01*
X138527857Y-48459642D01*
X138670714Y-48459642D01*
X138765952Y-48412023D01*
X138813571Y-48364404D01*
X138861190Y-48269166D01*
X138861190Y-47888214D01*
X139337380Y-49412023D02*
X139337380Y-48840595D01*
X139337380Y-49126309D02*
X138337380Y-49126309D01*
X138480238Y-49031071D01*
X138575476Y-48935833D01*
X138623095Y-48840595D01*
X138670714Y-50269166D02*
X139337380Y-50269166D01*
X138289761Y-50031071D02*
X139004047Y-49792976D01*
X139004047Y-50412023D01*
X151402380Y-52745833D02*
X150926190Y-52412500D01*
X151402380Y-52174404D02*
X150402380Y-52174404D01*
X150402380Y-52555357D01*
X150450000Y-52650595D01*
X150497619Y-52698214D01*
X150592857Y-52745833D01*
X150735714Y-52745833D01*
X150830952Y-52698214D01*
X150878571Y-52650595D01*
X150926190Y-52555357D01*
X150926190Y-52174404D01*
X150497619Y-53126785D02*
X150450000Y-53174404D01*
X150402380Y-53269642D01*
X150402380Y-53507738D01*
X150450000Y-53602976D01*
X150497619Y-53650595D01*
X150592857Y-53698214D01*
X150688095Y-53698214D01*
X150830952Y-53650595D01*
X151402380Y-53079166D01*
X151402380Y-53698214D01*
X154577380Y-48459642D02*
X154101190Y-48126309D01*
X154577380Y-47888214D02*
X153577380Y-47888214D01*
X153577380Y-48269166D01*
X153625000Y-48364404D01*
X153672619Y-48412023D01*
X153767857Y-48459642D01*
X153910714Y-48459642D01*
X154005952Y-48412023D01*
X154053571Y-48364404D01*
X154101190Y-48269166D01*
X154101190Y-47888214D01*
X154577380Y-49412023D02*
X154577380Y-48840595D01*
X154577380Y-49126309D02*
X153577380Y-49126309D01*
X153720238Y-49031071D01*
X153815476Y-48935833D01*
X153863095Y-48840595D01*
X154577380Y-50364404D02*
X154577380Y-49792976D01*
X154577380Y-50078690D02*
X153577380Y-50078690D01*
X153720238Y-49983452D01*
X153815476Y-49888214D01*
X153863095Y-49792976D01*
X141242380Y-52771333D02*
X140766190Y-52438000D01*
X141242380Y-52199904D02*
X140242380Y-52199904D01*
X140242380Y-52580857D01*
X140290000Y-52676095D01*
X140337619Y-52723714D01*
X140432857Y-52771333D01*
X140575714Y-52771333D01*
X140670952Y-52723714D01*
X140718571Y-52676095D01*
X140766190Y-52580857D01*
X140766190Y-52199904D01*
X140575714Y-53628476D02*
X141242380Y-53628476D01*
X140194761Y-53390380D02*
X140909047Y-53152285D01*
X140909047Y-53771333D01*
X144417380Y-48459642D02*
X143941190Y-48126309D01*
X144417380Y-47888214D02*
X143417380Y-47888214D01*
X143417380Y-48269166D01*
X143465000Y-48364404D01*
X143512619Y-48412023D01*
X143607857Y-48459642D01*
X143750714Y-48459642D01*
X143845952Y-48412023D01*
X143893571Y-48364404D01*
X143941190Y-48269166D01*
X143941190Y-47888214D01*
X144417380Y-49412023D02*
X144417380Y-48840595D01*
X144417380Y-49126309D02*
X143417380Y-49126309D01*
X143560238Y-49031071D01*
X143655476Y-48935833D01*
X143703095Y-48840595D01*
X143417380Y-49745357D02*
X143417380Y-50364404D01*
X143798333Y-50031071D01*
X143798333Y-50173928D01*
X143845952Y-50269166D01*
X143893571Y-50316785D01*
X143988809Y-50364404D01*
X144226904Y-50364404D01*
X144322142Y-50316785D01*
X144369761Y-50269166D01*
X144417380Y-50173928D01*
X144417380Y-49888214D01*
X144369761Y-49792976D01*
X144322142Y-49745357D01*
X151594142Y-60296142D02*
X151641761Y-60248523D01*
X151689380Y-60105666D01*
X151689380Y-60010428D01*
X151641761Y-59867571D01*
X151546523Y-59772333D01*
X151451285Y-59724714D01*
X151260809Y-59677095D01*
X151117952Y-59677095D01*
X150927476Y-59724714D01*
X150832238Y-59772333D01*
X150737000Y-59867571D01*
X150689380Y-60010428D01*
X150689380Y-60105666D01*
X150737000Y-60248523D01*
X150784619Y-60296142D01*
X151689380Y-61248523D02*
X151689380Y-60677095D01*
X151689380Y-60962809D02*
X150689380Y-60962809D01*
X150832238Y-60867571D01*
X150927476Y-60772333D01*
X150975095Y-60677095D01*
X151117952Y-61819952D02*
X151070333Y-61724714D01*
X151022714Y-61677095D01*
X150927476Y-61629476D01*
X150879857Y-61629476D01*
X150784619Y-61677095D01*
X150737000Y-61724714D01*
X150689380Y-61819952D01*
X150689380Y-62010428D01*
X150737000Y-62105666D01*
X150784619Y-62153285D01*
X150879857Y-62200904D01*
X150927476Y-62200904D01*
X151022714Y-62153285D01*
X151070333Y-62105666D01*
X151117952Y-62010428D01*
X151117952Y-61819952D01*
X151165571Y-61724714D01*
X151213190Y-61677095D01*
X151308428Y-61629476D01*
X151498904Y-61629476D01*
X151594142Y-61677095D01*
X151641761Y-61724714D01*
X151689380Y-61819952D01*
X151689380Y-62010428D01*
X151641761Y-62105666D01*
X151594142Y-62153285D01*
X151498904Y-62200904D01*
X151308428Y-62200904D01*
X151213190Y-62153285D01*
X151165571Y-62105666D01*
X151117952Y-62010428D01*
X156482380Y-52745833D02*
X156006190Y-52412500D01*
X156482380Y-52174404D02*
X155482380Y-52174404D01*
X155482380Y-52555357D01*
X155530000Y-52650595D01*
X155577619Y-52698214D01*
X155672857Y-52745833D01*
X155815714Y-52745833D01*
X155910952Y-52698214D01*
X155958571Y-52650595D01*
X156006190Y-52555357D01*
X156006190Y-52174404D01*
X156482380Y-53698214D02*
X156482380Y-53126785D01*
X156482380Y-53412500D02*
X155482380Y-53412500D01*
X155625238Y-53317261D01*
X155720476Y-53222023D01*
X155768095Y-53126785D01*
X157785380Y-62982333D02*
X157309190Y-62649000D01*
X157785380Y-62410904D02*
X156785380Y-62410904D01*
X156785380Y-62791857D01*
X156833000Y-62887095D01*
X156880619Y-62934714D01*
X156975857Y-62982333D01*
X157118714Y-62982333D01*
X157213952Y-62934714D01*
X157261571Y-62887095D01*
X157309190Y-62791857D01*
X157309190Y-62410904D01*
X156785380Y-63315666D02*
X156785380Y-63982333D01*
X157785380Y-63553761D01*
X157452380Y-105857142D02*
X156976190Y-105523809D01*
X157452380Y-105285714D02*
X156452380Y-105285714D01*
X156452380Y-105666666D01*
X156500000Y-105761904D01*
X156547619Y-105809523D01*
X156642857Y-105857142D01*
X156785714Y-105857142D01*
X156880952Y-105809523D01*
X156928571Y-105761904D01*
X156976190Y-105666666D01*
X156976190Y-105285714D01*
X157452380Y-106809523D02*
X157452380Y-106238095D01*
X157452380Y-106523809D02*
X156452380Y-106523809D01*
X156595238Y-106428571D01*
X156690476Y-106333333D01*
X156738095Y-106238095D01*
X156452380Y-107428571D02*
X156452380Y-107523809D01*
X156500000Y-107619047D01*
X156547619Y-107666666D01*
X156642857Y-107714285D01*
X156833333Y-107761904D01*
X157071428Y-107761904D01*
X157261904Y-107714285D01*
X157357142Y-107666666D01*
X157404761Y-107619047D01*
X157452380Y-107523809D01*
X157452380Y-107428571D01*
X157404761Y-107333333D01*
X157357142Y-107285714D01*
X157261904Y-107238095D01*
X157071428Y-107190476D01*
X156833333Y-107190476D01*
X156642857Y-107238095D01*
X156547619Y-107285714D01*
X156500000Y-107333333D01*
X156452380Y-107428571D01*
X158821380Y-118229142D02*
X158345190Y-117895809D01*
X158821380Y-117657714D02*
X157821380Y-117657714D01*
X157821380Y-118038666D01*
X157869000Y-118133904D01*
X157916619Y-118181523D01*
X158011857Y-118229142D01*
X158154714Y-118229142D01*
X158249952Y-118181523D01*
X158297571Y-118133904D01*
X158345190Y-118038666D01*
X158345190Y-117657714D01*
X158821380Y-119181523D02*
X158821380Y-118610095D01*
X158821380Y-118895809D02*
X157821380Y-118895809D01*
X157964238Y-118800571D01*
X158059476Y-118705333D01*
X158107095Y-118610095D01*
X157821380Y-120038666D02*
X157821380Y-119848190D01*
X157869000Y-119752952D01*
X157916619Y-119705333D01*
X158059476Y-119610095D01*
X158249952Y-119562476D01*
X158630904Y-119562476D01*
X158726142Y-119610095D01*
X158773761Y-119657714D01*
X158821380Y-119752952D01*
X158821380Y-119943428D01*
X158773761Y-120038666D01*
X158726142Y-120086285D01*
X158630904Y-120133904D01*
X158392809Y-120133904D01*
X158297571Y-120086285D01*
X158249952Y-120038666D01*
X158202333Y-119943428D01*
X158202333Y-119752952D01*
X158249952Y-119657714D01*
X158297571Y-119610095D01*
X158392809Y-119562476D01*
X153647380Y-118254642D02*
X153171190Y-117921309D01*
X153647380Y-117683214D02*
X152647380Y-117683214D01*
X152647380Y-118064166D01*
X152695000Y-118159404D01*
X152742619Y-118207023D01*
X152837857Y-118254642D01*
X152980714Y-118254642D01*
X153075952Y-118207023D01*
X153123571Y-118159404D01*
X153171190Y-118064166D01*
X153171190Y-117683214D01*
X153647380Y-119207023D02*
X153647380Y-118635595D01*
X153647380Y-118921309D02*
X152647380Y-118921309D01*
X152790238Y-118826071D01*
X152885476Y-118730833D01*
X152933095Y-118635595D01*
X152647380Y-120111785D02*
X152647380Y-119635595D01*
X153123571Y-119587976D01*
X153075952Y-119635595D01*
X153028333Y-119730833D01*
X153028333Y-119968928D01*
X153075952Y-120064166D01*
X153123571Y-120111785D01*
X153218809Y-120159404D01*
X153456904Y-120159404D01*
X153552142Y-120111785D01*
X153599761Y-120064166D01*
X153647380Y-119968928D01*
X153647380Y-119730833D01*
X153599761Y-119635595D01*
X153552142Y-119587976D01*
X148567380Y-118254642D02*
X148091190Y-117921309D01*
X148567380Y-117683214D02*
X147567380Y-117683214D01*
X147567380Y-118064166D01*
X147615000Y-118159404D01*
X147662619Y-118207023D01*
X147757857Y-118254642D01*
X147900714Y-118254642D01*
X147995952Y-118207023D01*
X148043571Y-118159404D01*
X148091190Y-118064166D01*
X148091190Y-117683214D01*
X148567380Y-119207023D02*
X148567380Y-118635595D01*
X148567380Y-118921309D02*
X147567380Y-118921309D01*
X147710238Y-118826071D01*
X147805476Y-118730833D01*
X147853095Y-118635595D01*
X147900714Y-120064166D02*
X148567380Y-120064166D01*
X147519761Y-119826071D02*
X148234047Y-119587976D01*
X148234047Y-120207023D01*
X143487380Y-118254642D02*
X143011190Y-117921309D01*
X143487380Y-117683214D02*
X142487380Y-117683214D01*
X142487380Y-118064166D01*
X142535000Y-118159404D01*
X142582619Y-118207023D01*
X142677857Y-118254642D01*
X142820714Y-118254642D01*
X142915952Y-118207023D01*
X142963571Y-118159404D01*
X143011190Y-118064166D01*
X143011190Y-117683214D01*
X143487380Y-119207023D02*
X143487380Y-118635595D01*
X143487380Y-118921309D02*
X142487380Y-118921309D01*
X142630238Y-118826071D01*
X142725476Y-118730833D01*
X142773095Y-118635595D01*
X142487380Y-119540357D02*
X142487380Y-120159404D01*
X142868333Y-119826071D01*
X142868333Y-119968928D01*
X142915952Y-120064166D01*
X142963571Y-120111785D01*
X143058809Y-120159404D01*
X143296904Y-120159404D01*
X143392142Y-120111785D01*
X143439761Y-120064166D01*
X143487380Y-119968928D01*
X143487380Y-119683214D01*
X143439761Y-119587976D01*
X143392142Y-119540357D01*
X138407380Y-118254642D02*
X137931190Y-117921309D01*
X138407380Y-117683214D02*
X137407380Y-117683214D01*
X137407380Y-118064166D01*
X137455000Y-118159404D01*
X137502619Y-118207023D01*
X137597857Y-118254642D01*
X137740714Y-118254642D01*
X137835952Y-118207023D01*
X137883571Y-118159404D01*
X137931190Y-118064166D01*
X137931190Y-117683214D01*
X138407380Y-119207023D02*
X138407380Y-118635595D01*
X138407380Y-118921309D02*
X137407380Y-118921309D01*
X137550238Y-118826071D01*
X137645476Y-118730833D01*
X137693095Y-118635595D01*
X137502619Y-119587976D02*
X137455000Y-119635595D01*
X137407380Y-119730833D01*
X137407380Y-119968928D01*
X137455000Y-120064166D01*
X137502619Y-120111785D01*
X137597857Y-120159404D01*
X137693095Y-120159404D01*
X137835952Y-120111785D01*
X138407380Y-119540357D01*
X138407380Y-120159404D01*
X156408380Y-114895333D02*
X155932190Y-114562000D01*
X156408380Y-114323904D02*
X155408380Y-114323904D01*
X155408380Y-114704857D01*
X155456000Y-114800095D01*
X155503619Y-114847714D01*
X155598857Y-114895333D01*
X155741714Y-114895333D01*
X155836952Y-114847714D01*
X155884571Y-114800095D01*
X155932190Y-114704857D01*
X155932190Y-114323904D01*
X155408380Y-115752476D02*
X155408380Y-115562000D01*
X155456000Y-115466761D01*
X155503619Y-115419142D01*
X155646476Y-115323904D01*
X155836952Y-115276285D01*
X156217904Y-115276285D01*
X156313142Y-115323904D01*
X156360761Y-115371523D01*
X156408380Y-115466761D01*
X156408380Y-115657238D01*
X156360761Y-115752476D01*
X156313142Y-115800095D01*
X156217904Y-115847714D01*
X155979809Y-115847714D01*
X155884571Y-115800095D01*
X155836952Y-115752476D01*
X155789333Y-115657238D01*
X155789333Y-115466761D01*
X155836952Y-115371523D01*
X155884571Y-115323904D01*
X155979809Y-115276285D01*
X146662380Y-114895333D02*
X146186190Y-114562000D01*
X146662380Y-114323904D02*
X145662380Y-114323904D01*
X145662380Y-114704857D01*
X145710000Y-114800095D01*
X145757619Y-114847714D01*
X145852857Y-114895333D01*
X145995714Y-114895333D01*
X146090952Y-114847714D01*
X146138571Y-114800095D01*
X146186190Y-114704857D01*
X146186190Y-114323904D01*
X145995714Y-115752476D02*
X146662380Y-115752476D01*
X145614761Y-115514380D02*
X146329047Y-115276285D01*
X146329047Y-115895333D01*
X133327380Y-118254642D02*
X132851190Y-117921309D01*
X133327380Y-117683214D02*
X132327380Y-117683214D01*
X132327380Y-118064166D01*
X132375000Y-118159404D01*
X132422619Y-118207023D01*
X132517857Y-118254642D01*
X132660714Y-118254642D01*
X132755952Y-118207023D01*
X132803571Y-118159404D01*
X132851190Y-118064166D01*
X132851190Y-117683214D01*
X133327380Y-119207023D02*
X133327380Y-118635595D01*
X133327380Y-118921309D02*
X132327380Y-118921309D01*
X132470238Y-118826071D01*
X132565476Y-118730833D01*
X132613095Y-118635595D01*
X133327380Y-120159404D02*
X133327380Y-119587976D01*
X133327380Y-119873690D02*
X132327380Y-119873690D01*
X132470238Y-119778452D01*
X132565476Y-119683214D01*
X132613095Y-119587976D01*
X153900190Y-96551809D02*
X154376380Y-96551809D01*
X153376380Y-96218476D02*
X153900190Y-96551809D01*
X153376380Y-96885142D01*
X154376380Y-97742285D02*
X154376380Y-97170857D01*
X154376380Y-97456571D02*
X153376380Y-97456571D01*
X153519238Y-97361333D01*
X153614476Y-97266095D01*
X153662095Y-97170857D01*
X151742380Y-114920833D02*
X151266190Y-114587500D01*
X151742380Y-114349404D02*
X150742380Y-114349404D01*
X150742380Y-114730357D01*
X150790000Y-114825595D01*
X150837619Y-114873214D01*
X150932857Y-114920833D01*
X151075714Y-114920833D01*
X151170952Y-114873214D01*
X151218571Y-114825595D01*
X151266190Y-114730357D01*
X151266190Y-114349404D01*
X150742380Y-115825595D02*
X150742380Y-115349404D01*
X151218571Y-115301785D01*
X151170952Y-115349404D01*
X151123333Y-115444642D01*
X151123333Y-115682738D01*
X151170952Y-115777976D01*
X151218571Y-115825595D01*
X151313809Y-115873214D01*
X151551904Y-115873214D01*
X151647142Y-115825595D01*
X151694761Y-115777976D01*
X151742380Y-115682738D01*
X151742380Y-115444642D01*
X151694761Y-115349404D01*
X151647142Y-115301785D01*
X141582380Y-114920833D02*
X141106190Y-114587500D01*
X141582380Y-114349404D02*
X140582380Y-114349404D01*
X140582380Y-114730357D01*
X140630000Y-114825595D01*
X140677619Y-114873214D01*
X140772857Y-114920833D01*
X140915714Y-114920833D01*
X141010952Y-114873214D01*
X141058571Y-114825595D01*
X141106190Y-114730357D01*
X141106190Y-114349404D01*
X140582380Y-115254166D02*
X140582380Y-115873214D01*
X140963333Y-115539880D01*
X140963333Y-115682738D01*
X141010952Y-115777976D01*
X141058571Y-115825595D01*
X141153809Y-115873214D01*
X141391904Y-115873214D01*
X141487142Y-115825595D01*
X141534761Y-115777976D01*
X141582380Y-115682738D01*
X141582380Y-115397023D01*
X141534761Y-115301785D01*
X141487142Y-115254166D01*
X136502380Y-114920833D02*
X136026190Y-114587500D01*
X136502380Y-114349404D02*
X135502380Y-114349404D01*
X135502380Y-114730357D01*
X135550000Y-114825595D01*
X135597619Y-114873214D01*
X135692857Y-114920833D01*
X135835714Y-114920833D01*
X135930952Y-114873214D01*
X135978571Y-114825595D01*
X136026190Y-114730357D01*
X136026190Y-114349404D01*
X135597619Y-115301785D02*
X135550000Y-115349404D01*
X135502380Y-115444642D01*
X135502380Y-115682738D01*
X135550000Y-115777976D01*
X135597619Y-115825595D01*
X135692857Y-115873214D01*
X135788095Y-115873214D01*
X135930952Y-115825595D01*
X136502380Y-115254166D01*
X136502380Y-115873214D01*
X131422380Y-114920833D02*
X130946190Y-114587500D01*
X131422380Y-114349404D02*
X130422380Y-114349404D01*
X130422380Y-114730357D01*
X130470000Y-114825595D01*
X130517619Y-114873214D01*
X130612857Y-114920833D01*
X130755714Y-114920833D01*
X130850952Y-114873214D01*
X130898571Y-114825595D01*
X130946190Y-114730357D01*
X130946190Y-114349404D01*
X131422380Y-115873214D02*
X131422380Y-115301785D01*
X131422380Y-115587500D02*
X130422380Y-115587500D01*
X130565238Y-115492261D01*
X130660476Y-115397023D01*
X130708095Y-115301785D01*
X142786380Y-96861333D02*
X142310190Y-96528000D01*
X142786380Y-96289904D02*
X141786380Y-96289904D01*
X141786380Y-96670857D01*
X141834000Y-96766095D01*
X141881619Y-96813714D01*
X141976857Y-96861333D01*
X142119714Y-96861333D01*
X142214952Y-96813714D01*
X142262571Y-96766095D01*
X142310190Y-96670857D01*
X142310190Y-96289904D01*
X142214952Y-97432761D02*
X142167333Y-97337523D01*
X142119714Y-97289904D01*
X142024476Y-97242285D01*
X141976857Y-97242285D01*
X141881619Y-97289904D01*
X141834000Y-97337523D01*
X141786380Y-97432761D01*
X141786380Y-97623238D01*
X141834000Y-97718476D01*
X141881619Y-97766095D01*
X141976857Y-97813714D01*
X142024476Y-97813714D01*
X142119714Y-97766095D01*
X142167333Y-97718476D01*
X142214952Y-97623238D01*
X142214952Y-97432761D01*
X142262571Y-97337523D01*
X142310190Y-97289904D01*
X142405428Y-97242285D01*
X142595904Y-97242285D01*
X142691142Y-97289904D01*
X142738761Y-97337523D01*
X142786380Y-97432761D01*
X142786380Y-97623238D01*
X142738761Y-97718476D01*
X142691142Y-97766095D01*
X142595904Y-97813714D01*
X142405428Y-97813714D01*
X142310190Y-97766095D01*
X142262571Y-97718476D01*
X142214952Y-97623238D01*
X130119380Y-104684333D02*
X129643190Y-104351000D01*
X130119380Y-104112904D02*
X129119380Y-104112904D01*
X129119380Y-104493857D01*
X129167000Y-104589095D01*
X129214619Y-104636714D01*
X129309857Y-104684333D01*
X129452714Y-104684333D01*
X129547952Y-104636714D01*
X129595571Y-104589095D01*
X129643190Y-104493857D01*
X129643190Y-104112904D01*
X129119380Y-105017666D02*
X129119380Y-105684333D01*
X130119380Y-105255761D01*
X136120142Y-106418142D02*
X136167761Y-106370523D01*
X136215380Y-106227666D01*
X136215380Y-106132428D01*
X136167761Y-105989571D01*
X136072523Y-105894333D01*
X135977285Y-105846714D01*
X135786809Y-105799095D01*
X135643952Y-105799095D01*
X135453476Y-105846714D01*
X135358238Y-105894333D01*
X135263000Y-105989571D01*
X135215380Y-106132428D01*
X135215380Y-106227666D01*
X135263000Y-106370523D01*
X135310619Y-106418142D01*
X136215380Y-107370523D02*
X136215380Y-106799095D01*
X136215380Y-107084809D02*
X135215380Y-107084809D01*
X135358238Y-106989571D01*
X135453476Y-106894333D01*
X135501095Y-106799095D01*
X135643952Y-107941952D02*
X135596333Y-107846714D01*
X135548714Y-107799095D01*
X135453476Y-107751476D01*
X135405857Y-107751476D01*
X135310619Y-107799095D01*
X135263000Y-107846714D01*
X135215380Y-107941952D01*
X135215380Y-108132428D01*
X135263000Y-108227666D01*
X135310619Y-108275285D01*
X135405857Y-108322904D01*
X135453476Y-108322904D01*
X135548714Y-108275285D01*
X135596333Y-108227666D01*
X135643952Y-108132428D01*
X135643952Y-107941952D01*
X135691571Y-107846714D01*
X135739190Y-107799095D01*
X135834428Y-107751476D01*
X136024904Y-107751476D01*
X136120142Y-107799095D01*
X136167761Y-107846714D01*
X136215380Y-107941952D01*
X136215380Y-108132428D01*
X136167761Y-108227666D01*
X136120142Y-108275285D01*
X136024904Y-108322904D01*
X135834428Y-108322904D01*
X135739190Y-108275285D01*
X135691571Y-108227666D01*
X135643952Y-108132428D01*
X149107142Y-94632642D02*
X149154761Y-94585023D01*
X149202380Y-94442166D01*
X149202380Y-94346928D01*
X149154761Y-94204071D01*
X149059523Y-94108833D01*
X148964285Y-94061214D01*
X148773809Y-94013595D01*
X148630952Y-94013595D01*
X148440476Y-94061214D01*
X148345238Y-94108833D01*
X148250000Y-94204071D01*
X148202380Y-94346928D01*
X148202380Y-94442166D01*
X148250000Y-94585023D01*
X148297619Y-94632642D01*
X149202380Y-95585023D02*
X149202380Y-95013595D01*
X149202380Y-95299309D02*
X148202380Y-95299309D01*
X148345238Y-95204071D01*
X148440476Y-95108833D01*
X148488095Y-95013595D01*
X148202380Y-96442166D02*
X148202380Y-96251690D01*
X148250000Y-96156452D01*
X148297619Y-96108833D01*
X148440476Y-96013595D01*
X148630952Y-95965976D01*
X149011904Y-95965976D01*
X149107142Y-96013595D01*
X149154761Y-96061214D01*
X149202380Y-96156452D01*
X149202380Y-96346928D01*
X149154761Y-96442166D01*
X149107142Y-96489785D01*
X149011904Y-96537404D01*
X148773809Y-96537404D01*
X148678571Y-96489785D01*
X148630952Y-96442166D01*
X148583333Y-96346928D01*
X148583333Y-96156452D01*
X148630952Y-96061214D01*
X148678571Y-96013595D01*
X148773809Y-95965976D01*
X149201142Y-98163142D02*
X149248761Y-98115523D01*
X149296380Y-97972666D01*
X149296380Y-97877428D01*
X149248761Y-97734571D01*
X149153523Y-97639333D01*
X149058285Y-97591714D01*
X148867809Y-97544095D01*
X148724952Y-97544095D01*
X148534476Y-97591714D01*
X148439238Y-97639333D01*
X148344000Y-97734571D01*
X148296380Y-97877428D01*
X148296380Y-97972666D01*
X148344000Y-98115523D01*
X148391619Y-98163142D01*
X149296380Y-99115523D02*
X149296380Y-98544095D01*
X149296380Y-98829809D02*
X148296380Y-98829809D01*
X148439238Y-98734571D01*
X148534476Y-98639333D01*
X148582095Y-98544095D01*
X148296380Y-100020285D02*
X148296380Y-99544095D01*
X148772571Y-99496476D01*
X148724952Y-99544095D01*
X148677333Y-99639333D01*
X148677333Y-99877428D01*
X148724952Y-99972666D01*
X148772571Y-100020285D01*
X148867809Y-100067904D01*
X149105904Y-100067904D01*
X149201142Y-100020285D01*
X149248761Y-99972666D01*
X149296380Y-99877428D01*
X149296380Y-99639333D01*
X149248761Y-99544095D01*
X149201142Y-99496476D01*
X155424142Y-121753333D02*
X155471761Y-121705714D01*
X155519380Y-121562857D01*
X155519380Y-121467619D01*
X155471761Y-121324761D01*
X155376523Y-121229523D01*
X155281285Y-121181904D01*
X155090809Y-121134285D01*
X154947952Y-121134285D01*
X154757476Y-121181904D01*
X154662238Y-121229523D01*
X154567000Y-121324761D01*
X154519380Y-121467619D01*
X154519380Y-121562857D01*
X154567000Y-121705714D01*
X154614619Y-121753333D01*
X154519380Y-122610476D02*
X154519380Y-122420000D01*
X154567000Y-122324761D01*
X154614619Y-122277142D01*
X154757476Y-122181904D01*
X154947952Y-122134285D01*
X155328904Y-122134285D01*
X155424142Y-122181904D01*
X155471761Y-122229523D01*
X155519380Y-122324761D01*
X155519380Y-122515238D01*
X155471761Y-122610476D01*
X155424142Y-122658095D01*
X155328904Y-122705714D01*
X155090809Y-122705714D01*
X154995571Y-122658095D01*
X154947952Y-122610476D01*
X154900333Y-122515238D01*
X154900333Y-122324761D01*
X154947952Y-122229523D01*
X154995571Y-122181904D01*
X155090809Y-122134285D01*
X150344142Y-121372333D02*
X150391761Y-121324714D01*
X150439380Y-121181857D01*
X150439380Y-121086619D01*
X150391761Y-120943761D01*
X150296523Y-120848523D01*
X150201285Y-120800904D01*
X150010809Y-120753285D01*
X149867952Y-120753285D01*
X149677476Y-120800904D01*
X149582238Y-120848523D01*
X149487000Y-120943761D01*
X149439380Y-121086619D01*
X149439380Y-121181857D01*
X149487000Y-121324714D01*
X149534619Y-121372333D01*
X149439380Y-122277095D02*
X149439380Y-121800904D01*
X149915571Y-121753285D01*
X149867952Y-121800904D01*
X149820333Y-121896142D01*
X149820333Y-122134238D01*
X149867952Y-122229476D01*
X149915571Y-122277095D01*
X150010809Y-122324714D01*
X150248904Y-122324714D01*
X150344142Y-122277095D01*
X150391761Y-122229476D01*
X150439380Y-122134238D01*
X150439380Y-121896142D01*
X150391761Y-121800904D01*
X150344142Y-121753285D01*
X145264142Y-121372333D02*
X145311761Y-121324714D01*
X145359380Y-121181857D01*
X145359380Y-121086619D01*
X145311761Y-120943761D01*
X145216523Y-120848523D01*
X145121285Y-120800904D01*
X144930809Y-120753285D01*
X144787952Y-120753285D01*
X144597476Y-120800904D01*
X144502238Y-120848523D01*
X144407000Y-120943761D01*
X144359380Y-121086619D01*
X144359380Y-121181857D01*
X144407000Y-121324714D01*
X144454619Y-121372333D01*
X144692714Y-122229476D02*
X145359380Y-122229476D01*
X144311761Y-121991380D02*
X145026047Y-121753285D01*
X145026047Y-122372333D01*
X140184142Y-121372333D02*
X140231761Y-121324714D01*
X140279380Y-121181857D01*
X140279380Y-121086619D01*
X140231761Y-120943761D01*
X140136523Y-120848523D01*
X140041285Y-120800904D01*
X139850809Y-120753285D01*
X139707952Y-120753285D01*
X139517476Y-120800904D01*
X139422238Y-120848523D01*
X139327000Y-120943761D01*
X139279380Y-121086619D01*
X139279380Y-121181857D01*
X139327000Y-121324714D01*
X139374619Y-121372333D01*
X139279380Y-121705666D02*
X139279380Y-122324714D01*
X139660333Y-121991380D01*
X139660333Y-122134238D01*
X139707952Y-122229476D01*
X139755571Y-122277095D01*
X139850809Y-122324714D01*
X140088904Y-122324714D01*
X140184142Y-122277095D01*
X140231761Y-122229476D01*
X140279380Y-122134238D01*
X140279380Y-121848523D01*
X140231761Y-121753285D01*
X140184142Y-121705666D01*
X134977142Y-121499333D02*
X135024761Y-121451714D01*
X135072380Y-121308857D01*
X135072380Y-121213619D01*
X135024761Y-121070761D01*
X134929523Y-120975523D01*
X134834285Y-120927904D01*
X134643809Y-120880285D01*
X134500952Y-120880285D01*
X134310476Y-120927904D01*
X134215238Y-120975523D01*
X134120000Y-121070761D01*
X134072380Y-121213619D01*
X134072380Y-121308857D01*
X134120000Y-121451714D01*
X134167619Y-121499333D01*
X134167619Y-121880285D02*
X134120000Y-121927904D01*
X134072380Y-122023142D01*
X134072380Y-122261238D01*
X134120000Y-122356476D01*
X134167619Y-122404095D01*
X134262857Y-122451714D01*
X134358095Y-122451714D01*
X134500952Y-122404095D01*
X135072380Y-121832666D01*
X135072380Y-122451714D01*
X130024142Y-121499333D02*
X130071761Y-121451714D01*
X130119380Y-121308857D01*
X130119380Y-121213619D01*
X130071761Y-121070761D01*
X129976523Y-120975523D01*
X129881285Y-120927904D01*
X129690809Y-120880285D01*
X129547952Y-120880285D01*
X129357476Y-120927904D01*
X129262238Y-120975523D01*
X129167000Y-121070761D01*
X129119380Y-121213619D01*
X129119380Y-121308857D01*
X129167000Y-121451714D01*
X129214619Y-121499333D01*
X130119380Y-122451714D02*
X130119380Y-121880285D01*
X130119380Y-122166000D02*
X129119380Y-122166000D01*
X129262238Y-122070761D01*
X129357476Y-121975523D01*
X129405095Y-121880285D01*
X140692142Y-99814142D02*
X140739761Y-99766523D01*
X140787380Y-99623666D01*
X140787380Y-99528428D01*
X140739761Y-99385571D01*
X140644523Y-99290333D01*
X140549285Y-99242714D01*
X140358809Y-99195095D01*
X140215952Y-99195095D01*
X140025476Y-99242714D01*
X139930238Y-99290333D01*
X139835000Y-99385571D01*
X139787380Y-99528428D01*
X139787380Y-99623666D01*
X139835000Y-99766523D01*
X139882619Y-99814142D01*
X140787380Y-100766523D02*
X140787380Y-100195095D01*
X140787380Y-100480809D02*
X139787380Y-100480809D01*
X139930238Y-100385571D01*
X140025476Y-100290333D01*
X140073095Y-100195095D01*
X139787380Y-101385571D02*
X139787380Y-101480809D01*
X139835000Y-101576047D01*
X139882619Y-101623666D01*
X139977857Y-101671285D01*
X140168333Y-101718904D01*
X140406428Y-101718904D01*
X140596904Y-101671285D01*
X140692142Y-101623666D01*
X140739761Y-101576047D01*
X140787380Y-101480809D01*
X140787380Y-101385571D01*
X140739761Y-101290333D01*
X140692142Y-101242714D01*
X140596904Y-101195095D01*
X140406428Y-101147476D01*
X140168333Y-101147476D01*
X139977857Y-101195095D01*
X139882619Y-101242714D01*
X139835000Y-101290333D01*
X139787380Y-101385571D01*
M02*
