solid OpenSCAD_Model
  facet normal -1 0 0
    outer loop
      vertex -15 9.25 0
      vertex -15 1.5 6
      vertex -15 9.25 6
    endloop
  endfacet
  facet normal -1 0 0
    outer loop
      vertex -15 1.5 6
      vertex -15 -1.5 6
      vertex -15 1.5 18
    endloop
  endfacet
  facet normal -1 0 0
    outer loop
      vertex -15 9.25 0
      vertex -15 -1.5 6
      vertex -15 1.5 6
    endloop
  endfacet
  facet normal -1 0 0
    outer loop
      vertex -15 -9.25 0
      vertex -15 -1.5 6
      vertex -15 9.25 0
    endloop
  endfacet
  facet normal -1 -0 0
    outer loop
      vertex -15 -1.5 6
      vertex -15 -9.25 0
      vertex -15 -9.25 6
    endloop
  endfacet
  facet normal -1 -0 0
    outer loop
      vertex -15 1.5 18
      vertex -15 -1.5 6
      vertex -15 -1.5 18
    endloop
  endfacet
  facet normal 0 0 1
    outer loop
      vertex -1.5 -1.5 6
      vertex -15 -1.5 6
      vertex -1.5 -7.5 6
    endloop
  endfacet
  facet normal 0 0 1
    outer loop
      vertex 1.5 -7.5 6
      vertex 15 -1.5 6
      vertex 1.5 -1.5 6
    endloop
  endfacet
  facet normal 0 0 1
    outer loop
      vertex 15 -1.5 6
      vertex 1.5 -7.5 6
      vertex 15 -9.25 6
    endloop
  endfacet
  facet normal -0 0 1
    outer loop
      vertex -1.5 -7.5 6
      vertex 15 -9.25 6
      vertex 1.5 -7.5 6
    endloop
  endfacet
  facet normal 0 0 1
    outer loop
      vertex -1.5 -7.5 6
      vertex -15 -9.25 6
      vertex 15 -9.25 6
    endloop
  endfacet
  facet normal 0 0 1
    outer loop
      vertex -15 -9.25 6
      vertex -1.5 -7.5 6
      vertex -15 -1.5 6
    endloop
  endfacet
  facet normal 0 0 1
    outer loop
      vertex 15 9.25 6
      vertex 1.5 7.5 6
      vertex 15 1.5 6
    endloop
  endfacet
  facet normal 0 0 1
    outer loop
      vertex 15 9.25 6
      vertex -1.5 7.5 6
      vertex 1.5 7.5 6
    endloop
  endfacet
  facet normal -0 0 1
    outer loop
      vertex -15 9.25 6
      vertex -1.5 7.5 6
      vertex 15 9.25 6
    endloop
  endfacet
  facet normal 0 0 1
    outer loop
      vertex -15 1.5 6
      vertex -1.5 7.5 6
      vertex -15 9.25 6
    endloop
  endfacet
  facet normal 0 0 1
    outer loop
      vertex -1.5 7.5 6
      vertex -15 1.5 6
      vertex -1.5 1.5 6
    endloop
  endfacet
  facet normal 0 0 1
    outer loop
      vertex 15 1.5 6
      vertex 1.5 7.5 6
      vertex 1.5 1.5 6
    endloop
  endfacet
  facet normal 1 0 0
    outer loop
      vertex 15 1.5 18
      vertex 15 -1.5 18
      vertex 15 1.5 6
    endloop
  endfacet
  facet normal 1 -0 0
    outer loop
      vertex 15 1.5 6
      vertex 15 9.25 0
      vertex 15 9.25 6
    endloop
  endfacet
  facet normal 1 0 0
    outer loop
      vertex 15 -1.5 6
      vertex 15 1.5 6
      vertex 15 -1.5 18
    endloop
  endfacet
  facet normal 1 -0 0
    outer loop
      vertex 15 -1.5 6
      vertex 15 9.25 0
      vertex 15 1.5 6
    endloop
  endfacet
  facet normal 1 0 0
    outer loop
      vertex 15 -9.25 0
      vertex 15 -1.5 6
      vertex 15 -9.25 6
    endloop
  endfacet
  facet normal 1 0 0
    outer loop
      vertex 15 -1.5 6
      vertex 15 -9.25 0
      vertex 15 9.25 0
    endloop
  endfacet
  facet normal 0 0 -1
    outer loop
      vertex 15 -9.25 0
      vertex 12.73 1 0
      vertex 15 9.25 0
    endloop
  endfacet
  facet normal 0 0 -1
    outer loop
      vertex 15 -9.25 0
      vertex 5.27 -7.5 0
      vertex 12.73 1 0
    endloop
  endfacet
  facet normal 0 0 -1
    outer loop
      vertex -15 -9.25 0
      vertex 5.27 -7.5 0
      vertex 15 -9.25 0
    endloop
  endfacet
  facet normal -0 0 -1
    outer loop
      vertex -12.73 -7.5 0
      vertex -15 -9.25 0
      vertex -12.73 -1 0
    endloop
  endfacet
  facet normal -0 0 -1
    outer loop
      vertex 5.27 -7.5 0
      vertex -15 -9.25 0
      vertex -12.73 -7.5 0
    endloop
  endfacet
  facet normal 0 0 -1
    outer loop
      vertex 12.73 7.5 0
      vertex 15 9.25 0
      vertex 12.73 1 0
    endloop
  endfacet
  facet normal 0 0 -1
    outer loop
      vertex -5.27 7.5 0
      vertex 15 9.25 0
      vertex 12.73 7.5 0
    endloop
  endfacet
  facet normal 0 0 -1
    outer loop
      vertex -5.27 7.5 0
      vertex -15 9.25 0
      vertex 15 9.25 0
    endloop
  endfacet
  facet normal 0 0 -1
    outer loop
      vertex -12.73 -1 0
      vertex -15 9.25 0
      vertex -5.27 7.5 0
    endloop
  endfacet
  facet normal 0 0 -1
    outer loop
      vertex -15 9.25 0
      vertex -12.73 -1 0
      vertex -15 -9.25 0
    endloop
  endfacet
  facet normal 0 0 -1
    outer loop
      vertex 5.27 -1 0
      vertex 12.73 1 0
      vertex 5.27 -7.5 0
    endloop
  endfacet
  facet normal 0 0 -1
    outer loop
      vertex 5.27 -1 0
      vertex -5.27 1 0
      vertex 12.73 1 0
    endloop
  endfacet
  facet normal -0 0 -1
    outer loop
      vertex -5.27 1 0
      vertex -12.73 -1 0
      vertex -5.27 7.5 0
    endloop
  endfacet
  facet normal 0 0 -1
    outer loop
      vertex -12.73 -1 0
      vertex -5.27 1 0
      vertex 5.27 -1 0
    endloop
  endfacet
  facet normal 0 -1 0
    outer loop
      vertex -15 -9.25 0
      vertex 15 -9.25 6
      vertex -15 -9.25 6
    endloop
  endfacet
  facet normal 0 -1 -0
    outer loop
      vertex 15 -9.25 6
      vertex -15 -9.25 0
      vertex 15 -9.25 0
    endloop
  endfacet
  facet normal 0 1 -0
    outer loop
      vertex 15 9.25 0
      vertex -15 9.25 6
      vertex 15 9.25 6
    endloop
  endfacet
  facet normal 0 1 0
    outer loop
      vertex -15 9.25 6
      vertex 15 9.25 0
      vertex -15 9.25 0
    endloop
  endfacet
  facet normal 1 -0 0
    outer loop
      vertex -5.27 1 3
      vertex -5.27 7.5 0
      vertex -5.27 7.5 3
    endloop
  endfacet
  facet normal 1 0 0
    outer loop
      vertex -5.27 7.5 0
      vertex -5.27 1 3
      vertex -5.27 1 0
    endloop
  endfacet
  facet normal 0 0 -1
    outer loop
      vertex -5.27 1 3
      vertex 12.73 7.5 3
      vertex 12.73 1 3
    endloop
  endfacet
  facet normal -0 0 -1
    outer loop
      vertex 12.73 7.5 3
      vertex -5.27 1 3
      vertex -5.27 7.5 3
    endloop
  endfacet
  facet normal -1 0 0
    outer loop
      vertex 12.73 1 0
      vertex 12.73 7.5 3
      vertex 12.73 7.5 0
    endloop
  endfacet
  facet normal -1 -0 0
    outer loop
      vertex 12.73 7.5 3
      vertex 12.73 1 0
      vertex 12.73 1 3
    endloop
  endfacet
  facet normal 0 -1 0
    outer loop
      vertex -5.27 7.5 0
      vertex 12.73 7.5 3
      vertex -5.27 7.5 3
    endloop
  endfacet
  facet normal 0 -1 -0
    outer loop
      vertex 12.73 7.5 3
      vertex -5.27 7.5 0
      vertex 12.73 7.5 0
    endloop
  endfacet
  facet normal 0 1 -0
    outer loop
      vertex 12.73 1 0
      vertex -5.27 1 3
      vertex 12.73 1 3
    endloop
  endfacet
  facet normal 0 1 0
    outer loop
      vertex -5.27 1 3
      vertex 12.73 1 0
      vertex -5.27 1 0
    endloop
  endfacet
  facet normal 1 -0 0
    outer loop
      vertex -12.73 -7.5 3
      vertex -12.73 -1 0
      vertex -12.73 -1 3
    endloop
  endfacet
  facet normal 1 0 0
    outer loop
      vertex -12.73 -1 0
      vertex -12.73 -7.5 3
      vertex -12.73 -7.5 0
    endloop
  endfacet
  facet normal 0 0 -1
    outer loop
      vertex -12.73 -7.5 3
      vertex 5.27 -1 3
      vertex 5.27 -7.5 3
    endloop
  endfacet
  facet normal -0 0 -1
    outer loop
      vertex 5.27 -1 3
      vertex -12.73 -7.5 3
      vertex -12.73 -1 3
    endloop
  endfacet
  facet normal -1 0 0
    outer loop
      vertex 5.27 -7.5 0
      vertex 5.27 -1 3
      vertex 5.27 -1 0
    endloop
  endfacet
  facet normal -1 -0 0
    outer loop
      vertex 5.27 -1 3
      vertex 5.27 -7.5 0
      vertex 5.27 -7.5 3
    endloop
  endfacet
  facet normal 0 -1 0
    outer loop
      vertex -12.73 -1 0
      vertex 5.27 -1 3
      vertex -12.73 -1 3
    endloop
  endfacet
  facet normal 0 -1 -0
    outer loop
      vertex 5.27 -1 3
      vertex -12.73 -1 0
      vertex 5.27 -1 0
    endloop
  endfacet
  facet normal 0 1 -0
    outer loop
      vertex 5.27 -7.5 0
      vertex -12.73 -7.5 3
      vertex 5.27 -7.5 3
    endloop
  endfacet
  facet normal 0 1 0
    outer loop
      vertex -12.73 -7.5 3
      vertex 5.27 -7.5 0
      vertex -12.73 -7.5 0
    endloop
  endfacet
  facet normal -1 0 0
    outer loop
      vertex -1.5 -7.5 6
      vertex -1.5 -1.5 21
      vertex -1.5 -1.5 6
    endloop
  endfacet
  facet normal -1 -0 0
    outer loop
      vertex -1.5 -1.5 21
      vertex -1.5 -7.5 6
      vertex -1.5 -7.5 21
    endloop
  endfacet
  facet normal -1 0 0
    outer loop
      vertex -1.5 1.5 6
      vertex -1.5 7.5 21
      vertex -1.5 7.5 6
    endloop
  endfacet
  facet normal -1 -0 0
    outer loop
      vertex -1.5 7.5 21
      vertex -1.5 1.5 6
      vertex -1.5 1.5 21
    endloop
  endfacet
  facet normal -0 0 1
    outer loop
      vertex -7.5 1.5 21
      vertex -1.5 -1.5 21
      vertex -1.5 1.5 21
    endloop
  endfacet
  facet normal 0 0 1
    outer loop
      vertex -1.5 -1.5 21
      vertex -7.5 1.5 21
      vertex -7.5 -1.5 21
    endloop
  endfacet
  facet normal 0 0 1
    outer loop
      vertex -1.5 1.5 21
      vertex 1.5 1.5 21
      vertex 1.5 7.5 21
    endloop
  endfacet
  facet normal 0 0 1
    outer loop
      vertex 1.5 1.5 21
      vertex -1.5 1.5 21
      vertex 1.5 -1.5 21
    endloop
  endfacet
  facet normal 0 0 1
    outer loop
      vertex -1.5 1.5 21
      vertex 1.5 7.5 21
      vertex -1.5 7.5 21
    endloop
  endfacet
  facet normal 0 0 1
    outer loop
      vertex -1.5 -1.5 21
      vertex 1.5 -1.5 21
      vertex -1.5 1.5 21
    endloop
  endfacet
  facet normal 0 0 1
    outer loop
      vertex 1.5 -1.5 21
      vertex -1.5 -1.5 21
      vertex 1.5 -7.5 21
    endloop
  endfacet
  facet normal 0 0 1
    outer loop
      vertex 1.5 -7.5 21
      vertex -1.5 -1.5 21
      vertex -1.5 -7.5 21
    endloop
  endfacet
  facet normal -0 0 1
    outer loop
      vertex 1.5 1.5 21
      vertex 7.5 -1.5 21
      vertex 7.5 1.5 21
    endloop
  endfacet
  facet normal 0 0 1
    outer loop
      vertex 7.5 -1.5 21
      vertex 1.5 1.5 21
      vertex 1.5 -1.5 21
    endloop
  endfacet
  facet normal 1 -0 0
    outer loop
      vertex 1.5 -7.5 21
      vertex 1.5 -1.5 6
      vertex 1.5 -1.5 21
    endloop
  endfacet
  facet normal 1 0 0
    outer loop
      vertex 1.5 -1.5 6
      vertex 1.5 -7.5 21
      vertex 1.5 -7.5 6
    endloop
  endfacet
  facet normal 1 -0 0
    outer loop
      vertex 1.5 1.5 21
      vertex 1.5 7.5 6
      vertex 1.5 7.5 21
    endloop
  endfacet
  facet normal 1 0 0
    outer loop
      vertex 1.5 7.5 6
      vertex 1.5 1.5 21
      vertex 1.5 1.5 6
    endloop
  endfacet
  facet normal 0 1 -0
    outer loop
      vertex 1.5 7.5 6
      vertex -1.5 7.5 21
      vertex 1.5 7.5 21
    endloop
  endfacet
  facet normal 0 1 0
    outer loop
      vertex -1.5 7.5 21
      vertex 1.5 7.5 6
      vertex -1.5 7.5 6
    endloop
  endfacet
  facet normal 0 -1 0
    outer loop
      vertex -1.5 -7.5 6
      vertex 1.5 -7.5 21
      vertex -1.5 -7.5 21
    endloop
  endfacet
  facet normal 0 -1 -0
    outer loop
      vertex 1.5 -7.5 21
      vertex -1.5 -7.5 6
      vertex 1.5 -7.5 6
    endloop
  endfacet
  facet normal -1 0 0
    outer loop
      vertex -7.5 -1.5 18
      vertex -7.5 1.5 21
      vertex -7.5 1.5 18
    endloop
  endfacet
  facet normal -1 -0 0
    outer loop
      vertex -7.5 1.5 21
      vertex -7.5 -1.5 18
      vertex -7.5 -1.5 21
    endloop
  endfacet
  facet normal 1 -0 0
    outer loop
      vertex 7.5 -1.5 21
      vertex 7.5 1.5 18
      vertex 7.5 1.5 21
    endloop
  endfacet
  facet normal 1 0 0
    outer loop
      vertex 7.5 1.5 18
      vertex 7.5 -1.5 21
      vertex 7.5 -1.5 18
    endloop
  endfacet
  facet normal 0 -1 0
    outer loop
      vertex 1.5 -1.5 21
      vertex 7.5 -1.5 18
      vertex 7.5 -1.5 21
    endloop
  endfacet
  facet normal 0 -1 0
    outer loop
      vertex 1.5 -1.5 6
      vertex 7.5 -1.5 18
      vertex 1.5 -1.5 21
    endloop
  endfacet
  facet normal 0 -1 0
    outer loop
      vertex 15 -1.5 6
      vertex 7.5 -1.5 18
      vertex 1.5 -1.5 6
    endloop
  endfacet
  facet normal 0 -1 0
    outer loop
      vertex 7.5 -1.5 18
      vertex 15 -1.5 6
      vertex 15 -1.5 18
    endloop
  endfacet
  facet normal 0 -1 0
    outer loop
      vertex -15 -1.5 18
      vertex -15 -1.5 6
      vertex -7.5 -1.5 18
    endloop
  endfacet
  facet normal 0 -1 0
    outer loop
      vertex -7.5 -1.5 18
      vertex -1.5 -1.5 21
      vertex -7.5 -1.5 21
    endloop
  endfacet
  facet normal 0 -1 0
    outer loop
      vertex -1.5 -1.5 6
      vertex -7.5 -1.5 18
      vertex -15 -1.5 6
    endloop
  endfacet
  facet normal 0 -1 0
    outer loop
      vertex -7.5 -1.5 18
      vertex -1.5 -1.5 6
      vertex -1.5 -1.5 21
    endloop
  endfacet
  facet normal 0 1 0
    outer loop
      vertex 15 1.5 18
      vertex 15 1.5 6
      vertex 7.5 1.5 18
    endloop
  endfacet
  facet normal 0 1 -0
    outer loop
      vertex 7.5 1.5 18
      vertex 1.5 1.5 21
      vertex 7.5 1.5 21
    endloop
  endfacet
  facet normal 0 1 0
    outer loop
      vertex 1.5 1.5 6
      vertex 7.5 1.5 18
      vertex 15 1.5 6
    endloop
  endfacet
  facet normal 0 1 0
    outer loop
      vertex 7.5 1.5 18
      vertex 1.5 1.5 6
      vertex 1.5 1.5 21
    endloop
  endfacet
  facet normal 0 1 0
    outer loop
      vertex -1.5 1.5 21
      vertex -7.5 1.5 18
      vertex -7.5 1.5 21
    endloop
  endfacet
  facet normal 0 1 -0
    outer loop
      vertex -1.5 1.5 6
      vertex -7.5 1.5 18
      vertex -1.5 1.5 21
    endloop
  endfacet
  facet normal 0 1 0
    outer loop
      vertex -15 1.5 6
      vertex -7.5 1.5 18
      vertex -1.5 1.5 6
    endloop
  endfacet
  facet normal 0 1 0
    outer loop
      vertex -7.5 1.5 18
      vertex -15 1.5 6
      vertex -15 1.5 18
    endloop
  endfacet
  facet normal -0 0 1
    outer loop
      vertex 7.5 1.5 18
      vertex 15 -1.5 18
      vertex 15 1.5 18
    endloop
  endfacet
  facet normal 0 0 1
    outer loop
      vertex 15 -1.5 18
      vertex 7.5 1.5 18
      vertex 7.5 -1.5 18
    endloop
  endfacet
  facet normal -0 0 1
    outer loop
      vertex -15 1.5 18
      vertex -7.5 -1.5 18
      vertex -7.5 1.5 18
    endloop
  endfacet
  facet normal 0 0 1
    outer loop
      vertex -7.5 -1.5 18
      vertex -15 1.5 18
      vertex -15 -1.5 18
    endloop
  endfacet
endsolid OpenSCAD_Model
