%TF.GenerationSoftware,KiCad,Pcbnew,(5.1.5)-3*%
%TF.CreationDate,2020-07-19T14:01:50+02:00*%
%TF.ProjectId,REM-C,52454d2d-432e-46b6-9963-61645f706362,rev?*%
%TF.SameCoordinates,Original*%
%TF.FileFunction,Legend,Bot*%
%TF.FilePolarity,Positive*%
%FSLAX46Y46*%
G04 Gerber Fmt 4.6, Leading zero omitted, Abs format (unit mm)*
G04 Created by KiCad (PCBNEW (5.1.5)-3) date 2020-07-19 14:01:50*
%MOMM*%
%LPD*%
G04 APERTURE LIST*
%ADD10C,0.150000*%
%ADD11C,0.250000*%
%ADD12C,0.120000*%
%ADD13C,0.500000*%
G04 APERTURE END LIST*
D10*
X143021547Y-94080952D02*
X143116785Y-94033333D01*
X143164404Y-93985714D01*
X143212023Y-93890476D01*
X143212023Y-93842857D01*
X143164404Y-93747619D01*
X143116785Y-93700000D01*
X143021547Y-93652380D01*
X142831071Y-93652380D01*
X142735833Y-93700000D01*
X142688214Y-93747619D01*
X142640595Y-93842857D01*
X142640595Y-93890476D01*
X142688214Y-93985714D01*
X142735833Y-94033333D01*
X142831071Y-94080952D01*
X143021547Y-94080952D01*
X143116785Y-94128571D01*
X143164404Y-94176190D01*
X143212023Y-94271428D01*
X143212023Y-94461904D01*
X143164404Y-94557142D01*
X143116785Y-94604761D01*
X143021547Y-94652380D01*
X142831071Y-94652380D01*
X142735833Y-94604761D01*
X142688214Y-94557142D01*
X142640595Y-94461904D01*
X142640595Y-94271428D01*
X142688214Y-94176190D01*
X142735833Y-94128571D01*
X142831071Y-94080952D01*
X142307261Y-93652380D02*
X141640595Y-93652380D01*
X142069166Y-94652380D01*
X141212023Y-94604761D02*
X141212023Y-94652380D01*
X141259642Y-94747619D01*
X141307261Y-94795238D01*
X140592976Y-93652380D02*
X140497738Y-93652380D01*
X140402500Y-93700000D01*
X140354880Y-93747619D01*
X140307261Y-93842857D01*
X140259642Y-94033333D01*
X140259642Y-94271428D01*
X140307261Y-94461904D01*
X140354880Y-94557142D01*
X140402500Y-94604761D01*
X140497738Y-94652380D01*
X140592976Y-94652380D01*
X140688214Y-94604761D01*
X140735833Y-94557142D01*
X140783452Y-94461904D01*
X140831071Y-94271428D01*
X140831071Y-94033333D01*
X140783452Y-93842857D01*
X140735833Y-93747619D01*
X140688214Y-93700000D01*
X140592976Y-93652380D01*
X139069166Y-94652380D02*
X139069166Y-93985714D01*
X139069166Y-94080952D02*
X139021547Y-94033333D01*
X138926309Y-93985714D01*
X138783452Y-93985714D01*
X138688214Y-94033333D01*
X138640595Y-94128571D01*
X138640595Y-94652380D01*
X138640595Y-94128571D02*
X138592976Y-94033333D01*
X138497738Y-93985714D01*
X138354880Y-93985714D01*
X138259642Y-94033333D01*
X138212023Y-94128571D01*
X138212023Y-94652380D01*
X137735833Y-94652380D02*
X137735833Y-93985714D01*
X137735833Y-94080952D02*
X137688214Y-94033333D01*
X137592976Y-93985714D01*
X137450119Y-93985714D01*
X137354880Y-94033333D01*
X137307261Y-94128571D01*
X137307261Y-94652380D01*
X137307261Y-94128571D02*
X137259642Y-94033333D01*
X137164404Y-93985714D01*
X137021547Y-93985714D01*
X136926309Y-94033333D01*
X136878690Y-94128571D01*
X136878690Y-94652380D01*
X187000000Y-95500000D02*
X100000000Y-95500000D01*
X187000000Y-99500000D02*
X187000000Y-94913579D01*
X100000000Y-99500000D02*
X100000000Y-94913579D01*
X100000000Y-95500000D02*
X101126504Y-94913579D01*
X100000000Y-95500000D02*
X101126504Y-96086421D01*
X187000000Y-95500000D02*
X185873496Y-94913579D01*
X187000000Y-95500000D02*
X185873496Y-96086421D01*
X184152380Y-62785714D02*
X184152380Y-62595238D01*
X184200000Y-62500000D01*
X184247619Y-62452380D01*
X184390476Y-62357142D01*
X184580952Y-62309523D01*
X184961904Y-62309523D01*
X185057142Y-62357142D01*
X185104761Y-62404761D01*
X185152380Y-62500000D01*
X185152380Y-62690476D01*
X185104761Y-62785714D01*
X185057142Y-62833333D01*
X184961904Y-62880952D01*
X184723809Y-62880952D01*
X184628571Y-62833333D01*
X184580952Y-62785714D01*
X184533333Y-62690476D01*
X184533333Y-62500000D01*
X184580952Y-62404761D01*
X184628571Y-62357142D01*
X184723809Y-62309523D01*
X184580952Y-63452380D02*
X184533333Y-63357142D01*
X184485714Y-63309523D01*
X184390476Y-63261904D01*
X184342857Y-63261904D01*
X184247619Y-63309523D01*
X184200000Y-63357142D01*
X184152380Y-63452380D01*
X184152380Y-63642857D01*
X184200000Y-63738095D01*
X184247619Y-63785714D01*
X184342857Y-63833333D01*
X184390476Y-63833333D01*
X184485714Y-63785714D01*
X184533333Y-63738095D01*
X184580952Y-63642857D01*
X184580952Y-63452380D01*
X184628571Y-63357142D01*
X184676190Y-63309523D01*
X184771428Y-63261904D01*
X184961904Y-63261904D01*
X185057142Y-63309523D01*
X185104761Y-63357142D01*
X185152380Y-63452380D01*
X185152380Y-63642857D01*
X185104761Y-63738095D01*
X185057142Y-63785714D01*
X184961904Y-63833333D01*
X184771428Y-63833333D01*
X184676190Y-63785714D01*
X184628571Y-63738095D01*
X184580952Y-63642857D01*
X185104761Y-64309523D02*
X185152380Y-64309523D01*
X185247619Y-64261904D01*
X185295238Y-64214285D01*
X184152380Y-64928571D02*
X184152380Y-65023809D01*
X184200000Y-65119047D01*
X184247619Y-65166666D01*
X184342857Y-65214285D01*
X184533333Y-65261904D01*
X184771428Y-65261904D01*
X184961904Y-65214285D01*
X185057142Y-65166666D01*
X185104761Y-65119047D01*
X185152380Y-65023809D01*
X185152380Y-64928571D01*
X185104761Y-64833333D01*
X185057142Y-64785714D01*
X184961904Y-64738095D01*
X184771428Y-64690476D01*
X184533333Y-64690476D01*
X184342857Y-64738095D01*
X184247619Y-64785714D01*
X184200000Y-64833333D01*
X184152380Y-64928571D01*
X185152380Y-66452380D02*
X184485714Y-66452380D01*
X184580952Y-66452380D02*
X184533333Y-66500000D01*
X184485714Y-66595238D01*
X184485714Y-66738095D01*
X184533333Y-66833333D01*
X184628571Y-66880952D01*
X185152380Y-66880952D01*
X184628571Y-66880952D02*
X184533333Y-66928571D01*
X184485714Y-67023809D01*
X184485714Y-67166666D01*
X184533333Y-67261904D01*
X184628571Y-67309523D01*
X185152380Y-67309523D01*
X185152380Y-67785714D02*
X184485714Y-67785714D01*
X184580952Y-67785714D02*
X184533333Y-67833333D01*
X184485714Y-67928571D01*
X184485714Y-68071428D01*
X184533333Y-68166666D01*
X184628571Y-68214285D01*
X185152380Y-68214285D01*
X184628571Y-68214285D02*
X184533333Y-68261904D01*
X184485714Y-68357142D01*
X184485714Y-68500000D01*
X184533333Y-68595238D01*
X184628571Y-68642857D01*
X185152380Y-68642857D01*
X186000000Y-99500000D02*
X186000000Y-31500000D01*
X187000000Y-99500000D02*
X185413579Y-99500000D01*
X187000000Y-31500000D02*
X185413579Y-31500000D01*
X186000000Y-31500000D02*
X186586421Y-32626504D01*
X186000000Y-31500000D02*
X185413579Y-32626504D01*
X186000000Y-99500000D02*
X186586421Y-98373496D01*
X186000000Y-99500000D02*
X185413579Y-98373496D01*
X174738095Y-97797380D02*
X174119047Y-97797380D01*
X174452380Y-98178333D01*
X174309523Y-98178333D01*
X174214285Y-98225952D01*
X174166666Y-98273571D01*
X174119047Y-98368809D01*
X174119047Y-98606904D01*
X174166666Y-98702142D01*
X174214285Y-98749761D01*
X174309523Y-98797380D01*
X174595238Y-98797380D01*
X174690476Y-98749761D01*
X174738095Y-98702142D01*
X173166666Y-98797380D02*
X173738095Y-98797380D01*
X173452380Y-98797380D02*
X173452380Y-97797380D01*
X173547619Y-97940238D01*
X173642857Y-98035476D01*
X173738095Y-98083095D01*
X172690476Y-98749761D02*
X172690476Y-98797380D01*
X172738095Y-98892619D01*
X172785714Y-98940238D01*
X172071428Y-97797380D02*
X171976190Y-97797380D01*
X171880952Y-97845000D01*
X171833333Y-97892619D01*
X171785714Y-97987857D01*
X171738095Y-98178333D01*
X171738095Y-98416428D01*
X171785714Y-98606904D01*
X171833333Y-98702142D01*
X171880952Y-98749761D01*
X171976190Y-98797380D01*
X172071428Y-98797380D01*
X172166666Y-98749761D01*
X172214285Y-98702142D01*
X172261904Y-98606904D01*
X172309523Y-98416428D01*
X172309523Y-98178333D01*
X172261904Y-97987857D01*
X172214285Y-97892619D01*
X172166666Y-97845000D01*
X172071428Y-97797380D01*
X170547619Y-98797380D02*
X170547619Y-98130714D01*
X170547619Y-98225952D02*
X170500000Y-98178333D01*
X170404761Y-98130714D01*
X170261904Y-98130714D01*
X170166666Y-98178333D01*
X170119047Y-98273571D01*
X170119047Y-98797380D01*
X170119047Y-98273571D02*
X170071428Y-98178333D01*
X169976190Y-98130714D01*
X169833333Y-98130714D01*
X169738095Y-98178333D01*
X169690476Y-98273571D01*
X169690476Y-98797380D01*
X169214285Y-98797380D02*
X169214285Y-98130714D01*
X169214285Y-98225952D02*
X169166666Y-98178333D01*
X169071428Y-98130714D01*
X168928571Y-98130714D01*
X168833333Y-98178333D01*
X168785714Y-98273571D01*
X168785714Y-98797380D01*
X168785714Y-98273571D02*
X168738095Y-98178333D01*
X168642857Y-98130714D01*
X168500000Y-98130714D01*
X168404761Y-98178333D01*
X168357142Y-98273571D01*
X168357142Y-98797380D01*
X156000000Y-97045000D02*
X187000000Y-97045000D01*
X156000000Y-92000000D02*
X156000000Y-97631421D01*
X187000000Y-92000000D02*
X187000000Y-97631421D01*
X187000000Y-97045000D02*
X185873496Y-97631421D01*
X187000000Y-97045000D02*
X185873496Y-96458579D01*
X156000000Y-97045000D02*
X157126504Y-97631421D01*
X156000000Y-97045000D02*
X157126504Y-96458579D01*
X152914285Y-97238095D02*
X152247619Y-97238095D01*
X153295238Y-97476190D02*
X152580952Y-97714285D01*
X152580952Y-97095238D01*
X152295238Y-96666666D02*
X152247619Y-96666666D01*
X152152380Y-96714285D01*
X152104761Y-96761904D01*
X153247619Y-96047619D02*
X153247619Y-95952380D01*
X153200000Y-95857142D01*
X153152380Y-95809523D01*
X153057142Y-95761904D01*
X152866666Y-95714285D01*
X152628571Y-95714285D01*
X152438095Y-95761904D01*
X152342857Y-95809523D01*
X152295238Y-95857142D01*
X152247619Y-95952380D01*
X152247619Y-96047619D01*
X152295238Y-96142857D01*
X152342857Y-96190476D01*
X152438095Y-96238095D01*
X152628571Y-96285714D01*
X152866666Y-96285714D01*
X153057142Y-96238095D01*
X153152380Y-96190476D01*
X153200000Y-96142857D01*
X153247619Y-96047619D01*
X152247619Y-94523809D02*
X152914285Y-94523809D01*
X152819047Y-94523809D02*
X152866666Y-94476190D01*
X152914285Y-94380952D01*
X152914285Y-94238095D01*
X152866666Y-94142857D01*
X152771428Y-94095238D01*
X152247619Y-94095238D01*
X152771428Y-94095238D02*
X152866666Y-94047619D01*
X152914285Y-93952380D01*
X152914285Y-93809523D01*
X152866666Y-93714285D01*
X152771428Y-93666666D01*
X152247619Y-93666666D01*
X152247619Y-93190476D02*
X152914285Y-93190476D01*
X152819047Y-93190476D02*
X152866666Y-93142857D01*
X152914285Y-93047619D01*
X152914285Y-92904761D01*
X152866666Y-92809523D01*
X152771428Y-92761904D01*
X152247619Y-92761904D01*
X152771428Y-92761904D02*
X152866666Y-92714285D01*
X152914285Y-92619047D01*
X152914285Y-92476190D01*
X152866666Y-92380952D01*
X152771428Y-92333333D01*
X152247619Y-92333333D01*
X154000000Y-95500000D02*
X154000000Y-99500000D01*
X156000000Y-95500000D02*
X153413579Y-95500000D01*
X156000000Y-99500000D02*
X153413579Y-99500000D01*
X154000000Y-99500000D02*
X153413579Y-98373496D01*
X154000000Y-99500000D02*
X154586421Y-98373496D01*
X154000000Y-95500000D02*
X153413579Y-96626504D01*
X154000000Y-95500000D02*
X154586421Y-96626504D01*
X114690476Y-32047619D02*
X114642857Y-32000000D01*
X114547619Y-31952380D01*
X114309523Y-31952380D01*
X114214285Y-32000000D01*
X114166666Y-32047619D01*
X114119047Y-32142857D01*
X114119047Y-32238095D01*
X114166666Y-32380952D01*
X114738095Y-32952380D01*
X114119047Y-32952380D01*
X113785714Y-31952380D02*
X113166666Y-31952380D01*
X113500000Y-32333333D01*
X113357142Y-32333333D01*
X113261904Y-32380952D01*
X113214285Y-32428571D01*
X113166666Y-32523809D01*
X113166666Y-32761904D01*
X113214285Y-32857142D01*
X113261904Y-32904761D01*
X113357142Y-32952380D01*
X113642857Y-32952380D01*
X113738095Y-32904761D01*
X113785714Y-32857142D01*
X112690476Y-32904761D02*
X112690476Y-32952380D01*
X112738095Y-33047619D01*
X112785714Y-33095238D01*
X112071428Y-31952380D02*
X111976190Y-31952380D01*
X111880952Y-32000000D01*
X111833333Y-32047619D01*
X111785714Y-32142857D01*
X111738095Y-32333333D01*
X111738095Y-32571428D01*
X111785714Y-32761904D01*
X111833333Y-32857142D01*
X111880952Y-32904761D01*
X111976190Y-32952380D01*
X112071428Y-32952380D01*
X112166666Y-32904761D01*
X112214285Y-32857142D01*
X112261904Y-32761904D01*
X112309523Y-32571428D01*
X112309523Y-32333333D01*
X112261904Y-32142857D01*
X112214285Y-32047619D01*
X112166666Y-32000000D01*
X112071428Y-31952380D01*
X110547619Y-32952380D02*
X110547619Y-32285714D01*
X110547619Y-32380952D02*
X110500000Y-32333333D01*
X110404761Y-32285714D01*
X110261904Y-32285714D01*
X110166666Y-32333333D01*
X110119047Y-32428571D01*
X110119047Y-32952380D01*
X110119047Y-32428571D02*
X110071428Y-32333333D01*
X109976190Y-32285714D01*
X109833333Y-32285714D01*
X109738095Y-32333333D01*
X109690476Y-32428571D01*
X109690476Y-32952380D01*
X109214285Y-32952380D02*
X109214285Y-32285714D01*
X109214285Y-32380952D02*
X109166666Y-32333333D01*
X109071428Y-32285714D01*
X108928571Y-32285714D01*
X108833333Y-32333333D01*
X108785714Y-32428571D01*
X108785714Y-32952380D01*
X108785714Y-32428571D02*
X108738095Y-32333333D01*
X108642857Y-32285714D01*
X108499999Y-32285714D01*
X108404761Y-32333333D01*
X108357142Y-32428571D01*
X108357142Y-32952380D01*
X123000000Y-33535000D02*
X100000000Y-33535000D01*
X123000000Y-35500000D02*
X123000000Y-32948579D01*
X100000000Y-35500000D02*
X100000000Y-32948579D01*
X100000000Y-33535000D02*
X101126504Y-32948579D01*
X100000000Y-33535000D02*
X101126504Y-34121421D01*
X123000000Y-33535000D02*
X121873496Y-32948579D01*
X123000000Y-33535000D02*
X121873496Y-34121421D01*
X127085714Y-32761904D02*
X127752380Y-32761904D01*
X126704761Y-32523809D02*
X127419047Y-32285714D01*
X127419047Y-32904761D01*
X127704761Y-33333333D02*
X127752380Y-33333333D01*
X127847619Y-33285714D01*
X127895238Y-33238095D01*
X126752380Y-33952380D02*
X126752380Y-34047619D01*
X126800000Y-34142857D01*
X126847619Y-34190476D01*
X126942857Y-34238095D01*
X127133333Y-34285714D01*
X127371428Y-34285714D01*
X127561904Y-34238095D01*
X127657142Y-34190476D01*
X127704761Y-34142857D01*
X127752380Y-34047619D01*
X127752380Y-33952380D01*
X127704761Y-33857142D01*
X127657142Y-33809523D01*
X127561904Y-33761904D01*
X127371428Y-33714285D01*
X127133333Y-33714285D01*
X126942857Y-33761904D01*
X126847619Y-33809523D01*
X126800000Y-33857142D01*
X126752380Y-33952380D01*
X127752380Y-35476190D02*
X127085714Y-35476190D01*
X127180952Y-35476190D02*
X127133333Y-35523809D01*
X127085714Y-35619047D01*
X127085714Y-35761904D01*
X127133333Y-35857142D01*
X127228571Y-35904761D01*
X127752380Y-35904761D01*
X127228571Y-35904761D02*
X127133333Y-35952380D01*
X127085714Y-36047619D01*
X127085714Y-36190476D01*
X127133333Y-36285714D01*
X127228571Y-36333333D01*
X127752380Y-36333333D01*
X127752380Y-36809523D02*
X127085714Y-36809523D01*
X127180952Y-36809523D02*
X127133333Y-36857142D01*
X127085714Y-36952380D01*
X127085714Y-37095238D01*
X127133333Y-37190476D01*
X127228571Y-37238095D01*
X127752380Y-37238095D01*
X127228571Y-37238095D02*
X127133333Y-37285714D01*
X127085714Y-37380952D01*
X127085714Y-37523809D01*
X127133333Y-37619047D01*
X127228571Y-37666666D01*
X127752380Y-37666666D01*
X126000000Y-35500000D02*
X126000000Y-31500000D01*
X123000000Y-35500000D02*
X126586421Y-35500000D01*
X123000000Y-31500000D02*
X126586421Y-31500000D01*
X126000000Y-31500000D02*
X126586421Y-32626504D01*
X126000000Y-31500000D02*
X125413579Y-32626504D01*
X126000000Y-35500000D02*
X126586421Y-34373496D01*
X126000000Y-35500000D02*
X125413579Y-34373496D01*
D11*
X117415761Y-66678547D02*
X116463380Y-66011880D01*
X117415761Y-65535690D02*
X115415761Y-65535690D01*
X115415761Y-66297595D01*
X115511000Y-66488071D01*
X115606238Y-66583309D01*
X115796714Y-66678547D01*
X116082428Y-66678547D01*
X116272904Y-66583309D01*
X116368142Y-66488071D01*
X116463380Y-66297595D01*
X116463380Y-65535690D01*
X116368142Y-67535690D02*
X116368142Y-68202357D01*
X117415761Y-68488071D02*
X117415761Y-67535690D01*
X115415761Y-67535690D01*
X115415761Y-68488071D01*
X117415761Y-69345214D02*
X115415761Y-69345214D01*
X116844333Y-70011880D01*
X115415761Y-70678547D01*
X117415761Y-70678547D01*
X116653857Y-71630928D02*
X116653857Y-73154738D01*
X117225285Y-75249976D02*
X117320523Y-75154738D01*
X117415761Y-74869023D01*
X117415761Y-74678547D01*
X117320523Y-74392833D01*
X117130047Y-74202357D01*
X116939571Y-74107119D01*
X116558619Y-74011880D01*
X116272904Y-74011880D01*
X115891952Y-74107119D01*
X115701476Y-74202357D01*
X115511000Y-74392833D01*
X115415761Y-74678547D01*
X115415761Y-74869023D01*
X115511000Y-75154738D01*
X115606238Y-75249976D01*
X115415761Y-77345214D02*
X117415761Y-78011880D01*
X115415761Y-78678547D01*
X117415761Y-80392833D02*
X117415761Y-79249976D01*
X117415761Y-79821404D02*
X115415761Y-79821404D01*
X115701476Y-79630928D01*
X115891952Y-79440452D01*
X115987190Y-79249976D01*
X117225285Y-81249976D02*
X117320523Y-81345214D01*
X117415761Y-81249976D01*
X117320523Y-81154738D01*
X117225285Y-81249976D01*
X117415761Y-81249976D01*
X115415761Y-82583309D02*
X115415761Y-82773785D01*
X115511000Y-82964261D01*
X115606238Y-83059500D01*
X115796714Y-83154738D01*
X116177666Y-83249976D01*
X116653857Y-83249976D01*
X117034809Y-83154738D01*
X117225285Y-83059500D01*
X117320523Y-82964261D01*
X117415761Y-82773785D01*
X117415761Y-82583309D01*
X117320523Y-82392833D01*
X117225285Y-82297595D01*
X117034809Y-82202357D01*
X116653857Y-82107119D01*
X116177666Y-82107119D01*
X115796714Y-82202357D01*
X115606238Y-82297595D01*
X115511000Y-82392833D01*
X115415761Y-82583309D01*
X120665761Y-66583309D02*
X120665761Y-65440452D01*
X120665761Y-66011880D02*
X118665761Y-66011880D01*
X118951476Y-65821404D01*
X119141952Y-65630928D01*
X119237190Y-65440452D01*
X120665761Y-67535690D02*
X120665761Y-67916642D01*
X120570523Y-68107119D01*
X120475285Y-68202357D01*
X120189571Y-68392833D01*
X119808619Y-68488071D01*
X119046714Y-68488071D01*
X118856238Y-68392833D01*
X118761000Y-68297595D01*
X118665761Y-68107119D01*
X118665761Y-67726166D01*
X118761000Y-67535690D01*
X118856238Y-67440452D01*
X119046714Y-67345214D01*
X119522904Y-67345214D01*
X119713380Y-67440452D01*
X119808619Y-67535690D01*
X119903857Y-67726166D01*
X119903857Y-68107119D01*
X119808619Y-68297595D01*
X119713380Y-68392833D01*
X119522904Y-68488071D01*
X120475285Y-69345214D02*
X120570523Y-69440452D01*
X120665761Y-69345214D01*
X120570523Y-69249976D01*
X120475285Y-69345214D01*
X120665761Y-69345214D01*
X118665761Y-70107119D02*
X118665761Y-71440452D01*
X120665761Y-70583309D01*
X120475285Y-72202357D02*
X120570523Y-72297595D01*
X120665761Y-72202357D01*
X120570523Y-72107119D01*
X120475285Y-72202357D01*
X120665761Y-72202357D01*
X118856238Y-73059500D02*
X118761000Y-73154738D01*
X118665761Y-73345214D01*
X118665761Y-73821404D01*
X118761000Y-74011880D01*
X118856238Y-74107119D01*
X119046714Y-74202357D01*
X119237190Y-74202357D01*
X119522904Y-74107119D01*
X120665761Y-72964261D01*
X120665761Y-74202357D01*
X118665761Y-75440452D02*
X118665761Y-75630928D01*
X118761000Y-75821404D01*
X118856238Y-75916642D01*
X119046714Y-76011880D01*
X119427666Y-76107119D01*
X119903857Y-76107119D01*
X120284809Y-76011880D01*
X120475285Y-75916642D01*
X120570523Y-75821404D01*
X120665761Y-75630928D01*
X120665761Y-75440452D01*
X120570523Y-75249976D01*
X120475285Y-75154738D01*
X120284809Y-75059500D01*
X119903857Y-74964261D01*
X119427666Y-74964261D01*
X119046714Y-75059500D01*
X118856238Y-75154738D01*
X118761000Y-75249976D01*
X118665761Y-75440452D01*
X118856238Y-76869023D02*
X118761000Y-76964261D01*
X118665761Y-77154738D01*
X118665761Y-77630928D01*
X118761000Y-77821404D01*
X118856238Y-77916642D01*
X119046714Y-78011880D01*
X119237190Y-78011880D01*
X119522904Y-77916642D01*
X120665761Y-76773785D01*
X120665761Y-78011880D01*
X118665761Y-79249976D02*
X118665761Y-79440452D01*
X118761000Y-79630928D01*
X118856238Y-79726166D01*
X119046714Y-79821404D01*
X119427666Y-79916642D01*
X119903857Y-79916642D01*
X120284809Y-79821404D01*
X120475285Y-79726166D01*
X120570523Y-79630928D01*
X120665761Y-79440452D01*
X120665761Y-79249976D01*
X120570523Y-79059500D01*
X120475285Y-78964261D01*
X120284809Y-78869023D01*
X119903857Y-78773785D01*
X119427666Y-78773785D01*
X119046714Y-78869023D01*
X118856238Y-78964261D01*
X118761000Y-79059500D01*
X118665761Y-79249976D01*
X124677666Y-66107119D02*
X124582428Y-66011880D01*
X124296714Y-65821404D01*
X124106238Y-65726166D01*
X123820523Y-65630928D01*
X123344333Y-65535690D01*
X122963380Y-65535690D01*
X122487190Y-65630928D01*
X122201476Y-65726166D01*
X122011000Y-65821404D01*
X121725285Y-66011880D01*
X121630047Y-66107119D01*
X123820523Y-67726166D02*
X123915761Y-67535690D01*
X123915761Y-67154738D01*
X123820523Y-66964261D01*
X123725285Y-66869023D01*
X123534809Y-66773785D01*
X122963380Y-66773785D01*
X122772904Y-66869023D01*
X122677666Y-66964261D01*
X122582428Y-67154738D01*
X122582428Y-67535690D01*
X122677666Y-67726166D01*
X124677666Y-68392833D02*
X124582428Y-68488071D01*
X124296714Y-68678547D01*
X124106238Y-68773785D01*
X123820523Y-68869023D01*
X123344333Y-68964261D01*
X122963380Y-68964261D01*
X122487190Y-68869023D01*
X122201476Y-68773785D01*
X122011000Y-68678547D01*
X121725285Y-68488071D01*
X121630047Y-68392833D01*
X123915761Y-72583309D02*
X122963380Y-71916642D01*
X123915761Y-71440452D02*
X121915761Y-71440452D01*
X121915761Y-72202357D01*
X122011000Y-72392833D01*
X122106238Y-72488071D01*
X122296714Y-72583309D01*
X122582428Y-72583309D01*
X122772904Y-72488071D01*
X122868142Y-72392833D01*
X122963380Y-72202357D01*
X122963380Y-71440452D01*
X123915761Y-74297595D02*
X122868142Y-74297595D01*
X122677666Y-74202357D01*
X122582428Y-74011880D01*
X122582428Y-73630928D01*
X122677666Y-73440452D01*
X123820523Y-74297595D02*
X123915761Y-74107119D01*
X123915761Y-73630928D01*
X123820523Y-73440452D01*
X123630047Y-73345214D01*
X123439571Y-73345214D01*
X123249095Y-73440452D01*
X123153857Y-73630928D01*
X123153857Y-74107119D01*
X123058619Y-74297595D01*
X123915761Y-75249976D02*
X122582428Y-75249976D01*
X121915761Y-75249976D02*
X122011000Y-75154738D01*
X122106238Y-75249976D01*
X122011000Y-75345214D01*
X121915761Y-75249976D01*
X122106238Y-75249976D01*
X122582428Y-76202357D02*
X123915761Y-76202357D01*
X122772904Y-76202357D02*
X122677666Y-76297595D01*
X122582428Y-76488071D01*
X122582428Y-76773785D01*
X122677666Y-76964261D01*
X122868142Y-77059500D01*
X123915761Y-77059500D01*
X123820523Y-78773785D02*
X123915761Y-78583309D01*
X123915761Y-78202357D01*
X123820523Y-78011880D01*
X123630047Y-77916642D01*
X122868142Y-77916642D01*
X122677666Y-78011880D01*
X122582428Y-78202357D01*
X122582428Y-78583309D01*
X122677666Y-78773785D01*
X122868142Y-78869023D01*
X123058619Y-78869023D01*
X123249095Y-77916642D01*
X123915761Y-79726166D02*
X122582428Y-79726166D01*
X122963380Y-79726166D02*
X122772904Y-79821404D01*
X122677666Y-79916642D01*
X122582428Y-80107119D01*
X122582428Y-80297595D01*
X123915761Y-82488071D02*
X121915761Y-82488071D01*
X121915761Y-83249976D01*
X122011000Y-83440452D01*
X122106238Y-83535690D01*
X122296714Y-83630928D01*
X122582428Y-83630928D01*
X122772904Y-83535690D01*
X122868142Y-83440452D01*
X122963380Y-83249976D01*
X122963380Y-82488071D01*
X123820523Y-85249976D02*
X123915761Y-85059500D01*
X123915761Y-84678547D01*
X123820523Y-84488071D01*
X123630047Y-84392833D01*
X122868142Y-84392833D01*
X122677666Y-84488071D01*
X122582428Y-84678547D01*
X122582428Y-85059500D01*
X122677666Y-85249976D01*
X122868142Y-85345214D01*
X123058619Y-85345214D01*
X123249095Y-84392833D01*
X122582428Y-85916642D02*
X122582428Y-86678547D01*
X121915761Y-86202357D02*
X123630047Y-86202357D01*
X123820523Y-86297595D01*
X123915761Y-86488071D01*
X123915761Y-86678547D01*
X122582428Y-87154738D02*
X122582428Y-88202357D01*
X123915761Y-87154738D01*
X123915761Y-88202357D01*
X123915761Y-89249976D02*
X123820523Y-89059500D01*
X123725285Y-88964261D01*
X123534809Y-88869023D01*
X122963380Y-88869023D01*
X122772904Y-88964261D01*
X122677666Y-89059500D01*
X122582428Y-89249976D01*
X122582428Y-89535690D01*
X122677666Y-89726166D01*
X122772904Y-89821404D01*
X122963380Y-89916642D01*
X123534809Y-89916642D01*
X123725285Y-89821404D01*
X123820523Y-89726166D01*
X123915761Y-89535690D01*
X123915761Y-89249976D01*
X123915761Y-91059500D02*
X123820523Y-90869023D01*
X123630047Y-90773785D01*
X121915761Y-90773785D01*
X123915761Y-92678547D02*
X121915761Y-92678547D01*
X123820523Y-92678547D02*
X123915761Y-92488071D01*
X123915761Y-92107119D01*
X123820523Y-91916642D01*
X123725285Y-91821404D01*
X123534809Y-91726166D01*
X122963380Y-91726166D01*
X122772904Y-91821404D01*
X122677666Y-91916642D01*
X122582428Y-92107119D01*
X122582428Y-92488071D01*
X122677666Y-92678547D01*
X122582428Y-93345214D02*
X122582428Y-94107119D01*
X121915761Y-93630928D02*
X123630047Y-93630928D01*
X123820523Y-93726166D01*
X123915761Y-93916642D01*
X123915761Y-94107119D01*
D12*
X137720000Y-54233578D02*
X137720000Y-53716422D01*
X139140000Y-54233578D02*
X139140000Y-53716422D01*
D13*
X115172000Y-39878000D02*
X118172000Y-37378000D01*
X115172000Y-38878000D02*
X115172000Y-40878000D01*
X112172000Y-38878000D02*
X112172000Y-40878000D01*
X115172000Y-38878000D02*
G75*
G03X112172000Y-38878000I-1500000J0D01*
G01*
X112172000Y-39878000D02*
X118172000Y-39878000D01*
X112172000Y-40878000D02*
G75*
G03X115172000Y-40878000I1500000J0D01*
G01*
D12*
X168747221Y-36320000D02*
X169072779Y-36320000D01*
X168747221Y-37340000D02*
X169072779Y-37340000D01*
X132242779Y-57660000D02*
X131917221Y-57660000D01*
X132242779Y-56640000D02*
X131917221Y-56640000D01*
X135380000Y-37780279D02*
X135380000Y-37454721D01*
X136400000Y-37780279D02*
X136400000Y-37454721D01*
X170342779Y-53850000D02*
X170017221Y-53850000D01*
X170342779Y-52830000D02*
X170017221Y-52830000D01*
D10*
X140437142Y-53808333D02*
X140484761Y-53760714D01*
X140532380Y-53617857D01*
X140532380Y-53522619D01*
X140484761Y-53379761D01*
X140389523Y-53284523D01*
X140294285Y-53236904D01*
X140103809Y-53189285D01*
X139960952Y-53189285D01*
X139770476Y-53236904D01*
X139675238Y-53284523D01*
X139580000Y-53379761D01*
X139532380Y-53522619D01*
X139532380Y-53617857D01*
X139580000Y-53760714D01*
X139627619Y-53808333D01*
X139532380Y-54141666D02*
X139532380Y-54808333D01*
X140532380Y-54379761D01*
X169076666Y-38617142D02*
X169124285Y-38664761D01*
X169267142Y-38712380D01*
X169362380Y-38712380D01*
X169505238Y-38664761D01*
X169600476Y-38569523D01*
X169648095Y-38474285D01*
X169695714Y-38283809D01*
X169695714Y-38140952D01*
X169648095Y-37950476D01*
X169600476Y-37855238D01*
X169505238Y-37760000D01*
X169362380Y-37712380D01*
X169267142Y-37712380D01*
X169124285Y-37760000D01*
X169076666Y-37807619D01*
X168219523Y-38045714D02*
X168219523Y-38712380D01*
X168457619Y-37664761D02*
X168695714Y-38379047D01*
X168076666Y-38379047D01*
X132246666Y-56077142D02*
X132294285Y-56124761D01*
X132437142Y-56172380D01*
X132532380Y-56172380D01*
X132675238Y-56124761D01*
X132770476Y-56029523D01*
X132818095Y-55934285D01*
X132865714Y-55743809D01*
X132865714Y-55600952D01*
X132818095Y-55410476D01*
X132770476Y-55315238D01*
X132675238Y-55220000D01*
X132532380Y-55172380D01*
X132437142Y-55172380D01*
X132294285Y-55220000D01*
X132246666Y-55267619D01*
X131341904Y-55172380D02*
X131818095Y-55172380D01*
X131865714Y-55648571D01*
X131818095Y-55600952D01*
X131722857Y-55553333D01*
X131484761Y-55553333D01*
X131389523Y-55600952D01*
X131341904Y-55648571D01*
X131294285Y-55743809D01*
X131294285Y-55981904D01*
X131341904Y-56077142D01*
X131389523Y-56124761D01*
X131484761Y-56172380D01*
X131722857Y-56172380D01*
X131818095Y-56124761D01*
X131865714Y-56077142D01*
X138596666Y-37822142D02*
X138644285Y-37869761D01*
X138787142Y-37917380D01*
X138882380Y-37917380D01*
X139025238Y-37869761D01*
X139120476Y-37774523D01*
X139168095Y-37679285D01*
X139215714Y-37488809D01*
X139215714Y-37345952D01*
X139168095Y-37155476D01*
X139120476Y-37060238D01*
X139025238Y-36965000D01*
X138882380Y-36917380D01*
X138787142Y-36917380D01*
X138644285Y-36965000D01*
X138596666Y-37012619D01*
X138263333Y-36917380D02*
X137644285Y-36917380D01*
X137977619Y-37298333D01*
X137834761Y-37298333D01*
X137739523Y-37345952D01*
X137691904Y-37393571D01*
X137644285Y-37488809D01*
X137644285Y-37726904D01*
X137691904Y-37822142D01*
X137739523Y-37869761D01*
X137834761Y-37917380D01*
X138120476Y-37917380D01*
X138215714Y-37869761D01*
X138263333Y-37822142D01*
X170346666Y-52267142D02*
X170394285Y-52314761D01*
X170537142Y-52362380D01*
X170632380Y-52362380D01*
X170775238Y-52314761D01*
X170870476Y-52219523D01*
X170918095Y-52124285D01*
X170965714Y-51933809D01*
X170965714Y-51790952D01*
X170918095Y-51600476D01*
X170870476Y-51505238D01*
X170775238Y-51410000D01*
X170632380Y-51362380D01*
X170537142Y-51362380D01*
X170394285Y-51410000D01*
X170346666Y-51457619D01*
X169394285Y-52362380D02*
X169965714Y-52362380D01*
X169680000Y-52362380D02*
X169680000Y-51362380D01*
X169775238Y-51505238D01*
X169870476Y-51600476D01*
X169965714Y-51648095D01*
M02*
