%TF.GenerationSoftware,KiCad,Pcbnew,(5.1.5)-3*%
%TF.CreationDate,2020-07-19T14:01:50+02:00*%
%TF.ProjectId,REM-C,52454d2d-432e-46b6-9963-61645f706362,rev?*%
%TF.SameCoordinates,Original*%
%TF.FileFunction,Soldermask,Bot*%
%TF.FilePolarity,Negative*%
%FSLAX46Y46*%
G04 Gerber Fmt 4.6, Leading zero omitted, Abs format (unit mm)*
G04 Created by KiCad (PCBNEW (5.1.5)-3) date 2020-07-19 14:01:50*
%MOMM*%
%LPD*%
G04 APERTURE LIST*
%ADD10C,1.524000*%
%ADD11O,1.524000X2.268000*%
%ADD12O,1.700000X1.700000*%
%ADD13R,1.700000X1.700000*%
%ADD14C,0.100000*%
%ADD15O,1.600000X1.600000*%
%ADD16C,1.600000*%
%ADD17O,2.400000X2.400000*%
%ADD18C,2.400000*%
%ADD19O,2.000000X1.905000*%
%ADD20R,2.000000X1.905000*%
%ADD21C,2.200000*%
%ADD22O,3.784600X1.993900*%
%ADD23R,1.600000X1.600000*%
%ADD24C,2.000000*%
G04 APERTURE END LIST*
D10*
X179070000Y-83185000D03*
X176530000Y-83185000D03*
X173990000Y-83185000D03*
X171450000Y-83185000D03*
X168910000Y-83185000D03*
X166370000Y-83185000D03*
X166370000Y-62865000D03*
X168910000Y-62865000D03*
X171450000Y-62865000D03*
X173990000Y-62865000D03*
X176530000Y-62865000D03*
X179070000Y-62865000D03*
D11*
X184150000Y-34290000D03*
X181610000Y-34290000D03*
X179070000Y-34290000D03*
X176530000Y-34290000D03*
X173990000Y-34290000D03*
X171450000Y-34290000D03*
X168910000Y-34290000D03*
X166370000Y-34290000D03*
X163830000Y-34290000D03*
X161290000Y-34290000D03*
X158750000Y-34290000D03*
X156210000Y-34290000D03*
X153670000Y-34290000D03*
X151130000Y-34290000D03*
X148590000Y-34290000D03*
X146050000Y-34290000D03*
X143510000Y-34290000D03*
X140970000Y-34290000D03*
X138430000Y-34290000D03*
X135890000Y-34290000D03*
X173990000Y-57150000D03*
X171450000Y-57150000D03*
X168910000Y-57150000D03*
X166370000Y-57150000D03*
X163830000Y-57150000D03*
X161290000Y-57150000D03*
X158750000Y-57150000D03*
X156210000Y-57150000D03*
X153670000Y-57150000D03*
X151130000Y-57150000D03*
X148590000Y-57150000D03*
X146050000Y-57150000D03*
X143510000Y-57150000D03*
X140970000Y-57150000D03*
X138430000Y-57150000D03*
X135890000Y-57150000D03*
D12*
X124460000Y-52705000D03*
X121920000Y-52705000D03*
X124460000Y-50165000D03*
X121920000Y-50165000D03*
X124460000Y-47625000D03*
X121920000Y-47625000D03*
X124460000Y-45085000D03*
X121920000Y-45085000D03*
X124460000Y-42545000D03*
X121920000Y-42545000D03*
X124460000Y-40005000D03*
D13*
X121920000Y-40005000D03*
D14*
G36*
X138910142Y-52551174D02*
G01*
X138933803Y-52554684D01*
X138957007Y-52560496D01*
X138979529Y-52568554D01*
X139001153Y-52578782D01*
X139021670Y-52591079D01*
X139040883Y-52605329D01*
X139058607Y-52621393D01*
X139074671Y-52639117D01*
X139088921Y-52658330D01*
X139101218Y-52678847D01*
X139111446Y-52700471D01*
X139119504Y-52722993D01*
X139125316Y-52746197D01*
X139128826Y-52769858D01*
X139130000Y-52793750D01*
X139130000Y-53281250D01*
X139128826Y-53305142D01*
X139125316Y-53328803D01*
X139119504Y-53352007D01*
X139111446Y-53374529D01*
X139101218Y-53396153D01*
X139088921Y-53416670D01*
X139074671Y-53435883D01*
X139058607Y-53453607D01*
X139040883Y-53469671D01*
X139021670Y-53483921D01*
X139001153Y-53496218D01*
X138979529Y-53506446D01*
X138957007Y-53514504D01*
X138933803Y-53520316D01*
X138910142Y-53523826D01*
X138886250Y-53525000D01*
X137973750Y-53525000D01*
X137949858Y-53523826D01*
X137926197Y-53520316D01*
X137902993Y-53514504D01*
X137880471Y-53506446D01*
X137858847Y-53496218D01*
X137838330Y-53483921D01*
X137819117Y-53469671D01*
X137801393Y-53453607D01*
X137785329Y-53435883D01*
X137771079Y-53416670D01*
X137758782Y-53396153D01*
X137748554Y-53374529D01*
X137740496Y-53352007D01*
X137734684Y-53328803D01*
X137731174Y-53305142D01*
X137730000Y-53281250D01*
X137730000Y-52793750D01*
X137731174Y-52769858D01*
X137734684Y-52746197D01*
X137740496Y-52722993D01*
X137748554Y-52700471D01*
X137758782Y-52678847D01*
X137771079Y-52658330D01*
X137785329Y-52639117D01*
X137801393Y-52621393D01*
X137819117Y-52605329D01*
X137838330Y-52591079D01*
X137858847Y-52578782D01*
X137880471Y-52568554D01*
X137902993Y-52560496D01*
X137926197Y-52554684D01*
X137949858Y-52551174D01*
X137973750Y-52550000D01*
X138886250Y-52550000D01*
X138910142Y-52551174D01*
G37*
G36*
X138910142Y-54426174D02*
G01*
X138933803Y-54429684D01*
X138957007Y-54435496D01*
X138979529Y-54443554D01*
X139001153Y-54453782D01*
X139021670Y-54466079D01*
X139040883Y-54480329D01*
X139058607Y-54496393D01*
X139074671Y-54514117D01*
X139088921Y-54533330D01*
X139101218Y-54553847D01*
X139111446Y-54575471D01*
X139119504Y-54597993D01*
X139125316Y-54621197D01*
X139128826Y-54644858D01*
X139130000Y-54668750D01*
X139130000Y-55156250D01*
X139128826Y-55180142D01*
X139125316Y-55203803D01*
X139119504Y-55227007D01*
X139111446Y-55249529D01*
X139101218Y-55271153D01*
X139088921Y-55291670D01*
X139074671Y-55310883D01*
X139058607Y-55328607D01*
X139040883Y-55344671D01*
X139021670Y-55358921D01*
X139001153Y-55371218D01*
X138979529Y-55381446D01*
X138957007Y-55389504D01*
X138933803Y-55395316D01*
X138910142Y-55398826D01*
X138886250Y-55400000D01*
X137973750Y-55400000D01*
X137949858Y-55398826D01*
X137926197Y-55395316D01*
X137902993Y-55389504D01*
X137880471Y-55381446D01*
X137858847Y-55371218D01*
X137838330Y-55358921D01*
X137819117Y-55344671D01*
X137801393Y-55328607D01*
X137785329Y-55310883D01*
X137771079Y-55291670D01*
X137758782Y-55271153D01*
X137748554Y-55249529D01*
X137740496Y-55227007D01*
X137734684Y-55203803D01*
X137731174Y-55180142D01*
X137730000Y-55156250D01*
X137730000Y-54668750D01*
X137731174Y-54644858D01*
X137734684Y-54621197D01*
X137740496Y-54597993D01*
X137748554Y-54575471D01*
X137758782Y-54553847D01*
X137771079Y-54533330D01*
X137785329Y-54514117D01*
X137801393Y-54496393D01*
X137819117Y-54480329D01*
X137838330Y-54466079D01*
X137858847Y-54453782D01*
X137880471Y-54443554D01*
X137902993Y-54435496D01*
X137926197Y-54429684D01*
X137949858Y-54426174D01*
X137973750Y-54425000D01*
X138886250Y-54425000D01*
X138910142Y-54426174D01*
G37*
D15*
X149860000Y-97790000D03*
D16*
X149860000Y-87630000D03*
D15*
X154305000Y-88265000D03*
D16*
X154305000Y-78105000D03*
D15*
X149860000Y-76835000D03*
D16*
X149860000Y-66675000D03*
D17*
X112014000Y-80010000D03*
D18*
X127254000Y-80010000D03*
D19*
X154940000Y-74295000D03*
X154940000Y-71755000D03*
D20*
X154940000Y-69215000D03*
D12*
X172720000Y-91440000D03*
X172720000Y-93980000D03*
X170180000Y-91440000D03*
X170180000Y-93980000D03*
X167640000Y-91440000D03*
X167640000Y-93980000D03*
X165100000Y-91440000D03*
X165100000Y-93980000D03*
X162560000Y-91440000D03*
D13*
X162560000Y-93980000D03*
D21*
X156000000Y-95500000D03*
X123000000Y-35500000D03*
D22*
X182245000Y-96480000D03*
X182245000Y-91480000D03*
D17*
X112014000Y-91440000D03*
D18*
X127254000Y-91440000D03*
D22*
X105410000Y-36870000D03*
X105410000Y-41870000D03*
D14*
G36*
X169937691Y-36356053D02*
G01*
X169958926Y-36359203D01*
X169979750Y-36364419D01*
X169999962Y-36371651D01*
X170019368Y-36380830D01*
X170037781Y-36391866D01*
X170055024Y-36404654D01*
X170070930Y-36419070D01*
X170085346Y-36434976D01*
X170098134Y-36452219D01*
X170109170Y-36470632D01*
X170118349Y-36490038D01*
X170125581Y-36510250D01*
X170130797Y-36531074D01*
X170133947Y-36552309D01*
X170135000Y-36573750D01*
X170135000Y-37086250D01*
X170133947Y-37107691D01*
X170130797Y-37128926D01*
X170125581Y-37149750D01*
X170118349Y-37169962D01*
X170109170Y-37189368D01*
X170098134Y-37207781D01*
X170085346Y-37225024D01*
X170070930Y-37240930D01*
X170055024Y-37255346D01*
X170037781Y-37268134D01*
X170019368Y-37279170D01*
X169999962Y-37288349D01*
X169979750Y-37295581D01*
X169958926Y-37300797D01*
X169937691Y-37303947D01*
X169916250Y-37305000D01*
X169478750Y-37305000D01*
X169457309Y-37303947D01*
X169436074Y-37300797D01*
X169415250Y-37295581D01*
X169395038Y-37288349D01*
X169375632Y-37279170D01*
X169357219Y-37268134D01*
X169339976Y-37255346D01*
X169324070Y-37240930D01*
X169309654Y-37225024D01*
X169296866Y-37207781D01*
X169285830Y-37189368D01*
X169276651Y-37169962D01*
X169269419Y-37149750D01*
X169264203Y-37128926D01*
X169261053Y-37107691D01*
X169260000Y-37086250D01*
X169260000Y-36573750D01*
X169261053Y-36552309D01*
X169264203Y-36531074D01*
X169269419Y-36510250D01*
X169276651Y-36490038D01*
X169285830Y-36470632D01*
X169296866Y-36452219D01*
X169309654Y-36434976D01*
X169324070Y-36419070D01*
X169339976Y-36404654D01*
X169357219Y-36391866D01*
X169375632Y-36380830D01*
X169395038Y-36371651D01*
X169415250Y-36364419D01*
X169436074Y-36359203D01*
X169457309Y-36356053D01*
X169478750Y-36355000D01*
X169916250Y-36355000D01*
X169937691Y-36356053D01*
G37*
G36*
X168362691Y-36356053D02*
G01*
X168383926Y-36359203D01*
X168404750Y-36364419D01*
X168424962Y-36371651D01*
X168444368Y-36380830D01*
X168462781Y-36391866D01*
X168480024Y-36404654D01*
X168495930Y-36419070D01*
X168510346Y-36434976D01*
X168523134Y-36452219D01*
X168534170Y-36470632D01*
X168543349Y-36490038D01*
X168550581Y-36510250D01*
X168555797Y-36531074D01*
X168558947Y-36552309D01*
X168560000Y-36573750D01*
X168560000Y-37086250D01*
X168558947Y-37107691D01*
X168555797Y-37128926D01*
X168550581Y-37149750D01*
X168543349Y-37169962D01*
X168534170Y-37189368D01*
X168523134Y-37207781D01*
X168510346Y-37225024D01*
X168495930Y-37240930D01*
X168480024Y-37255346D01*
X168462781Y-37268134D01*
X168444368Y-37279170D01*
X168424962Y-37288349D01*
X168404750Y-37295581D01*
X168383926Y-37300797D01*
X168362691Y-37303947D01*
X168341250Y-37305000D01*
X167903750Y-37305000D01*
X167882309Y-37303947D01*
X167861074Y-37300797D01*
X167840250Y-37295581D01*
X167820038Y-37288349D01*
X167800632Y-37279170D01*
X167782219Y-37268134D01*
X167764976Y-37255346D01*
X167749070Y-37240930D01*
X167734654Y-37225024D01*
X167721866Y-37207781D01*
X167710830Y-37189368D01*
X167701651Y-37169962D01*
X167694419Y-37149750D01*
X167689203Y-37128926D01*
X167686053Y-37107691D01*
X167685000Y-37086250D01*
X167685000Y-36573750D01*
X167686053Y-36552309D01*
X167689203Y-36531074D01*
X167694419Y-36510250D01*
X167701651Y-36490038D01*
X167710830Y-36470632D01*
X167721866Y-36452219D01*
X167734654Y-36434976D01*
X167749070Y-36419070D01*
X167764976Y-36404654D01*
X167782219Y-36391866D01*
X167800632Y-36380830D01*
X167820038Y-36371651D01*
X167840250Y-36364419D01*
X167861074Y-36359203D01*
X167882309Y-36356053D01*
X167903750Y-36355000D01*
X168341250Y-36355000D01*
X168362691Y-36356053D01*
G37*
G36*
X131532691Y-56676053D02*
G01*
X131553926Y-56679203D01*
X131574750Y-56684419D01*
X131594962Y-56691651D01*
X131614368Y-56700830D01*
X131632781Y-56711866D01*
X131650024Y-56724654D01*
X131665930Y-56739070D01*
X131680346Y-56754976D01*
X131693134Y-56772219D01*
X131704170Y-56790632D01*
X131713349Y-56810038D01*
X131720581Y-56830250D01*
X131725797Y-56851074D01*
X131728947Y-56872309D01*
X131730000Y-56893750D01*
X131730000Y-57406250D01*
X131728947Y-57427691D01*
X131725797Y-57448926D01*
X131720581Y-57469750D01*
X131713349Y-57489962D01*
X131704170Y-57509368D01*
X131693134Y-57527781D01*
X131680346Y-57545024D01*
X131665930Y-57560930D01*
X131650024Y-57575346D01*
X131632781Y-57588134D01*
X131614368Y-57599170D01*
X131594962Y-57608349D01*
X131574750Y-57615581D01*
X131553926Y-57620797D01*
X131532691Y-57623947D01*
X131511250Y-57625000D01*
X131073750Y-57625000D01*
X131052309Y-57623947D01*
X131031074Y-57620797D01*
X131010250Y-57615581D01*
X130990038Y-57608349D01*
X130970632Y-57599170D01*
X130952219Y-57588134D01*
X130934976Y-57575346D01*
X130919070Y-57560930D01*
X130904654Y-57545024D01*
X130891866Y-57527781D01*
X130880830Y-57509368D01*
X130871651Y-57489962D01*
X130864419Y-57469750D01*
X130859203Y-57448926D01*
X130856053Y-57427691D01*
X130855000Y-57406250D01*
X130855000Y-56893750D01*
X130856053Y-56872309D01*
X130859203Y-56851074D01*
X130864419Y-56830250D01*
X130871651Y-56810038D01*
X130880830Y-56790632D01*
X130891866Y-56772219D01*
X130904654Y-56754976D01*
X130919070Y-56739070D01*
X130934976Y-56724654D01*
X130952219Y-56711866D01*
X130970632Y-56700830D01*
X130990038Y-56691651D01*
X131010250Y-56684419D01*
X131031074Y-56679203D01*
X131052309Y-56676053D01*
X131073750Y-56675000D01*
X131511250Y-56675000D01*
X131532691Y-56676053D01*
G37*
G36*
X133107691Y-56676053D02*
G01*
X133128926Y-56679203D01*
X133149750Y-56684419D01*
X133169962Y-56691651D01*
X133189368Y-56700830D01*
X133207781Y-56711866D01*
X133225024Y-56724654D01*
X133240930Y-56739070D01*
X133255346Y-56754976D01*
X133268134Y-56772219D01*
X133279170Y-56790632D01*
X133288349Y-56810038D01*
X133295581Y-56830250D01*
X133300797Y-56851074D01*
X133303947Y-56872309D01*
X133305000Y-56893750D01*
X133305000Y-57406250D01*
X133303947Y-57427691D01*
X133300797Y-57448926D01*
X133295581Y-57469750D01*
X133288349Y-57489962D01*
X133279170Y-57509368D01*
X133268134Y-57527781D01*
X133255346Y-57545024D01*
X133240930Y-57560930D01*
X133225024Y-57575346D01*
X133207781Y-57588134D01*
X133189368Y-57599170D01*
X133169962Y-57608349D01*
X133149750Y-57615581D01*
X133128926Y-57620797D01*
X133107691Y-57623947D01*
X133086250Y-57625000D01*
X132648750Y-57625000D01*
X132627309Y-57623947D01*
X132606074Y-57620797D01*
X132585250Y-57615581D01*
X132565038Y-57608349D01*
X132545632Y-57599170D01*
X132527219Y-57588134D01*
X132509976Y-57575346D01*
X132494070Y-57560930D01*
X132479654Y-57545024D01*
X132466866Y-57527781D01*
X132455830Y-57509368D01*
X132446651Y-57489962D01*
X132439419Y-57469750D01*
X132434203Y-57448926D01*
X132431053Y-57427691D01*
X132430000Y-57406250D01*
X132430000Y-56893750D01*
X132431053Y-56872309D01*
X132434203Y-56851074D01*
X132439419Y-56830250D01*
X132446651Y-56810038D01*
X132455830Y-56790632D01*
X132466866Y-56772219D01*
X132479654Y-56754976D01*
X132494070Y-56739070D01*
X132509976Y-56724654D01*
X132527219Y-56711866D01*
X132545632Y-56700830D01*
X132565038Y-56691651D01*
X132585250Y-56684419D01*
X132606074Y-56679203D01*
X132627309Y-56676053D01*
X132648750Y-56675000D01*
X133086250Y-56675000D01*
X133107691Y-56676053D01*
G37*
D16*
X151130000Y-61500000D03*
D23*
X151130000Y-63500000D03*
D16*
X124460000Y-61055000D03*
D23*
X124460000Y-59055000D03*
D14*
G36*
X136167691Y-36393553D02*
G01*
X136188926Y-36396703D01*
X136209750Y-36401919D01*
X136229962Y-36409151D01*
X136249368Y-36418330D01*
X136267781Y-36429366D01*
X136285024Y-36442154D01*
X136300930Y-36456570D01*
X136315346Y-36472476D01*
X136328134Y-36489719D01*
X136339170Y-36508132D01*
X136348349Y-36527538D01*
X136355581Y-36547750D01*
X136360797Y-36568574D01*
X136363947Y-36589809D01*
X136365000Y-36611250D01*
X136365000Y-37048750D01*
X136363947Y-37070191D01*
X136360797Y-37091426D01*
X136355581Y-37112250D01*
X136348349Y-37132462D01*
X136339170Y-37151868D01*
X136328134Y-37170281D01*
X136315346Y-37187524D01*
X136300930Y-37203430D01*
X136285024Y-37217846D01*
X136267781Y-37230634D01*
X136249368Y-37241670D01*
X136229962Y-37250849D01*
X136209750Y-37258081D01*
X136188926Y-37263297D01*
X136167691Y-37266447D01*
X136146250Y-37267500D01*
X135633750Y-37267500D01*
X135612309Y-37266447D01*
X135591074Y-37263297D01*
X135570250Y-37258081D01*
X135550038Y-37250849D01*
X135530632Y-37241670D01*
X135512219Y-37230634D01*
X135494976Y-37217846D01*
X135479070Y-37203430D01*
X135464654Y-37187524D01*
X135451866Y-37170281D01*
X135440830Y-37151868D01*
X135431651Y-37132462D01*
X135424419Y-37112250D01*
X135419203Y-37091426D01*
X135416053Y-37070191D01*
X135415000Y-37048750D01*
X135415000Y-36611250D01*
X135416053Y-36589809D01*
X135419203Y-36568574D01*
X135424419Y-36547750D01*
X135431651Y-36527538D01*
X135440830Y-36508132D01*
X135451866Y-36489719D01*
X135464654Y-36472476D01*
X135479070Y-36456570D01*
X135494976Y-36442154D01*
X135512219Y-36429366D01*
X135530632Y-36418330D01*
X135550038Y-36409151D01*
X135570250Y-36401919D01*
X135591074Y-36396703D01*
X135612309Y-36393553D01*
X135633750Y-36392500D01*
X136146250Y-36392500D01*
X136167691Y-36393553D01*
G37*
G36*
X136167691Y-37968553D02*
G01*
X136188926Y-37971703D01*
X136209750Y-37976919D01*
X136229962Y-37984151D01*
X136249368Y-37993330D01*
X136267781Y-38004366D01*
X136285024Y-38017154D01*
X136300930Y-38031570D01*
X136315346Y-38047476D01*
X136328134Y-38064719D01*
X136339170Y-38083132D01*
X136348349Y-38102538D01*
X136355581Y-38122750D01*
X136360797Y-38143574D01*
X136363947Y-38164809D01*
X136365000Y-38186250D01*
X136365000Y-38623750D01*
X136363947Y-38645191D01*
X136360797Y-38666426D01*
X136355581Y-38687250D01*
X136348349Y-38707462D01*
X136339170Y-38726868D01*
X136328134Y-38745281D01*
X136315346Y-38762524D01*
X136300930Y-38778430D01*
X136285024Y-38792846D01*
X136267781Y-38805634D01*
X136249368Y-38816670D01*
X136229962Y-38825849D01*
X136209750Y-38833081D01*
X136188926Y-38838297D01*
X136167691Y-38841447D01*
X136146250Y-38842500D01*
X135633750Y-38842500D01*
X135612309Y-38841447D01*
X135591074Y-38838297D01*
X135570250Y-38833081D01*
X135550038Y-38825849D01*
X135530632Y-38816670D01*
X135512219Y-38805634D01*
X135494976Y-38792846D01*
X135479070Y-38778430D01*
X135464654Y-38762524D01*
X135451866Y-38745281D01*
X135440830Y-38726868D01*
X135431651Y-38707462D01*
X135424419Y-38687250D01*
X135419203Y-38666426D01*
X135416053Y-38645191D01*
X135415000Y-38623750D01*
X135415000Y-38186250D01*
X135416053Y-38164809D01*
X135419203Y-38143574D01*
X135424419Y-38122750D01*
X135431651Y-38102538D01*
X135440830Y-38083132D01*
X135451866Y-38064719D01*
X135464654Y-38047476D01*
X135479070Y-38031570D01*
X135494976Y-38017154D01*
X135512219Y-38004366D01*
X135530632Y-37993330D01*
X135550038Y-37984151D01*
X135570250Y-37976919D01*
X135591074Y-37971703D01*
X135612309Y-37968553D01*
X135633750Y-37967500D01*
X136146250Y-37967500D01*
X136167691Y-37968553D01*
G37*
G36*
X169632691Y-52866053D02*
G01*
X169653926Y-52869203D01*
X169674750Y-52874419D01*
X169694962Y-52881651D01*
X169714368Y-52890830D01*
X169732781Y-52901866D01*
X169750024Y-52914654D01*
X169765930Y-52929070D01*
X169780346Y-52944976D01*
X169793134Y-52962219D01*
X169804170Y-52980632D01*
X169813349Y-53000038D01*
X169820581Y-53020250D01*
X169825797Y-53041074D01*
X169828947Y-53062309D01*
X169830000Y-53083750D01*
X169830000Y-53596250D01*
X169828947Y-53617691D01*
X169825797Y-53638926D01*
X169820581Y-53659750D01*
X169813349Y-53679962D01*
X169804170Y-53699368D01*
X169793134Y-53717781D01*
X169780346Y-53735024D01*
X169765930Y-53750930D01*
X169750024Y-53765346D01*
X169732781Y-53778134D01*
X169714368Y-53789170D01*
X169694962Y-53798349D01*
X169674750Y-53805581D01*
X169653926Y-53810797D01*
X169632691Y-53813947D01*
X169611250Y-53815000D01*
X169173750Y-53815000D01*
X169152309Y-53813947D01*
X169131074Y-53810797D01*
X169110250Y-53805581D01*
X169090038Y-53798349D01*
X169070632Y-53789170D01*
X169052219Y-53778134D01*
X169034976Y-53765346D01*
X169019070Y-53750930D01*
X169004654Y-53735024D01*
X168991866Y-53717781D01*
X168980830Y-53699368D01*
X168971651Y-53679962D01*
X168964419Y-53659750D01*
X168959203Y-53638926D01*
X168956053Y-53617691D01*
X168955000Y-53596250D01*
X168955000Y-53083750D01*
X168956053Y-53062309D01*
X168959203Y-53041074D01*
X168964419Y-53020250D01*
X168971651Y-53000038D01*
X168980830Y-52980632D01*
X168991866Y-52962219D01*
X169004654Y-52944976D01*
X169019070Y-52929070D01*
X169034976Y-52914654D01*
X169052219Y-52901866D01*
X169070632Y-52890830D01*
X169090038Y-52881651D01*
X169110250Y-52874419D01*
X169131074Y-52869203D01*
X169152309Y-52866053D01*
X169173750Y-52865000D01*
X169611250Y-52865000D01*
X169632691Y-52866053D01*
G37*
G36*
X171207691Y-52866053D02*
G01*
X171228926Y-52869203D01*
X171249750Y-52874419D01*
X171269962Y-52881651D01*
X171289368Y-52890830D01*
X171307781Y-52901866D01*
X171325024Y-52914654D01*
X171340930Y-52929070D01*
X171355346Y-52944976D01*
X171368134Y-52962219D01*
X171379170Y-52980632D01*
X171388349Y-53000038D01*
X171395581Y-53020250D01*
X171400797Y-53041074D01*
X171403947Y-53062309D01*
X171405000Y-53083750D01*
X171405000Y-53596250D01*
X171403947Y-53617691D01*
X171400797Y-53638926D01*
X171395581Y-53659750D01*
X171388349Y-53679962D01*
X171379170Y-53699368D01*
X171368134Y-53717781D01*
X171355346Y-53735024D01*
X171340930Y-53750930D01*
X171325024Y-53765346D01*
X171307781Y-53778134D01*
X171289368Y-53789170D01*
X171269962Y-53798349D01*
X171249750Y-53805581D01*
X171228926Y-53810797D01*
X171207691Y-53813947D01*
X171186250Y-53815000D01*
X170748750Y-53815000D01*
X170727309Y-53813947D01*
X170706074Y-53810797D01*
X170685250Y-53805581D01*
X170665038Y-53798349D01*
X170645632Y-53789170D01*
X170627219Y-53778134D01*
X170609976Y-53765346D01*
X170594070Y-53750930D01*
X170579654Y-53735024D01*
X170566866Y-53717781D01*
X170555830Y-53699368D01*
X170546651Y-53679962D01*
X170539419Y-53659750D01*
X170534203Y-53638926D01*
X170531053Y-53617691D01*
X170530000Y-53596250D01*
X170530000Y-53083750D01*
X170531053Y-53062309D01*
X170534203Y-53041074D01*
X170539419Y-53020250D01*
X170546651Y-53000038D01*
X170555830Y-52980632D01*
X170566866Y-52962219D01*
X170579654Y-52944976D01*
X170594070Y-52929070D01*
X170609976Y-52914654D01*
X170627219Y-52901866D01*
X170645632Y-52890830D01*
X170665038Y-52881651D01*
X170685250Y-52874419D01*
X170706074Y-52869203D01*
X170727309Y-52866053D01*
X170748750Y-52865000D01*
X171186250Y-52865000D01*
X171207691Y-52866053D01*
G37*
D17*
X112014000Y-68580000D03*
D18*
X127254000Y-68580000D03*
D24*
X130175000Y-97378000D03*
X146675000Y-97378000D03*
X146675000Y-90178000D03*
X130175000Y-90178000D03*
X130175000Y-85948000D03*
X146675000Y-85948000D03*
X146675000Y-78748000D03*
X130175000Y-78748000D03*
X130175000Y-74518000D03*
X146675000Y-74518000D03*
X146675000Y-67318000D03*
X130175000Y-67318000D03*
D10*
X101720000Y-54610000D03*
X101600000Y-49530000D03*
X101600000Y-36830000D03*
X101600000Y-34290000D03*
D22*
X105410000Y-61000000D03*
X105410000Y-66000000D03*
X105410000Y-91480000D03*
X105410000Y-96480000D03*
X105410000Y-81320000D03*
X105410000Y-86320000D03*
X105410000Y-71160000D03*
X105410000Y-76160000D03*
M02*
