M48
; DRILL file {KiCad (5.1.5)-3} date 19.07.2020 14:02:05
; FORMAT={2:4/ absolute / inch / suppress leading zeros}
; #@! TF.CreationDate,2020-07-19T14:02:05+02:00
; #@! TF.GenerationSoftware,Kicad,Pcbnew,(5.1.5)-3
; #@! TF.FileFunction,Plated,1,2,PTH
FMAT,2
INCH,TZ
T1C0.0157
T2C0.0300
T3C0.0315
T4C0.0354
T5C0.0394
T6C0.0433
T7C0.0470
T8C0.0472
%
G90
G05
T1
X46000Y-19750
X50000Y-13750
X50000Y-14750
X50750Y-13750
X50750Y-14750
X50750Y-16250
X51150Y-16750
X51500Y-13750
X51500Y-14750
X51500Y-16250
X51900Y-16750
X52250Y-13750
X52250Y-14750
X52250Y-16250
X64750Y-16000
X64750Y-17500
X65000Y-14500
X65500Y-15000
X66000Y-16500
X66000Y-18000
X66000Y-28250
X66000Y-29250
X66000Y-30250
X66000Y-31250
X67500Y-28250
X67500Y-29250
X67500Y-30250
X67500Y-31250
X69500Y-28250
X69500Y-29250
X69500Y-30250
X69500Y-31250
X71000Y-28250
X71000Y-29250
X71000Y-30250
X71000Y-31250
T2
X53500Y-13500
X53500Y-22500
X54500Y-13500
X54500Y-22500
X55500Y-13500
X55500Y-22500
X56500Y-13500
X56500Y-22500
X57500Y-13500
X57500Y-22500
X58500Y-13500
X58500Y-22500
X59500Y-13500
X59500Y-22500
X60500Y-13500
X60500Y-22500
X61500Y-13500
X61500Y-22500
X62500Y-13500
X62500Y-22500
X63500Y-13500
X63500Y-22500
X64500Y-13500
X64500Y-22500
X65500Y-13500
X65500Y-22500
X66500Y-13500
X66500Y-22500
X67500Y-13500
X67500Y-22500
X68500Y-13500
X68500Y-22500
X69500Y-13500
X70500Y-13500
X71500Y-13500
X72500Y-13500
X40000Y-13500
X40000Y-14500
X40000Y-19500
X40047Y-21500
X65500Y-24750
X65500Y-32750
X66500Y-24750
X66500Y-32750
X67500Y-24750
X67500Y-32750
X68500Y-24750
X68500Y-32750
X69500Y-24750
X69500Y-32750
X70500Y-32750
T3
X60750Y-30750
X60750Y-34750
X49000Y-23250
X49000Y-24037
X59000Y-34500
X59000Y-38500
X70500Y-24750
X59500Y-24213
X59500Y-25000
X59000Y-26250
X59000Y-30250
T4
X51250Y-26503
X51250Y-29338
X57746Y-26503
X57746Y-29338
X51250Y-31003
X51250Y-33838
X57746Y-31003
X57746Y-33838
X51250Y-35503
X51250Y-38338
X57746Y-35503
X57746Y-38338
T5
X64000Y-36000
X64000Y-37000
X65000Y-36000
X65000Y-37000
X66000Y-36000
X66000Y-37000
X67000Y-36000
X67000Y-37000
X68000Y-36000
X68000Y-37000
X48000Y-15750
X48000Y-16750
X48000Y-17750
X48000Y-18750
X48000Y-19750
X48000Y-20750
X49000Y-15750
X49000Y-16750
X49000Y-17750
X49000Y-18750
X49000Y-19750
X49000Y-20750
T6
X61000Y-27250
X61000Y-28250
X61000Y-29250
T7
X41500Y-14516
X41500Y-16484
X41500Y-36016
X41500Y-37984
X41500Y-24016
X41500Y-25984
X41500Y-28016
X41500Y-29984
X71750Y-36016
X71750Y-37984
X41500Y-32016
X41500Y-33984
T8
X44100Y-31500
X50100Y-31500
X44100Y-36000
X50100Y-36000
X44100Y-27000
X50100Y-27000
T0
M30
