%TF.GenerationSoftware,KiCad,Pcbnew,(5.1.5)-3*%
%TF.CreationDate,2020-07-19T14:01:50+02:00*%
%TF.ProjectId,REM-C,52454d2d-432e-46b6-9963-61645f706362,rev?*%
%TF.SameCoordinates,Original*%
%TF.FileFunction,Copper,L1,Top*%
%TF.FilePolarity,Positive*%
%FSLAX46Y46*%
G04 Gerber Fmt 4.6, Leading zero omitted, Abs format (unit mm)*
G04 Created by KiCad (PCBNEW (5.1.5)-3) date 2020-07-19 14:01:50*
%MOMM*%
%LPD*%
G04 APERTURE LIST*
%ADD10C,1.524000*%
%ADD11O,1.524000X2.268000*%
%ADD12O,1.700000X1.700000*%
%ADD13R,1.700000X1.700000*%
%ADD14O,1.600000X1.600000*%
%ADD15C,1.600000*%
%ADD16O,2.400000X2.400000*%
%ADD17C,2.400000*%
%ADD18C,0.100000*%
%ADD19O,2.000000X1.905000*%
%ADD20R,2.000000X1.905000*%
%ADD21O,3.581400X1.790700*%
%ADD22R,1.600000X1.600000*%
%ADD23C,2.000000*%
%ADD24C,0.800000*%
%ADD25C,1.000000*%
%ADD26C,0.250000*%
%ADD27C,2.000000*%
%ADD28C,0.400000*%
%ADD29C,0.254000*%
G04 APERTURE END LIST*
D10*
X179070000Y-83185000D03*
X176530000Y-83185000D03*
X173990000Y-83185000D03*
X171450000Y-83185000D03*
X168910000Y-83185000D03*
X166370000Y-83185000D03*
X166370000Y-62865000D03*
X168910000Y-62865000D03*
X171450000Y-62865000D03*
X173990000Y-62865000D03*
X176530000Y-62865000D03*
X179070000Y-62865000D03*
D11*
X184150000Y-34290000D03*
X181610000Y-34290000D03*
X179070000Y-34290000D03*
X176530000Y-34290000D03*
X173990000Y-34290000D03*
X171450000Y-34290000D03*
X168910000Y-34290000D03*
X166370000Y-34290000D03*
X163830000Y-34290000D03*
X161290000Y-34290000D03*
X158750000Y-34290000D03*
X156210000Y-34290000D03*
X153670000Y-34290000D03*
X151130000Y-34290000D03*
X148590000Y-34290000D03*
X146050000Y-34290000D03*
X143510000Y-34290000D03*
X140970000Y-34290000D03*
X138430000Y-34290000D03*
X135890000Y-34290000D03*
X173990000Y-57150000D03*
X171450000Y-57150000D03*
X168910000Y-57150000D03*
X166370000Y-57150000D03*
X163830000Y-57150000D03*
X161290000Y-57150000D03*
X158750000Y-57150000D03*
X156210000Y-57150000D03*
X153670000Y-57150000D03*
X151130000Y-57150000D03*
X148590000Y-57150000D03*
X146050000Y-57150000D03*
X143510000Y-57150000D03*
X140970000Y-57150000D03*
X138430000Y-57150000D03*
X135890000Y-57150000D03*
D12*
X124460000Y-52705000D03*
X121920000Y-52705000D03*
X124460000Y-50165000D03*
X121920000Y-50165000D03*
X124460000Y-47625000D03*
X121920000Y-47625000D03*
X124460000Y-45085000D03*
X121920000Y-45085000D03*
X124460000Y-42545000D03*
X121920000Y-42545000D03*
X124460000Y-40005000D03*
D13*
X121920000Y-40005000D03*
D14*
X149860000Y-97790000D03*
D15*
X149860000Y-87630000D03*
D14*
X154305000Y-88265000D03*
D15*
X154305000Y-78105000D03*
D14*
X149860000Y-76835000D03*
D15*
X149860000Y-66675000D03*
D16*
X112014000Y-80010000D03*
D17*
X127254000Y-80010000D03*
%TA.AperFunction,SMDPad,CuDef*%
D18*
G36*
X155027691Y-64931053D02*
G01*
X155048926Y-64934203D01*
X155069750Y-64939419D01*
X155089962Y-64946651D01*
X155109368Y-64955830D01*
X155127781Y-64966866D01*
X155145024Y-64979654D01*
X155160930Y-64994070D01*
X155175346Y-65009976D01*
X155188134Y-65027219D01*
X155199170Y-65045632D01*
X155208349Y-65065038D01*
X155215581Y-65085250D01*
X155220797Y-65106074D01*
X155223947Y-65127309D01*
X155225000Y-65148750D01*
X155225000Y-65661250D01*
X155223947Y-65682691D01*
X155220797Y-65703926D01*
X155215581Y-65724750D01*
X155208349Y-65744962D01*
X155199170Y-65764368D01*
X155188134Y-65782781D01*
X155175346Y-65800024D01*
X155160930Y-65815930D01*
X155145024Y-65830346D01*
X155127781Y-65843134D01*
X155109368Y-65854170D01*
X155089962Y-65863349D01*
X155069750Y-65870581D01*
X155048926Y-65875797D01*
X155027691Y-65878947D01*
X155006250Y-65880000D01*
X154568750Y-65880000D01*
X154547309Y-65878947D01*
X154526074Y-65875797D01*
X154505250Y-65870581D01*
X154485038Y-65863349D01*
X154465632Y-65854170D01*
X154447219Y-65843134D01*
X154429976Y-65830346D01*
X154414070Y-65815930D01*
X154399654Y-65800024D01*
X154386866Y-65782781D01*
X154375830Y-65764368D01*
X154366651Y-65744962D01*
X154359419Y-65724750D01*
X154354203Y-65703926D01*
X154351053Y-65682691D01*
X154350000Y-65661250D01*
X154350000Y-65148750D01*
X154351053Y-65127309D01*
X154354203Y-65106074D01*
X154359419Y-65085250D01*
X154366651Y-65065038D01*
X154375830Y-65045632D01*
X154386866Y-65027219D01*
X154399654Y-65009976D01*
X154414070Y-64994070D01*
X154429976Y-64979654D01*
X154447219Y-64966866D01*
X154465632Y-64955830D01*
X154485038Y-64946651D01*
X154505250Y-64939419D01*
X154526074Y-64934203D01*
X154547309Y-64931053D01*
X154568750Y-64930000D01*
X155006250Y-64930000D01*
X155027691Y-64931053D01*
G37*
%TD.AperFunction*%
%TA.AperFunction,SMDPad,CuDef*%
G36*
X156602691Y-64931053D02*
G01*
X156623926Y-64934203D01*
X156644750Y-64939419D01*
X156664962Y-64946651D01*
X156684368Y-64955830D01*
X156702781Y-64966866D01*
X156720024Y-64979654D01*
X156735930Y-64994070D01*
X156750346Y-65009976D01*
X156763134Y-65027219D01*
X156774170Y-65045632D01*
X156783349Y-65065038D01*
X156790581Y-65085250D01*
X156795797Y-65106074D01*
X156798947Y-65127309D01*
X156800000Y-65148750D01*
X156800000Y-65661250D01*
X156798947Y-65682691D01*
X156795797Y-65703926D01*
X156790581Y-65724750D01*
X156783349Y-65744962D01*
X156774170Y-65764368D01*
X156763134Y-65782781D01*
X156750346Y-65800024D01*
X156735930Y-65815930D01*
X156720024Y-65830346D01*
X156702781Y-65843134D01*
X156684368Y-65854170D01*
X156664962Y-65863349D01*
X156644750Y-65870581D01*
X156623926Y-65875797D01*
X156602691Y-65878947D01*
X156581250Y-65880000D01*
X156143750Y-65880000D01*
X156122309Y-65878947D01*
X156101074Y-65875797D01*
X156080250Y-65870581D01*
X156060038Y-65863349D01*
X156040632Y-65854170D01*
X156022219Y-65843134D01*
X156004976Y-65830346D01*
X155989070Y-65815930D01*
X155974654Y-65800024D01*
X155961866Y-65782781D01*
X155950830Y-65764368D01*
X155941651Y-65744962D01*
X155934419Y-65724750D01*
X155929203Y-65703926D01*
X155926053Y-65682691D01*
X155925000Y-65661250D01*
X155925000Y-65148750D01*
X155926053Y-65127309D01*
X155929203Y-65106074D01*
X155934419Y-65085250D01*
X155941651Y-65065038D01*
X155950830Y-65045632D01*
X155961866Y-65027219D01*
X155974654Y-65009976D01*
X155989070Y-64994070D01*
X156004976Y-64979654D01*
X156022219Y-64966866D01*
X156040632Y-64955830D01*
X156060038Y-64946651D01*
X156080250Y-64939419D01*
X156101074Y-64934203D01*
X156122309Y-64931053D01*
X156143750Y-64930000D01*
X156581250Y-64930000D01*
X156602691Y-64931053D01*
G37*
%TD.AperFunction*%
D19*
X154940000Y-74295000D03*
X154940000Y-71755000D03*
D20*
X154940000Y-69215000D03*
D12*
X172720000Y-91440000D03*
X172720000Y-93980000D03*
X170180000Y-91440000D03*
X170180000Y-93980000D03*
X167640000Y-91440000D03*
X167640000Y-93980000D03*
X165100000Y-91440000D03*
X165100000Y-93980000D03*
X162560000Y-91440000D03*
D13*
X162560000Y-93980000D03*
D21*
X182245000Y-96480000D03*
X182245000Y-91480000D03*
D16*
X112014000Y-91440000D03*
D17*
X127254000Y-91440000D03*
D21*
X105410000Y-36870000D03*
X105410000Y-41870000D03*
D15*
X151130000Y-61500000D03*
D22*
X151130000Y-63500000D03*
D15*
X124460000Y-61055000D03*
D22*
X124460000Y-59055000D03*
D16*
X112014000Y-68580000D03*
D17*
X127254000Y-68580000D03*
D23*
X130175000Y-97378000D03*
X146675000Y-97378000D03*
X146675000Y-90178000D03*
X130175000Y-90178000D03*
X130175000Y-85948000D03*
X146675000Y-85948000D03*
X146675000Y-78748000D03*
X130175000Y-78748000D03*
X130175000Y-74518000D03*
X146675000Y-74518000D03*
X146675000Y-67318000D03*
X130175000Y-67318000D03*
D10*
X101720000Y-54610000D03*
X101600000Y-49530000D03*
X101600000Y-36830000D03*
X101600000Y-34290000D03*
D21*
X105410000Y-61000000D03*
X105410000Y-66000000D03*
X105410000Y-91480000D03*
X105410000Y-96480000D03*
X105410000Y-81320000D03*
X105410000Y-86320000D03*
X105410000Y-71160000D03*
X105410000Y-76160000D03*
D24*
X127000000Y-34925000D03*
X127000000Y-37465000D03*
X132715000Y-41275000D03*
X130810000Y-41275000D03*
X128905000Y-41275000D03*
X128905000Y-37465000D03*
X130810000Y-37465000D03*
X132715000Y-37465000D03*
X132715000Y-34925000D03*
X130810000Y-34925000D03*
X128905000Y-34925000D03*
X180340000Y-71755000D03*
X180340000Y-74295000D03*
X180340000Y-76835000D03*
X180340000Y-79375000D03*
X176530000Y-79375000D03*
X176530000Y-76835000D03*
X176530000Y-74295000D03*
X176530000Y-71755000D03*
X171450000Y-71755000D03*
X171450000Y-74295000D03*
X171450000Y-76835000D03*
X171450000Y-79375000D03*
X167640000Y-79375000D03*
X167640000Y-76835000D03*
X167640000Y-74295000D03*
X167640000Y-71755000D03*
X131826000Y-42545000D03*
X129921000Y-42545000D03*
X165100000Y-36830000D03*
X166370000Y-38100000D03*
X164464976Y-40640000D03*
X164465000Y-44450000D03*
X167640000Y-41910000D03*
X167640000Y-45720000D03*
X116840008Y-50165000D03*
D25*
X107990000Y-76160000D02*
X105410000Y-76160000D01*
X130180000Y-74720000D02*
X109430000Y-74720000D01*
X109430000Y-74720000D02*
X107990000Y-76160000D01*
X105580000Y-86150000D02*
X105410000Y-86320000D01*
X130180000Y-86150000D02*
X105580000Y-86150000D01*
X129705010Y-96480000D02*
X130175000Y-96949990D01*
X105410000Y-96480000D02*
X129705010Y-96480000D01*
X179070000Y-83185000D02*
X179070000Y-79375000D01*
D26*
X171450000Y-97155000D02*
X172720000Y-95885000D01*
X172720000Y-95885000D02*
X172720000Y-93980000D01*
X153652000Y-97155000D02*
X171450000Y-97155000D01*
X149860000Y-93345000D02*
X153652000Y-97155000D01*
X150035000Y-87630000D02*
X149860000Y-87805000D01*
X149860000Y-93345000D02*
X149860000Y-87630000D01*
X148089213Y-90178000D02*
X146675000Y-90178000D01*
X149852000Y-90178000D02*
X148089213Y-90178000D01*
X149860000Y-87630000D02*
X149860000Y-90170000D01*
X149860000Y-90170000D02*
X149852000Y-90178000D01*
X146683000Y-78740000D02*
X146675000Y-78748000D01*
X151130000Y-78740000D02*
X146683000Y-78740000D01*
X153035000Y-78740000D02*
X151130000Y-78740000D01*
X154305000Y-78105000D02*
X153670000Y-78740000D01*
X153670000Y-78740000D02*
X153035000Y-78740000D01*
X171450000Y-92710000D02*
X170180000Y-91440000D01*
X170180000Y-96520000D02*
X171450000Y-95250000D01*
X154374315Y-78105000D02*
X158750000Y-82480685D01*
X154305000Y-78105000D02*
X154374315Y-78105000D01*
X158750000Y-82480685D02*
X158750000Y-95250000D01*
X171450000Y-95250000D02*
X171450000Y-92710000D01*
X158750000Y-95250000D02*
X160020000Y-96520000D01*
X160020000Y-96520000D02*
X170180000Y-96520000D01*
X147318000Y-66675000D02*
X146675000Y-67318000D01*
X149860000Y-66675000D02*
X147318000Y-66675000D01*
X170180000Y-94615000D02*
X170180000Y-93980000D01*
X160020000Y-94615000D02*
X161290000Y-95885000D01*
X149860000Y-73025000D02*
X153035000Y-76200000D01*
X161290000Y-95885000D02*
X168910000Y-95885000D01*
X149860000Y-66675000D02*
X149860000Y-73025000D01*
X160020000Y-80645000D02*
X160020000Y-94615000D01*
X153035000Y-76200000D02*
X155575000Y-76200000D01*
X168910000Y-95885000D02*
X170180000Y-94615000D01*
X155575000Y-76200000D02*
X160020000Y-80645000D01*
X123095001Y-48800001D02*
X122769999Y-48474999D01*
X122769999Y-48474999D02*
X121920000Y-47625000D01*
X148590000Y-41910000D02*
X143510000Y-46990000D01*
X128905000Y-46990000D02*
X127094999Y-48800001D01*
X148590000Y-34290000D02*
X148590000Y-41910000D01*
X143510000Y-46990000D02*
X128905000Y-46990000D01*
X127094999Y-48800001D02*
X123095001Y-48800001D01*
X167640000Y-90170000D02*
X167640000Y-91440000D01*
X170180000Y-87630000D02*
X167640000Y-90170000D01*
X180340000Y-36830000D02*
X184785000Y-41275000D01*
X165100000Y-36830000D02*
X180340000Y-36830000D01*
X182880000Y-87630000D02*
X170180000Y-87630000D01*
X184785000Y-41275000D02*
X184785000Y-85725000D01*
X184785000Y-85725000D02*
X182880000Y-87630000D01*
X146050000Y-41910000D02*
X146050000Y-34290000D01*
X142240000Y-45720000D02*
X146050000Y-41910000D01*
X128905000Y-45720000D02*
X142240000Y-45720000D01*
X124460000Y-47625000D02*
X127000000Y-47625000D01*
X127000000Y-47625000D02*
X128905000Y-45720000D01*
X166370000Y-90170000D02*
X166370000Y-92710000D01*
X166370000Y-92710000D02*
X166790001Y-93130001D01*
X166370000Y-38100000D02*
X179070000Y-38100000D01*
X166790001Y-93130001D02*
X167640000Y-93980000D01*
X183515000Y-42545000D02*
X183515000Y-85090000D01*
X179070000Y-38100000D02*
X183515000Y-42545000D01*
X183515000Y-85090000D02*
X182245000Y-86360000D01*
X170180000Y-86360000D02*
X166370000Y-90170000D01*
X182245000Y-86360000D02*
X170180000Y-86360000D01*
D25*
X124460000Y-59055000D02*
X124460000Y-55880000D01*
D27*
X126365000Y-55880000D02*
X124460000Y-55880000D01*
X129540000Y-52705000D02*
X126365000Y-55880000D01*
X168910000Y-52705000D02*
X129540000Y-52705000D01*
X171450000Y-57150000D02*
X171450000Y-55245000D01*
X171450000Y-55245000D02*
X168910000Y-52705000D01*
X120275000Y-55880000D02*
X119075001Y-54680001D01*
X119075001Y-54680001D02*
X119075001Y-44780001D01*
X124460000Y-55880000D02*
X120275000Y-55880000D01*
D25*
X119380000Y-45085000D02*
X119075001Y-44780001D01*
D27*
X119075001Y-44780001D02*
X119075001Y-42240001D01*
X113665000Y-36830000D02*
X104775000Y-36830000D01*
X119075001Y-42240001D02*
X113665000Y-36830000D01*
D25*
X119380000Y-42545000D02*
X119075001Y-42240001D01*
X121920000Y-42545000D02*
X119380000Y-42545000D01*
X101640000Y-36870000D02*
X101600000Y-36830000D01*
X105410000Y-36870000D02*
X101640000Y-36870000D01*
X105410000Y-66000000D02*
X107355000Y-66000000D01*
X105410000Y-49530000D02*
X101600000Y-49530000D01*
X110490000Y-54610000D02*
X105410000Y-49530000D01*
X110490000Y-62865000D02*
X110490000Y-54610000D01*
X107355000Y-66000000D02*
X110490000Y-62865000D01*
D28*
X149825000Y-97580000D02*
X150035000Y-97790000D01*
X146680000Y-74720000D02*
X144990000Y-74720000D01*
X144990000Y-74720000D02*
X143510000Y-76200000D01*
X143510000Y-94410000D02*
X146680000Y-97580000D01*
X143510000Y-76200000D02*
X143510000Y-86360000D01*
X143510000Y-86360000D02*
X143510000Y-94410000D01*
X147087000Y-97790000D02*
X146675000Y-97378000D01*
X150035000Y-97790000D02*
X147087000Y-97790000D01*
X149860000Y-76200000D02*
X149860000Y-76835000D01*
X146675000Y-74518000D02*
X148178000Y-74518000D01*
X148178000Y-74518000D02*
X149860000Y-76200000D01*
X153505001Y-87465001D02*
X154305000Y-88265000D01*
X151765000Y-85725000D02*
X153505001Y-87465001D01*
X146675000Y-85948000D02*
X146898000Y-85725000D01*
X146898000Y-85725000D02*
X151765000Y-85725000D01*
X146255000Y-85725000D02*
X143510000Y-85725000D01*
X146680000Y-86150000D02*
X146255000Y-85725000D01*
X172720000Y-97790000D02*
X150035000Y-97790000D01*
X174625000Y-95885000D02*
X172720000Y-97790000D01*
X174625000Y-92075000D02*
X174625000Y-95885000D01*
X172720000Y-91440000D02*
X173990000Y-91440000D01*
X173990000Y-91440000D02*
X174625000Y-92075000D01*
D26*
X151130000Y-48260000D02*
X156210000Y-43180000D01*
X128905000Y-48260000D02*
X151130000Y-48260000D01*
X124460000Y-50165000D02*
X127000000Y-50165000D01*
X127000000Y-50165000D02*
X128905000Y-48260000D01*
X156210000Y-43180000D02*
X156210000Y-34290000D01*
X165100000Y-83185000D02*
X166370000Y-83185000D01*
X163830000Y-81915000D02*
X165100000Y-83185000D01*
X165100000Y-60325000D02*
X163830000Y-61595000D01*
X173990000Y-43180000D02*
X177800000Y-46990000D01*
X156210000Y-43180000D02*
X173990000Y-43180000D01*
X163830000Y-61595000D02*
X163830000Y-81915000D01*
X174625000Y-60325000D02*
X165100000Y-60325000D01*
X177800000Y-46990000D02*
X177800000Y-57150000D01*
X177800000Y-57150000D02*
X174625000Y-60325000D01*
X168910000Y-64135000D02*
X168910000Y-62865000D01*
X170815000Y-66040000D02*
X168910000Y-64135000D01*
X180340000Y-66040000D02*
X170815000Y-66040000D01*
X182245000Y-64135000D02*
X180340000Y-66040000D01*
X165100000Y-39370000D02*
X177800000Y-39370000D01*
X163830000Y-34290000D02*
X163830000Y-38100000D01*
X163830000Y-38100000D02*
X165100000Y-39370000D01*
X177800000Y-39370000D02*
X182245000Y-43815000D01*
X182245000Y-43815000D02*
X182245000Y-64135000D01*
X165030661Y-40640000D02*
X164464976Y-40640000D01*
X180975000Y-45085000D02*
X176530000Y-40640000D01*
X173355000Y-64770000D02*
X180340000Y-64770000D01*
X176530000Y-40640000D02*
X165030661Y-40640000D01*
X180340000Y-64770000D02*
X180975000Y-64135000D01*
X161290000Y-34290000D02*
X161290000Y-37465024D01*
X164064977Y-40240001D02*
X164464976Y-40640000D01*
X161290000Y-37465024D02*
X164064977Y-40240001D01*
X180975000Y-64135000D02*
X180975000Y-45085000D01*
X171450000Y-62865000D02*
X173355000Y-64770000D01*
X123190000Y-51435000D02*
X126998590Y-51435000D01*
X156527500Y-44450000D02*
X163899315Y-44450000D01*
X126998590Y-51435000D02*
X128903590Y-49530000D01*
X151447500Y-49530000D02*
X156527500Y-44450000D01*
X163899315Y-44450000D02*
X164465000Y-44450000D01*
X121920000Y-52705000D02*
X123190000Y-51435000D01*
X128903590Y-49530000D02*
X151447500Y-49530000D01*
X179070000Y-57785000D02*
X179070000Y-45720000D01*
X173990000Y-62865000D02*
X179070000Y-57785000D01*
X175260000Y-41910000D02*
X168205685Y-41910000D01*
X168205685Y-41910000D02*
X167640000Y-41910000D01*
X179070000Y-45720000D02*
X175260000Y-41910000D01*
X158750000Y-38100000D02*
X162560000Y-41910000D01*
X158750000Y-34290000D02*
X158750000Y-38100000D01*
X167074315Y-41910000D02*
X167640000Y-41910000D01*
X162560000Y-41910000D02*
X167074315Y-41910000D01*
X151765000Y-50800000D02*
X156845000Y-45720000D01*
X128905000Y-50800000D02*
X151765000Y-50800000D01*
X124460000Y-52705000D02*
X127000000Y-52705000D01*
X156845000Y-45720000D02*
X167640000Y-45720000D01*
X127000000Y-52705000D02*
X128905000Y-50800000D01*
X168082630Y-85090000D02*
X168910000Y-84262630D01*
X165100000Y-85090000D02*
X168082630Y-85090000D01*
X161290000Y-57150000D02*
X161290000Y-81280000D01*
X168910000Y-84262630D02*
X168910000Y-83185000D01*
X161290000Y-81280000D02*
X165100000Y-85090000D01*
X154940000Y-67945000D02*
X154940000Y-69215000D01*
X156362500Y-65405000D02*
X156362500Y-66522500D01*
X156362500Y-66522500D02*
X154940000Y-67945000D01*
X116840008Y-55880008D02*
X116840008Y-50165000D01*
X127000000Y-58420000D02*
X127000000Y-62230000D01*
X127000000Y-62230000D02*
X125730000Y-63500000D01*
X130810000Y-54610000D02*
X127000000Y-58420000D01*
X123190000Y-63500000D02*
X121920000Y-62230000D01*
X120650000Y-57785000D02*
X118745000Y-57785000D01*
X121920000Y-62230000D02*
X121920000Y-59055000D01*
X125730000Y-63500000D02*
X123190000Y-63500000D01*
X118745000Y-57785000D02*
X116840008Y-55880008D01*
X121920000Y-59055000D02*
X120650000Y-57785000D01*
X148590000Y-57150000D02*
X148590000Y-56515000D01*
X148590000Y-57150000D02*
X148590000Y-55880000D01*
X148590000Y-55880000D02*
X147320000Y-54610000D01*
X147320000Y-54610000D02*
X130810000Y-54610000D01*
X154787500Y-62077500D02*
X154787500Y-65405000D01*
X152400000Y-59690000D02*
X154787500Y-62077500D01*
X146050000Y-57150000D02*
X146050000Y-58534000D01*
X147206000Y-59690000D02*
X152400000Y-59690000D01*
X146050000Y-58534000D02*
X147206000Y-59690000D01*
X123190000Y-43815000D02*
X121920000Y-45085000D01*
X137160000Y-43815000D02*
X123190000Y-43815000D01*
X138430000Y-34290000D02*
X138430000Y-42545000D01*
X138430000Y-42545000D02*
X137160000Y-43815000D01*
X140970000Y-35674000D02*
X140970000Y-34290000D01*
X140970000Y-41910000D02*
X140970000Y-35674000D01*
X124460000Y-45085000D02*
X137795000Y-45085000D01*
X137795000Y-45085000D02*
X140970000Y-41910000D01*
D29*
G36*
X133155189Y-33164376D02*
G01*
X133318850Y-33214022D01*
X133469672Y-33294638D01*
X133601870Y-33403130D01*
X133710362Y-33535328D01*
X133790978Y-33686150D01*
X133840624Y-33849811D01*
X133858000Y-34026234D01*
X133858000Y-42173766D01*
X133840624Y-42350189D01*
X133790978Y-42513850D01*
X133710362Y-42664672D01*
X133601870Y-42796870D01*
X133469672Y-42905362D01*
X133318850Y-42985978D01*
X133155189Y-43035624D01*
X132978766Y-43053000D01*
X127323734Y-43053000D01*
X127156573Y-43036536D01*
X127001831Y-42989595D01*
X126859218Y-42913367D01*
X126734218Y-42810782D01*
X126631633Y-42685782D01*
X126555405Y-42543169D01*
X126508464Y-42388427D01*
X126492000Y-42221266D01*
X126492000Y-34026234D01*
X126509376Y-33849811D01*
X126559022Y-33686150D01*
X126639638Y-33535328D01*
X126748130Y-33403130D01*
X126880328Y-33294638D01*
X127031150Y-33214022D01*
X127194811Y-33164376D01*
X127371234Y-33147000D01*
X132978766Y-33147000D01*
X133155189Y-33164376D01*
G37*
X133155189Y-33164376D02*
X133318850Y-33214022D01*
X133469672Y-33294638D01*
X133601870Y-33403130D01*
X133710362Y-33535328D01*
X133790978Y-33686150D01*
X133840624Y-33849811D01*
X133858000Y-34026234D01*
X133858000Y-42173766D01*
X133840624Y-42350189D01*
X133790978Y-42513850D01*
X133710362Y-42664672D01*
X133601870Y-42796870D01*
X133469672Y-42905362D01*
X133318850Y-42985978D01*
X133155189Y-43035624D01*
X132978766Y-43053000D01*
X127323734Y-43053000D01*
X127156573Y-43036536D01*
X127001831Y-42989595D01*
X126859218Y-42913367D01*
X126734218Y-42810782D01*
X126631633Y-42685782D01*
X126555405Y-42543169D01*
X126508464Y-42388427D01*
X126492000Y-42221266D01*
X126492000Y-34026234D01*
X126509376Y-33849811D01*
X126559022Y-33686150D01*
X126639638Y-33535328D01*
X126748130Y-33403130D01*
X126880328Y-33294638D01*
X127031150Y-33214022D01*
X127194811Y-33164376D01*
X127371234Y-33147000D01*
X132978766Y-33147000D01*
X133155189Y-33164376D01*
G36*
X181415189Y-67454376D02*
G01*
X181578850Y-67504022D01*
X181729672Y-67584638D01*
X181861870Y-67693130D01*
X181970362Y-67825328D01*
X182050978Y-67976150D01*
X182100624Y-68139811D01*
X182118000Y-68316234D01*
X182118000Y-79638766D01*
X182100624Y-79815189D01*
X182050978Y-79978850D01*
X181970362Y-80129672D01*
X181861870Y-80261870D01*
X181729672Y-80370362D01*
X181578850Y-80450978D01*
X181415189Y-80500624D01*
X181238766Y-80518000D01*
X166741234Y-80518000D01*
X166564811Y-80500624D01*
X166401150Y-80450978D01*
X166250328Y-80370362D01*
X166118130Y-80261870D01*
X166009638Y-80129672D01*
X165929022Y-79978850D01*
X165879376Y-79815189D01*
X165862000Y-79638766D01*
X165862000Y-68316234D01*
X165879376Y-68139811D01*
X165929022Y-67976150D01*
X166009638Y-67825328D01*
X166118130Y-67693130D01*
X166250328Y-67584638D01*
X166401150Y-67504022D01*
X166564811Y-67454376D01*
X166741234Y-67437000D01*
X181238766Y-67437000D01*
X181415189Y-67454376D01*
G37*
X181415189Y-67454376D02*
X181578850Y-67504022D01*
X181729672Y-67584638D01*
X181861870Y-67693130D01*
X181970362Y-67825328D01*
X182050978Y-67976150D01*
X182100624Y-68139811D01*
X182118000Y-68316234D01*
X182118000Y-79638766D01*
X182100624Y-79815189D01*
X182050978Y-79978850D01*
X181970362Y-80129672D01*
X181861870Y-80261870D01*
X181729672Y-80370362D01*
X181578850Y-80450978D01*
X181415189Y-80500624D01*
X181238766Y-80518000D01*
X166741234Y-80518000D01*
X166564811Y-80500624D01*
X166401150Y-80450978D01*
X166250328Y-80370362D01*
X166118130Y-80261870D01*
X166009638Y-80129672D01*
X165929022Y-79978850D01*
X165879376Y-79815189D01*
X165862000Y-79638766D01*
X165862000Y-68316234D01*
X165879376Y-68139811D01*
X165929022Y-67976150D01*
X166009638Y-67825328D01*
X166118130Y-67693130D01*
X166250328Y-67584638D01*
X166401150Y-67504022D01*
X166564811Y-67454376D01*
X166741234Y-67437000D01*
X181238766Y-67437000D01*
X181415189Y-67454376D01*
M02*
